<?xml version="1.0" encoding="UTF-8"?>
<svg xmlns="http://www.w3.org/2000/svg"
     xmlns:xlink="http://www.w3.org/1999/xlink"
     width="800" height="400" viewBox="0 0 800 400">
<defs>

</defs>
<rect x="0" y="0" width="800" height="400" fill="#131722"/>
<path d="M1.82 337.71 L5.47 334.29 L9.12 339.23 L12.78 335.94 L16.43 338.66 L20.07 335.62 L23.72 336.02 L27.38 333.35 L31.02 331.30 L34.67 329.13 L38.32 324.51 L41.98 322.97 L45.62 315.67 L49.27 314.28 L52.92 304.79 L56.57 303.54 L60.23 291.88 L63.88 290.90 L67.52 294.76 L71.17 294.18 L74.83 290.88 L78.47 297.89 L82.12 291.37 L85.77 296.56 L89.42 290.04 L93.08 293.28 L96.72 286.90 L100.38 288.10 L104.02 281.97 L107.67 281.02 L111.33 275.29 L114.97 272.08 L118.62 266.88 L122.27 261.30 L125.92 256.77 L129.57 248.72 L133.22 245.00 L136.88 234.37 L140.53 230.73 L144.17 218.28 L147.82 214.98 L151.47 200.48 L155.12 197.67 L158.78 198.81 L162.42 196.62 L166.07 191.29 L169.72 196.05 L173.38 188.00 L177.03 191.08 L180.67 183.26 L184.32 184.56 L187.97 177.11 L191.62 176.51 L195.28 169.58 L198.92 166.99 L202.57 160.70 L206.22 156.02 L209.88 150.51 L213.53 143.63 L217.17 139.05 L220.82 129.87 L224.47 126.35 L228.12 114.76 L231.78 111.32 L235.42 98.34 L239.07 95.50 L242.72 98.44 L246.38 96.34 L250.03 97.29 L253.67 98.59 L257.32 91.28 L260.97 96.36 L264.62 89.39 L268.27 92.95 L271.93 86.46 L275.57 88.39 L279.22 82.51 L282.88 82.71 L286.52 77.57 L290.18 75.92 L293.82 71.66 L297.47 68.06 L301.12 64.80 L304.77 59.13 L308.43 57.01 L312.07 49.17 L315.72 47.67 L319.38 38.18 L323.02 37.34 L326.68 26.18 L330.32 26.13 L333.97 30.98 L337.62 31.85 L341.27 30.14 L344.93 38.94 L348.57 34.58 L352.22 42.03 L355.88 38.16 L359.52 44.15 L363.18 40.89 L366.82 45.29 L370.47 42.77 L374.12 45.47 L377.77 43.81 L381.43 44.69 L385.07 44.00 L388.72 42.92 L392.38 43.33 L396.02 40.18 L399.68 41.80 L403.32 36.46 L406.97 38.49 L410.62 31.73 L414.27 34.47 L417.93 43.80 L421.57 47.37 L425.22 54.85 L428.88 62.10 L432.52 60.75 L436.18 72.32 L439.82 71.33 L443.47 81.46 L447.12 80.95 L450.77 89.51 L454.43 89.59 L458.07 96.45 L461.72 97.22 L465.38 102.25 L469.02 103.83 L472.68 106.88 L476.32 109.38 L479.97 110.33 L483.62 113.85 L487.27 112.56 L490.93 116.76 L494.57 113.54 L498.22 118.23 L501.88 113.23 L505.52 118.53 L509.18 129.42 L512.82 135.43 L516.48 144.27 L520.12 153.56 L523.77 154.19 L527.42 167.05 L531.07 167.92 L534.73 179.12 L538.38 180.32 L542.02 189.72 L545.67 191.37 L549.32 198.82 L552.98 201.01 L556.62 206.38 L560.27 209.22 L563.92 212.38 L567.57 215.96 L571.23 216.77 L574.88 221.20 L578.52 219.51 L582.17 224.21 L585.82 220.59 L589.48 225.61 L593.12 219.95 L596.77 225.41 L600.42 235.39 L604.07 241.37 L607.73 244.49 L611.38 257.85 L615.02 257.95 L618.67 269.52 L622.32 269.69 L625.98 279.35 L629.62 279.69 L633.27 287.30 L636.92 287.92 L640.57 293.34 L644.23 294.35 L647.88 297.46 L651.52 298.97 L655.17 299.63 L658.82 301.74 L662.48 299.82 L666.12 302.65 L669.77 298.02 L673.42 300.72 L677.07 294.21 L680.73 297.12 L684.38 306.17 L688.02 309.40 L691.67 316.09 L695.32 322.46 L698.98 319.96 L702.62 330.03 L706.27 327.41 L709.92 335.52 L713.57 332.89 L717.23 338.94 L720.88 336.42 L724.52 340.28 L728.17 337.99" stroke="#26a69a" stroke-width="3.00" fill="none"/>"
<polyline points="71.17,320.44 74.83,318.10 78.47,316.28 82.12,313.88 85.77,311.91 89.42,309.48 93.08,307.37 96.72,304.91 100.38,302.65 104.02,300.18 107.67,297.77 111.33,295.31 114.97,292.77 118.62,290.33 122.27,287.68 125.92,285.28 129.57,282.54 133.22,280.19 136.88,277.37 140.53,274.17 144.17,270.37 147.82,266.58 151.47,261.71 155.12,257.02 158.78,252.13 162.42,247.46 166.07,242.36 169.72,237.82 173.38,232.82 177.03,228.27 180.67,223.38 184.32,218.85 187.97,214.10 191.62,209.58 195.28,204.99 198.92,200.50 202.57,196.10 206.22,191.65 209.88,187.46 213.53,183.11 217.17,179.14 220.82,174.89 224.47,171.18 228.12,167.04 231.78,162.66 235.42,157.75 239.07,152.96 242.72,148.08 246.38,143.50 250.03,138.81 253.67,134.57 257.32,129.91 260.97,125.87 264.62,121.52 268.27,117.68 271.93,113.66 275.57,110.04 279.22,106.37 282.88,102.98 286.52,99.67 290.18,96.52 293.82,93.61 297.47,90.69 301.12,88.19 304.77,85.58 308.43,83.52 312.07,81.20 315.72,78.66 319.38,75.75 323.02,72.76 326.68,69.14 330.32,65.88 333.97,62.61 337.62,59.73 341.27,56.59 344.93,54.22 348.57,51.53 352.22,49.50 355.88,47.27 359.52,45.60 363.18,43.85 366.82,42.53 370.47,41.27 374.12,40.30 377.77,39.54 381.43,38.92 385.07,38.66 388.72,38.42 392.38,38.68 396.02,38.82 399.68,39.61 403.32,40.12 406.97,40.50 410.62,40.49 414.27,40.71 417.93,40.95 421.57,41.59 425.22,42.23 428.88,43.43 432.52,44.26 436.18,45.83 439.82,47.13 443.47,49.07 447.12,50.84 450.77,53.12 454.43,55.37 458.07,57.99 461.72,60.71 465.38,63.65 469.02,66.84 472.68,70.09 476.32,73.74 479.97,77.33 483.62,81.43 487.27,85.34 490.93,88.99 494.57,92.29 498.22,95.46 501.88,98.02 505.52,100.91 509.18,103.76 512.82,106.97 516.48,110.11 520.12,113.74 523.77,116.98 527.42,120.85 531.07,124.42 534.73,128.52 538.38,132.42 542.02,136.72 545.67,140.94 549.32,145.41 552.98,149.94 556.62,154.57 560.27,159.40 563.92,164.19 567.57,169.31 571.23,174.23 574.88,179.63 578.52,184.68 582.17,189.42 585.82,193.68 589.48,197.75 593.12,201.07 596.77,204.63 600.42,208.04 604.07,211.72 607.73,214.98 611.38,218.86 615.02,222.27 618.67,226.18 622.32,229.72 625.98,233.64 629.62,237.30 633.27,241.21 636.92,244.99 640.57,248.85 644.23,252.73 647.88,256.55 651.52,260.52 655.17,264.29 658.82,268.35 662.48,272.06 666.12,276.19 669.77,279.83 673.42,283.09 677.07,285.73 680.73,288.37 684.38,290.78 688.02,293.35 691.67,295.68 695.32,298.32 698.98,300.35 702.62,302.87 706.27,304.87 709.92,307.26 713.57,309.23 717.23,311.46 720.88,313.41 724.52,315.48 728.17,317.39" stroke="#2196f3" stroke-width="1.00" fill="none"/>"
<polyline points="180.67,275.49 184.32,272.42 187.97,269.28 191.62,266.03 195.28,262.70 198.92,259.27 202.57,255.77 206.22,252.17 209.88,248.51 213.53,244.76 217.17,240.96 220.82,237.06 224.47,233.13 228.12,229.11 231.78,225.05 235.42,220.92 239.07,216.76 242.72,212.89 246.38,209.00 250.03,205.05 253.67,201.14 257.32,197.15 260.97,193.12 264.62,189.08 268.27,185.01 271.93,180.94 275.57,176.84 279.22,172.75 282.88,168.64 286.52,164.56 290.18,160.45 293.82,156.38 297.47,152.30 301.12,148.26 304.77,144.22 308.43,140.22 312.07,136.23 315.72,132.28 319.38,128.36 323.02,124.49 326.68,120.65 330.32,116.87 333.97,113.48 337.62,110.16 341.27,106.79 344.93,103.64 348.57,100.50 352.22,97.42 355.88,94.43 359.52,91.49 363.18,88.64 366.82,85.86 370.47,83.17 374.12,80.55 377.77,78.03 381.43,75.59 385.07,73.25 388.72,70.99 392.38,68.85 396.02,66.78 399.68,64.83 403.32,62.96 406.97,61.21 410.62,59.55 414.27,58.01 417.93,56.92 421.57,55.96 425.22,55.08 428.88,54.40 432.52,53.67 436.18,53.14 439.82,52.74 443.47,52.45 447.12,52.28 450.77,52.21 454.43,52.27 458.07,52.43 461.72,52.73 465.38,53.12 469.02,53.64 472.68,54.26 476.32,55.02 479.97,55.86 483.62,56.84 487.27,57.91 490.93,59.11 494.57,60.39 498.22,61.80 501.88,63.31 505.52,64.93 509.18,66.99 512.82,69.18 516.48,71.45 520.12,73.88 523.77,76.36 527.42,78.92 531.07,81.59 534.73,84.33 538.38,87.18 542.02,90.09 545.67,93.10 549.32,96.17 552.98,99.33 556.62,102.55 560.27,105.86 563.92,109.21 567.57,112.65 571.23,116.13 574.88,119.69 578.52,123.27 582.17,126.92 585.82,130.60 589.48,134.35 593.12,138.11 596.77,141.93 600.42,145.76 604.07,149.64 607.73,153.43 611.38,157.35 615.02,161.29 618.67,165.24 622.32,169.20 625.98,173.16 629.62,177.14 633.27,181.09 636.92,185.06 640.57,189.00 644.23,192.94 647.88,196.84 651.52,200.75 655.17,204.60 658.82,208.45 662.48,212.24 666.12,216.01 669.77,219.72 673.42,223.40 677.07,227.02 680.73,230.59 684.38,234.45 688.02,238.27 691.67,242.00 695.32,245.74 698.98,249.26 702.62,252.79 706.27,256.25 709.92,259.62 713.57,262.92 717.23,266.12 720.88,269.24 724.52,272.25 728.17,275.18" stroke="#ff9800" stroke-width="1.00" fill="none"/>"
<rect x="730.00" y="0.00" width="70.00" height="370.00" fill="#131722"/>"
<line x1="730.00" y1="0.00" x2="730.00" y2="370.00" stroke="#1e222d" stroke-width="1.00"/>"
<line x1="730.00" y1="336.22" x2="734.00" y2="336.22" stroke="#1e222d" stroke-width="1.00"/>"
<text x="736.00" y="336.22" fill="#b2b5be" font-family="sans-serif" font-size="11.0" text-anchor="start" dominant-baseline="central">100</text>
<line x1="730.00" y1="291.71" x2="734.00" y2="291.71" stroke="#1e222d" stroke-width="1.00"/>"
<text x="736.00" y="291.71" fill="#b2b5be" font-family="sans-serif" font-size="11.0" text-anchor="start" dominant-baseline="central">110</text>
<line x1="730.00" y1="247.20" x2="734.00" y2="247.20" stroke="#1e222d" stroke-width="1.00"/>"
<text x="736.00" y="247.20" fill="#b2b5be" font-family="sans-serif" font-size="11.0" text-anchor="start" dominant-baseline="central">120</text>
<line x1="730.00" y1="202.69" x2="734.00" y2="202.69" stroke="#1e222d" stroke-width="1.00"/>"
<text x="736.00" y="202.69" fill="#b2b5be" font-family="sans-serif" font-size="11.0" text-anchor="start" dominant-baseline="central">130</text>
<line x1="730.00" y1="158.18" x2="734.00" y2="158.18" stroke="#1e222d" stroke-width="1.00"/>"
<text x="736.00" y="158.18" fill="#b2b5be" font-family="sans-serif" font-size="11.0" text-anchor="start" dominant-baseline="central">140</text>
<line x1="730.00" y1="113.66" x2="734.00" y2="113.66" stroke="#1e222d" stroke-width="1.00"/>"
<text x="736.00" y="113.66" fill="#b2b5be" font-family="sans-serif" font-size="11.0" text-anchor="start" dominant-baseline="central">150</text>
<line x1="730.00" y1="69.15" x2="734.00" y2="69.15" stroke="#1e222d" stroke-width="1.00"/>"
<text x="736.00" y="69.15" fill="#b2b5be" font-family="sans-serif" font-size="11.0" text-anchor="start" dominant-baseline="central">160</text>
<line x1="730.00" y1="24.64" x2="734.00" y2="24.64" stroke="#1e222d" stroke-width="1.00"/>"
<text x="736.00" y="24.64" fill="#b2b5be" font-family="sans-serif" font-size="11.0" text-anchor="start" dominant-baseline="central">170</text>
<rect x="0.00" y="370.00" width="800.00" height="30.00" fill="#131722"/>"
<line x1="0.00" y1="370.00" x2="730.00" y2="370.00" stroke="#1e222d" stroke-width="1.00"/>"
<line x1="63.88" y1="370.00" x2="63.88" y2="374.00" stroke="#1e222d" stroke-width="1.00"/>"
<text x="63.88" y="376.00" fill="#b2b5be" font-family="sans-serif" font-size="10.0" text-anchor="middle" dominant-baseline="hanging">Dec</text>
<line x1="125.92" y1="370.00" x2="125.92" y2="374.00" stroke="#1e222d" stroke-width="1.00"/>"
<text x="125.92" y="376.00" fill="#b2b5be" font-family="sans-serif" font-size="10.0" text-anchor="middle" dominant-baseline="hanging">5 Dec</text>
<line x1="187.97" y1="370.00" x2="187.97" y2="374.00" stroke="#1e222d" stroke-width="1.00"/>"
<text x="187.97" y="376.00" fill="#b2b5be" font-family="sans-serif" font-size="10.0" text-anchor="middle" dominant-baseline="hanging">2024</text>
<line x1="250.03" y1="370.00" x2="250.03" y2="374.00" stroke="#1e222d" stroke-width="1.00"/>"
<text x="250.03" y="376.00" fill="#b2b5be" font-family="sans-serif" font-size="10.0" text-anchor="middle" dominant-baseline="hanging">Feb</text>
<line x1="312.07" y1="370.00" x2="312.07" y2="374.00" stroke="#1e222d" stroke-width="1.00"/>"
<text x="312.07" y="376.00" fill="#b2b5be" font-family="sans-serif" font-size="10.0" text-anchor="middle" dominant-baseline="hanging">21 Feb</text>
<line x1="374.12" y1="370.00" x2="374.12" y2="374.00" stroke="#1e222d" stroke-width="1.00"/>"
<text x="374.12" y="376.00" fill="#b2b5be" font-family="sans-serif" font-size="10.0" text-anchor="middle" dominant-baseline="hanging">Mar</text>
<line x1="436.18" y1="370.00" x2="436.18" y2="374.00" stroke="#1e222d" stroke-width="1.00"/>"
<text x="436.18" y="376.00" fill="#b2b5be" font-family="sans-serif" font-size="10.0" text-anchor="middle" dominant-baseline="hanging">25 Mar</text>
<line x1="498.22" y1="370.00" x2="498.22" y2="374.00" stroke="#1e222d" stroke-width="1.00"/>"
<text x="498.22" y="376.00" fill="#b2b5be" font-family="sans-serif" font-size="10.0" text-anchor="middle" dominant-baseline="hanging">Apr</text>
<line x1="560.27" y1="370.00" x2="560.27" y2="374.00" stroke="#1e222d" stroke-width="1.00"/>"
<text x="560.27" y="376.00" fill="#b2b5be" font-family="sans-serif" font-size="10.0" text-anchor="middle" dominant-baseline="hanging">29 Apr</text>
<line x1="622.32" y1="370.00" x2="622.32" y2="374.00" stroke="#1e222d" stroke-width="1.00"/>"
<text x="622.32" y="376.00" fill="#b2b5be" font-family="sans-serif" font-size="10.0" text-anchor="middle" dominant-baseline="hanging">May</text>
<line x1="684.38" y1="370.00" x2="684.38" y2="374.00" stroke="#1e222d" stroke-width="1.00"/>"
<text x="684.38" y="376.00" fill="#b2b5be" font-family="sans-serif" font-size="10.0" text-anchor="middle" dominant-baseline="hanging">Jun</text>
</svg>
