<?xml version="1.0" encoding="UTF-8"?>
<svg xmlns="http://www.w3.org/2000/svg"
     xmlns:xlink="http://www.w3.org/1999/xlink"
     width="800" height="400" viewBox="0 0 800 400">
<defs>

</defs>
<rect x="0" y="0" width="800" height="400" fill="#131722"/>
<line x1="1.50" y1="325.50" x2="1.50" y2="338.50" stroke="#ef5350" stroke-width="1.00"/>"
<rect x="0.00" y="333.00" width="3.00" height="3.00" fill="#ef5350"/>"
<line x1="5.50" y1="326.50" x2="5.50" y2="348.50" stroke="#26a69a" stroke-width="1.00"/>"
<rect x="3.00" y="333.00" width="3.00" height="5.00" fill="#26a69a"/>"
<line x1="9.50" y1="327.50" x2="9.50" y2="340.50" stroke="#ef5350" stroke-width="1.00"/>"
<rect x="7.00" y="334.00" width="3.00" height="3.00" fill="#ef5350"/>"
<line x1="12.50" y1="327.50" x2="12.50" y2="349.50" stroke="#26a69a" stroke-width="1.00"/>"
<rect x="11.00" y="334.00" width="3.00" height="6.00" fill="#26a69a"/>"
<line x1="16.50" y1="326.50" x2="16.50" y2="341.50" stroke="#ef5350" stroke-width="1.00"/>"
<rect x="14.00" y="333.00" width="3.00" height="4.00" fill="#ef5350"/>"
<line x1="20.50" y1="325.50" x2="20.50" y2="349.50" stroke="#26a69a" stroke-width="1.00"/>"
<rect x="18.00" y="334.00" width="3.00" height="5.00" fill="#26a69a"/>"
<line x1="23.50" y1="324.50" x2="23.50" y2="339.50" stroke="#ef5350" stroke-width="1.00"/>"
<rect x="22.00" y="331.00" width="3.00" height="3.00" fill="#ef5350"/>"
<line x1="27.50" y1="322.50" x2="27.50" y2="346.50" stroke="#26a69a" stroke-width="1.00"/>"
<rect x="25.00" y="332.00" width="3.00" height="5.00" fill="#26a69a"/>"
<line x1="31.50" y1="319.50" x2="31.50" y2="335.50" stroke="#ef5350" stroke-width="1.00"/>"
<rect x="29.00" y="326.00" width="3.00" height="4.00" fill="#ef5350"/>"
<line x1="34.50" y1="316.50" x2="34.50" y2="341.50" stroke="#26a69a" stroke-width="1.00"/>"
<rect x="33.00" y="327.00" width="3.00" height="12.00" fill="#26a69a"/>"
<line x1="38.50" y1="313.50" x2="38.50" y2="329.50" stroke="#ef5350" stroke-width="1.00"/>"
<rect x="36.00" y="316.00" width="3.00" height="7.00" fill="#ef5350"/>"
<line x1="41.50" y1="309.50" x2="41.50" y2="334.50" stroke="#26a69a" stroke-width="1.00"/>"
<rect x="40.00" y="321.00" width="3.00" height="10.00" fill="#26a69a"/>"
<line x1="45.50" y1="304.50" x2="45.50" y2="322.50" stroke="#ef5350" stroke-width="1.00"/>"
<rect x="44.00" y="309.00" width="3.00" height="5.00" fill="#ef5350"/>"
<line x1="49.50" y1="308.50" x2="49.50" y2="317.50" stroke="#26a69a" stroke-width="1.00"/>"
<rect x="47.00" y="313.00" width="3.00" height="2.00" fill="#26a69a"/>"
<line x1="52.50" y1="294.50" x2="52.50" y2="312.50" stroke="#ef5350" stroke-width="1.00"/>"
<rect x="51.00" y="299.00" width="3.00" height="5.00" fill="#ef5350"/>"
<line x1="56.50" y1="297.50" x2="56.50" y2="306.50" stroke="#26a69a" stroke-width="1.00"/>"
<rect x="55.00" y="302.00" width="3.00" height="2.00" fill="#26a69a"/>"
<line x1="60.50" y1="282.50" x2="60.50" y2="300.50" stroke="#ef5350" stroke-width="1.00"/>"
<rect x="58.00" y="288.00" width="3.00" height="3.00" fill="#ef5350"/>"
<line x1="63.50" y1="283.50" x2="63.50" y2="294.50" stroke="#26a69a" stroke-width="1.00"/>"
<rect x="62.00" y="290.00" width="3.00" height="1.00" fill="#26a69a"/>"
<line x1="67.50" y1="285.50" x2="67.50" y2="304.50" stroke="#ef5350" stroke-width="1.00"/>"
<rect x="66.00" y="292.00" width="3.00" height="2.00" fill="#ef5350"/>"
<line x1="71.50" y1="286.50" x2="71.50" y2="297.50" stroke="#26a69a" stroke-width="1.00"/>"
<rect x="69.00" y="293.00" width="3.00" height="1.00" fill="#26a69a"/>"
<line x1="74.50" y1="286.50" x2="74.50" y2="306.50" stroke="#26a69a" stroke-width="1.00"/>"
<rect x="73.00" y="290.00" width="3.00" height="5.00" fill="#26a69a"/>"
<line x1="78.50" y1="286.50" x2="78.50" y2="298.50" stroke="#ef5350" stroke-width="1.00"/>"
<rect x="76.00" y="294.00" width="3.00" height="3.00" fill="#ef5350"/>"
<line x1="82.50" y1="286.50" x2="82.50" y2="307.50" stroke="#26a69a" stroke-width="1.00"/>"
<rect x="80.00" y="290.00" width="3.00" height="5.00" fill="#26a69a"/>"
<line x1="85.50" y1="285.50" x2="85.50" y2="297.50" stroke="#ef5350" stroke-width="1.00"/>"
<rect x="84.00" y="292.00" width="3.00" height="3.00" fill="#ef5350"/>"
<line x1="89.50" y1="283.50" x2="89.50" y2="305.50" stroke="#26a69a" stroke-width="1.00"/>"
<rect x="87.00" y="289.00" width="3.00" height="5.00" fill="#26a69a"/>"
<line x1="93.50" y1="282.50" x2="93.50" y2="295.50" stroke="#ef5350" stroke-width="1.00"/>"
<rect x="91.00" y="289.00" width="3.00" height="3.00" fill="#ef5350"/>"
<line x1="96.50" y1="279.50" x2="96.50" y2="302.50" stroke="#26a69a" stroke-width="1.00"/>"
<rect x="95.00" y="286.00" width="3.00" height="5.00" fill="#26a69a"/>"
<line x1="100.50" y1="276.50" x2="100.50" y2="290.50" stroke="#ef5350" stroke-width="1.00"/>"
<rect x="98.00" y="284.00" width="3.00" height="3.00" fill="#ef5350"/>"
<line x1="104.50" y1="273.50" x2="104.50" y2="296.50" stroke="#26a69a" stroke-width="1.00"/>"
<rect x="102.00" y="281.00" width="3.00" height="6.00" fill="#26a69a"/>"
<line x1="107.50" y1="270.50" x2="107.50" y2="284.50" stroke="#ef5350" stroke-width="1.00"/>"
<rect x="106.00" y="277.00" width="3.00" height="3.00" fill="#ef5350"/>"
<line x1="111.50" y1="265.50" x2="111.50" y2="289.50" stroke="#26a69a" stroke-width="1.00"/>"
<rect x="109.00" y="275.00" width="3.00" height="5.00" fill="#26a69a"/>"
<line x1="114.50" y1="261.50" x2="114.50" y2="276.50" stroke="#ef5350" stroke-width="1.00"/>"
<rect x="113.00" y="268.00" width="3.00" height="3.00" fill="#ef5350"/>"
<line x1="118.50" y1="256.50" x2="118.50" y2="280.50" stroke="#26a69a" stroke-width="1.00"/>"
<rect x="117.00" y="266.00" width="3.00" height="6.00" fill="#26a69a"/>"
<line x1="122.50" y1="250.50" x2="122.50" y2="267.50" stroke="#ef5350" stroke-width="1.00"/>"
<rect x="120.00" y="253.00" width="3.00" height="8.00" fill="#ef5350"/>"
<line x1="125.50" y1="245.50" x2="125.50" y2="270.50" stroke="#26a69a" stroke-width="1.00"/>"
<rect x="124.00" y="256.00" width="3.00" height="11.00" fill="#26a69a"/>"
<line x1="129.50" y1="238.50" x2="129.50" y2="255.50" stroke="#ef5350" stroke-width="1.00"/>"
<rect x="128.00" y="242.00" width="3.00" height="6.00" fill="#ef5350"/>"
<line x1="133.50" y1="232.50" x2="133.50" y2="258.50" stroke="#26a69a" stroke-width="1.00"/>"
<rect x="131.00" y="245.00" width="3.00" height="8.00" fill="#26a69a"/>"
<line x1="136.50" y1="224.50" x2="136.50" y2="242.50" stroke="#ef5350" stroke-width="1.00"/>"
<rect x="135.00" y="229.00" width="3.00" height="5.00" fill="#ef5350"/>"
<line x1="140.50" y1="226.50" x2="140.50" y2="235.50" stroke="#26a69a" stroke-width="1.00"/>"
<rect x="139.00" y="231.00" width="3.00" height="2.00" fill="#26a69a"/>"
<line x1="144.50" y1="209.50" x2="144.50" y2="227.50" stroke="#ef5350" stroke-width="1.00"/>"
<rect x="142.00" y="215.00" width="3.00" height="3.00" fill="#ef5350"/>"
<line x1="147.50" y1="209.50" x2="147.50" y2="219.50" stroke="#26a69a" stroke-width="1.00"/>"
<rect x="146.00" y="215.00" width="3.00" height="2.00" fill="#26a69a"/>"
<line x1="151.50" y1="192.50" x2="151.50" y2="211.50" stroke="#ef5350" stroke-width="1.00"/>"
<rect x="149.00" y="199.00" width="3.00" height="2.00" fill="#ef5350"/>"
<line x1="155.50" y1="192.50" x2="155.50" y2="202.50" stroke="#26a69a" stroke-width="1.00"/>"
<rect x="153.00" y="198.00" width="3.00" height="1.00" fill="#26a69a"/>"
<line x1="158.50" y1="191.50" x2="158.50" y2="210.50" stroke="#ef5350" stroke-width="1.00"/>"
<rect x="157.00" y="198.00" width="3.00" height="1.00" fill="#ef5350"/>"
<line x1="162.50" y1="190.50" x2="162.50" y2="201.50" stroke="#26a69a" stroke-width="1.00"/>"
<rect x="160.00" y="197.00" width="3.00" height="1.00" fill="#26a69a"/>"
<line x1="166.50" y1="188.50" x2="166.50" y2="208.50" stroke="#26a69a" stroke-width="1.00"/>"
<rect x="164.00" y="192.00" width="3.00" height="5.00" fill="#26a69a"/>"
<line x1="169.50" y1="186.50" x2="169.50" y2="198.50" stroke="#ef5350" stroke-width="1.00"/>"
<rect x="168.00" y="194.00" width="3.00" height="3.00" fill="#ef5350"/>"
<line x1="173.50" y1="184.50" x2="173.50" y2="205.50" stroke="#26a69a" stroke-width="1.00"/>"
<rect x="171.00" y="189.00" width="3.00" height="5.00" fill="#26a69a"/>"
<line x1="177.50" y1="181.50" x2="177.50" y2="194.50" stroke="#ef5350" stroke-width="1.00"/>"
<rect x="175.00" y="189.00" width="3.00" height="3.00" fill="#ef5350"/>"
<line x1="180.50" y1="178.50" x2="180.50" y2="200.50" stroke="#26a69a" stroke-width="1.00"/>"
<rect x="179.00" y="184.00" width="3.00" height="5.00" fill="#26a69a"/>"
<line x1="184.50" y1="175.50" x2="184.50" y2="188.50" stroke="#ef5350" stroke-width="1.00"/>"
<rect x="182.00" y="182.00" width="3.00" height="3.00" fill="#ef5350"/>"
<line x1="187.50" y1="171.50" x2="187.50" y2="193.50" stroke="#26a69a" stroke-width="1.00"/>"
<rect x="186.00" y="178.00" width="3.00" height="5.00" fill="#26a69a"/>"
<line x1="191.50" y1="167.50" x2="191.50" y2="181.50" stroke="#ef5350" stroke-width="1.00"/>"
<rect x="190.00" y="174.00" width="3.00" height="3.00" fill="#ef5350"/>"
<line x1="195.50" y1="162.50" x2="195.50" y2="186.50" stroke="#26a69a" stroke-width="1.00"/>"
<rect x="193.00" y="171.00" width="3.00" height="5.00" fill="#26a69a"/>"
<line x1="198.50" y1="157.50" x2="198.50" y2="172.50" stroke="#ef5350" stroke-width="1.00"/>"
<rect x="197.00" y="164.00" width="3.00" height="4.00" fill="#ef5350"/>"
<line x1="202.50" y1="152.50" x2="202.50" y2="176.50" stroke="#26a69a" stroke-width="1.00"/>"
<rect x="201.00" y="162.00" width="3.00" height="6.00" fill="#26a69a"/>"
<line x1="206.50" y1="147.50" x2="206.50" y2="162.50" stroke="#ef5350" stroke-width="1.00"/>"
<rect x="204.00" y="154.00" width="3.00" height="3.00" fill="#ef5350"/>"
<line x1="209.50" y1="141.50" x2="209.50" y2="166.50" stroke="#26a69a" stroke-width="1.00"/>"
<rect x="208.00" y="152.00" width="3.00" height="11.00" fill="#26a69a"/>"
<line x1="213.50" y1="135.50" x2="213.50" y2="151.50" stroke="#ef5350" stroke-width="1.00"/>"
<rect x="212.00" y="138.00" width="3.00" height="7.00" fill="#ef5350"/>"
<line x1="217.50" y1="128.50" x2="217.50" y2="154.50" stroke="#26a69a" stroke-width="1.00"/>"
<rect x="215.00" y="141.00" width="3.00" height="9.00" fill="#26a69a"/>"
<line x1="220.50" y1="122.50" x2="220.50" y2="139.50" stroke="#ef5350" stroke-width="1.00"/>"
<rect x="219.00" y="126.00" width="3.00" height="6.00" fill="#ef5350"/>"
<line x1="224.50" y1="114.50" x2="224.50" y2="141.50" stroke="#26a69a" stroke-width="1.00"/>"
<rect x="222.00" y="128.00" width="3.00" height="8.00" fill="#26a69a"/>"
<line x1="228.50" y1="107.50" x2="228.50" y2="125.50" stroke="#ef5350" stroke-width="1.00"/>"
<rect x="226.00" y="112.00" width="3.00" height="5.00" fill="#ef5350"/>"
<line x1="231.50" y1="108.50" x2="231.50" y2="117.50" stroke="#26a69a" stroke-width="1.00"/>"
<rect x="230.00" y="113.00" width="3.00" height="2.00" fill="#26a69a"/>"
<line x1="235.50" y1="91.50" x2="235.50" y2="110.50" stroke="#ef5350" stroke-width="1.00"/>"
<rect x="233.00" y="97.00" width="3.00" height="4.00" fill="#ef5350"/>"
<line x1="239.50" y1="92.50" x2="239.50" y2="102.50" stroke="#26a69a" stroke-width="1.00"/>"
<rect x="237.00" y="98.00" width="3.00" height="1.00" fill="#26a69a"/>"
<line x1="242.50" y1="92.50" x2="242.50" y2="111.50" stroke="#ef5350" stroke-width="1.00"/>"
<rect x="241.00" y="99.00" width="3.00" height="2.00" fill="#ef5350"/>"
<line x1="246.50" y1="92.50" x2="246.50" y2="102.50" stroke="#26a69a" stroke-width="1.00"/>"
<rect x="244.00" y="99.00" width="3.00" height="1.00" fill="#26a69a"/>"
<line x1="250.50" y1="91.50" x2="250.50" y2="111.50" stroke="#ef5350" stroke-width="1.00"/>"
<rect x="248.00" y="99.00" width="3.00" height="1.00" fill="#ef5350"/>"
<line x1="253.50" y1="90.50" x2="253.50" y2="102.50" stroke="#ef5350" stroke-width="1.00"/>"
<rect x="252.00" y="98.00" width="3.00" height="3.00" fill="#ef5350"/>"
<line x1="257.50" y1="89.50" x2="257.50" y2="110.50" stroke="#26a69a" stroke-width="1.00"/>"
<rect x="255.00" y="94.00" width="3.00" height="5.00" fill="#26a69a"/>"
<line x1="260.50" y1="88.50" x2="260.50" y2="100.50" stroke="#ef5350" stroke-width="1.00"/>"
<rect x="259.00" y="96.00" width="3.00" height="3.00" fill="#ef5350"/>"
<line x1="264.50" y1="86.50" x2="264.50" y2="108.50" stroke="#26a69a" stroke-width="1.00"/>"
<rect x="263.00" y="92.00" width="3.00" height="5.00" fill="#26a69a"/>"
<line x1="268.50" y1="85.50" x2="268.50" y2="98.50" stroke="#ef5350" stroke-width="1.00"/>"
<rect x="266.00" y="92.00" width="3.00" height="3.00" fill="#ef5350"/>"
<line x1="271.50" y1="82.50" x2="271.50" y2="105.50" stroke="#26a69a" stroke-width="1.00"/>"
<rect x="270.00" y="89.00" width="3.00" height="5.00" fill="#26a69a"/>"
<line x1="275.50" y1="80.50" x2="275.50" y2="94.50" stroke="#ef5350" stroke-width="1.00"/>"
<rect x="274.00" y="87.00" width="3.00" height="4.00" fill="#ef5350"/>"
<line x1="279.50" y1="77.50" x2="279.50" y2="100.50" stroke="#26a69a" stroke-width="1.00"/>"
<rect x="277.00" y="85.00" width="3.00" height="5.00" fill="#26a69a"/>"
<line x1="282.50" y1="75.50" x2="282.50" y2="89.50" stroke="#ef5350" stroke-width="1.00"/>"
<rect x="281.00" y="82.00" width="3.00" height="3.00" fill="#ef5350"/>"
<line x1="286.50" y1="71.50" x2="286.50" y2="95.50" stroke="#26a69a" stroke-width="1.00"/>"
<rect x="285.00" y="80.00" width="3.00" height="6.00" fill="#26a69a"/>"
<line x1="290.50" y1="68.50" x2="290.50" y2="83.50" stroke="#ef5350" stroke-width="1.00"/>"
<rect x="288.00" y="75.00" width="3.00" height="4.00" fill="#ef5350"/>"
<line x1="293.50" y1="64.50" x2="293.50" y2="89.50" stroke="#26a69a" stroke-width="1.00"/>"
<rect x="292.00" y="74.00" width="3.00" height="6.00" fill="#26a69a"/>"
<line x1="297.50" y1="60.50" x2="297.50" y2="76.50" stroke="#ef5350" stroke-width="1.00"/>"
<rect x="295.00" y="67.00" width="3.00" height="4.00" fill="#ef5350"/>"
<line x1="301.50" y1="56.50" x2="301.50" y2="81.50" stroke="#26a69a" stroke-width="1.00"/>"
<rect x="299.00" y="68.00" width="3.00" height="11.00" fill="#26a69a"/>"
<line x1="304.50" y1="52.50" x2="304.50" y2="68.50" stroke="#ef5350" stroke-width="1.00"/>"
<rect x="303.00" y="55.00" width="3.00" height="7.00" fill="#ef5350"/>"
<line x1="308.50" y1="47.50" x2="308.50" y2="73.50" stroke="#26a69a" stroke-width="1.00"/>"
<rect x="306.00" y="60.00" width="3.00" height="9.00" fill="#26a69a"/>"
<line x1="312.50" y1="42.50" x2="312.50" y2="60.50" stroke="#ef5350" stroke-width="1.00"/>"
<rect x="310.00" y="47.00" width="3.00" height="5.00" fill="#ef5350"/>"
<line x1="315.50" y1="46.50" x2="315.50" y2="55.50" stroke="#26a69a" stroke-width="1.00"/>"
<rect x="314.00" y="51.00" width="3.00" height="2.00" fill="#26a69a"/>"
<line x1="319.50" y1="32.50" x2="319.50" y2="50.50" stroke="#ef5350" stroke-width="1.00"/>"
<rect x="317.00" y="37.00" width="3.00" height="4.00" fill="#ef5350"/>"
<line x1="323.50" y1="35.50" x2="323.50" y2="45.50" stroke="#26a69a" stroke-width="1.00"/>"
<rect x="321.00" y="41.00" width="3.00" height="1.00" fill="#26a69a"/>"
<line x1="326.50" y1="20.50" x2="326.50" y2="39.50" stroke="#ef5350" stroke-width="1.00"/>"
<rect x="325.00" y="27.00" width="3.00" height="3.00" fill="#ef5350"/>"
<line x1="330.50" y1="23.50" x2="330.50" y2="34.50" stroke="#26a69a" stroke-width="1.00"/>"
<rect x="328.00" y="30.00" width="3.00" height="1.00" fill="#26a69a"/>"
<line x1="333.50" y1="26.50" x2="333.50" y2="45.50" stroke="#ef5350" stroke-width="1.00"/>"
<rect x="332.00" y="33.00" width="3.00" height="1.00" fill="#ef5350"/>"
<line x1="337.50" y1="28.50" x2="337.50" y2="39.50" stroke="#26a69a" stroke-width="1.00"/>"
<rect x="336.00" y="35.00" width="3.00" height="1.00" fill="#26a69a"/>"
<line x1="341.50" y1="30.50" x2="341.50" y2="50.50" stroke="#26a69a" stroke-width="1.00"/>"
<rect x="339.00" y="33.00" width="3.00" height="5.00" fill="#26a69a"/>"
<line x1="344.50" y1="32.50" x2="344.50" y2="43.50" stroke="#ef5350" stroke-width="1.00"/>"
<rect x="343.00" y="39.00" width="3.00" height="3.00" fill="#ef5350"/>"
<line x1="348.50" y1="33.50" x2="348.50" y2="54.50" stroke="#26a69a" stroke-width="1.00"/>"
<rect x="347.00" y="38.00" width="3.00" height="5.00" fill="#26a69a"/>"
<line x1="352.50" y1="35.50" x2="352.50" y2="47.50" stroke="#ef5350" stroke-width="1.00"/>"
<rect x="350.00" y="42.00" width="3.00" height="3.00" fill="#ef5350"/>"
<line x1="355.50" y1="36.50" x2="355.50" y2="57.50" stroke="#26a69a" stroke-width="1.00"/>"
<rect x="354.00" y="41.00" width="3.00" height="6.00" fill="#26a69a"/>"
<line x1="359.50" y1="37.50" x2="359.50" y2="50.50" stroke="#ef5350" stroke-width="1.00"/>"
<rect x="358.00" y="44.00" width="3.00" height="3.00" fill="#ef5350"/>"
<line x1="363.50" y1="37.50" x2="363.50" y2="60.50" stroke="#26a69a" stroke-width="1.00"/>"
<rect x="361.00" y="44.00" width="3.00" height="5.00" fill="#26a69a"/>"
<line x1="366.50" y1="38.50" x2="366.50" y2="52.50" stroke="#ef5350" stroke-width="1.00"/>"
<rect x="365.00" y="45.00" width="3.00" height="3.00" fill="#ef5350"/>"
<line x1="370.50" y1="38.50" x2="370.50" y2="61.50" stroke="#26a69a" stroke-width="1.00"/>"
<rect x="368.00" y="46.00" width="3.00" height="5.00" fill="#26a69a"/>"
<line x1="374.50" y1="38.50" x2="374.50" y2="53.50" stroke="#ef5350" stroke-width="1.00"/>"
<rect x="372.00" y="45.00" width="3.00" height="4.00" fill="#ef5350"/>"
<line x1="377.50" y1="38.50" x2="377.50" y2="62.50" stroke="#26a69a" stroke-width="1.00"/>"
<rect x="376.00" y="47.00" width="3.00" height="6.00" fill="#26a69a"/>"
<line x1="381.50" y1="37.50" x2="381.50" y2="53.50" stroke="#ef5350" stroke-width="1.00"/>"
<rect x="379.00" y="44.00" width="3.00" height="4.00" fill="#ef5350"/>"
<line x1="385.50" y1="37.50" x2="385.50" y2="61.50" stroke="#26a69a" stroke-width="1.00"/>"
<rect x="383.00" y="47.00" width="3.00" height="6.00" fill="#26a69a"/>"
<line x1="388.50" y1="36.50" x2="388.50" y2="52.50" stroke="#ef5350" stroke-width="1.00"/>"
<rect x="387.00" y="39.00" width="3.00" height="7.00" fill="#ef5350"/>"
<line x1="392.50" y1="35.50" x2="392.50" y2="60.50" stroke="#26a69a" stroke-width="1.00"/>"
<rect x="390.00" y="46.00" width="3.00" height="11.00" fill="#26a69a"/>"
<line x1="396.50" y1="33.50" x2="396.50" y2="50.50" stroke="#ef5350" stroke-width="1.00"/>"
<rect x="394.00" y="37.00" width="3.00" height="6.00" fill="#ef5350"/>"
<line x1="399.50" y1="32.50" x2="399.50" y2="58.50" stroke="#26a69a" stroke-width="1.00"/>"
<rect x="398.00" y="45.00" width="3.00" height="9.00" fill="#26a69a"/>"
<line x1="403.50" y1="30.50" x2="403.50" y2="48.50" stroke="#ef5350" stroke-width="1.00"/>"
<rect x="401.00" y="35.00" width="3.00" height="5.00" fill="#ef5350"/>"
<line x1="406.50" y1="37.50" x2="406.50" y2="46.50" stroke="#26a69a" stroke-width="1.00"/>"
<rect x="405.00" y="42.00" width="3.00" height="2.00" fill="#26a69a"/>"
<line x1="410.50" y1="26.50" x2="410.50" y2="44.50" stroke="#ef5350" stroke-width="1.00"/>"
<rect x="409.00" y="31.00" width="3.00" height="4.00" fill="#ef5350"/>"
<line x1="414.50" y1="32.50" x2="414.50" y2="42.50" stroke="#26a69a" stroke-width="1.00"/>"
<rect x="412.00" y="38.00" width="3.00" height="1.00" fill="#26a69a"/>"
<line x1="417.50" y1="38.50" x2="417.50" y2="57.50" stroke="#ef5350" stroke-width="1.00"/>"
<rect x="416.00" y="45.00" width="3.00" height="2.00" fill="#ef5350"/>"
<line x1="421.50" y1="44.50" x2="421.50" y2="54.50" stroke="#26a69a" stroke-width="1.00"/>"
<rect x="420.00" y="50.00" width="3.00" height="1.00" fill="#26a69a"/>"
<line x1="425.50" y1="49.50" x2="425.50" y2="69.50" stroke="#ef5350" stroke-width="1.00"/>"
<rect x="423.00" y="57.00" width="3.00" height="1.00" fill="#ef5350"/>"
<line x1="428.50" y1="55.50" x2="428.50" y2="66.50" stroke="#ef5350" stroke-width="1.00"/>"
<rect x="427.00" y="62.00" width="3.00" height="3.00" fill="#ef5350"/>"
<line x1="432.50" y1="60.50" x2="432.50" y2="80.50" stroke="#26a69a" stroke-width="1.00"/>"
<rect x="431.00" y="64.00" width="3.00" height="4.00" fill="#26a69a"/>"
<line x1="436.50" y1="64.50" x2="436.50" y2="77.50" stroke="#ef5350" stroke-width="1.00"/>"
<rect x="434.00" y="72.00" width="3.00" height="3.00" fill="#ef5350"/>"
<line x1="439.50" y1="69.50" x2="439.50" y2="90.50" stroke="#26a69a" stroke-width="1.00"/>"
<rect x="438.00" y="74.00" width="3.00" height="5.00" fill="#26a69a"/>"
<line x1="443.50" y1="73.50" x2="443.50" y2="86.50" stroke="#ef5350" stroke-width="1.00"/>"
<rect x="441.00" y="81.00" width="3.00" height="3.00" fill="#ef5350"/>"
<line x1="447.50" y1="77.50" x2="447.50" y2="99.50" stroke="#26a69a" stroke-width="1.00"/>"
<rect x="445.00" y="83.00" width="3.00" height="6.00" fill="#26a69a"/>"
<line x1="450.50" y1="81.50" x2="450.50" y2="95.50" stroke="#ef5350" stroke-width="1.00"/>"
<rect x="449.00" y="89.00" width="3.00" height="3.00" fill="#ef5350"/>"
<line x1="454.50" y1="85.50" x2="454.50" y2="107.50" stroke="#26a69a" stroke-width="1.00"/>"
<rect x="452.00" y="92.00" width="3.00" height="5.00" fill="#26a69a"/>"
<line x1="458.50" y1="88.50" x2="458.50" y2="102.50" stroke="#ef5350" stroke-width="1.00"/>"
<rect x="456.00" y="95.00" width="3.00" height="4.00" fill="#ef5350"/>"
<line x1="461.50" y1="91.50" x2="461.50" y2="114.50" stroke="#26a69a" stroke-width="1.00"/>"
<rect x="460.00" y="99.00" width="3.00" height="6.00" fill="#26a69a"/>"
<line x1="465.50" y1="94.50" x2="465.50" y2="109.50" stroke="#ef5350" stroke-width="1.00"/>"
<rect x="463.00" y="101.00" width="3.00" height="3.00" fill="#ef5350"/>"
<line x1="469.50" y1="96.50" x2="469.50" y2="120.50" stroke="#26a69a" stroke-width="1.00"/>"
<rect x="467.00" y="106.00" width="3.00" height="6.00" fill="#26a69a"/>"
<line x1="472.50" y1="98.50" x2="472.50" y2="114.50" stroke="#ef5350" stroke-width="1.00"/>"
<rect x="471.00" y="105.00" width="3.00" height="4.00" fill="#ef5350"/>"
<line x1="476.50" y1="100.50" x2="476.50" y2="125.50" stroke="#26a69a" stroke-width="1.00"/>"
<rect x="474.00" y="111.00" width="3.00" height="12.00" fill="#26a69a"/>"
<line x1="479.50" y1="102.50" x2="479.50" y2="119.50" stroke="#ef5350" stroke-width="1.00"/>"
<rect x="478.00" y="105.00" width="3.00" height="7.00" fill="#ef5350"/>"
<line x1="483.50" y1="103.50" x2="483.50" y2="129.50" stroke="#26a69a" stroke-width="1.00"/>"
<rect x="482.00" y="116.00" width="3.00" height="10.00" fill="#26a69a"/>"
<line x1="487.50" y1="105.50" x2="487.50" y2="122.50" stroke="#ef5350" stroke-width="1.00"/>"
<rect x="485.00" y="109.00" width="3.00" height="6.00" fill="#ef5350"/>"
<line x1="490.50" y1="114.50" x2="490.50" y2="123.50" stroke="#26a69a" stroke-width="1.00"/>"
<rect x="489.00" y="119.00" width="3.00" height="2.00" fill="#26a69a"/>"
<line x1="494.50" y1="106.50" x2="494.50" y2="124.50" stroke="#ef5350" stroke-width="1.00"/>"
<rect x="493.00" y="111.00" width="3.00" height="4.00" fill="#ef5350"/>"
<line x1="498.50" y1="115.50" x2="498.50" y2="124.50" stroke="#26a69a" stroke-width="1.00"/>"
<rect x="496.00" y="120.00" width="3.00" height="2.00" fill="#26a69a"/>"
<line x1="501.50" y1="106.50" x2="501.50" y2="124.50" stroke="#ef5350" stroke-width="1.00"/>"
<rect x="500.00" y="112.00" width="3.00" height="3.00" fill="#ef5350"/>"
<line x1="505.50" y1="114.50" x2="505.50" y2="124.50" stroke="#26a69a" stroke-width="1.00"/>"
<rect x="504.00" y="120.00" width="3.00" height="2.00" fill="#26a69a"/>"
<line x1="509.50" y1="122.50" x2="509.50" y2="142.50" stroke="#ef5350" stroke-width="1.00"/>"
<rect x="507.00" y="129.00" width="3.00" height="2.00" fill="#ef5350"/>"
<line x1="512.50" y1="130.50" x2="512.50" y2="141.50" stroke="#26a69a" stroke-width="1.00"/>"
<rect x="511.00" y="137.00" width="3.00" height="1.00" fill="#26a69a"/>"
<line x1="516.50" y1="137.50" x2="516.50" y2="157.50" stroke="#ef5350" stroke-width="1.00"/>"
<rect x="514.00" y="145.00" width="3.00" height="1.00" fill="#ef5350"/>"
<line x1="520.50" y1="144.50" x2="520.50" y2="156.50" stroke="#ef5350" stroke-width="1.00"/>"
<rect x="518.00" y="152.00" width="3.00" height="3.00" fill="#ef5350"/>"
<line x1="523.50" y1="151.50" x2="523.50" y2="172.50" stroke="#26a69a" stroke-width="1.00"/>"
<rect x="522.00" y="155.00" width="3.00" height="5.00" fill="#26a69a"/>"
<line x1="527.50" y1="158.50" x2="527.50" y2="170.50" stroke="#ef5350" stroke-width="1.00"/>"
<rect x="525.00" y="165.00" width="3.00" height="3.00" fill="#ef5350"/>"
<line x1="531.50" y1="164.50" x2="531.50" y2="185.50" stroke="#26a69a" stroke-width="1.00"/>"
<rect x="529.00" y="169.00" width="3.00" height="5.00" fill="#26a69a"/>"
<line x1="534.50" y1="169.50" x2="534.50" y2="182.50" stroke="#ef5350" stroke-width="1.00"/>"
<rect x="533.00" y="177.00" width="3.00" height="3.00" fill="#ef5350"/>"
<line x1="538.50" y1="175.50" x2="538.50" y2="197.50" stroke="#26a69a" stroke-width="1.00"/>"
<rect x="536.00" y="181.00" width="3.00" height="5.00" fill="#26a69a"/>"
<line x1="542.50" y1="180.50" x2="542.50" y2="194.50" stroke="#ef5350" stroke-width="1.00"/>"
<rect x="540.00" y="187.00" width="3.00" height="3.00" fill="#ef5350"/>"
<line x1="545.50" y1="184.50" x2="545.50" y2="207.50" stroke="#26a69a" stroke-width="1.00"/>"
<rect x="544.00" y="192.00" width="3.00" height="5.00" fill="#26a69a"/>"
<line x1="549.50" y1="189.50" x2="549.50" y2="203.50" stroke="#ef5350" stroke-width="1.00"/>"
<rect x="547.00" y="196.00" width="3.00" height="3.00" fill="#ef5350"/>"
<line x1="552.50" y1="193.50" x2="552.50" y2="216.50" stroke="#26a69a" stroke-width="1.00"/>"
<rect x="551.00" y="201.00" width="3.00" height="6.00" fill="#26a69a"/>"
<line x1="556.50" y1="196.50" x2="556.50" y2="211.50" stroke="#ef5350" stroke-width="1.00"/>"
<rect x="555.00" y="203.00" width="3.00" height="4.00" fill="#ef5350"/>"
<line x1="560.50" y1="199.50" x2="560.50" y2="224.50" stroke="#26a69a" stroke-width="1.00"/>"
<rect x="558.00" y="210.00" width="3.00" height="5.00" fill="#26a69a"/>"
<line x1="563.50" y1="202.50" x2="563.50" y2="218.50" stroke="#ef5350" stroke-width="1.00"/>"
<rect x="562.00" y="205.00" width="3.00" height="8.00" fill="#ef5350"/>"
<line x1="567.50" y1="205.50" x2="567.50" y2="230.50" stroke="#26a69a" stroke-width="1.00"/>"
<rect x="566.00" y="216.00" width="3.00" height="11.00" fill="#26a69a"/>"
<line x1="571.50" y1="207.50" x2="571.50" y2="223.50" stroke="#ef5350" stroke-width="1.00"/>"
<rect x="569.00" y="210.00" width="3.00" height="7.00" fill="#ef5350"/>"
<line x1="574.50" y1="208.50" x2="574.50" y2="234.50" stroke="#26a69a" stroke-width="1.00"/>"
<rect x="573.00" y="221.00" width="3.00" height="9.00" fill="#26a69a"/>"
<line x1="578.50" y1="210.50" x2="578.50" y2="227.50" stroke="#ef5350" stroke-width="1.00"/>"
<rect x="577.00" y="214.00" width="3.00" height="6.00" fill="#ef5350"/>"
<line x1="582.50" y1="219.50" x2="582.50" y2="228.50" stroke="#26a69a" stroke-width="1.00"/>"
<rect x="580.00" y="224.00" width="3.00" height="3.00" fill="#26a69a"/>"
<line x1="585.50" y1="211.50" x2="585.50" y2="229.50" stroke="#ef5350" stroke-width="1.00"/>"
<rect x="584.00" y="217.00" width="3.00" height="4.00" fill="#ef5350"/>"
<line x1="589.50" y1="220.50" x2="589.50" y2="230.50" stroke="#26a69a" stroke-width="1.00"/>"
<rect x="587.00" y="226.00" width="3.00" height="2.00" fill="#26a69a"/>"
<line x1="593.50" y1="211.50" x2="593.50" y2="230.50" stroke="#ef5350" stroke-width="1.00"/>"
<rect x="591.00" y="217.00" width="3.00" height="3.00" fill="#ef5350"/>"
<line x1="596.50" y1="219.50" x2="596.50" y2="229.50" stroke="#26a69a" stroke-width="1.00"/>"
<rect x="595.00" y="225.00" width="3.00" height="2.00" fill="#26a69a"/>"
<line x1="600.50" y1="227.50" x2="600.50" y2="246.50" stroke="#ef5350" stroke-width="1.00"/>"
<rect x="598.00" y="234.00" width="3.00" height="1.00" fill="#ef5350"/>"
<line x1="604.50" y1="234.50" x2="604.50" y2="245.50" stroke="#26a69a" stroke-width="1.00"/>"
<rect x="602.00" y="241.00" width="3.00" height="1.00" fill="#26a69a"/>"
<line x1="607.50" y1="241.50" x2="607.50" y2="261.50" stroke="#26a69a" stroke-width="1.00"/>"
<rect x="606.00" y="244.00" width="3.00" height="5.00" fill="#26a69a"/>"
<line x1="611.50" y1="247.50" x2="611.50" y2="259.50" stroke="#ef5350" stroke-width="1.00"/>"
<rect x="609.00" y="255.00" width="3.00" height="2.00" fill="#ef5350"/>"
<line x1="615.50" y1="253.50" x2="615.50" y2="274.50" stroke="#26a69a" stroke-width="1.00"/>"
<rect x="613.00" y="257.00" width="3.00" height="5.00" fill="#26a69a"/>"
<line x1="618.50" y1="258.50" x2="618.50" y2="271.50" stroke="#ef5350" stroke-width="1.00"/>"
<rect x="617.00" y="266.00" width="3.00" height="3.00" fill="#ef5350"/>"
<line x1="622.50" y1="263.50" x2="622.50" y2="285.50" stroke="#26a69a" stroke-width="1.00"/>"
<rect x="620.00" y="269.00" width="3.00" height="5.00" fill="#26a69a"/>"
<line x1="625.50" y1="268.50" x2="625.50" y2="281.50" stroke="#ef5350" stroke-width="1.00"/>"
<rect x="624.00" y="275.00" width="3.00" height="4.00" fill="#ef5350"/>"
<line x1="629.50" y1="272.50" x2="629.50" y2="294.50" stroke="#26a69a" stroke-width="1.00"/>"
<rect x="628.00" y="279.00" width="3.00" height="5.00" fill="#26a69a"/>"
<line x1="633.50" y1="276.50" x2="633.50" y2="290.50" stroke="#ef5350" stroke-width="1.00"/>"
<rect x="631.00" y="283.00" width="3.00" height="3.00" fill="#ef5350"/>"
<line x1="636.50" y1="279.50" x2="636.50" y2="302.50" stroke="#26a69a" stroke-width="1.00"/>"
<rect x="635.00" y="287.00" width="3.00" height="5.00" fill="#26a69a"/>"
<line x1="640.50" y1="282.50" x2="640.50" y2="296.50" stroke="#ef5350" stroke-width="1.00"/>"
<rect x="639.00" y="289.00" width="3.00" height="3.00" fill="#ef5350"/>"
<line x1="644.50" y1="284.50" x2="644.50" y2="308.50" stroke="#26a69a" stroke-width="1.00"/>"
<rect x="642.00" y="293.00" width="3.00" height="6.00" fill="#26a69a"/>"
<line x1="647.50" y1="286.50" x2="647.50" y2="301.50" stroke="#ef5350" stroke-width="1.00"/>"
<rect x="646.00" y="293.00" width="3.00" height="3.00" fill="#ef5350"/>"
<line x1="651.50" y1="287.50" x2="651.50" y2="312.50" stroke="#26a69a" stroke-width="1.00"/>"
<rect x="650.00" y="298.00" width="3.00" height="6.00" fill="#26a69a"/>"
<line x1="655.50" y1="288.50" x2="655.50" y2="304.50" stroke="#ef5350" stroke-width="1.00"/>"
<rect x="653.00" y="291.00" width="3.00" height="7.00" fill="#ef5350"/>"
<line x1="658.50" y1="289.50" x2="658.50" y2="314.50" stroke="#26a69a" stroke-width="1.00"/>"
<rect x="657.00" y="301.00" width="3.00" height="10.00" fill="#26a69a"/>"
<line x1="662.50" y1="289.50" x2="662.50" y2="306.50" stroke="#ef5350" stroke-width="1.00"/>"
<rect x="660.00" y="292.00" width="3.00" height="7.00" fill="#ef5350"/>"
<line x1="666.50" y1="288.50" x2="666.50" y2="314.50" stroke="#26a69a" stroke-width="1.00"/>"
<rect x="664.00" y="301.00" width="3.00" height="9.00" fill="#26a69a"/>"
<line x1="669.50" y1="287.50" x2="669.50" y2="305.50" stroke="#ef5350" stroke-width="1.00"/>"
<rect x="668.00" y="292.00" width="3.00" height="5.00" fill="#ef5350"/>"
<line x1="673.50" y1="294.50" x2="673.50" y2="304.50" stroke="#26a69a" stroke-width="1.00"/>"
<rect x="671.00" y="300.00" width="3.00" height="2.00" fill="#26a69a"/>"
<line x1="677.50" y1="284.50" x2="677.50" y2="302.50" stroke="#ef5350" stroke-width="1.00"/>"
<rect x="675.00" y="289.00" width="3.00" height="4.00" fill="#ef5350"/>"
<line x1="680.50" y1="290.50" x2="680.50" y2="300.50" stroke="#26a69a" stroke-width="1.00"/>"
<rect x="679.00" y="296.00" width="3.00" height="2.00" fill="#26a69a"/>"
<line x1="684.50" y1="296.50" x2="684.50" y2="315.50" stroke="#ef5350" stroke-width="1.00"/>"
<rect x="682.00" y="303.00" width="3.00" height="2.00" fill="#ef5350"/>"
<line x1="688.50" y1="301.50" x2="688.50" y2="312.50" stroke="#26a69a" stroke-width="1.00"/>"
<rect x="686.00" y="308.00" width="3.00" height="1.00" fill="#26a69a"/>"
<line x1="691.50" y1="306.50" x2="691.50" y2="326.50" stroke="#ef5350" stroke-width="1.00"/>"
<rect x="690.00" y="314.00" width="3.00" height="1.00" fill="#ef5350"/>"
<line x1="695.50" y1="310.50" x2="695.50" y2="322.50" stroke="#ef5350" stroke-width="1.00"/>"
<rect x="693.00" y="318.00" width="3.00" height="3.00" fill="#ef5350"/>"
<line x1="698.50" y1="314.50" x2="698.50" y2="335.50" stroke="#26a69a" stroke-width="1.00"/>"
<rect x="697.00" y="318.00" width="3.00" height="5.00" fill="#26a69a"/>"
<line x1="702.50" y1="318.50" x2="702.50" y2="330.50" stroke="#ef5350" stroke-width="1.00"/>"
<rect x="701.00" y="325.00" width="3.00" height="3.00" fill="#ef5350"/>"
<line x1="706.50" y1="321.50" x2="706.50" y2="342.50" stroke="#26a69a" stroke-width="1.00"/>"
<rect x="704.00" y="326.00" width="3.00" height="5.00" fill="#26a69a"/>"
<line x1="709.50" y1="323.50" x2="709.50" y2="336.50" stroke="#ef5350" stroke-width="1.00"/>"
<rect x="708.00" y="331.00" width="3.00" height="3.00" fill="#ef5350"/>"
<line x1="713.50" y1="325.50" x2="713.50" y2="347.50" stroke="#26a69a" stroke-width="1.00"/>"
<rect x="712.00" y="331.00" width="3.00" height="5.00" fill="#26a69a"/>"
<line x1="717.50" y1="326.50" x2="717.50" y2="340.50" stroke="#ef5350" stroke-width="1.00"/>"
<rect x="715.00" y="334.00" width="3.00" height="3.00" fill="#ef5350"/>"
<line x1="720.50" y1="327.50" x2="720.50" y2="350.50" stroke="#26a69a" stroke-width="1.00"/>"
<rect x="719.00" y="335.00" width="3.00" height="5.00" fill="#26a69a"/>"
<line x1="724.50" y1="328.50" x2="724.50" y2="342.50" stroke="#ef5350" stroke-width="1.00"/>"
<rect x="723.00" y="335.00" width="3.00" height="3.00" fill="#ef5350"/>"
<line x1="728.50" y1="328.50" x2="728.50" y2="351.50" stroke="#26a69a" stroke-width="1.00"/>"
<rect x="726.00" y="336.00" width="3.00" height="6.00" fill="#26a69a"/>"
<polyline points="71.17,285.63 74.83,282.02 78.47,280.01 82.12,277.72 85.77,276.51 89.42,275.13 93.08,274.56 96.72,273.77 100.38,273.61 104.02,273.01 107.67,272.88 111.33,271.81 114.97,270.86 118.62,268.34 122.27,265.16 125.92,260.52 129.57,254.65 133.22,248.37 136.88,240.41 140.53,233.10 144.17,223.96 147.82,215.53 151.47,205.49 155.12,196.28 158.78,189.37 162.42,182.95 166.07,177.14 169.72,173.04 173.38,168.94 177.03,166.12 180.67,163.25 184.32,161.39 187.97,159.35 191.62,158.10 195.28,156.43 198.92,155.33 202.57,153.43 206.22,151.75 209.88,148.78 213.53,145.31 217.17,140.46 220.82,134.43 224.47,127.62 228.12,119.16 231.78,111.62 235.42,102.38 239.07,93.91 242.72,88.11 246.38,82.57 250.03,78.85 253.67,75.81 257.32,72.93 260.97,71.35 264.62,69.88 268.27,69.42 271.93,68.98 275.57,69.35 279.22,69.55 282.88,70.41 286.52,70.71 290.18,71.46 293.82,71.01 297.47,70.50 301.12,68.19 304.77,64.90 308.43,60.65 312.07,55.10 315.72,50.37 319.38,44.12 323.02,38.93 326.68,32.26 330.32,26.37 333.97,22.99 337.62,20.02 341.27,17.90 344.93,17.19 348.57,16.82 352.22,17.32 355.88,18.16 359.52,19.51 363.18,21.09 366.82,22.93 370.47,24.73 374.12,26.63 377.77,27.98 381.43,29.31 385.07,29.66 388.72,29.92 392.38,30.00 396.02,30.14 399.68,32.25 403.32,34.44 406.97,35.71 410.62,35.68 414.27,36.76 417.93,36.93 421.57,37.66 425.22,36.39 428.88,34.50 432.52,33.29 436.18,30.62 439.82,28.97 443.47,26.49 447.12,24.95 450.77,23.08 454.43,22.10 458.07,21.11 461.72,21.07 465.38,21.24 469.02,22.59 472.68,24.25 476.32,27.55 479.97,31.40 483.62,37.62 487.27,44.76 490.93,50.63 494.57,57.18 498.22,62.75 501.88,67.89 505.52,74.26 509.18,77.63 512.82,81.65 516.48,82.91 520.12,84.06 523.77,84.81 527.42,84.75 531.07,84.97 534.73,84.77 538.38,85.19 542.02,85.46 545.67,86.55 549.32,87.69 552.98,89.84 556.62,92.16 560.27,95.79 563.92,99.71 567.57,105.34 571.23,111.44 574.88,119.99 578.52,129.31 582.17,137.39 585.82,145.94 589.48,153.54 593.12,160.55 596.77,168.63 600.42,173.87 604.07,179.67 607.73,183.48 611.38,186.30 615.02,188.39 618.67,189.61 622.32,190.83 625.98,191.54 629.62,192.70 633.27,193.61 636.92,195.22 640.57,196.76 644.23,199.22 647.88,201.70 651.52,205.41 655.17,209.24 658.82,214.72 662.48,220.42 666.12,228.64 669.77,237.33 673.42,244.77 677.07,252.14 680.73,260.16 684.38,265.22 688.02,271.34 691.67,274.36 695.32,277.42 698.98,279.29 702.62,280.27 706.27,281.04 709.92,281.22 713.57,281.73 717.23,281.96 720.88,282.71 724.52,283.38 728.17,284.71" stroke="#2196f3" stroke-width="1.00" fill="none"/>"
<polyline points="71.17,319.41 74.83,317.10 78.47,315.31 82.12,312.96 85.77,311.03 89.42,308.64 93.08,306.55 96.72,304.14 100.38,301.92 104.02,299.49 107.67,297.13 111.33,294.71 114.97,292.20 118.62,289.80 122.27,287.20 125.92,284.84 129.57,282.15 133.22,279.84 136.88,277.06 140.53,273.91 144.17,270.18 147.82,266.45 151.47,261.66 155.12,257.06 158.78,252.25 162.42,247.66 166.07,242.65 169.72,238.18 173.38,233.26 177.03,228.79 180.67,223.99 184.32,219.52 187.97,214.86 191.62,210.41 195.28,205.91 198.92,201.49 202.57,197.16 206.22,192.79 209.88,188.67 213.53,184.39 217.17,180.49 220.82,176.31 224.47,172.66 228.12,168.59 231.78,164.29 235.42,159.46 239.07,154.75 242.72,149.95 246.38,145.44 250.03,140.83 253.67,136.67 257.32,132.08 260.97,128.11 264.62,123.83 268.27,120.06 271.93,116.11 275.57,112.55 279.22,108.94 282.88,105.60 286.52,102.36 290.18,99.25 293.82,96.39 297.47,93.53 301.12,91.07 304.77,88.50 308.43,86.47 312.07,84.20 315.72,81.70 319.38,78.84 323.02,75.89 326.68,72.33 330.32,69.13 333.97,65.92 337.62,63.09 341.27,60.00 344.93,57.66 348.57,55.02 352.22,53.03 355.88,50.84 359.52,49.20 363.18,47.47 366.82,46.18 370.47,44.93 374.12,43.98 377.77,43.23 381.43,42.63 385.07,42.37 388.72,42.14 392.38,42.39 396.02,42.53 399.68,43.30 403.32,43.81 406.97,44.18 410.62,44.17 414.27,44.38 417.93,44.62 421.57,45.25 425.22,45.88 428.88,47.06 432.52,47.87 436.18,49.42 439.82,50.70 443.47,52.60 447.12,54.34 450.77,56.59 454.43,58.80 458.07,61.38 461.72,64.05 465.38,66.94 469.02,70.07 472.68,73.27 476.32,76.86 479.97,80.39 483.62,84.42 487.27,88.26 490.93,91.85 494.57,95.10 498.22,98.22 501.88,100.73 505.52,103.57 509.18,106.38 512.82,109.53 516.48,112.62 520.12,116.19 523.77,119.37 527.42,123.18 531.07,126.69 534.73,130.72 538.38,134.55 542.02,138.78 545.67,142.93 549.32,147.33 552.98,151.78 556.62,156.33 560.27,161.08 563.92,165.78 567.57,170.82 571.23,175.66 574.88,180.97 578.52,185.93 582.17,190.59 585.82,194.78 589.48,198.78 593.12,202.04 596.77,205.54 600.42,208.90 604.07,212.51 607.73,215.73 611.38,219.54 615.02,222.89 618.67,226.73 622.32,230.22 625.98,234.07 629.62,237.67 633.27,241.51 636.92,245.22 640.57,249.03 644.23,252.84 647.88,256.59 651.52,260.50 655.17,264.21 658.82,268.19 662.48,271.84 666.12,275.91 669.77,279.48 673.42,282.69 677.07,285.29 680.73,287.87 684.38,290.25 688.02,292.78 691.67,295.07 695.32,297.66 698.98,299.66 702.62,302.13 706.27,304.11 709.92,306.45 713.57,308.39 717.23,310.58 720.88,312.50 724.52,314.53 728.17,316.41" stroke="rgba(33,150,243,0.5019607843137255)" stroke-width="1.00" fill="none"/>"
<polyline points="71.17,353.18 74.83,352.19 78.47,350.62 82.12,348.21 85.77,345.54 89.42,342.14 93.08,338.55 96.72,334.51 100.38,330.22 104.02,325.97 107.67,321.37 111.33,317.60 114.97,313.55 118.62,311.27 122.27,309.24 125.92,309.16 129.57,309.64 133.22,311.31 136.88,313.72 140.53,314.73 144.17,316.41 147.82,317.37 151.47,317.84 155.12,317.83 158.78,315.13 162.42,312.37 166.07,308.16 169.72,303.32 173.38,297.58 177.03,291.46 180.67,284.72 184.32,277.66 187.97,270.37 191.62,262.73 195.28,255.38 198.92,247.65 202.57,240.90 206.22,233.83 209.88,228.56 213.53,223.46 217.17,220.52 220.82,218.18 224.47,217.71 228.12,218.01 231.78,216.95 235.42,216.53 239.07,215.58 242.72,211.79 246.38,208.31 250.03,202.82 253.67,197.53 257.32,191.23 260.97,184.88 264.62,177.78 268.27,170.71 271.93,163.23 275.57,155.75 279.22,148.33 282.88,140.80 286.52,134.01 290.18,127.05 293.82,121.77 297.47,116.55 301.12,113.95 304.77,112.11 308.43,112.30 312.07,113.29 315.72,113.03 319.38,113.56 323.02,112.86 326.68,112.41 330.32,111.89 333.97,108.84 337.62,106.16 341.27,102.10 344.93,98.14 348.57,93.22 352.22,88.74 355.88,83.52 359.52,78.89 363.18,73.86 366.82,69.42 370.47,65.14 374.12,61.33 377.77,58.48 381.43,55.94 385.07,55.08 388.72,54.35 392.38,54.79 396.02,54.93 399.68,54.35 403.32,53.18 406.97,52.64 410.62,52.66 414.27,52.01 417.93,52.31 421.57,52.85 425.22,55.37 428.88,59.61 432.52,62.46 436.18,68.22 439.82,72.43 443.47,78.72 447.12,83.74 450.77,90.10 454.43,95.50 458.07,101.64 461.72,107.02 465.38,112.64 469.02,117.56 472.68,122.29 476.32,126.16 479.97,129.38 483.62,131.23 487.27,131.77 490.93,133.06 494.57,133.02 498.22,133.69 501.88,133.57 505.52,132.88 509.18,135.13 512.82,137.41 516.48,142.32 520.12,148.31 523.77,153.93 527.42,161.60 531.07,168.40 534.73,176.66 538.38,183.92 542.02,192.09 545.67,199.31 549.32,206.96 552.98,213.73 556.62,220.50 560.27,226.38 563.92,231.86 567.57,236.30 571.23,239.88 574.88,241.95 578.52,242.56 582.17,243.80 585.82,243.62 589.48,244.01 593.12,243.53 596.77,242.45 600.42,243.93 604.07,245.36 607.73,247.97 611.38,252.77 615.02,257.40 618.67,263.86 622.32,269.60 625.98,276.60 629.62,282.65 633.27,289.41 636.92,295.23 640.57,301.30 644.23,306.46 647.88,311.49 651.52,315.59 655.17,319.17 658.82,321.67 662.48,323.27 666.12,323.18 669.77,321.63 673.42,320.61 677.07,318.43 680.73,315.59 684.38,315.28 688.02,314.22 691.67,315.78 695.32,317.91 698.98,320.03 702.62,324.00 706.27,327.17 709.92,331.67 713.57,335.05 717.23,339.21 720.88,342.28 724.52,345.67 728.17,348.12" stroke="rgba(33,150,243,0.5019607843137255)" stroke-width="1.00" fill="none"/>"
<rect x="730.00" y="0.00" width="70.00" height="370.00" fill="#131722"/>"
<line x1="730.00" y1="0.00" x2="730.00" y2="370.00" stroke="#1e222d" stroke-width="1.00"/>"
<line x1="730.00" y1="334.93" x2="734.00" y2="334.93" stroke="#1e222d" stroke-width="1.00"/>"
<text x="736.00" y="334.93" fill="#b2b5be" font-family="sans-serif" font-size="11.0" text-anchor="start" dominant-baseline="central">100</text>
<line x1="730.00" y1="291.16" x2="734.00" y2="291.16" stroke="#1e222d" stroke-width="1.00"/>"
<text x="736.00" y="291.16" fill="#b2b5be" font-family="sans-serif" font-size="11.0" text-anchor="start" dominant-baseline="central">110</text>
<line x1="730.00" y1="247.40" x2="734.00" y2="247.40" stroke="#1e222d" stroke-width="1.00"/>"
<text x="736.00" y="247.40" fill="#b2b5be" font-family="sans-serif" font-size="11.0" text-anchor="start" dominant-baseline="central">120</text>
<line x1="730.00" y1="203.64" x2="734.00" y2="203.64" stroke="#1e222d" stroke-width="1.00"/>"
<text x="736.00" y="203.64" fill="#b2b5be" font-family="sans-serif" font-size="11.0" text-anchor="start" dominant-baseline="central">130</text>
<line x1="730.00" y1="159.87" x2="734.00" y2="159.87" stroke="#1e222d" stroke-width="1.00"/>"
<text x="736.00" y="159.87" fill="#b2b5be" font-family="sans-serif" font-size="11.0" text-anchor="start" dominant-baseline="central">140</text>
<line x1="730.00" y1="116.11" x2="734.00" y2="116.11" stroke="#1e222d" stroke-width="1.00"/>"
<text x="736.00" y="116.11" fill="#b2b5be" font-family="sans-serif" font-size="11.0" text-anchor="start" dominant-baseline="central">150</text>
<line x1="730.00" y1="72.35" x2="734.00" y2="72.35" stroke="#1e222d" stroke-width="1.00"/>"
<text x="736.00" y="72.35" fill="#b2b5be" font-family="sans-serif" font-size="11.0" text-anchor="start" dominant-baseline="central">160</text>
<line x1="730.00" y1="28.59" x2="734.00" y2="28.59" stroke="#1e222d" stroke-width="1.00"/>"
<text x="736.00" y="28.59" fill="#b2b5be" font-family="sans-serif" font-size="11.0" text-anchor="start" dominant-baseline="central">170</text>
<rect x="0.00" y="370.00" width="800.00" height="30.00" fill="#131722"/>"
<line x1="0.00" y1="370.00" x2="730.00" y2="370.00" stroke="#1e222d" stroke-width="1.00"/>"
<line x1="63.88" y1="370.00" x2="63.88" y2="374.00" stroke="#1e222d" stroke-width="1.00"/>"
<text x="63.88" y="376.00" fill="#b2b5be" font-family="sans-serif" font-size="10.0" text-anchor="middle" dominant-baseline="hanging">Dec</text>
<line x1="125.92" y1="370.00" x2="125.92" y2="374.00" stroke="#1e222d" stroke-width="1.00"/>"
<text x="125.92" y="376.00" fill="#b2b5be" font-family="sans-serif" font-size="10.0" text-anchor="middle" dominant-baseline="hanging">5 Dec</text>
<line x1="187.97" y1="370.00" x2="187.97" y2="374.00" stroke="#1e222d" stroke-width="1.00"/>"
<text x="187.97" y="376.00" fill="#b2b5be" font-family="sans-serif" font-size="10.0" text-anchor="middle" dominant-baseline="hanging">2024</text>
<line x1="250.03" y1="370.00" x2="250.03" y2="374.00" stroke="#1e222d" stroke-width="1.00"/>"
<text x="250.03" y="376.00" fill="#b2b5be" font-family="sans-serif" font-size="10.0" text-anchor="middle" dominant-baseline="hanging">Feb</text>
<line x1="312.07" y1="370.00" x2="312.07" y2="374.00" stroke="#1e222d" stroke-width="1.00"/>"
<text x="312.07" y="376.00" fill="#b2b5be" font-family="sans-serif" font-size="10.0" text-anchor="middle" dominant-baseline="hanging">21 Feb</text>
<line x1="374.12" y1="370.00" x2="374.12" y2="374.00" stroke="#1e222d" stroke-width="1.00"/>"
<text x="374.12" y="376.00" fill="#b2b5be" font-family="sans-serif" font-size="10.0" text-anchor="middle" dominant-baseline="hanging">Mar</text>
<line x1="436.18" y1="370.00" x2="436.18" y2="374.00" stroke="#1e222d" stroke-width="1.00"/>"
<text x="436.18" y="376.00" fill="#b2b5be" font-family="sans-serif" font-size="10.0" text-anchor="middle" dominant-baseline="hanging">25 Mar</text>
<line x1="498.22" y1="370.00" x2="498.22" y2="374.00" stroke="#1e222d" stroke-width="1.00"/>"
<text x="498.22" y="376.00" fill="#b2b5be" font-family="sans-serif" font-size="10.0" text-anchor="middle" dominant-baseline="hanging">Apr</text>
<line x1="560.27" y1="370.00" x2="560.27" y2="374.00" stroke="#1e222d" stroke-width="1.00"/>"
<text x="560.27" y="376.00" fill="#b2b5be" font-family="sans-serif" font-size="10.0" text-anchor="middle" dominant-baseline="hanging">29 Apr</text>
<line x1="622.32" y1="370.00" x2="622.32" y2="374.00" stroke="#1e222d" stroke-width="1.00"/>"
<text x="622.32" y="376.00" fill="#b2b5be" font-family="sans-serif" font-size="10.0" text-anchor="middle" dominant-baseline="hanging">May</text>
<line x1="684.38" y1="370.00" x2="684.38" y2="374.00" stroke="#1e222d" stroke-width="1.00"/>"
<text x="684.38" y="376.00" fill="#b2b5be" font-family="sans-serif" font-size="10.0" text-anchor="middle" dominant-baseline="hanging">Jun</text>
</svg>
