<?xml version="1.0" encoding="UTF-8"?>
<svg xmlns="http://www.w3.org/2000/svg"
     xmlns:xlink="http://www.w3.org/1999/xlink"
     width="800" height="500" viewBox="0 0 800 500">
<defs>

</defs>
<rect x="0" y="0" width="800" height="500" fill="#131722"/>
<line x1="1.50" y1="352.50" x2="1.50" y2="367.50" stroke="#ef5350" stroke-width="1.00"/>"
<rect x="0.00" y="361.00" width="3.00" height="3.00" fill="#ef5350"/>"
<line x1="5.50" y1="353.50" x2="5.50" y2="378.50" stroke="#26a69a" stroke-width="1.00"/>"
<rect x="3.00" y="360.00" width="3.00" height="6.00" fill="#26a69a"/>"
<line x1="9.50" y1="354.50" x2="9.50" y2="369.50" stroke="#ef5350" stroke-width="1.00"/>"
<rect x="7.00" y="362.00" width="3.00" height="4.00" fill="#ef5350"/>"
<line x1="12.50" y1="354.50" x2="12.50" y2="379.50" stroke="#26a69a" stroke-width="1.00"/>"
<rect x="11.00" y="362.00" width="3.00" height="6.00" fill="#26a69a"/>"
<line x1="16.50" y1="353.50" x2="16.50" y2="369.50" stroke="#ef5350" stroke-width="1.00"/>"
<rect x="14.00" y="361.00" width="3.00" height="4.00" fill="#ef5350"/>"
<line x1="20.50" y1="352.50" x2="20.50" y2="378.50" stroke="#26a69a" stroke-width="1.00"/>"
<rect x="18.00" y="362.00" width="3.00" height="6.00" fill="#26a69a"/>"
<line x1="23.50" y1="351.50" x2="23.50" y2="367.50" stroke="#ef5350" stroke-width="1.00"/>"
<rect x="22.00" y="358.00" width="3.00" height="4.00" fill="#ef5350"/>"
<line x1="27.50" y1="348.50" x2="27.50" y2="375.50" stroke="#26a69a" stroke-width="1.00"/>"
<rect x="25.00" y="359.00" width="3.00" height="7.00" fill="#26a69a"/>"
<line x1="31.50" y1="346.50" x2="31.50" y2="363.50" stroke="#ef5350" stroke-width="1.00"/>"
<rect x="29.00" y="353.00" width="3.00" height="4.00" fill="#ef5350"/>"
<line x1="34.50" y1="342.50" x2="34.50" y2="370.50" stroke="#26a69a" stroke-width="1.00"/>"
<rect x="33.00" y="355.00" width="3.00" height="12.00" fill="#26a69a"/>"
<line x1="38.50" y1="339.50" x2="38.50" y2="357.50" stroke="#ef5350" stroke-width="1.00"/>"
<rect x="36.00" y="342.00" width="3.00" height="8.00" fill="#ef5350"/>"
<line x1="41.50" y1="334.50" x2="41.50" y2="363.50" stroke="#26a69a" stroke-width="1.00"/>"
<rect x="40.00" y="348.00" width="3.00" height="11.00" fill="#26a69a"/>"
<line x1="45.50" y1="329.50" x2="45.50" y2="348.50" stroke="#ef5350" stroke-width="1.00"/>"
<rect x="44.00" y="334.00" width="3.00" height="6.00" fill="#ef5350"/>"
<line x1="49.50" y1="334.50" x2="49.50" y2="343.50" stroke="#26a69a" stroke-width="1.00"/>"
<rect x="47.00" y="339.00" width="3.00" height="3.00" fill="#26a69a"/>"
<line x1="52.50" y1="318.50" x2="52.50" y2="338.50" stroke="#ef5350" stroke-width="1.00"/>"
<rect x="51.00" y="324.00" width="3.00" height="5.00" fill="#ef5350"/>"
<line x1="56.50" y1="321.50" x2="56.50" y2="332.50" stroke="#26a69a" stroke-width="1.00"/>"
<rect x="55.00" y="327.00" width="3.00" height="2.00" fill="#26a69a"/>"
<line x1="60.50" y1="305.50" x2="60.50" y2="325.50" stroke="#ef5350" stroke-width="1.00"/>"
<rect x="58.00" y="311.00" width="3.00" height="4.00" fill="#ef5350"/>"
<line x1="63.50" y1="307.50" x2="63.50" y2="318.50" stroke="#26a69a" stroke-width="1.00"/>"
<rect x="62.00" y="314.00" width="3.00" height="1.00" fill="#26a69a"/>"
<line x1="67.50" y1="308.50" x2="67.50" y2="330.50" stroke="#ef5350" stroke-width="1.00"/>"
<rect x="66.00" y="316.00" width="3.00" height="2.00" fill="#ef5350"/>"
<line x1="71.50" y1="309.50" x2="71.50" y2="321.50" stroke="#26a69a" stroke-width="1.00"/>"
<rect x="69.00" y="317.00" width="3.00" height="1.00" fill="#26a69a"/>"
<line x1="74.50" y1="310.50" x2="74.50" y2="332.50" stroke="#26a69a" stroke-width="1.00"/>"
<rect x="73.00" y="314.00" width="3.00" height="5.00" fill="#26a69a"/>"
<line x1="78.50" y1="310.50" x2="78.50" y2="323.50" stroke="#ef5350" stroke-width="1.00"/>"
<rect x="76.00" y="318.00" width="3.00" height="3.00" fill="#ef5350"/>"
<line x1="82.50" y1="309.50" x2="82.50" y2="332.50" stroke="#26a69a" stroke-width="1.00"/>"
<rect x="80.00" y="314.00" width="3.00" height="6.00" fill="#26a69a"/>"
<line x1="85.50" y1="308.50" x2="85.50" y2="322.50" stroke="#ef5350" stroke-width="1.00"/>"
<rect x="84.00" y="316.00" width="3.00" height="4.00" fill="#ef5350"/>"
<line x1="89.50" y1="306.50" x2="89.50" y2="330.50" stroke="#26a69a" stroke-width="1.00"/>"
<rect x="87.00" y="313.00" width="3.00" height="5.00" fill="#26a69a"/>"
<line x1="93.50" y1="304.50" x2="93.50" y2="319.50" stroke="#ef5350" stroke-width="1.00"/>"
<rect x="91.00" y="313.00" width="3.00" height="3.00" fill="#ef5350"/>"
<line x1="96.50" y1="302.50" x2="96.50" y2="326.50" stroke="#26a69a" stroke-width="1.00"/>"
<rect x="95.00" y="309.00" width="3.00" height="6.00" fill="#26a69a"/>"
<line x1="100.50" y1="299.50" x2="100.50" y2="314.50" stroke="#ef5350" stroke-width="1.00"/>"
<rect x="98.00" y="307.00" width="3.00" height="4.00" fill="#ef5350"/>"
<line x1="104.50" y1="295.50" x2="104.50" y2="321.50" stroke="#26a69a" stroke-width="1.00"/>"
<rect x="102.00" y="304.00" width="3.00" height="6.00" fill="#26a69a"/>"
<line x1="107.50" y1="291.50" x2="107.50" y2="307.50" stroke="#ef5350" stroke-width="1.00"/>"
<rect x="106.00" y="299.00" width="3.00" height="4.00" fill="#ef5350"/>"
<line x1="111.50" y1="287.50" x2="111.50" y2="313.50" stroke="#26a69a" stroke-width="1.00"/>"
<rect x="109.00" y="297.00" width="3.00" height="6.00" fill="#26a69a"/>"
<line x1="114.50" y1="282.50" x2="114.50" y2="299.50" stroke="#ef5350" stroke-width="1.00"/>"
<rect x="113.00" y="289.00" width="3.00" height="4.00" fill="#ef5350"/>"
<line x1="118.50" y1="276.50" x2="118.50" y2="303.50" stroke="#26a69a" stroke-width="1.00"/>"
<rect x="117.00" y="288.00" width="3.00" height="6.00" fill="#26a69a"/>"
<line x1="122.50" y1="270.50" x2="122.50" y2="288.50" stroke="#ef5350" stroke-width="1.00"/>"
<rect x="120.00" y="274.00" width="3.00" height="8.00" fill="#ef5350"/>"
<line x1="125.50" y1="264.50" x2="125.50" y2="292.50" stroke="#26a69a" stroke-width="1.00"/>"
<rect x="124.00" y="277.00" width="3.00" height="11.00" fill="#26a69a"/>"
<line x1="129.50" y1="257.50" x2="129.50" y2="275.50" stroke="#ef5350" stroke-width="1.00"/>"
<rect x="128.00" y="261.00" width="3.00" height="7.00" fill="#ef5350"/>"
<line x1="133.50" y1="250.50" x2="133.50" y2="278.50" stroke="#26a69a" stroke-width="1.00"/>"
<rect x="131.00" y="264.00" width="3.00" height="10.00" fill="#26a69a"/>"
<line x1="136.50" y1="242.50" x2="136.50" y2="261.50" stroke="#ef5350" stroke-width="1.00"/>"
<rect x="135.00" y="247.00" width="3.00" height="6.00" fill="#ef5350"/>"
<line x1="140.50" y1="243.50" x2="140.50" y2="253.50" stroke="#26a69a" stroke-width="1.00"/>"
<rect x="139.00" y="249.00" width="3.00" height="2.00" fill="#26a69a"/>"
<line x1="144.50" y1="225.50" x2="144.50" y2="245.50" stroke="#ef5350" stroke-width="1.00"/>"
<rect x="142.00" y="231.00" width="3.00" height="4.00" fill="#ef5350"/>"
<line x1="147.50" y1="225.50" x2="147.50" y2="236.50" stroke="#26a69a" stroke-width="1.00"/>"
<rect x="146.00" y="232.00" width="3.00" height="1.00" fill="#26a69a"/>"
<line x1="151.50" y1="206.50" x2="151.50" y2="227.50" stroke="#ef5350" stroke-width="1.00"/>"
<rect x="149.00" y="213.00" width="3.00" height="3.00" fill="#ef5350"/>"
<line x1="155.50" y1="206.50" x2="155.50" y2="217.50" stroke="#26a69a" stroke-width="1.00"/>"
<rect x="153.00" y="213.00" width="3.00" height="1.00" fill="#26a69a"/>"
<line x1="158.50" y1="205.50" x2="158.50" y2="226.50" stroke="#ef5350" stroke-width="1.00"/>"
<rect x="157.00" y="213.00" width="3.00" height="1.00" fill="#ef5350"/>"
<line x1="162.50" y1="203.50" x2="162.50" y2="216.50" stroke="#26a69a" stroke-width="1.00"/>"
<rect x="160.00" y="212.00" width="3.00" height="1.00" fill="#26a69a"/>"
<line x1="166.50" y1="202.50" x2="166.50" y2="224.50" stroke="#26a69a" stroke-width="1.00"/>"
<rect x="164.00" y="206.00" width="3.00" height="5.00" fill="#26a69a"/>"
<line x1="169.50" y1="200.50" x2="169.50" y2="213.50" stroke="#ef5350" stroke-width="1.00"/>"
<rect x="168.00" y="208.00" width="3.00" height="3.00" fill="#ef5350"/>"
<line x1="173.50" y1="197.50" x2="173.50" y2="220.50" stroke="#26a69a" stroke-width="1.00"/>"
<rect x="171.00" y="202.00" width="3.00" height="6.00" fill="#26a69a"/>"
<line x1="177.50" y1="194.50" x2="177.50" y2="208.50" stroke="#ef5350" stroke-width="1.00"/>"
<rect x="175.00" y="202.00" width="3.00" height="4.00" fill="#ef5350"/>"
<line x1="180.50" y1="191.50" x2="180.50" y2="215.50" stroke="#26a69a" stroke-width="1.00"/>"
<rect x="179.00" y="197.00" width="3.00" height="6.00" fill="#26a69a"/>"
<line x1="184.50" y1="187.50" x2="184.50" y2="202.50" stroke="#ef5350" stroke-width="1.00"/>"
<rect x="182.00" y="195.00" width="3.00" height="4.00" fill="#ef5350"/>"
<line x1="187.50" y1="183.50" x2="187.50" y2="208.50" stroke="#26a69a" stroke-width="1.00"/>"
<rect x="186.00" y="191.00" width="3.00" height="6.00" fill="#26a69a"/>"
<line x1="191.50" y1="178.50" x2="191.50" y2="194.50" stroke="#ef5350" stroke-width="1.00"/>"
<rect x="190.00" y="186.00" width="3.00" height="4.00" fill="#ef5350"/>"
<line x1="195.50" y1="173.50" x2="195.50" y2="199.50" stroke="#26a69a" stroke-width="1.00"/>"
<rect x="193.00" y="183.00" width="3.00" height="6.00" fill="#26a69a"/>"
<line x1="198.50" y1="168.50" x2="198.50" y2="185.50" stroke="#ef5350" stroke-width="1.00"/>"
<rect x="197.00" y="176.00" width="3.00" height="4.00" fill="#ef5350"/>"
<line x1="202.50" y1="162.50" x2="202.50" y2="189.50" stroke="#26a69a" stroke-width="1.00"/>"
<rect x="201.00" y="173.00" width="3.00" height="6.00" fill="#26a69a"/>"
<line x1="206.50" y1="156.50" x2="206.50" y2="174.50" stroke="#ef5350" stroke-width="1.00"/>"
<rect x="204.00" y="164.00" width="3.00" height="4.00" fill="#ef5350"/>"
<line x1="209.50" y1="150.50" x2="209.50" y2="177.50" stroke="#26a69a" stroke-width="1.00"/>"
<rect x="208.00" y="162.00" width="3.00" height="13.00" fill="#26a69a"/>"
<line x1="213.50" y1="143.50" x2="213.50" y2="161.50" stroke="#ef5350" stroke-width="1.00"/>"
<rect x="212.00" y="147.00" width="3.00" height="8.00" fill="#ef5350"/>"
<line x1="217.50" y1="136.50" x2="217.50" y2="164.50" stroke="#26a69a" stroke-width="1.00"/>"
<rect x="215.00" y="150.00" width="3.00" height="11.00" fill="#26a69a"/>"
<line x1="220.50" y1="129.50" x2="220.50" y2="148.50" stroke="#ef5350" stroke-width="1.00"/>"
<rect x="219.00" y="133.00" width="3.00" height="7.00" fill="#ef5350"/>"
<line x1="224.50" y1="121.50" x2="224.50" y2="150.50" stroke="#26a69a" stroke-width="1.00"/>"
<rect x="222.00" y="136.00" width="3.00" height="9.00" fill="#26a69a"/>"
<line x1="228.50" y1="113.50" x2="228.50" y2="132.50" stroke="#ef5350" stroke-width="1.00"/>"
<rect x="226.00" y="118.00" width="3.00" height="5.00" fill="#ef5350"/>"
<line x1="231.50" y1="114.50" x2="231.50" y2="124.50" stroke="#26a69a" stroke-width="1.00"/>"
<rect x="230.00" y="120.00" width="3.00" height="2.00" fill="#26a69a"/>"
<line x1="235.50" y1="95.50" x2="235.50" y2="116.50" stroke="#ef5350" stroke-width="1.00"/>"
<rect x="233.00" y="102.00" width="3.00" height="4.00" fill="#ef5350"/>"
<line x1="239.50" y1="96.50" x2="239.50" y2="107.50" stroke="#26a69a" stroke-width="1.00"/>"
<rect x="237.00" y="103.00" width="3.00" height="1.00" fill="#26a69a"/>"
<line x1="242.50" y1="96.50" x2="242.50" y2="117.50" stroke="#ef5350" stroke-width="1.00"/>"
<rect x="241.00" y="104.00" width="3.00" height="2.00" fill="#ef5350"/>"
<line x1="246.50" y1="96.50" x2="246.50" y2="108.50" stroke="#26a69a" stroke-width="1.00"/>"
<rect x="244.00" y="104.00" width="3.00" height="1.00" fill="#26a69a"/>"
<line x1="250.50" y1="95.50" x2="250.50" y2="117.50" stroke="#ef5350" stroke-width="1.00"/>"
<rect x="248.00" y="104.00" width="3.00" height="1.00" fill="#ef5350"/>"
<line x1="253.50" y1="94.50" x2="253.50" y2="107.50" stroke="#ef5350" stroke-width="1.00"/>"
<rect x="252.00" y="103.00" width="3.00" height="3.00" fill="#ef5350"/>"
<line x1="257.50" y1="93.50" x2="257.50" y2="116.50" stroke="#26a69a" stroke-width="1.00"/>"
<rect x="255.00" y="98.00" width="3.00" height="5.00" fill="#26a69a"/>"
<line x1="260.50" y1="92.50" x2="260.50" y2="105.50" stroke="#ef5350" stroke-width="1.00"/>"
<rect x="259.00" y="100.00" width="3.00" height="4.00" fill="#ef5350"/>"
<line x1="264.50" y1="90.50" x2="264.50" y2="114.50" stroke="#26a69a" stroke-width="1.00"/>"
<rect x="263.00" y="96.00" width="3.00" height="6.00" fill="#26a69a"/>"
<line x1="268.50" y1="88.50" x2="268.50" y2="102.50" stroke="#ef5350" stroke-width="1.00"/>"
<rect x="266.00" y="96.00" width="3.00" height="4.00" fill="#ef5350"/>"
<line x1="271.50" y1="86.50" x2="271.50" y2="110.50" stroke="#26a69a" stroke-width="1.00"/>"
<rect x="270.00" y="93.00" width="3.00" height="6.00" fill="#26a69a"/>"
<line x1="275.50" y1="83.50" x2="275.50" y2="98.50" stroke="#ef5350" stroke-width="1.00"/>"
<rect x="274.00" y="91.00" width="3.00" height="4.00" fill="#ef5350"/>"
<line x1="279.50" y1="80.50" x2="279.50" y2="105.50" stroke="#26a69a" stroke-width="1.00"/>"
<rect x="277.00" y="89.00" width="3.00" height="6.00" fill="#26a69a"/>"
<line x1="282.50" y1="77.50" x2="282.50" y2="93.50" stroke="#ef5350" stroke-width="1.00"/>"
<rect x="281.00" y="85.00" width="3.00" height="4.00" fill="#ef5350"/>"
<line x1="286.50" y1="74.50" x2="286.50" y2="100.50" stroke="#26a69a" stroke-width="1.00"/>"
<rect x="285.00" y="83.00" width="3.00" height="6.00" fill="#26a69a"/>"
<line x1="290.50" y1="70.50" x2="290.50" y2="87.50" stroke="#ef5350" stroke-width="1.00"/>"
<rect x="288.00" y="77.00" width="3.00" height="4.00" fill="#ef5350"/>"
<line x1="293.50" y1="66.50" x2="293.50" y2="93.50" stroke="#26a69a" stroke-width="1.00"/>"
<rect x="292.00" y="77.00" width="3.00" height="6.00" fill="#26a69a"/>"
<line x1="297.50" y1="62.50" x2="297.50" y2="79.50" stroke="#ef5350" stroke-width="1.00"/>"
<rect x="295.00" y="69.00" width="3.00" height="4.00" fill="#ef5350"/>"
<line x1="301.50" y1="57.50" x2="301.50" y2="84.50" stroke="#26a69a" stroke-width="1.00"/>"
<rect x="299.00" y="69.00" width="3.00" height="13.00" fill="#26a69a"/>"
<line x1="304.50" y1="52.50" x2="304.50" y2="70.50" stroke="#ef5350" stroke-width="1.00"/>"
<rect x="303.00" y="56.00" width="3.00" height="7.00" fill="#ef5350"/>"
<line x1="308.50" y1="47.50" x2="308.50" y2="75.50" stroke="#26a69a" stroke-width="1.00"/>"
<rect x="306.00" y="61.00" width="3.00" height="10.00" fill="#26a69a"/>"
<line x1="312.50" y1="42.50" x2="312.50" y2="61.50" stroke="#ef5350" stroke-width="1.00"/>"
<rect x="310.00" y="47.00" width="3.00" height="6.00" fill="#ef5350"/>"
<line x1="315.50" y1="46.50" x2="315.50" y2="56.50" stroke="#26a69a" stroke-width="1.00"/>"
<rect x="314.00" y="51.00" width="3.00" height="3.00" fill="#26a69a"/>"
<line x1="319.50" y1="30.50" x2="319.50" y2="50.50" stroke="#ef5350" stroke-width="1.00"/>"
<rect x="317.00" y="36.00" width="3.00" height="5.00" fill="#ef5350"/>"
<line x1="323.50" y1="34.50" x2="323.50" y2="44.50" stroke="#26a69a" stroke-width="1.00"/>"
<rect x="321.00" y="40.00" width="3.00" height="2.00" fill="#26a69a"/>"
<line x1="326.50" y1="18.50" x2="326.50" y2="38.50" stroke="#ef5350" stroke-width="1.00"/>"
<rect x="325.00" y="25.00" width="3.00" height="3.00" fill="#ef5350"/>"
<line x1="330.50" y1="21.50" x2="330.50" y2="32.50" stroke="#26a69a" stroke-width="1.00"/>"
<rect x="328.00" y="28.00" width="3.00" height="1.00" fill="#26a69a"/>"
<line x1="333.50" y1="23.50" x2="333.50" y2="45.50" stroke="#ef5350" stroke-width="1.00"/>"
<rect x="332.00" y="31.00" width="3.00" height="2.00" fill="#ef5350"/>"
<line x1="337.50" y1="26.50" x2="337.50" y2="38.50" stroke="#26a69a" stroke-width="1.00"/>"
<rect x="336.00" y="34.00" width="3.00" height="1.00" fill="#26a69a"/>"
<line x1="341.50" y1="28.50" x2="341.50" y2="50.50" stroke="#26a69a" stroke-width="1.00"/>"
<rect x="339.00" y="32.00" width="3.00" height="5.00" fill="#26a69a"/>"
<line x1="344.50" y1="30.50" x2="344.50" y2="43.50" stroke="#ef5350" stroke-width="1.00"/>"
<rect x="343.00" y="38.00" width="3.00" height="4.00" fill="#ef5350"/>"
<line x1="348.50" y1="32.50" x2="348.50" y2="55.50" stroke="#26a69a" stroke-width="1.00"/>"
<rect x="347.00" y="37.00" width="3.00" height="5.00" fill="#26a69a"/>"
<line x1="352.50" y1="33.50" x2="352.50" y2="47.50" stroke="#ef5350" stroke-width="1.00"/>"
<rect x="350.00" y="42.00" width="3.00" height="3.00" fill="#ef5350"/>"
<line x1="355.50" y1="34.50" x2="355.50" y2="58.50" stroke="#26a69a" stroke-width="1.00"/>"
<rect x="354.00" y="41.00" width="3.00" height="5.00" fill="#26a69a"/>"
<line x1="359.50" y1="35.50" x2="359.50" y2="50.50" stroke="#ef5350" stroke-width="1.00"/>"
<rect x="358.00" y="44.00" width="3.00" height="3.00" fill="#ef5350"/>"
<line x1="363.50" y1="36.50" x2="363.50" y2="61.50" stroke="#26a69a" stroke-width="1.00"/>"
<rect x="361.00" y="44.00" width="3.00" height="6.00" fill="#26a69a"/>"
<line x1="366.50" y1="37.50" x2="366.50" y2="52.50" stroke="#ef5350" stroke-width="1.00"/>"
<rect x="365.00" y="45.00" width="3.00" height="3.00" fill="#ef5350"/>"
<line x1="370.50" y1="37.50" x2="370.50" y2="62.50" stroke="#26a69a" stroke-width="1.00"/>"
<rect x="368.00" y="46.00" width="3.00" height="6.00" fill="#26a69a"/>"
<line x1="374.50" y1="37.50" x2="374.50" y2="53.50" stroke="#ef5350" stroke-width="1.00"/>"
<rect x="372.00" y="45.00" width="3.00" height="4.00" fill="#ef5350"/>"
<line x1="377.50" y1="37.50" x2="377.50" y2="63.50" stroke="#26a69a" stroke-width="1.00"/>"
<rect x="376.00" y="47.00" width="3.00" height="6.00" fill="#26a69a"/>"
<line x1="381.50" y1="36.50" x2="381.50" y2="53.50" stroke="#ef5350" stroke-width="1.00"/>"
<rect x="379.00" y="44.00" width="3.00" height="4.00" fill="#ef5350"/>"
<line x1="385.50" y1="35.50" x2="385.50" y2="62.50" stroke="#26a69a" stroke-width="1.00"/>"
<rect x="383.00" y="47.00" width="3.00" height="6.00" fill="#26a69a"/>"
<line x1="388.50" y1="34.50" x2="388.50" y2="52.50" stroke="#ef5350" stroke-width="1.00"/>"
<rect x="387.00" y="38.00" width="3.00" height="8.00" fill="#ef5350"/>"
<line x1="392.50" y1="33.50" x2="392.50" y2="61.50" stroke="#26a69a" stroke-width="1.00"/>"
<rect x="390.00" y="46.00" width="3.00" height="12.00" fill="#26a69a"/>"
<line x1="396.50" y1="32.50" x2="396.50" y2="50.50" stroke="#ef5350" stroke-width="1.00"/>"
<rect x="394.00" y="36.00" width="3.00" height="7.00" fill="#ef5350"/>"
<line x1="399.50" y1="30.50" x2="399.50" y2="59.50" stroke="#26a69a" stroke-width="1.00"/>"
<rect x="398.00" y="45.00" width="3.00" height="9.00" fill="#26a69a"/>"
<line x1="403.50" y1="28.50" x2="403.50" y2="47.50" stroke="#ef5350" stroke-width="1.00"/>"
<rect x="401.00" y="33.00" width="3.00" height="6.00" fill="#ef5350"/>"
<line x1="406.50" y1="35.50" x2="406.50" y2="46.50" stroke="#26a69a" stroke-width="1.00"/>"
<rect x="405.00" y="41.00" width="3.00" height="3.00" fill="#26a69a"/>"
<line x1="410.50" y1="23.50" x2="410.50" y2="44.50" stroke="#ef5350" stroke-width="1.00"/>"
<rect x="409.00" y="30.00" width="3.00" height="4.00" fill="#ef5350"/>"
<line x1="414.50" y1="30.50" x2="414.50" y2="41.50" stroke="#26a69a" stroke-width="1.00"/>"
<rect x="412.00" y="37.00" width="3.00" height="2.00" fill="#26a69a"/>"
<line x1="417.50" y1="37.50" x2="417.50" y2="58.50" stroke="#ef5350" stroke-width="1.00"/>"
<rect x="416.00" y="44.00" width="3.00" height="3.00" fill="#ef5350"/>"
<line x1="421.50" y1="43.50" x2="421.50" y2="55.50" stroke="#26a69a" stroke-width="1.00"/>"
<rect x="420.00" y="51.00" width="3.00" height="1.00" fill="#26a69a"/>"
<line x1="425.50" y1="49.50" x2="425.50" y2="71.50" stroke="#ef5350" stroke-width="1.00"/>"
<rect x="423.00" y="58.00" width="3.00" height="1.00" fill="#ef5350"/>"
<line x1="428.50" y1="55.50" x2="428.50" y2="68.50" stroke="#ef5350" stroke-width="1.00"/>"
<rect x="427.00" y="64.00" width="3.00" height="3.00" fill="#ef5350"/>"
<line x1="432.50" y1="61.50" x2="432.50" y2="83.50" stroke="#26a69a" stroke-width="1.00"/>"
<rect x="431.00" y="65.00" width="3.00" height="5.00" fill="#26a69a"/>"
<line x1="436.50" y1="66.50" x2="436.50" y2="79.50" stroke="#ef5350" stroke-width="1.00"/>"
<rect x="434.00" y="74.00" width="3.00" height="4.00" fill="#ef5350"/>"
<line x1="439.50" y1="71.50" x2="439.50" y2="94.50" stroke="#26a69a" stroke-width="1.00"/>"
<rect x="438.00" y="77.00" width="3.00" height="5.00" fill="#26a69a"/>"
<line x1="443.50" y1="76.50" x2="443.50" y2="90.50" stroke="#ef5350" stroke-width="1.00"/>"
<rect x="441.00" y="84.00" width="3.00" height="3.00" fill="#ef5350"/>"
<line x1="447.50" y1="80.50" x2="447.50" y2="104.50" stroke="#26a69a" stroke-width="1.00"/>"
<rect x="445.00" y="87.00" width="3.00" height="6.00" fill="#26a69a"/>"
<line x1="450.50" y1="84.50" x2="450.50" y2="99.50" stroke="#ef5350" stroke-width="1.00"/>"
<rect x="449.00" y="93.00" width="3.00" height="3.00" fill="#ef5350"/>"
<line x1="454.50" y1="88.50" x2="454.50" y2="113.50" stroke="#26a69a" stroke-width="1.00"/>"
<rect x="452.00" y="96.00" width="3.00" height="6.00" fill="#26a69a"/>"
<line x1="458.50" y1="92.50" x2="458.50" y2="108.50" stroke="#ef5350" stroke-width="1.00"/>"
<rect x="456.00" y="100.00" width="3.00" height="4.00" fill="#ef5350"/>"
<line x1="461.50" y1="95.50" x2="461.50" y2="121.50" stroke="#26a69a" stroke-width="1.00"/>"
<rect x="460.00" y="104.00" width="3.00" height="7.00" fill="#26a69a"/>"
<line x1="465.50" y1="98.50" x2="465.50" y2="115.50" stroke="#ef5350" stroke-width="1.00"/>"
<rect x="463.00" y="106.00" width="3.00" height="4.00" fill="#ef5350"/>"
<line x1="469.50" y1="101.50" x2="469.50" y2="127.50" stroke="#26a69a" stroke-width="1.00"/>"
<rect x="467.00" y="112.00" width="3.00" height="6.00" fill="#26a69a"/>"
<line x1="472.50" y1="103.50" x2="472.50" y2="121.50" stroke="#ef5350" stroke-width="1.00"/>"
<rect x="471.00" y="111.00" width="3.00" height="4.00" fill="#ef5350"/>"
<line x1="476.50" y1="106.50" x2="476.50" y2="133.50" stroke="#26a69a" stroke-width="1.00"/>"
<rect x="474.00" y="118.00" width="3.00" height="12.00" fill="#26a69a"/>"
<line x1="479.50" y1="107.50" x2="479.50" y2="125.50" stroke="#ef5350" stroke-width="1.00"/>"
<rect x="478.00" y="111.00" width="3.00" height="8.00" fill="#ef5350"/>"
<line x1="483.50" y1="109.50" x2="483.50" y2="137.50" stroke="#26a69a" stroke-width="1.00"/>"
<rect x="482.00" y="122.00" width="3.00" height="11.00" fill="#26a69a"/>"
<line x1="487.50" y1="110.50" x2="487.50" y2="129.50" stroke="#ef5350" stroke-width="1.00"/>"
<rect x="485.00" y="115.00" width="3.00" height="6.00" fill="#ef5350"/>"
<line x1="490.50" y1="121.50" x2="490.50" y2="130.50" stroke="#26a69a" stroke-width="1.00"/>"
<rect x="489.00" y="126.00" width="3.00" height="2.00" fill="#26a69a"/>"
<line x1="494.50" y1="111.50" x2="494.50" y2="131.50" stroke="#ef5350" stroke-width="1.00"/>"
<rect x="493.00" y="117.00" width="3.00" height="5.00" fill="#ef5350"/>"
<line x1="498.50" y1="121.50" x2="498.50" y2="132.50" stroke="#26a69a" stroke-width="1.00"/>"
<rect x="496.00" y="127.00" width="3.00" height="2.00" fill="#26a69a"/>"
<line x1="501.50" y1="112.50" x2="501.50" y2="132.50" stroke="#ef5350" stroke-width="1.00"/>"
<rect x="500.00" y="118.00" width="3.00" height="4.00" fill="#ef5350"/>"
<line x1="505.50" y1="121.50" x2="505.50" y2="132.50" stroke="#26a69a" stroke-width="1.00"/>"
<rect x="504.00" y="127.00" width="3.00" height="2.00" fill="#26a69a"/>"
<line x1="509.50" y1="129.50" x2="509.50" y2="151.50" stroke="#ef5350" stroke-width="1.00"/>"
<rect x="507.00" y="137.00" width="3.00" height="2.00" fill="#ef5350"/>"
<line x1="512.50" y1="138.50" x2="512.50" y2="150.50" stroke="#26a69a" stroke-width="1.00"/>"
<rect x="511.00" y="146.00" width="3.00" height="1.00" fill="#26a69a"/>"
<line x1="516.50" y1="146.50" x2="516.50" y2="168.50" stroke="#ef5350" stroke-width="1.00"/>"
<rect x="514.00" y="155.00" width="3.00" height="1.00" fill="#ef5350"/>"
<line x1="520.50" y1="154.50" x2="520.50" y2="167.50" stroke="#ef5350" stroke-width="1.00"/>"
<rect x="518.00" y="162.00" width="3.00" height="3.00" fill="#ef5350"/>"
<line x1="523.50" y1="161.50" x2="523.50" y2="184.50" stroke="#26a69a" stroke-width="1.00"/>"
<rect x="522.00" y="166.00" width="3.00" height="5.00" fill="#26a69a"/>"
<line x1="527.50" y1="168.50" x2="527.50" y2="182.50" stroke="#ef5350" stroke-width="1.00"/>"
<rect x="525.00" y="177.00" width="3.00" height="3.00" fill="#ef5350"/>"
<line x1="531.50" y1="175.50" x2="531.50" y2="198.50" stroke="#26a69a" stroke-width="1.00"/>"
<rect x="529.00" y="181.00" width="3.00" height="5.00" fill="#26a69a"/>"
<line x1="534.50" y1="181.50" x2="534.50" y2="196.50" stroke="#ef5350" stroke-width="1.00"/>"
<rect x="533.00" y="189.00" width="3.00" height="4.00" fill="#ef5350"/>"
<line x1="538.50" y1="187.50" x2="538.50" y2="211.50" stroke="#26a69a" stroke-width="1.00"/>"
<rect x="536.00" y="194.00" width="3.00" height="6.00" fill="#26a69a"/>"
<line x1="542.50" y1="193.50" x2="542.50" y2="208.50" stroke="#ef5350" stroke-width="1.00"/>"
<rect x="540.00" y="201.00" width="3.00" height="3.00" fill="#ef5350"/>"
<line x1="545.50" y1="198.50" x2="545.50" y2="223.50" stroke="#26a69a" stroke-width="1.00"/>"
<rect x="544.00" y="206.00" width="3.00" height="6.00" fill="#26a69a"/>"
<line x1="549.50" y1="202.50" x2="549.50" y2="218.50" stroke="#ef5350" stroke-width="1.00"/>"
<rect x="547.00" y="210.00" width="3.00" height="4.00" fill="#ef5350"/>"
<line x1="552.50" y1="207.50" x2="552.50" y2="233.50" stroke="#26a69a" stroke-width="1.00"/>"
<rect x="551.00" y="217.00" width="3.00" height="6.00" fill="#26a69a"/>"
<line x1="556.50" y1="211.50" x2="556.50" y2="227.50" stroke="#ef5350" stroke-width="1.00"/>"
<rect x="555.00" y="218.00" width="3.00" height="4.00" fill="#ef5350"/>"
<line x1="560.50" y1="214.50" x2="560.50" y2="241.50" stroke="#26a69a" stroke-width="1.00"/>"
<rect x="558.00" y="225.00" width="3.00" height="7.00" fill="#26a69a"/>"
<line x1="563.50" y1="217.50" x2="563.50" y2="235.50" stroke="#ef5350" stroke-width="1.00"/>"
<rect x="562.00" y="220.00" width="3.00" height="9.00" fill="#ef5350"/>"
<line x1="567.50" y1="220.50" x2="567.50" y2="248.50" stroke="#26a69a" stroke-width="1.00"/>"
<rect x="566.00" y="233.00" width="3.00" height="12.00" fill="#26a69a"/>"
<line x1="571.50" y1="222.50" x2="571.50" y2="241.50" stroke="#ef5350" stroke-width="1.00"/>"
<rect x="569.00" y="226.00" width="3.00" height="8.00" fill="#ef5350"/>"
<line x1="574.50" y1="224.50" x2="574.50" y2="253.50" stroke="#26a69a" stroke-width="1.00"/>"
<rect x="573.00" y="238.00" width="3.00" height="10.00" fill="#26a69a"/>"
<line x1="578.50" y1="226.50" x2="578.50" y2="245.50" stroke="#ef5350" stroke-width="1.00"/>"
<rect x="577.00" y="231.00" width="3.00" height="6.00" fill="#ef5350"/>"
<line x1="582.50" y1="236.50" x2="582.50" y2="246.50" stroke="#26a69a" stroke-width="1.00"/>"
<rect x="580.00" y="242.00" width="3.00" height="2.00" fill="#26a69a"/>"
<line x1="585.50" y1="227.50" x2="585.50" y2="247.50" stroke="#ef5350" stroke-width="1.00"/>"
<rect x="584.00" y="233.00" width="3.00" height="5.00" fill="#ef5350"/>"
<line x1="589.50" y1="237.50" x2="589.50" y2="248.50" stroke="#26a69a" stroke-width="1.00"/>"
<rect x="587.00" y="243.00" width="3.00" height="2.00" fill="#26a69a"/>"
<line x1="593.50" y1="227.50" x2="593.50" y2="248.50" stroke="#ef5350" stroke-width="1.00"/>"
<rect x="591.00" y="234.00" width="3.00" height="3.00" fill="#ef5350"/>"
<line x1="596.50" y1="236.50" x2="596.50" y2="247.50" stroke="#26a69a" stroke-width="1.00"/>"
<rect x="595.00" y="243.00" width="3.00" height="1.00" fill="#26a69a"/>"
<line x1="600.50" y1="244.50" x2="600.50" y2="266.50" stroke="#ef5350" stroke-width="1.00"/>"
<rect x="598.00" y="252.00" width="3.00" height="2.00" fill="#ef5350"/>"
<line x1="604.50" y1="252.50" x2="604.50" y2="264.50" stroke="#26a69a" stroke-width="1.00"/>"
<rect x="602.00" y="260.00" width="3.00" height="1.00" fill="#26a69a"/>"
<line x1="607.50" y1="259.50" x2="607.50" y2="282.50" stroke="#26a69a" stroke-width="1.00"/>"
<rect x="606.00" y="263.00" width="3.00" height="6.00" fill="#26a69a"/>"
<line x1="611.50" y1="266.50" x2="611.50" y2="279.50" stroke="#ef5350" stroke-width="1.00"/>"
<rect x="609.00" y="275.00" width="3.00" height="3.00" fill="#ef5350"/>"
<line x1="615.50" y1="273.50" x2="615.50" y2="296.50" stroke="#26a69a" stroke-width="1.00"/>"
<rect x="613.00" y="278.00" width="3.00" height="6.00" fill="#26a69a"/>"
<line x1="618.50" y1="279.50" x2="618.50" y2="293.50" stroke="#ef5350" stroke-width="1.00"/>"
<rect x="617.00" y="287.00" width="3.00" height="4.00" fill="#ef5350"/>"
<line x1="622.50" y1="284.50" x2="622.50" y2="308.50" stroke="#26a69a" stroke-width="1.00"/>"
<rect x="620.00" y="291.00" width="3.00" height="5.00" fill="#26a69a"/>"
<line x1="625.50" y1="289.50" x2="625.50" y2="304.50" stroke="#ef5350" stroke-width="1.00"/>"
<rect x="624.00" y="298.00" width="3.00" height="3.00" fill="#ef5350"/>"
<line x1="629.50" y1="294.50" x2="629.50" y2="319.50" stroke="#26a69a" stroke-width="1.00"/>"
<rect x="628.00" y="301.00" width="3.00" height="6.00" fill="#26a69a"/>"
<line x1="633.50" y1="298.50" x2="633.50" y2="313.50" stroke="#ef5350" stroke-width="1.00"/>"
<rect x="631.00" y="306.00" width="3.00" height="4.00" fill="#ef5350"/>"
<line x1="636.50" y1="302.50" x2="636.50" y2="327.50" stroke="#26a69a" stroke-width="1.00"/>"
<rect x="635.00" y="310.00" width="3.00" height="6.00" fill="#26a69a"/>"
<line x1="640.50" y1="305.50" x2="640.50" y2="321.50" stroke="#ef5350" stroke-width="1.00"/>"
<rect x="639.00" y="312.00" width="3.00" height="4.00" fill="#ef5350"/>"
<line x1="644.50" y1="307.50" x2="644.50" y2="333.50" stroke="#26a69a" stroke-width="1.00"/>"
<rect x="642.00" y="317.00" width="3.00" height="7.00" fill="#26a69a"/>"
<line x1="647.50" y1="309.50" x2="647.50" y2="326.50" stroke="#ef5350" stroke-width="1.00"/>"
<rect x="646.00" y="317.00" width="3.00" height="4.00" fill="#ef5350"/>"
<line x1="651.50" y1="311.50" x2="651.50" y2="338.50" stroke="#26a69a" stroke-width="1.00"/>"
<rect x="650.00" y="322.00" width="3.00" height="7.00" fill="#26a69a"/>"
<line x1="655.50" y1="312.50" x2="655.50" y2="330.50" stroke="#ef5350" stroke-width="1.00"/>"
<rect x="653.00" y="315.00" width="3.00" height="8.00" fill="#ef5350"/>"
<line x1="658.50" y1="312.50" x2="658.50" y2="340.50" stroke="#26a69a" stroke-width="1.00"/>"
<rect x="657.00" y="325.00" width="3.00" height="12.00" fill="#26a69a"/>"
<line x1="662.50" y1="312.50" x2="662.50" y2="331.50" stroke="#ef5350" stroke-width="1.00"/>"
<rect x="660.00" y="316.00" width="3.00" height="7.00" fill="#ef5350"/>"
<line x1="666.50" y1="312.50" x2="666.50" y2="340.50" stroke="#26a69a" stroke-width="1.00"/>"
<rect x="664.00" y="326.00" width="3.00" height="10.00" fill="#26a69a"/>"
<line x1="669.50" y1="311.50" x2="669.50" y2="330.50" stroke="#ef5350" stroke-width="1.00"/>"
<rect x="668.00" y="316.00" width="3.00" height="5.00" fill="#ef5350"/>"
<line x1="673.50" y1="319.50" x2="673.50" y2="329.50" stroke="#26a69a" stroke-width="1.00"/>"
<rect x="671.00" y="324.00" width="3.00" height="3.00" fill="#26a69a"/>"
<line x1="677.50" y1="307.50" x2="677.50" y2="327.50" stroke="#ef5350" stroke-width="1.00"/>"
<rect x="675.00" y="313.00" width="3.00" height="4.00" fill="#ef5350"/>"
<line x1="680.50" y1="314.50" x2="680.50" y2="325.50" stroke="#26a69a" stroke-width="1.00"/>"
<rect x="679.00" y="320.00" width="3.00" height="2.00" fill="#26a69a"/>"
<line x1="684.50" y1="320.50" x2="684.50" y2="341.50" stroke="#ef5350" stroke-width="1.00"/>"
<rect x="682.00" y="328.00" width="3.00" height="2.00" fill="#ef5350"/>"
<line x1="688.50" y1="326.50" x2="688.50" y2="338.50" stroke="#26a69a" stroke-width="1.00"/>"
<rect x="686.00" y="334.00" width="3.00" height="1.00" fill="#26a69a"/>"
<line x1="691.50" y1="331.50" x2="691.50" y2="353.50" stroke="#ef5350" stroke-width="1.00"/>"
<rect x="690.00" y="340.00" width="3.00" height="1.00" fill="#ef5350"/>"
<line x1="695.50" y1="336.50" x2="695.50" y2="349.50" stroke="#ef5350" stroke-width="1.00"/>"
<rect x="693.00" y="345.00" width="3.00" height="3.00" fill="#ef5350"/>"
<line x1="698.50" y1="341.50" x2="698.50" y2="363.50" stroke="#26a69a" stroke-width="1.00"/>"
<rect x="697.00" y="345.00" width="3.00" height="5.00" fill="#26a69a"/>"
<line x1="702.50" y1="344.50" x2="702.50" y2="358.50" stroke="#ef5350" stroke-width="1.00"/>"
<rect x="701.00" y="353.00" width="3.00" height="3.00" fill="#ef5350"/>"
<line x1="706.50" y1="347.50" x2="706.50" y2="371.50" stroke="#26a69a" stroke-width="1.00"/>"
<rect x="704.00" y="353.00" width="3.00" height="6.00" fill="#26a69a"/>"
<line x1="709.50" y1="350.50" x2="709.50" y2="364.50" stroke="#ef5350" stroke-width="1.00"/>"
<rect x="708.00" y="358.00" width="3.00" height="4.00" fill="#ef5350"/>"
<line x1="713.50" y1="352.50" x2="713.50" y2="376.50" stroke="#26a69a" stroke-width="1.00"/>"
<rect x="712.00" y="359.00" width="3.00" height="6.00" fill="#26a69a"/>"
<line x1="717.50" y1="354.50" x2="717.50" y2="369.50" stroke="#ef5350" stroke-width="1.00"/>"
<rect x="715.00" y="362.00" width="3.00" height="3.00" fill="#ef5350"/>"
<line x1="720.50" y1="355.50" x2="720.50" y2="380.50" stroke="#26a69a" stroke-width="1.00"/>"
<rect x="719.00" y="363.00" width="3.00" height="6.00" fill="#26a69a"/>"
<line x1="724.50" y1="355.50" x2="724.50" y2="371.50" stroke="#ef5350" stroke-width="1.00"/>"
<rect x="723.00" y="363.00" width="3.00" height="4.00" fill="#ef5350"/>"
<line x1="728.50" y1="355.50" x2="728.50" y2="381.50" stroke="#26a69a" stroke-width="1.00"/>"
<rect x="726.00" y="364.00" width="3.00" height="7.00" fill="#26a69a"/>"
<polyline points="71.17,345.99 74.83,343.46 78.47,341.49 82.12,338.91 85.77,336.78 89.42,334.16 93.08,331.87 96.72,329.22 100.38,326.78 104.02,324.11 107.67,321.52 111.33,318.86 114.97,316.11 118.62,313.48 122.27,310.62 125.92,308.02 129.57,305.06 133.22,302.53 136.88,299.48 140.53,296.03 144.17,291.93 147.82,287.83 151.47,282.57 155.12,277.51 158.78,272.24 162.42,267.19 166.07,261.69 169.72,256.78 173.38,251.38 177.03,246.47 180.67,241.19 184.32,236.29 187.97,231.17 191.62,226.29 195.28,221.34 198.92,216.49 202.57,211.74 206.22,206.93 209.88,202.41 213.53,197.71 217.17,193.43 220.82,188.83 224.47,184.83 228.12,180.36 231.78,175.63 235.42,170.33 239.07,165.15 242.72,159.88 246.38,154.94 250.03,149.87 253.67,145.30 257.32,140.27 260.97,135.91 264.62,131.20 268.27,127.07 271.93,122.72 275.57,118.82 279.22,114.85 282.88,111.19 286.52,107.62 290.18,104.21 293.82,101.07 297.47,97.92 301.12,95.23 304.77,92.41 308.43,90.18 312.07,87.68 315.72,84.93 319.38,81.79 323.02,78.56 326.68,74.65 330.32,71.13 333.97,67.60 337.62,64.50 341.27,61.10 344.93,58.54 348.57,55.63 352.22,53.45 355.88,51.04 359.52,49.24 363.18,47.35 366.82,45.92 370.47,44.56 374.12,43.52 377.77,42.69 381.43,42.02 385.07,41.74 388.72,41.49 392.38,41.77 396.02,41.92 399.68,42.76 403.32,43.32 406.97,43.73 410.62,43.72 414.27,43.95 417.93,44.22 421.57,44.91 425.22,45.60 428.88,46.89 432.52,47.79 436.18,49.48 439.82,50.89 443.47,52.98 447.12,54.89 450.77,57.36 454.43,59.78 458.07,62.62 461.72,65.55 465.38,68.73 469.02,72.16 472.68,75.68 476.32,79.61 479.97,83.49 483.62,87.93 487.27,92.14 490.93,96.08 494.57,99.65 498.22,103.07 501.88,105.83 505.52,108.95 509.18,112.04 512.82,115.50 516.48,118.89 520.12,122.81 523.77,126.30 527.42,130.48 531.07,134.34 534.73,138.76 538.38,142.98 542.02,147.62 545.67,152.18 549.32,157.00 552.98,161.90 556.62,166.90 560.27,172.11 563.92,177.28 567.57,182.81 571.23,188.13 574.88,193.95 578.52,199.41 582.17,204.52 585.82,209.12 589.48,213.51 593.12,217.10 596.77,220.94 600.42,224.63 604.07,228.60 607.73,232.12 611.38,236.31 615.02,239.99 618.67,244.21 622.32,248.04 625.98,252.27 629.62,256.22 633.27,260.44 636.92,264.52 640.57,268.70 644.23,272.88 647.88,277.00 651.52,281.29 655.17,285.36 658.82,289.74 662.48,293.75 666.12,298.22 669.77,302.14 673.42,305.66 677.07,308.52 680.73,311.36 684.38,313.97 688.02,316.74 691.67,319.26 695.32,322.11 698.98,324.30 702.62,327.02 706.27,329.18 709.92,331.75 713.57,333.89 717.23,336.29 720.88,338.40 724.52,340.63 728.17,342.70" stroke="#2196f3" stroke-width="1.00" fill="none"/>"
<rect x="730.00" y="0.00" width="70.00" height="399.50" fill="#131722"/>"
<line x1="730.00" y1="0.00" x2="730.00" y2="399.50" stroke="#1e222d" stroke-width="1.00"/>"
<line x1="730.00" y1="387.06" x2="734.00" y2="387.06" stroke="#1e222d" stroke-width="1.00"/>"
<text x="736.00" y="387.06" fill="#b2b5be" font-family="sans-serif" font-size="11.0" text-anchor="start" dominant-baseline="central">95</text>
<line x1="730.00" y1="363.03" x2="734.00" y2="363.03" stroke="#1e222d" stroke-width="1.00"/>"
<text x="736.00" y="363.03" fill="#b2b5be" font-family="sans-serif" font-size="11.0" text-anchor="start" dominant-baseline="central">100</text>
<line x1="730.00" y1="339.00" x2="734.00" y2="339.00" stroke="#1e222d" stroke-width="1.00"/>"
<text x="736.00" y="339.00" fill="#b2b5be" font-family="sans-serif" font-size="11.0" text-anchor="start" dominant-baseline="central">105</text>
<line x1="730.00" y1="314.97" x2="734.00" y2="314.97" stroke="#1e222d" stroke-width="1.00"/>"
<text x="736.00" y="314.97" fill="#b2b5be" font-family="sans-serif" font-size="11.0" text-anchor="start" dominant-baseline="central">110</text>
<line x1="730.00" y1="290.94" x2="734.00" y2="290.94" stroke="#1e222d" stroke-width="1.00"/>"
<text x="736.00" y="290.94" fill="#b2b5be" font-family="sans-serif" font-size="11.0" text-anchor="start" dominant-baseline="central">115</text>
<line x1="730.00" y1="266.91" x2="734.00" y2="266.91" stroke="#1e222d" stroke-width="1.00"/>"
<text x="736.00" y="266.91" fill="#b2b5be" font-family="sans-serif" font-size="11.0" text-anchor="start" dominant-baseline="central">120</text>
<line x1="730.00" y1="242.88" x2="734.00" y2="242.88" stroke="#1e222d" stroke-width="1.00"/>"
<text x="736.00" y="242.88" fill="#b2b5be" font-family="sans-serif" font-size="11.0" text-anchor="start" dominant-baseline="central">125</text>
<line x1="730.00" y1="218.85" x2="734.00" y2="218.85" stroke="#1e222d" stroke-width="1.00"/>"
<text x="736.00" y="218.85" fill="#b2b5be" font-family="sans-serif" font-size="11.0" text-anchor="start" dominant-baseline="central">130</text>
<line x1="730.00" y1="194.82" x2="734.00" y2="194.82" stroke="#1e222d" stroke-width="1.00"/>"
<text x="736.00" y="194.82" fill="#b2b5be" font-family="sans-serif" font-size="11.0" text-anchor="start" dominant-baseline="central">135</text>
<line x1="730.00" y1="170.79" x2="734.00" y2="170.79" stroke="#1e222d" stroke-width="1.00"/>"
<text x="736.00" y="170.79" fill="#b2b5be" font-family="sans-serif" font-size="11.0" text-anchor="start" dominant-baseline="central">140</text>
<line x1="730.00" y1="146.76" x2="734.00" y2="146.76" stroke="#1e222d" stroke-width="1.00"/>"
<text x="736.00" y="146.76" fill="#b2b5be" font-family="sans-serif" font-size="11.0" text-anchor="start" dominant-baseline="central">145</text>
<line x1="730.00" y1="122.73" x2="734.00" y2="122.73" stroke="#1e222d" stroke-width="1.00"/>"
<text x="736.00" y="122.73" fill="#b2b5be" font-family="sans-serif" font-size="11.0" text-anchor="start" dominant-baseline="central">150</text>
<line x1="730.00" y1="98.70" x2="734.00" y2="98.70" stroke="#1e222d" stroke-width="1.00"/>"
<text x="736.00" y="98.70" fill="#b2b5be" font-family="sans-serif" font-size="11.0" text-anchor="start" dominant-baseline="central">155</text>
<line x1="730.00" y1="74.67" x2="734.00" y2="74.67" stroke="#1e222d" stroke-width="1.00"/>"
<text x="736.00" y="74.67" fill="#b2b5be" font-family="sans-serif" font-size="11.0" text-anchor="start" dominant-baseline="central">160</text>
<line x1="730.00" y1="50.63" x2="734.00" y2="50.63" stroke="#1e222d" stroke-width="1.00"/>"
<text x="736.00" y="50.63" fill="#b2b5be" font-family="sans-serif" font-size="11.0" text-anchor="start" dominant-baseline="central">165</text>
<line x1="730.00" y1="26.60" x2="734.00" y2="26.60" stroke="#1e222d" stroke-width="1.00"/>"
<text x="736.00" y="26.60" fill="#b2b5be" font-family="sans-serif" font-size="11.0" text-anchor="start" dominant-baseline="central">170</text>
<line x1="730.00" y1="2.57" x2="734.00" y2="2.57" stroke="#1e222d" stroke-width="1.00"/>"
<text x="736.00" y="2.57" fill="#b2b5be" font-family="sans-serif" font-size="11.0" text-anchor="start" dominant-baseline="central">175</text>
<rect x="0.00" y="403.50" width="730.00" height="66.50" fill="#131722"/>"
<line x1="0.00" y1="403.50" x2="730.00" y2="403.50" stroke="#1e222d" stroke-width="1.00"/>"
<line x1="0.00" y1="423.45" x2="730.00" y2="423.45" stroke="rgba(239,83,80,0.3764705882352941)" stroke-width="0.50"/>"
<line x1="0.00" y1="450.05" x2="730.00" y2="450.05" stroke="rgba(38,166,154,0.3764705882352941)" stroke-width="0.50"/>"
<line x1="0.00" y1="436.75" x2="730.00" y2="436.75" stroke="rgba(120,123,134,0.25098039215686274)" stroke-width="0.50"/>"
<polyline points="52.92,414.42 56.57,414.13 60.23,411.88 63.88,411.72 67.52,416.03 71.17,415.88 74.83,415.04 78.47,422.39 82.12,420.16 85.77,424.74 89.42,422.39 93.08,425.06 96.72,422.77 100.38,423.76 104.02,421.66 107.67,421.35 111.33,419.58 114.97,418.67 118.62,417.31 122.27,416.01 125.92,415.06 129.57,413.59 133.22,412.99 136.88,411.52 140.53,411.09 144.17,409.83 147.82,409.55 151.47,408.48 155.12,408.30 158.78,409.25 162.42,409.07 166.07,408.66 169.72,412.75 173.38,411.75 177.03,414.23 180.67,413.11 184.32,414.15 187.97,413.07 191.62,412.98 195.28,412.05 198.92,411.73 202.57,410.98 206.22,410.48 209.88,409.93 213.53,409.31 217.17,408.94 220.82,408.27 224.47,408.04 228.12,407.38 231.78,407.21 235.42,406.64 239.07,406.53 242.72,408.91 246.38,408.75 250.03,409.58 253.67,410.75 257.32,409.99 260.97,414.36 264.62,413.31 268.27,416.19 271.93,415.04 275.57,416.59 279.22,415.48 282.88,415.65 286.52,414.69 290.18,414.40 293.82,413.65 297.47,413.05 301.12,412.53 304.77,411.70 308.43,411.41 312.07,410.42 315.72,410.24 319.38,409.26 323.02,409.18 326.68,408.25 330.32,408.25 333.97,412.97 337.62,413.79 341.27,413.48 344.93,421.50 348.57,420.23 352.22,425.94 355.88,424.59 359.52,428.73 363.18,427.45 366.82,430.38 370.47,429.29 374.12,431.11 377.77,430.32 381.43,430.95 385.07,430.59 388.72,429.99 392.38,430.34 396.02,428.48 399.68,430.02 403.32,426.94 406.97,428.89 410.62,425.34 414.27,427.91 417.93,435.25 421.57,437.57 425.22,441.83 428.88,445.23 432.52,444.24 436.18,448.85 439.82,448.11 443.47,451.43 447.12,451.04 450.77,453.48 454.43,453.50 458.07,455.26 461.72,455.45 465.38,456.64 469.02,457.00 472.68,457.69 476.32,458.24 479.97,458.46 483.62,459.23 487.27,457.79 490.93,458.81 494.57,455.26 498.22,456.61 501.88,451.56 505.52,453.37 509.18,456.32 512.82,457.63 516.48,459.26 520.12,460.65 523.77,460.74 527.42,462.32 531.07,462.41 534.73,463.52 538.38,463.63 542.02,464.40 545.67,464.53 549.32,465.07 552.98,465.22 556.62,465.58 560.27,465.76 563.92,465.95 567.57,466.17 571.23,466.22 574.88,466.49 578.52,464.71 582.17,465.13 585.82,461.39 589.48,462.11 593.12,456.74 596.77,457.89 600.42,459.66 604.07,460.55 607.73,460.99 611.38,462.57 615.02,462.58 618.67,463.69 622.32,463.71 625.98,464.50 629.62,464.53 633.27,465.09 636.92,465.13 640.57,465.51 644.23,465.58 647.88,465.80 651.52,465.90 655.17,465.95 658.82,466.10 662.48,463.85 666.12,464.18 669.77,458.90 673.42,459.48 677.07,452.84 680.73,453.77 684.38,456.26 688.02,457.02 691.67,458.45 695.32,459.62 698.98,457.32 702.62,459.24 706.27,456.97 709.92,458.53 713.57,456.32 717.23,457.56 720.88,455.45 724.52,456.33 728.17,454.37" stroke="#9c27b0" stroke-width="1.00" fill="none"/>"
<rect x="730.00" y="403.50" width="70.00" height="66.50" fill="#131722"/>"
<line x1="730.00" y1="403.50" x2="730.00" y2="470.00" stroke="#1e222d" stroke-width="1.00"/>"
<line x1="730.00" y1="470.00" x2="734.00" y2="470.00" stroke="#1e222d" stroke-width="1.00"/>"
<text x="736.00" y="470.00" fill="#b2b5be" font-family="sans-serif" font-size="11.0" text-anchor="start" dominant-baseline="central">0</text>
<line x1="730.00" y1="456.70" x2="734.00" y2="456.70" stroke="#1e222d" stroke-width="1.00"/>"
<text x="736.00" y="456.70" fill="#b2b5be" font-family="sans-serif" font-size="11.0" text-anchor="start" dominant-baseline="central">20</text>
<line x1="730.00" y1="443.40" x2="734.00" y2="443.40" stroke="#1e222d" stroke-width="1.00"/>"
<text x="736.00" y="443.40" fill="#b2b5be" font-family="sans-serif" font-size="11.0" text-anchor="start" dominant-baseline="central">40</text>
<line x1="730.00" y1="430.10" x2="734.00" y2="430.10" stroke="#1e222d" stroke-width="1.00"/>"
<text x="736.00" y="430.10" fill="#b2b5be" font-family="sans-serif" font-size="11.0" text-anchor="start" dominant-baseline="central">60</text>
<line x1="730.00" y1="416.80" x2="734.00" y2="416.80" stroke="#1e222d" stroke-width="1.00"/>"
<text x="736.00" y="416.80" fill="#b2b5be" font-family="sans-serif" font-size="11.0" text-anchor="start" dominant-baseline="central">80</text>
<rect x="0.00" y="470.00" width="800.00" height="30.00" fill="#131722"/>"
<line x1="0.00" y1="470.00" x2="730.00" y2="470.00" stroke="#1e222d" stroke-width="1.00"/>"
<line x1="63.88" y1="470.00" x2="63.88" y2="474.00" stroke="#1e222d" stroke-width="1.00"/>"
<text x="63.88" y="476.00" fill="#b2b5be" font-family="sans-serif" font-size="10.0" text-anchor="middle" dominant-baseline="hanging">Dec</text>
<line x1="125.92" y1="470.00" x2="125.92" y2="474.00" stroke="#1e222d" stroke-width="1.00"/>"
<text x="125.92" y="476.00" fill="#b2b5be" font-family="sans-serif" font-size="10.0" text-anchor="middle" dominant-baseline="hanging">5 Dec</text>
<line x1="187.97" y1="470.00" x2="187.97" y2="474.00" stroke="#1e222d" stroke-width="1.00"/>"
<text x="187.97" y="476.00" fill="#b2b5be" font-family="sans-serif" font-size="10.0" text-anchor="middle" dominant-baseline="hanging">2024</text>
<line x1="250.03" y1="470.00" x2="250.03" y2="474.00" stroke="#1e222d" stroke-width="1.00"/>"
<text x="250.03" y="476.00" fill="#b2b5be" font-family="sans-serif" font-size="10.0" text-anchor="middle" dominant-baseline="hanging">Feb</text>
<line x1="312.07" y1="470.00" x2="312.07" y2="474.00" stroke="#1e222d" stroke-width="1.00"/>"
<text x="312.07" y="476.00" fill="#b2b5be" font-family="sans-serif" font-size="10.0" text-anchor="middle" dominant-baseline="hanging">21 Feb</text>
<line x1="374.12" y1="470.00" x2="374.12" y2="474.00" stroke="#1e222d" stroke-width="1.00"/>"
<text x="374.12" y="476.00" fill="#b2b5be" font-family="sans-serif" font-size="10.0" text-anchor="middle" dominant-baseline="hanging">Mar</text>
<line x1="436.18" y1="470.00" x2="436.18" y2="474.00" stroke="#1e222d" stroke-width="1.00"/>"
<text x="436.18" y="476.00" fill="#b2b5be" font-family="sans-serif" font-size="10.0" text-anchor="middle" dominant-baseline="hanging">25 Mar</text>
<line x1="498.22" y1="470.00" x2="498.22" y2="474.00" stroke="#1e222d" stroke-width="1.00"/>"
<text x="498.22" y="476.00" fill="#b2b5be" font-family="sans-serif" font-size="10.0" text-anchor="middle" dominant-baseline="hanging">Apr</text>
<line x1="560.27" y1="470.00" x2="560.27" y2="474.00" stroke="#1e222d" stroke-width="1.00"/>"
<text x="560.27" y="476.00" fill="#b2b5be" font-family="sans-serif" font-size="10.0" text-anchor="middle" dominant-baseline="hanging">29 Apr</text>
<line x1="622.32" y1="470.00" x2="622.32" y2="474.00" stroke="#1e222d" stroke-width="1.00"/>"
<text x="622.32" y="476.00" fill="#b2b5be" font-family="sans-serif" font-size="10.0" text-anchor="middle" dominant-baseline="hanging">May</text>
<line x1="684.38" y1="470.00" x2="684.38" y2="474.00" stroke="#1e222d" stroke-width="1.00"/>"
<text x="684.38" y="476.00" fill="#b2b5be" font-family="sans-serif" font-size="10.0" text-anchor="middle" dominant-baseline="hanging">Jun</text>
</svg>
