<?xml version="1.0" encoding="UTF-8"?>
<svg xmlns="http://www.w3.org/2000/svg"
     xmlns:xlink="http://www.w3.org/1999/xlink"
     width="800" height="500" viewBox="0 0 800 500">
<defs>

</defs>
<rect x="0" y="0" width="800" height="500" fill="#131722"/>
<line x1="1.50" y1="332.50" x2="1.50" y2="345.50" stroke="#ef5350" stroke-width="1.00"/>"
<rect x="0.00" y="339.00" width="3.00" height="4.00" fill="#ef5350"/>"
<line x1="5.50" y1="333.50" x2="5.50" y2="356.50" stroke="#26a69a" stroke-width="1.00"/>"
<rect x="3.00" y="339.00" width="3.00" height="6.00" fill="#26a69a"/>"
<line x1="9.50" y1="333.50" x2="9.50" y2="347.50" stroke="#ef5350" stroke-width="1.00"/>"
<rect x="7.00" y="341.00" width="3.00" height="3.00" fill="#ef5350"/>"
<line x1="12.50" y1="333.50" x2="12.50" y2="357.50" stroke="#26a69a" stroke-width="1.00"/>"
<rect x="11.00" y="341.00" width="3.00" height="6.00" fill="#26a69a"/>"
<line x1="16.50" y1="333.50" x2="16.50" y2="348.50" stroke="#ef5350" stroke-width="1.00"/>"
<rect x="14.00" y="340.00" width="3.00" height="4.00" fill="#ef5350"/>"
<line x1="20.50" y1="332.50" x2="20.50" y2="356.50" stroke="#26a69a" stroke-width="1.00"/>"
<rect x="18.00" y="341.00" width="3.00" height="5.00" fill="#26a69a"/>"
<line x1="23.50" y1="330.50" x2="23.50" y2="346.50" stroke="#ef5350" stroke-width="1.00"/>"
<rect x="22.00" y="337.00" width="3.00" height="4.00" fill="#ef5350"/>"
<line x1="27.50" y1="328.50" x2="27.50" y2="353.50" stroke="#26a69a" stroke-width="1.00"/>"
<rect x="25.00" y="338.00" width="3.00" height="6.00" fill="#26a69a"/>"
<line x1="31.50" y1="325.50" x2="31.50" y2="342.50" stroke="#ef5350" stroke-width="1.00"/>"
<rect x="29.00" y="332.00" width="3.00" height="4.00" fill="#ef5350"/>"
<line x1="34.50" y1="322.50" x2="34.50" y2="348.50" stroke="#26a69a" stroke-width="1.00"/>"
<rect x="33.00" y="334.00" width="3.00" height="12.00" fill="#26a69a"/>"
<line x1="38.50" y1="319.50" x2="38.50" y2="336.50" stroke="#ef5350" stroke-width="1.00"/>"
<rect x="36.00" y="322.00" width="3.00" height="7.00" fill="#ef5350"/>"
<line x1="41.50" y1="315.50" x2="41.50" y2="341.50" stroke="#26a69a" stroke-width="1.00"/>"
<rect x="40.00" y="328.00" width="3.00" height="9.00" fill="#26a69a"/>"
<line x1="45.50" y1="310.50" x2="45.50" y2="328.50" stroke="#ef5350" stroke-width="1.00"/>"
<rect x="44.00" y="315.00" width="3.00" height="5.00" fill="#ef5350"/>"
<line x1="49.50" y1="314.50" x2="49.50" y2="323.50" stroke="#26a69a" stroke-width="1.00"/>"
<rect x="47.00" y="319.00" width="3.00" height="2.00" fill="#26a69a"/>"
<line x1="52.50" y1="299.50" x2="52.50" y2="318.50" stroke="#ef5350" stroke-width="1.00"/>"
<rect x="51.00" y="305.00" width="3.00" height="4.00" fill="#ef5350"/>"
<line x1="56.50" y1="302.50" x2="56.50" y2="312.50" stroke="#26a69a" stroke-width="1.00"/>"
<rect x="55.00" y="308.00" width="3.00" height="2.00" fill="#26a69a"/>"
<line x1="60.50" y1="287.50" x2="60.50" y2="306.50" stroke="#ef5350" stroke-width="1.00"/>"
<rect x="58.00" y="293.00" width="3.00" height="3.00" fill="#ef5350"/>"
<line x1="63.50" y1="289.50" x2="63.50" y2="299.50" stroke="#26a69a" stroke-width="1.00"/>"
<rect x="62.00" y="295.00" width="3.00" height="1.00" fill="#26a69a"/>"
<line x1="67.50" y1="290.50" x2="67.50" y2="310.50" stroke="#ef5350" stroke-width="1.00"/>"
<rect x="66.00" y="298.00" width="3.00" height="1.00" fill="#ef5350"/>"
<line x1="71.50" y1="291.50" x2="71.50" y2="302.50" stroke="#26a69a" stroke-width="1.00"/>"
<rect x="69.00" y="298.00" width="3.00" height="1.00" fill="#26a69a"/>"
<line x1="74.50" y1="291.50" x2="74.50" y2="312.50" stroke="#26a69a" stroke-width="1.00"/>"
<rect x="73.00" y="295.00" width="3.00" height="5.00" fill="#26a69a"/>"
<line x1="78.50" y1="291.50" x2="78.50" y2="304.50" stroke="#ef5350" stroke-width="1.00"/>"
<rect x="76.00" y="299.00" width="3.00" height="3.00" fill="#ef5350"/>"
<line x1="82.50" y1="291.50" x2="82.50" y2="312.50" stroke="#26a69a" stroke-width="1.00"/>"
<rect x="80.00" y="296.00" width="3.00" height="5.00" fill="#26a69a"/>"
<line x1="85.50" y1="290.50" x2="85.50" y2="303.50" stroke="#ef5350" stroke-width="1.00"/>"
<rect x="84.00" y="298.00" width="3.00" height="3.00" fill="#ef5350"/>"
<line x1="89.50" y1="288.50" x2="89.50" y2="311.50" stroke="#26a69a" stroke-width="1.00"/>"
<rect x="87.00" y="294.00" width="3.00" height="6.00" fill="#26a69a"/>"
<line x1="93.50" y1="286.50" x2="93.50" y2="300.50" stroke="#ef5350" stroke-width="1.00"/>"
<rect x="91.00" y="294.00" width="3.00" height="4.00" fill="#ef5350"/>"
<line x1="96.50" y1="284.50" x2="96.50" y2="307.50" stroke="#26a69a" stroke-width="1.00"/>"
<rect x="95.00" y="291.00" width="3.00" height="6.00" fill="#26a69a"/>"
<line x1="100.50" y1="281.50" x2="100.50" y2="296.50" stroke="#ef5350" stroke-width="1.00"/>"
<rect x="98.00" y="289.00" width="3.00" height="3.00" fill="#ef5350"/>"
<line x1="104.50" y1="278.50" x2="104.50" y2="302.50" stroke="#26a69a" stroke-width="1.00"/>"
<rect x="102.00" y="286.00" width="3.00" height="6.00" fill="#26a69a"/>"
<line x1="107.50" y1="274.50" x2="107.50" y2="289.50" stroke="#ef5350" stroke-width="1.00"/>"
<rect x="106.00" y="281.00" width="3.00" height="4.00" fill="#ef5350"/>"
<line x1="111.50" y1="270.50" x2="111.50" y2="294.50" stroke="#26a69a" stroke-width="1.00"/>"
<rect x="109.00" y="279.00" width="3.00" height="6.00" fill="#26a69a"/>"
<line x1="114.50" y1="265.50" x2="114.50" y2="281.50" stroke="#ef5350" stroke-width="1.00"/>"
<rect x="113.00" y="272.00" width="3.00" height="4.00" fill="#ef5350"/>"
<line x1="118.50" y1="260.50" x2="118.50" y2="285.50" stroke="#26a69a" stroke-width="1.00"/>"
<rect x="117.00" y="271.00" width="3.00" height="6.00" fill="#26a69a"/>"
<line x1="122.50" y1="254.50" x2="122.50" y2="271.50" stroke="#ef5350" stroke-width="1.00"/>"
<rect x="120.00" y="257.00" width="3.00" height="8.00" fill="#ef5350"/>"
<line x1="125.50" y1="248.50" x2="125.50" y2="274.50" stroke="#26a69a" stroke-width="1.00"/>"
<rect x="124.00" y="260.00" width="3.00" height="11.00" fill="#26a69a"/>"
<line x1="129.50" y1="242.50" x2="129.50" y2="259.50" stroke="#ef5350" stroke-width="1.00"/>"
<rect x="128.00" y="246.00" width="3.00" height="6.00" fill="#ef5350"/>"
<line x1="133.50" y1="235.50" x2="133.50" y2="262.50" stroke="#26a69a" stroke-width="1.00"/>"
<rect x="131.00" y="248.00" width="3.00" height="9.00" fill="#26a69a"/>"
<line x1="136.50" y1="228.50" x2="136.50" y2="246.50" stroke="#ef5350" stroke-width="1.00"/>"
<rect x="135.00" y="232.00" width="3.00" height="6.00" fill="#ef5350"/>"
<line x1="140.50" y1="229.50" x2="140.50" y2="238.50" stroke="#26a69a" stroke-width="1.00"/>"
<rect x="139.00" y="234.00" width="3.00" height="2.00" fill="#26a69a"/>"
<line x1="144.50" y1="212.50" x2="144.50" y2="230.50" stroke="#ef5350" stroke-width="1.00"/>"
<rect x="142.00" y="217.00" width="3.00" height="4.00" fill="#ef5350"/>"
<line x1="147.50" y1="212.50" x2="147.50" y2="222.50" stroke="#26a69a" stroke-width="1.00"/>"
<rect x="146.00" y="218.00" width="3.00" height="2.00" fill="#26a69a"/>"
<line x1="151.50" y1="194.50" x2="151.50" y2="214.50" stroke="#ef5350" stroke-width="1.00"/>"
<rect x="149.00" y="201.00" width="3.00" height="2.00" fill="#ef5350"/>"
<line x1="155.50" y1="193.50" x2="155.50" y2="204.50" stroke="#26a69a" stroke-width="1.00"/>"
<rect x="153.00" y="200.00" width="3.00" height="1.00" fill="#26a69a"/>"
<line x1="158.50" y1="193.50" x2="158.50" y2="213.50" stroke="#ef5350" stroke-width="1.00"/>"
<rect x="157.00" y="201.00" width="3.00" height="1.00" fill="#ef5350"/>"
<line x1="162.50" y1="191.50" x2="162.50" y2="203.50" stroke="#26a69a" stroke-width="1.00"/>"
<rect x="160.00" y="199.00" width="3.00" height="1.00" fill="#26a69a"/>"
<line x1="166.50" y1="190.50" x2="166.50" y2="211.50" stroke="#26a69a" stroke-width="1.00"/>"
<rect x="164.00" y="194.00" width="3.00" height="5.00" fill="#26a69a"/>"
<line x1="169.50" y1="188.50" x2="169.50" y2="200.50" stroke="#ef5350" stroke-width="1.00"/>"
<rect x="168.00" y="196.00" width="3.00" height="3.00" fill="#ef5350"/>"
<line x1="173.50" y1="185.50" x2="173.50" y2="207.50" stroke="#26a69a" stroke-width="1.00"/>"
<rect x="171.00" y="191.00" width="3.00" height="5.00" fill="#26a69a"/>"
<line x1="177.50" y1="183.50" x2="177.50" y2="196.50" stroke="#ef5350" stroke-width="1.00"/>"
<rect x="175.00" y="191.00" width="3.00" height="3.00" fill="#ef5350"/>"
<line x1="180.50" y1="180.50" x2="180.50" y2="202.50" stroke="#26a69a" stroke-width="1.00"/>"
<rect x="179.00" y="186.00" width="3.00" height="5.00" fill="#26a69a"/>"
<line x1="184.50" y1="176.50" x2="184.50" y2="190.50" stroke="#ef5350" stroke-width="1.00"/>"
<rect x="182.00" y="184.00" width="3.00" height="3.00" fill="#ef5350"/>"
<line x1="187.50" y1="172.50" x2="187.50" y2="195.50" stroke="#26a69a" stroke-width="1.00"/>"
<rect x="186.00" y="179.00" width="3.00" height="6.00" fill="#26a69a"/>"
<line x1="191.50" y1="168.50" x2="191.50" y2="183.50" stroke="#ef5350" stroke-width="1.00"/>"
<rect x="190.00" y="175.00" width="3.00" height="4.00" fill="#ef5350"/>"
<line x1="195.50" y1="163.50" x2="195.50" y2="187.50" stroke="#26a69a" stroke-width="1.00"/>"
<rect x="193.00" y="172.00" width="3.00" height="6.00" fill="#26a69a"/>"
<line x1="198.50" y1="158.50" x2="198.50" y2="174.50" stroke="#ef5350" stroke-width="1.00"/>"
<rect x="197.00" y="166.00" width="3.00" height="3.00" fill="#ef5350"/>"
<line x1="202.50" y1="153.50" x2="202.50" y2="178.50" stroke="#26a69a" stroke-width="1.00"/>"
<rect x="201.00" y="163.00" width="3.00" height="6.00" fill="#26a69a"/>"
<line x1="206.50" y1="147.50" x2="206.50" y2="163.50" stroke="#ef5350" stroke-width="1.00"/>"
<rect x="204.00" y="154.00" width="3.00" height="4.00" fill="#ef5350"/>"
<line x1="209.50" y1="141.50" x2="209.50" y2="167.50" stroke="#26a69a" stroke-width="1.00"/>"
<rect x="208.00" y="152.00" width="3.00" height="13.00" fill="#26a69a"/>"
<line x1="213.50" y1="135.50" x2="213.50" y2="152.50" stroke="#ef5350" stroke-width="1.00"/>"
<rect x="212.00" y="138.00" width="3.00" height="7.00" fill="#ef5350"/>"
<line x1="217.50" y1="128.50" x2="217.50" y2="155.50" stroke="#26a69a" stroke-width="1.00"/>"
<rect x="215.00" y="141.00" width="3.00" height="10.00" fill="#26a69a"/>"
<line x1="220.50" y1="121.50" x2="220.50" y2="139.50" stroke="#ef5350" stroke-width="1.00"/>"
<rect x="219.00" y="125.00" width="3.00" height="6.00" fill="#ef5350"/>"
<line x1="224.50" y1="114.50" x2="224.50" y2="141.50" stroke="#26a69a" stroke-width="1.00"/>"
<rect x="222.00" y="128.00" width="3.00" height="8.00" fill="#26a69a"/>"
<line x1="228.50" y1="106.50" x2="228.50" y2="125.50" stroke="#ef5350" stroke-width="1.00"/>"
<rect x="226.00" y="111.00" width="3.00" height="5.00" fill="#ef5350"/>"
<line x1="231.50" y1="107.50" x2="231.50" y2="117.50" stroke="#26a69a" stroke-width="1.00"/>"
<rect x="230.00" y="113.00" width="3.00" height="2.00" fill="#26a69a"/>"
<line x1="235.50" y1="90.50" x2="235.50" y2="109.50" stroke="#ef5350" stroke-width="1.00"/>"
<rect x="233.00" y="96.00" width="3.00" height="3.00" fill="#ef5350"/>"
<line x1="239.50" y1="90.50" x2="239.50" y2="101.50" stroke="#26a69a" stroke-width="1.00"/>"
<rect x="237.00" y="97.00" width="3.00" height="1.00" fill="#26a69a"/>"
<line x1="242.50" y1="90.50" x2="242.50" y2="110.50" stroke="#ef5350" stroke-width="1.00"/>"
<rect x="241.00" y="98.00" width="3.00" height="2.00" fill="#ef5350"/>"
<line x1="246.50" y1="90.50" x2="246.50" y2="101.50" stroke="#26a69a" stroke-width="1.00"/>"
<rect x="244.00" y="97.00" width="3.00" height="1.00" fill="#26a69a"/>"
<line x1="250.50" y1="90.50" x2="250.50" y2="110.50" stroke="#ef5350" stroke-width="1.00"/>"
<rect x="248.00" y="98.00" width="3.00" height="1.00" fill="#ef5350"/>"
<line x1="253.50" y1="89.50" x2="253.50" y2="101.50" stroke="#ef5350" stroke-width="1.00"/>"
<rect x="252.00" y="97.00" width="3.00" height="3.00" fill="#ef5350"/>"
<line x1="257.50" y1="88.50" x2="257.50" y2="109.50" stroke="#26a69a" stroke-width="1.00"/>"
<rect x="255.00" y="92.00" width="3.00" height="5.00" fill="#26a69a"/>"
<line x1="260.50" y1="86.50" x2="260.50" y2="99.50" stroke="#ef5350" stroke-width="1.00"/>"
<rect x="259.00" y="94.00" width="3.00" height="3.00" fill="#ef5350"/>"
<line x1="264.50" y1="85.50" x2="264.50" y2="107.50" stroke="#26a69a" stroke-width="1.00"/>"
<rect x="263.00" y="90.00" width="3.00" height="6.00" fill="#26a69a"/>"
<line x1="268.50" y1="83.50" x2="268.50" y2="96.50" stroke="#ef5350" stroke-width="1.00"/>"
<rect x="266.00" y="91.00" width="3.00" height="3.00" fill="#ef5350"/>"
<line x1="271.50" y1="81.50" x2="271.50" y2="104.50" stroke="#26a69a" stroke-width="1.00"/>"
<rect x="270.00" y="87.00" width="3.00" height="6.00" fill="#26a69a"/>"
<line x1="275.50" y1="78.50" x2="275.50" y2="92.50" stroke="#ef5350" stroke-width="1.00"/>"
<rect x="274.00" y="86.00" width="3.00" height="3.00" fill="#ef5350"/>"
<line x1="279.50" y1="76.50" x2="279.50" y2="99.50" stroke="#26a69a" stroke-width="1.00"/>"
<rect x="277.00" y="83.00" width="3.00" height="6.00" fill="#26a69a"/>"
<line x1="282.50" y1="73.50" x2="282.50" y2="88.50" stroke="#ef5350" stroke-width="1.00"/>"
<rect x="281.00" y="80.00" width="3.00" height="4.00" fill="#ef5350"/>"
<line x1="286.50" y1="69.50" x2="286.50" y2="94.50" stroke="#26a69a" stroke-width="1.00"/>"
<rect x="285.00" y="78.00" width="3.00" height="6.00" fill="#26a69a"/>"
<line x1="290.50" y1="66.50" x2="290.50" y2="81.50" stroke="#ef5350" stroke-width="1.00"/>"
<rect x="288.00" y="73.00" width="3.00" height="4.00" fill="#ef5350"/>"
<line x1="293.50" y1="62.50" x2="293.50" y2="87.50" stroke="#26a69a" stroke-width="1.00"/>"
<rect x="292.00" y="72.00" width="3.00" height="6.00" fill="#26a69a"/>"
<line x1="297.50" y1="58.50" x2="297.50" y2="74.50" stroke="#ef5350" stroke-width="1.00"/>"
<rect x="295.00" y="65.00" width="3.00" height="4.00" fill="#ef5350"/>"
<line x1="301.50" y1="54.50" x2="301.50" y2="79.50" stroke="#26a69a" stroke-width="1.00"/>"
<rect x="299.00" y="65.00" width="3.00" height="12.00" fill="#26a69a"/>"
<line x1="304.50" y1="49.50" x2="304.50" y2="66.50" stroke="#ef5350" stroke-width="1.00"/>"
<rect x="303.00" y="53.00" width="3.00" height="7.00" fill="#ef5350"/>"
<line x1="308.50" y1="44.50" x2="308.50" y2="71.50" stroke="#26a69a" stroke-width="1.00"/>"
<rect x="306.00" y="57.00" width="3.00" height="10.00" fill="#26a69a"/>"
<line x1="312.50" y1="39.50" x2="312.50" y2="57.50" stroke="#ef5350" stroke-width="1.00"/>"
<rect x="310.00" y="44.00" width="3.00" height="5.00" fill="#ef5350"/>"
<line x1="315.50" y1="43.50" x2="315.50" y2="52.50" stroke="#26a69a" stroke-width="1.00"/>"
<rect x="314.00" y="48.00" width="3.00" height="3.00" fill="#26a69a"/>"
<line x1="319.50" y1="28.50" x2="319.50" y2="47.50" stroke="#ef5350" stroke-width="1.00"/>"
<rect x="317.00" y="34.00" width="3.00" height="4.00" fill="#ef5350"/>"
<line x1="323.50" y1="32.50" x2="323.50" y2="42.50" stroke="#26a69a" stroke-width="1.00"/>"
<rect x="321.00" y="37.00" width="3.00" height="2.00" fill="#26a69a"/>"
<line x1="326.50" y1="17.50" x2="326.50" y2="36.50" stroke="#ef5350" stroke-width="1.00"/>"
<rect x="325.00" y="23.00" width="3.00" height="3.00" fill="#ef5350"/>"
<line x1="330.50" y1="19.50" x2="330.50" y2="30.50" stroke="#26a69a" stroke-width="1.00"/>"
<rect x="328.00" y="26.00" width="3.00" height="1.00" fill="#26a69a"/>"
<line x1="333.50" y1="22.50" x2="333.50" y2="42.50" stroke="#ef5350" stroke-width="1.00"/>"
<rect x="332.00" y="30.00" width="3.00" height="1.00" fill="#ef5350"/>"
<line x1="337.50" y1="24.50" x2="337.50" y2="36.50" stroke="#26a69a" stroke-width="1.00"/>"
<rect x="336.00" y="32.00" width="3.00" height="1.00" fill="#26a69a"/>"
<line x1="341.50" y1="26.50" x2="341.50" y2="47.50" stroke="#26a69a" stroke-width="1.00"/>"
<rect x="339.00" y="30.00" width="3.00" height="5.00" fill="#26a69a"/>"
<line x1="344.50" y1="28.50" x2="344.50" y2="40.50" stroke="#ef5350" stroke-width="1.00"/>"
<rect x="343.00" y="36.00" width="3.00" height="3.00" fill="#ef5350"/>"
<line x1="348.50" y1="30.50" x2="348.50" y2="52.50" stroke="#26a69a" stroke-width="1.00"/>"
<rect x="347.00" y="35.00" width="3.00" height="5.00" fill="#26a69a"/>"
<line x1="352.50" y1="31.50" x2="352.50" y2="44.50" stroke="#ef5350" stroke-width="1.00"/>"
<rect x="350.00" y="39.00" width="3.00" height="3.00" fill="#ef5350"/>"
<line x1="355.50" y1="32.50" x2="355.50" y2="55.50" stroke="#26a69a" stroke-width="1.00"/>"
<rect x="354.00" y="38.00" width="3.00" height="6.00" fill="#26a69a"/>"
<line x1="359.50" y1="33.50" x2="359.50" y2="47.50" stroke="#ef5350" stroke-width="1.00"/>"
<rect x="358.00" y="41.00" width="3.00" height="3.00" fill="#ef5350"/>"
<line x1="363.50" y1="34.50" x2="363.50" y2="57.50" stroke="#26a69a" stroke-width="1.00"/>"
<rect x="361.00" y="41.00" width="3.00" height="6.00" fill="#26a69a"/>"
<line x1="366.50" y1="34.50" x2="366.50" y2="49.50" stroke="#ef5350" stroke-width="1.00"/>"
<rect x="365.00" y="42.00" width="3.00" height="4.00" fill="#ef5350"/>"
<line x1="370.50" y1="35.50" x2="370.50" y2="59.50" stroke="#26a69a" stroke-width="1.00"/>"
<rect x="368.00" y="43.00" width="3.00" height="6.00" fill="#26a69a"/>"
<line x1="374.50" y1="35.50" x2="374.50" y2="50.50" stroke="#ef5350" stroke-width="1.00"/>"
<rect x="372.00" y="42.00" width="3.00" height="4.00" fill="#ef5350"/>"
<line x1="377.50" y1="34.50" x2="377.50" y2="59.50" stroke="#26a69a" stroke-width="1.00"/>"
<rect x="376.00" y="44.00" width="3.00" height="6.00" fill="#26a69a"/>"
<line x1="381.50" y1="34.50" x2="381.50" y2="50.50" stroke="#ef5350" stroke-width="1.00"/>"
<rect x="379.00" y="41.00" width="3.00" height="4.00" fill="#ef5350"/>"
<line x1="385.50" y1="33.50" x2="385.50" y2="59.50" stroke="#26a69a" stroke-width="1.00"/>"
<rect x="383.00" y="44.00" width="3.00" height="6.00" fill="#26a69a"/>"
<line x1="388.50" y1="32.50" x2="388.50" y2="49.50" stroke="#ef5350" stroke-width="1.00"/>"
<rect x="387.00" y="36.00" width="3.00" height="7.00" fill="#ef5350"/>"
<line x1="392.50" y1="31.50" x2="392.50" y2="57.50" stroke="#26a69a" stroke-width="1.00"/>"
<rect x="390.00" y="44.00" width="3.00" height="10.00" fill="#26a69a"/>"
<line x1="396.50" y1="30.50" x2="396.50" y2="47.50" stroke="#ef5350" stroke-width="1.00"/>"
<rect x="394.00" y="34.00" width="3.00" height="6.00" fill="#ef5350"/>"
<line x1="399.50" y1="28.50" x2="399.50" y2="55.50" stroke="#26a69a" stroke-width="1.00"/>"
<rect x="398.00" y="42.00" width="3.00" height="9.00" fill="#26a69a"/>"
<line x1="403.50" y1="26.50" x2="403.50" y2="45.50" stroke="#ef5350" stroke-width="1.00"/>"
<rect x="401.00" y="31.00" width="3.00" height="6.00" fill="#ef5350"/>"
<line x1="406.50" y1="33.50" x2="406.50" y2="43.50" stroke="#26a69a" stroke-width="1.00"/>"
<rect x="405.00" y="39.00" width="3.00" height="2.00" fill="#26a69a"/>"
<line x1="410.50" y1="22.50" x2="410.50" y2="41.50" stroke="#ef5350" stroke-width="1.00"/>"
<rect x="409.00" y="28.00" width="3.00" height="4.00" fill="#ef5350"/>"
<line x1="414.50" y1="28.50" x2="414.50" y2="39.50" stroke="#26a69a" stroke-width="1.00"/>"
<rect x="412.00" y="35.00" width="3.00" height="1.00" fill="#26a69a"/>"
<line x1="417.50" y1="35.50" x2="417.50" y2="54.50" stroke="#ef5350" stroke-width="1.00"/>"
<rect x="416.00" y="42.00" width="3.00" height="2.00" fill="#ef5350"/>"
<line x1="421.50" y1="41.50" x2="421.50" y2="52.50" stroke="#26a69a" stroke-width="1.00"/>"
<rect x="420.00" y="48.00" width="3.00" height="1.00" fill="#26a69a"/>"
<line x1="425.50" y1="46.50" x2="425.50" y2="67.50" stroke="#ef5350" stroke-width="1.00"/>"
<rect x="423.00" y="54.00" width="3.00" height="1.00" fill="#ef5350"/>"
<line x1="428.50" y1="52.50" x2="428.50" y2="64.50" stroke="#ef5350" stroke-width="1.00"/>"
<rect x="427.00" y="60.00" width="3.00" height="3.00" fill="#ef5350"/>"
<line x1="432.50" y1="57.50" x2="432.50" y2="78.50" stroke="#26a69a" stroke-width="1.00"/>"
<rect x="431.00" y="61.00" width="3.00" height="5.00" fill="#26a69a"/>"
<line x1="436.50" y1="62.50" x2="436.50" y2="75.50" stroke="#ef5350" stroke-width="1.00"/>"
<rect x="434.00" y="70.00" width="3.00" height="3.00" fill="#ef5350"/>"
<line x1="439.50" y1="67.50" x2="439.50" y2="89.50" stroke="#26a69a" stroke-width="1.00"/>"
<rect x="438.00" y="72.00" width="3.00" height="5.00" fill="#26a69a"/>"
<line x1="443.50" y1="71.50" x2="443.50" y2="85.50" stroke="#ef5350" stroke-width="1.00"/>"
<rect x="441.00" y="79.00" width="3.00" height="3.00" fill="#ef5350"/>"
<line x1="447.50" y1="75.50" x2="447.50" y2="98.50" stroke="#26a69a" stroke-width="1.00"/>"
<rect x="445.00" y="82.00" width="3.00" height="5.00" fill="#26a69a"/>"
<line x1="450.50" y1="79.50" x2="450.50" y2="93.50" stroke="#ef5350" stroke-width="1.00"/>"
<rect x="449.00" y="87.00" width="3.00" height="3.00" fill="#ef5350"/>"
<line x1="454.50" y1="83.50" x2="454.50" y2="107.50" stroke="#26a69a" stroke-width="1.00"/>"
<rect x="452.00" y="91.00" width="3.00" height="5.00" fill="#26a69a"/>"
<line x1="458.50" y1="86.50" x2="458.50" y2="101.50" stroke="#ef5350" stroke-width="1.00"/>"
<rect x="456.00" y="94.00" width="3.00" height="4.00" fill="#ef5350"/>"
<line x1="461.50" y1="90.50" x2="461.50" y2="114.50" stroke="#26a69a" stroke-width="1.00"/>"
<rect x="460.00" y="98.00" width="3.00" height="6.00" fill="#26a69a"/>"
<line x1="465.50" y1="92.50" x2="465.50" y2="108.50" stroke="#ef5350" stroke-width="1.00"/>"
<rect x="463.00" y="100.00" width="3.00" height="3.00" fill="#ef5350"/>"
<line x1="469.50" y1="95.50" x2="469.50" y2="120.50" stroke="#26a69a" stroke-width="1.00"/>"
<rect x="467.00" y="105.00" width="3.00" height="6.00" fill="#26a69a"/>"
<line x1="472.50" y1="97.50" x2="472.50" y2="114.50" stroke="#ef5350" stroke-width="1.00"/>"
<rect x="471.00" y="104.00" width="3.00" height="4.00" fill="#ef5350"/>"
<line x1="476.50" y1="99.50" x2="476.50" y2="125.50" stroke="#26a69a" stroke-width="1.00"/>"
<rect x="474.00" y="111.00" width="3.00" height="12.00" fill="#26a69a"/>"
<line x1="479.50" y1="101.50" x2="479.50" y2="118.50" stroke="#ef5350" stroke-width="1.00"/>"
<rect x="478.00" y="104.00" width="3.00" height="8.00" fill="#ef5350"/>"
<line x1="483.50" y1="102.50" x2="483.50" y2="129.50" stroke="#26a69a" stroke-width="1.00"/>"
<rect x="482.00" y="115.00" width="3.00" height="10.00" fill="#26a69a"/>"
<line x1="487.50" y1="104.50" x2="487.50" y2="121.50" stroke="#ef5350" stroke-width="1.00"/>"
<rect x="485.00" y="108.00" width="3.00" height="6.00" fill="#ef5350"/>"
<line x1="490.50" y1="113.50" x2="490.50" y2="122.50" stroke="#26a69a" stroke-width="1.00"/>"
<rect x="489.00" y="118.00" width="3.00" height="3.00" fill="#26a69a"/>"
<line x1="494.50" y1="105.50" x2="494.50" y2="123.50" stroke="#ef5350" stroke-width="1.00"/>"
<rect x="493.00" y="110.00" width="3.00" height="5.00" fill="#ef5350"/>"
<line x1="498.50" y1="114.50" x2="498.50" y2="124.50" stroke="#26a69a" stroke-width="1.00"/>"
<rect x="496.00" y="120.00" width="3.00" height="2.00" fill="#26a69a"/>"
<line x1="501.50" y1="105.50" x2="501.50" y2="124.50" stroke="#ef5350" stroke-width="1.00"/>"
<rect x="500.00" y="111.00" width="3.00" height="4.00" fill="#ef5350"/>"
<line x1="505.50" y1="114.50" x2="505.50" y2="124.50" stroke="#26a69a" stroke-width="1.00"/>"
<rect x="504.00" y="120.00" width="3.00" height="1.00" fill="#26a69a"/>"
<line x1="509.50" y1="122.50" x2="509.50" y2="142.50" stroke="#ef5350" stroke-width="1.00"/>"
<rect x="507.00" y="129.00" width="3.00" height="2.00" fill="#ef5350"/>"
<line x1="512.50" y1="130.50" x2="512.50" y2="141.50" stroke="#26a69a" stroke-width="1.00"/>"
<rect x="511.00" y="137.00" width="3.00" height="1.00" fill="#26a69a"/>"
<line x1="516.50" y1="137.50" x2="516.50" y2="158.50" stroke="#ef5350" stroke-width="1.00"/>"
<rect x="514.00" y="146.00" width="3.00" height="1.00" fill="#ef5350"/>"
<line x1="520.50" y1="145.50" x2="520.50" y2="157.50" stroke="#ef5350" stroke-width="1.00"/>"
<rect x="518.00" y="153.00" width="3.00" height="3.00" fill="#ef5350"/>"
<line x1="523.50" y1="152.50" x2="523.50" y2="173.50" stroke="#26a69a" stroke-width="1.00"/>"
<rect x="522.00" y="156.00" width="3.00" height="5.00" fill="#26a69a"/>"
<line x1="527.50" y1="158.50" x2="527.50" y2="171.50" stroke="#ef5350" stroke-width="1.00"/>"
<rect x="525.00" y="166.00" width="3.00" height="3.00" fill="#ef5350"/>"
<line x1="531.50" y1="165.50" x2="531.50" y2="187.50" stroke="#26a69a" stroke-width="1.00"/>"
<rect x="529.00" y="170.00" width="3.00" height="5.00" fill="#26a69a"/>"
<line x1="534.50" y1="170.50" x2="534.50" y2="184.50" stroke="#ef5350" stroke-width="1.00"/>"
<rect x="533.00" y="178.00" width="3.00" height="4.00" fill="#ef5350"/>"
<line x1="538.50" y1="176.50" x2="538.50" y2="199.50" stroke="#26a69a" stroke-width="1.00"/>"
<rect x="536.00" y="183.00" width="3.00" height="5.00" fill="#26a69a"/>"
<line x1="542.50" y1="181.50" x2="542.50" y2="196.50" stroke="#ef5350" stroke-width="1.00"/>"
<rect x="540.00" y="189.00" width="3.00" height="3.00" fill="#ef5350"/>"
<line x1="545.50" y1="186.50" x2="545.50" y2="210.50" stroke="#26a69a" stroke-width="1.00"/>"
<rect x="544.00" y="194.00" width="3.00" height="6.00" fill="#26a69a"/>"
<line x1="549.50" y1="191.50" x2="549.50" y2="206.50" stroke="#ef5350" stroke-width="1.00"/>"
<rect x="547.00" y="198.00" width="3.00" height="4.00" fill="#ef5350"/>"
<line x1="552.50" y1="195.50" x2="552.50" y2="219.50" stroke="#26a69a" stroke-width="1.00"/>"
<rect x="551.00" y="204.00" width="3.00" height="6.00" fill="#26a69a"/>"
<line x1="556.50" y1="198.50" x2="556.50" y2="214.50" stroke="#ef5350" stroke-width="1.00"/>"
<rect x="555.00" y="205.00" width="3.00" height="4.00" fill="#ef5350"/>"
<line x1="560.50" y1="202.50" x2="560.50" y2="227.50" stroke="#26a69a" stroke-width="1.00"/>"
<rect x="558.00" y="212.00" width="3.00" height="6.00" fill="#26a69a"/>"
<line x1="563.50" y1="205.50" x2="563.50" y2="221.50" stroke="#ef5350" stroke-width="1.00"/>"
<rect x="562.00" y="207.00" width="3.00" height="8.00" fill="#ef5350"/>"
<line x1="567.50" y1="207.50" x2="567.50" y2="233.50" stroke="#26a69a" stroke-width="1.00"/>"
<rect x="566.00" y="219.00" width="3.00" height="11.00" fill="#26a69a"/>"
<line x1="571.50" y1="209.50" x2="571.50" y2="227.50" stroke="#ef5350" stroke-width="1.00"/>"
<rect x="569.00" y="213.00" width="3.00" height="7.00" fill="#ef5350"/>"
<line x1="574.50" y1="211.50" x2="574.50" y2="238.50" stroke="#26a69a" stroke-width="1.00"/>"
<rect x="573.00" y="224.00" width="3.00" height="10.00" fill="#26a69a"/>"
<line x1="578.50" y1="212.50" x2="578.50" y2="230.50" stroke="#ef5350" stroke-width="1.00"/>"
<rect x="577.00" y="217.00" width="3.00" height="6.00" fill="#ef5350"/>"
<line x1="582.50" y1="222.50" x2="582.50" y2="232.50" stroke="#26a69a" stroke-width="1.00"/>"
<rect x="580.00" y="227.00" width="3.00" height="3.00" fill="#26a69a"/>"
<line x1="585.50" y1="214.50" x2="585.50" y2="233.50" stroke="#ef5350" stroke-width="1.00"/>"
<rect x="584.00" y="219.00" width="3.00" height="5.00" fill="#ef5350"/>"
<line x1="589.50" y1="223.50" x2="589.50" y2="233.50" stroke="#26a69a" stroke-width="1.00"/>"
<rect x="587.00" y="229.00" width="3.00" height="2.00" fill="#26a69a"/>"
<line x1="593.50" y1="214.50" x2="593.50" y2="233.50" stroke="#ef5350" stroke-width="1.00"/>"
<rect x="591.00" y="220.00" width="3.00" height="3.00" fill="#ef5350"/>"
<line x1="596.50" y1="222.50" x2="596.50" y2="233.50" stroke="#26a69a" stroke-width="1.00"/>"
<rect x="595.00" y="229.00" width="3.00" height="1.00" fill="#26a69a"/>"
<line x1="600.50" y1="230.50" x2="600.50" y2="250.50" stroke="#ef5350" stroke-width="1.00"/>"
<rect x="598.00" y="237.00" width="3.00" height="2.00" fill="#ef5350"/>"
<line x1="604.50" y1="237.50" x2="604.50" y2="249.50" stroke="#26a69a" stroke-width="1.00"/>"
<rect x="602.00" y="245.00" width="3.00" height="1.00" fill="#26a69a"/>"
<line x1="607.50" y1="244.50" x2="607.50" y2="265.50" stroke="#26a69a" stroke-width="1.00"/>"
<rect x="606.00" y="248.00" width="3.00" height="5.00" fill="#26a69a"/>"
<line x1="611.50" y1="251.50" x2="611.50" y2="263.50" stroke="#ef5350" stroke-width="1.00"/>"
<rect x="609.00" y="259.00" width="3.00" height="3.00" fill="#ef5350"/>"
<line x1="615.50" y1="257.50" x2="615.50" y2="278.50" stroke="#26a69a" stroke-width="1.00"/>"
<rect x="613.00" y="262.00" width="3.00" height="5.00" fill="#26a69a"/>"
<line x1="618.50" y1="262.50" x2="618.50" y2="275.50" stroke="#ef5350" stroke-width="1.00"/>"
<rect x="617.00" y="270.00" width="3.00" height="3.00" fill="#ef5350"/>"
<line x1="622.50" y1="268.50" x2="622.50" y2="290.50" stroke="#26a69a" stroke-width="1.00"/>"
<rect x="620.00" y="274.00" width="3.00" height="5.00" fill="#26a69a"/>"
<line x1="625.50" y1="272.50" x2="625.50" y2="286.50" stroke="#ef5350" stroke-width="1.00"/>"
<rect x="624.00" y="280.00" width="3.00" height="3.00" fill="#ef5350"/>"
<line x1="629.50" y1="277.50" x2="629.50" y2="300.50" stroke="#26a69a" stroke-width="1.00"/>"
<rect x="628.00" y="284.00" width="3.00" height="5.00" fill="#26a69a"/>"
<line x1="633.50" y1="280.50" x2="633.50" y2="295.50" stroke="#ef5350" stroke-width="1.00"/>"
<rect x="631.00" y="288.00" width="3.00" height="3.00" fill="#ef5350"/>"
<line x1="636.50" y1="284.50" x2="636.50" y2="308.50" stroke="#26a69a" stroke-width="1.00"/>"
<rect x="635.00" y="292.00" width="3.00" height="6.00" fill="#26a69a"/>"
<line x1="640.50" y1="287.50" x2="640.50" y2="302.50" stroke="#ef5350" stroke-width="1.00"/>"
<rect x="639.00" y="294.00" width="3.00" height="4.00" fill="#ef5350"/>"
<line x1="644.50" y1="289.50" x2="644.50" y2="314.50" stroke="#26a69a" stroke-width="1.00"/>"
<rect x="642.00" y="299.00" width="3.00" height="6.00" fill="#26a69a"/>"
<line x1="647.50" y1="291.50" x2="647.50" y2="307.50" stroke="#ef5350" stroke-width="1.00"/>"
<rect x="646.00" y="298.00" width="3.00" height="4.00" fill="#ef5350"/>"
<line x1="651.50" y1="292.50" x2="651.50" y2="318.50" stroke="#26a69a" stroke-width="1.00"/>"
<rect x="650.00" y="303.00" width="3.00" height="6.00" fill="#26a69a"/>"
<line x1="655.50" y1="293.50" x2="655.50" y2="310.50" stroke="#ef5350" stroke-width="1.00"/>"
<rect x="653.00" y="296.00" width="3.00" height="8.00" fill="#ef5350"/>"
<line x1="658.50" y1="294.50" x2="658.50" y2="320.50" stroke="#26a69a" stroke-width="1.00"/>"
<rect x="657.00" y="306.00" width="3.00" height="11.00" fill="#26a69a"/>"
<line x1="662.50" y1="294.50" x2="662.50" y2="311.50" stroke="#ef5350" stroke-width="1.00"/>"
<rect x="660.00" y="298.00" width="3.00" height="6.00" fill="#ef5350"/>"
<line x1="666.50" y1="293.50" x2="666.50" y2="320.50" stroke="#26a69a" stroke-width="1.00"/>"
<rect x="664.00" y="307.00" width="3.00" height="9.00" fill="#26a69a"/>"
<line x1="669.50" y1="292.50" x2="669.50" y2="311.50" stroke="#ef5350" stroke-width="1.00"/>"
<rect x="668.00" y="297.00" width="3.00" height="5.00" fill="#ef5350"/>"
<line x1="673.50" y1="300.50" x2="673.50" y2="309.50" stroke="#26a69a" stroke-width="1.00"/>"
<rect x="671.00" y="305.00" width="3.00" height="2.00" fill="#26a69a"/>"
<line x1="677.50" y1="289.50" x2="677.50" y2="308.50" stroke="#ef5350" stroke-width="1.00"/>"
<rect x="675.00" y="295.00" width="3.00" height="3.00" fill="#ef5350"/>"
<line x1="680.50" y1="295.50" x2="680.50" y2="306.50" stroke="#26a69a" stroke-width="1.00"/>"
<rect x="679.00" y="301.00" width="3.00" height="2.00" fill="#26a69a"/>"
<line x1="684.50" y1="301.50" x2="684.50" y2="321.50" stroke="#ef5350" stroke-width="1.00"/>"
<rect x="682.00" y="308.00" width="3.00" height="3.00" fill="#ef5350"/>"
<line x1="688.50" y1="307.50" x2="688.50" y2="318.50" stroke="#26a69a" stroke-width="1.00"/>"
<rect x="686.00" y="314.00" width="3.00" height="1.00" fill="#26a69a"/>"
<line x1="691.50" y1="312.50" x2="691.50" y2="332.50" stroke="#ef5350" stroke-width="1.00"/>"
<rect x="690.00" y="320.00" width="3.00" height="1.00" fill="#ef5350"/>"
<line x1="695.50" y1="316.50" x2="695.50" y2="328.50" stroke="#ef5350" stroke-width="1.00"/>"
<rect x="693.00" y="324.00" width="3.00" height="3.00" fill="#ef5350"/>"
<line x1="698.50" y1="320.50" x2="698.50" y2="342.50" stroke="#26a69a" stroke-width="1.00"/>"
<rect x="697.00" y="325.00" width="3.00" height="5.00" fill="#26a69a"/>"
<line x1="702.50" y1="324.50" x2="702.50" y2="337.50" stroke="#ef5350" stroke-width="1.00"/>"
<rect x="701.00" y="332.00" width="3.00" height="3.00" fill="#ef5350"/>"
<line x1="706.50" y1="327.50" x2="706.50" y2="349.50" stroke="#26a69a" stroke-width="1.00"/>"
<rect x="704.00" y="332.00" width="3.00" height="5.00" fill="#26a69a"/>"
<line x1="709.50" y1="329.50" x2="709.50" y2="343.50" stroke="#ef5350" stroke-width="1.00"/>"
<rect x="708.00" y="337.00" width="3.00" height="3.00" fill="#ef5350"/>"
<line x1="713.50" y1="331.50" x2="713.50" y2="354.50" stroke="#26a69a" stroke-width="1.00"/>"
<rect x="712.00" y="338.00" width="3.00" height="5.00" fill="#26a69a"/>"
<line x1="717.50" y1="333.50" x2="717.50" y2="347.50" stroke="#ef5350" stroke-width="1.00"/>"
<rect x="715.00" y="341.00" width="3.00" height="3.00" fill="#ef5350"/>"
<line x1="720.50" y1="334.50" x2="720.50" y2="357.50" stroke="#26a69a" stroke-width="1.00"/>"
<rect x="719.00" y="341.00" width="3.00" height="6.00" fill="#26a69a"/>"
<line x1="724.50" y1="334.50" x2="724.50" y2="349.50" stroke="#ef5350" stroke-width="1.00"/>"
<rect x="723.00" y="342.00" width="3.00" height="3.00" fill="#ef5350"/>"
<line x1="728.50" y1="334.50" x2="728.50" y2="358.50" stroke="#26a69a" stroke-width="1.00"/>"
<rect x="726.00" y="343.00" width="3.00" height="6.00" fill="#26a69a"/>"
<polyline points="41.98,338.63 45.62,335.89 49.27,333.35 52.92,329.71 56.57,326.44 60.23,321.85 63.88,317.82 67.52,315.01 71.17,312.54 74.83,309.93 78.47,308.82 82.12,306.86 85.77,306.02 89.42,304.28 93.08,303.32 96.72,301.51 100.38,300.17 104.02,298.07 107.67,296.15 111.33,293.63 114.97,290.99 118.62,287.95 122.27,284.50 125.92,280.87 129.57,276.55 133.22,272.31 136.88,267.05 140.53,262.04 144.17,255.85 147.82,250.10 151.47,242.97 155.12,236.49 158.78,231.19 162.42,226.36 166.07,221.44 169.72,218.03 173.38,213.88 177.03,210.84 180.67,207.06 184.32,204.06 187.97,200.35 191.62,197.13 195.28,193.31 198.92,189.68 202.57,185.62 206.22,181.46 209.88,177.07 213.53,172.29 217.17,167.52 220.82,162.05 224.47,156.87 228.12,150.68 231.78,144.90 235.42,137.98 239.07,131.69 242.72,126.82 246.38,122.37 250.03,118.75 253.67,115.90 257.32,112.34 260.97,110.12 264.62,107.15 268.27,105.20 271.93,102.53 275.57,100.58 279.22,98.00 282.88,95.86 286.52,93.24 290.18,90.76 293.82,88.00 297.47,85.10 301.12,82.14 304.77,78.75 308.43,75.55 312.07,71.61 315.72,68.05 319.38,63.55 323.02,59.61 326.68,54.53 330.32,50.22 333.97,47.34 337.62,45.04 341.27,42.82 344.93,42.32 348.57,41.22 352.22,41.45 355.88,41.04 359.52,41.62 363.18,41.61 366.82,42.29 370.47,42.47 374.12,43.05 377.77,43.27 381.43,43.60 385.07,43.77 388.72,43.75 392.38,43.79 396.02,43.34 399.68,43.21 403.32,42.26 406.97,41.78 410.62,40.31 414.27,39.50 417.93,40.27 421.57,41.48 425.22,43.67 428.88,46.66 432.52,48.98 436.18,52.75 439.82,55.79 443.47,59.94 447.12,63.37 450.77,67.62 454.43,71.22 458.07,75.34 461.72,78.95 465.38,82.79 469.02,86.29 472.68,89.72 476.32,93.02 479.97,95.96 483.62,98.99 487.27,101.36 490.93,104.02 494.57,105.77 498.22,107.98 501.88,109.07 505.52,110.82 509.18,114.01 512.82,117.64 516.48,122.10 520.12,127.32 523.77,131.84 527.42,137.67 531.07,142.75 534.73,148.79 538.38,154.09 542.02,160.05 545.67,165.34 549.32,170.99 552.98,176.11 556.62,181.28 560.27,186.10 563.92,190.67 567.57,195.10 571.23,198.98 574.88,202.95 578.52,206.04 582.17,209.40 585.82,211.67 589.48,214.38 593.12,215.78 596.77,217.83 600.42,221.12 604.07,224.83 607.73,228.47 611.38,233.63 615.02,238.02 618.67,243.53 622.32,248.23 625.98,253.71 629.62,258.41 633.27,263.57 636.92,268.03 640.57,272.66 644.23,276.73 647.88,280.66 651.52,284.23 655.17,287.34 658.82,290.31 662.48,292.52 666.12,294.84 669.77,296.07 673.42,297.54 677.07,297.76 680.73,298.40 684.38,300.36 688.02,302.52 691.67,305.40 695.32,308.83 698.98,311.34 702.62,315.04 706.27,317.76 709.92,321.33 713.57,323.94 717.23,327.09 720.88,329.37 724.52,331.89 728.17,333.67" stroke="#2196f3" stroke-width="1.00" fill="none"/>"
<polyline points="93.08,319.28 96.72,317.22 100.38,315.41 104.02,313.27 107.67,311.22 111.33,308.89 114.97,306.49 118.62,303.88 122.27,301.04 125.92,298.07 129.57,294.71 133.22,291.32 136.88,287.39 140.53,283.47 144.17,278.90 147.82,274.42 151.47,269.19 155.12,264.13 158.78,259.53 162.42,255.10 166.07,250.61 169.72,246.80 173.38,242.67 177.03,239.08 180.67,235.16 184.32,231.64 187.97,227.81 191.62,224.22 195.28,220.38 198.92,216.62 202.57,212.68 206.22,208.67 209.88,204.54 213.53,200.20 217.17,195.84 220.82,191.11 224.47,186.46 228.12,181.29 231.78,176.24 235.42,170.59 239.07,165.14 242.72,160.32 246.38,155.69 250.03,151.48 253.67,147.68 257.32,143.62 260.97,140.23 264.62,136.57 268.27,133.45 271.93,130.08 275.57,127.09 279.22,123.89 282.88,120.94 286.52,117.82 290.18,114.81 293.82,111.70 297.47,108.55 301.12,105.38 304.77,102.03 308.43,98.76 312.07,95.15 315.72,91.69 319.38,87.77 323.02,84.08 326.68,79.82 330.32,75.88 333.97,72.59 337.62,69.61 341.27,66.72 344.93,64.71 348.57,62.52 352.22,61.05 355.88,59.40 359.52,58.33 363.18,57.08 366.82,56.26 370.47,55.32 374.12,54.64 377.77,53.89 381.43,53.26 385.07,52.63 388.72,51.96 392.38,51.38 396.02,50.59 399.68,49.99 403.32,49.03 406.97,48.30 410.62,47.11 414.27,46.22 417.93,46.09 421.57,46.24 425.22,46.94 428.88,48.14 432.52,49.15 436.18,50.95 439.82,52.55 443.47,54.79 447.12,56.82 450.77,59.35 454.43,61.70 458.07,64.39 461.72,66.94 465.38,69.67 469.02,72.33 472.68,75.02 476.32,77.69 479.97,80.24 483.62,82.87 487.27,85.20 490.93,87.68 494.57,89.73 498.22,91.99 501.88,93.70 505.52,95.68 509.18,98.33 512.82,101.24 516.48,104.60 520.12,108.41 523.77,111.99 527.42,116.27 531.07,120.30 534.73,124.87 538.38,129.19 542.02,133.91 545.67,138.39 549.32,143.11 552.98,147.64 556.62,152.24 560.27,156.71 563.92,161.09 567.57,165.41 571.23,169.48 574.88,173.57 578.52,177.24 582.17,180.99 585.82,184.19 589.48,187.53 593.12,190.19 596.77,193.07 600.42,196.49 604.07,200.10 607.73,203.69 611.38,208.01 615.02,212.02 618.67,216.60 622.32,220.86 625.98,225.52 629.62,229.87 633.27,234.47 636.92,238.78 640.57,243.17 644.23,247.31 647.88,251.39 651.52,255.27 655.17,258.92 658.82,262.45 662.48,265.58 666.12,268.69 669.77,271.22 673.42,273.77 677.07,275.63 680.73,277.58 684.38,280.07 688.02,282.61 691.67,285.47 695.32,288.60 698.98,291.31 702.62,294.57 706.27,297.40 709.92,300.62 713.57,303.41 717.23,306.45 720.88,309.08 724.52,311.80 728.17,314.14" stroke="#ff9800" stroke-width="1.00" fill="none"/>"
<rect x="730.00" y="0.00" width="70.00" height="376.00" fill="#131722"/>"
<line x1="730.00" y1="0.00" x2="730.00" y2="376.00" stroke="#1e222d" stroke-width="1.00"/>"
<line x1="730.00" y1="341.68" x2="734.00" y2="341.68" stroke="#1e222d" stroke-width="1.00"/>"
<text x="736.00" y="341.68" fill="#b2b5be" font-family="sans-serif" font-size="11.0" text-anchor="start" dominant-baseline="central">100</text>
<line x1="730.00" y1="296.44" x2="734.00" y2="296.44" stroke="#1e222d" stroke-width="1.00"/>"
<text x="736.00" y="296.44" fill="#b2b5be" font-family="sans-serif" font-size="11.0" text-anchor="start" dominant-baseline="central">110</text>
<line x1="730.00" y1="251.21" x2="734.00" y2="251.21" stroke="#1e222d" stroke-width="1.00"/>"
<text x="736.00" y="251.21" fill="#b2b5be" font-family="sans-serif" font-size="11.0" text-anchor="start" dominant-baseline="central">120</text>
<line x1="730.00" y1="205.97" x2="734.00" y2="205.97" stroke="#1e222d" stroke-width="1.00"/>"
<text x="736.00" y="205.97" fill="#b2b5be" font-family="sans-serif" font-size="11.0" text-anchor="start" dominant-baseline="central">130</text>
<line x1="730.00" y1="160.74" x2="734.00" y2="160.74" stroke="#1e222d" stroke-width="1.00"/>"
<text x="736.00" y="160.74" fill="#b2b5be" font-family="sans-serif" font-size="11.0" text-anchor="start" dominant-baseline="central">140</text>
<line x1="730.00" y1="115.51" x2="734.00" y2="115.51" stroke="#1e222d" stroke-width="1.00"/>"
<text x="736.00" y="115.51" fill="#b2b5be" font-family="sans-serif" font-size="11.0" text-anchor="start" dominant-baseline="central">150</text>
<line x1="730.00" y1="70.27" x2="734.00" y2="70.27" stroke="#1e222d" stroke-width="1.00"/>"
<text x="736.00" y="70.27" fill="#b2b5be" font-family="sans-serif" font-size="11.0" text-anchor="start" dominant-baseline="central">160</text>
<line x1="730.00" y1="25.04" x2="734.00" y2="25.04" stroke="#1e222d" stroke-width="1.00"/>"
<text x="736.00" y="25.04" fill="#b2b5be" font-family="sans-serif" font-size="11.0" text-anchor="start" dominant-baseline="central">170</text>
<rect x="0.00" y="380.00" width="730.00" height="90.00" fill="#131722"/>"
<line x1="0.00" y1="380.00" x2="730.00" y2="380.00" stroke="#1e222d" stroke-width="1.00"/>"
<line x1="0.00" y1="425.00" x2="730.00" y2="425.00" stroke="#787b86" stroke-width="1.00" stroke-dasharray="2.00,2.00"/>"
<polyline points="93.08,405.52 96.72,405.81 100.38,406.38 104.02,406.43 107.67,406.59 111.33,406.36 114.97,406.07 118.62,405.55 122.27,404.80 125.92,404.00 129.57,402.82 133.22,401.78 136.88,400.17 140.53,398.84 144.17,396.86 147.82,395.30 151.47,392.98 155.12,391.25 158.78,390.40 162.42,389.90 166.07,389.39 169.72,389.86 173.38,389.84 177.03,390.52 180.67,390.68 184.32,391.32 187.97,391.47 191.62,391.91 195.28,391.95 198.92,392.09 202.57,391.96 206.22,391.77 209.88,391.46 213.53,390.91 217.17,390.42 220.82,389.52 224.47,388.87 228.12,387.62 231.78,386.73 235.42,385.19 239.07,384.15 242.72,384.09 246.38,384.30 250.03,385.03 253.67,386.18 257.32,386.80 260.97,388.23 264.62,389.07 268.27,390.50 271.93,391.37 275.57,392.62 279.22,393.39 282.88,394.37 286.52,394.98 290.18,395.64 293.82,396.06 297.47,396.37 301.12,396.62 304.77,396.57 308.43,396.65 312.07,396.26 315.72,396.13 319.38,395.42 323.02,395.12 326.68,394.11 330.32,393.68 333.97,394.17 337.62,395.00 341.27,395.81 344.93,397.66 348.57,398.99 352.22,401.06 355.88,402.57 359.52,404.61 363.18,406.11 366.82,407.94 370.47,409.32 374.12,410.84 377.77,412.03 381.43,413.20 385.07,414.19 388.72,414.97 392.38,415.74 396.02,416.14 399.68,416.71 403.32,416.73 406.97,417.03 410.62,416.69 414.27,416.80 417.93,417.89 421.57,419.18 425.22,421.00 428.88,423.19 432.52,424.80 436.18,427.20 439.82,428.96 443.47,431.29 447.12,433.00 450.77,435.10 454.43,436.63 458.07,438.38 461.72,439.67 465.38,441.02 469.02,442.04 472.68,442.96 476.32,443.71 479.97,444.19 483.62,444.69 487.27,444.73 490.93,444.95 494.57,444.58 498.22,444.53 501.88,443.78 505.52,443.49 509.18,444.14 512.82,445.02 516.48,446.36 520.12,448.09 523.77,449.24 527.42,451.14 531.07,452.41 534.73,454.21 538.38,455.40 542.02,456.92 545.67,457.91 549.32,459.05 552.98,459.77 556.62,460.47 560.27,460.89 563.92,461.13 567.57,461.26 571.23,461.02 574.88,460.87 578.52,460.17 582.17,459.69 585.82,458.56 589.48,457.79 593.12,456.25 596.77,455.23 600.42,455.07 604.07,455.20 607.73,455.26 611.38,456.29 615.02,456.75 618.67,457.89 622.32,458.43 625.98,459.43 629.62,459.85 633.27,460.53 636.92,460.73 640.57,461.01 644.23,460.92 647.88,460.75 651.52,460.36 655.17,459.71 658.82,459.02 662.48,457.90 666.12,456.93 669.77,455.35 673.42,454.03 677.07,452.02 680.73,450.42 684.38,449.78 688.02,449.31 691.67,449.33 695.32,449.70 698.98,449.46 702.62,449.99 706.27,449.86 709.92,450.28 713.57,450.06 717.23,450.20 720.88,449.78 724.52,449.54 728.17,448.85" stroke="#2196f3" stroke-width="1.00" fill="none"/>"
<polyline points="122.27,405.95 125.92,405.56 129.57,405.01 133.22,404.36 136.88,403.53 140.53,402.59 144.17,401.44 147.82,400.21 151.47,398.77 155.12,397.26 158.78,395.89 162.42,394.69 166.07,393.63 169.72,392.88 173.38,392.27 177.03,391.92 180.67,391.67 184.32,391.60 187.97,391.58 191.62,391.64 195.28,391.70 198.92,391.78 202.57,391.82 206.22,391.81 209.88,391.74 213.53,391.57 217.17,391.34 220.82,390.98 224.47,390.56 228.12,389.97 231.78,389.32 235.42,388.49 239.07,387.63 242.72,386.92 246.38,386.40 250.03,386.12 253.67,386.13 257.32,386.27 260.97,386.66 264.62,387.14 268.27,387.81 271.93,388.52 275.57,389.34 279.22,390.15 282.88,391.00 286.52,391.79 290.18,392.56 293.82,393.26 297.47,393.88 301.12,394.43 304.77,394.86 308.43,395.22 312.07,395.43 315.72,395.57 319.38,395.54 323.02,395.45 326.68,395.18 330.32,394.88 333.97,394.74 337.62,394.79 341.27,395.00 344.93,395.53 348.57,396.22 352.22,397.19 355.88,398.26 359.52,399.53 363.18,400.85 366.82,402.27 370.47,403.68 374.12,405.11 377.77,406.49 381.43,407.84 385.07,409.11 388.72,410.28 392.38,411.37 396.02,412.33 399.68,413.20 403.32,413.91 406.97,414.53 410.62,414.96 414.27,415.33 417.93,415.84 421.57,416.51 425.22,417.41 428.88,418.57 432.52,419.81 436.18,421.29 439.82,422.82 443.47,424.52 447.12,426.21 450.77,427.99 454.43,429.72 458.07,431.45 461.72,433.09 465.38,434.68 469.02,436.15 472.68,437.51 476.32,438.75 479.97,439.84 483.62,440.81 487.27,441.59 490.93,442.27 494.57,442.73 498.22,443.09 501.88,443.23 505.52,443.28 509.18,443.45 512.82,443.77 516.48,444.29 520.12,445.05 523.77,445.88 527.42,446.93 531.07,448.03 534.73,449.27 538.38,450.49 542.02,451.78 545.67,453.00 549.32,454.21 552.98,455.32 556.62,456.35 560.27,457.26 563.92,458.03 567.57,458.68 571.23,459.15 574.88,459.49 578.52,459.63 582.17,459.64 585.82,459.42 589.48,459.10 593.12,458.53 596.77,457.87 600.42,457.31 604.07,456.89 607.73,456.56 611.38,456.51 615.02,456.56 618.67,456.82 622.32,457.15 625.98,457.60 629.62,458.05 633.27,458.55 636.92,458.98 640.57,459.39 644.23,459.70 647.88,459.91 651.52,460.00 655.17,459.94 658.82,459.76 662.48,459.39 666.12,458.89 669.77,458.18 673.42,457.35 677.07,456.29 680.73,455.11 684.38,454.05 688.02,453.10 691.67,452.35 695.32,451.82 698.98,451.35 702.62,451.08 706.27,450.83 709.92,450.72 713.57,450.59 717.23,450.51 720.88,450.37 724.52,450.20 728.17,449.93" stroke="#ff9800" stroke-width="1.00" fill="none"/>"
<rect x="120.67" y="423.86" width="3.20" height="1.14" fill="#26a69a"/>"
<rect x="124.33" y="423.45" width="3.20" height="1.55" fill="#26a69a"/>"
<rect x="127.97" y="422.81" width="3.20" height="2.19" fill="#26a69a"/>"
<rect x="131.62" y="422.41" width="3.20" height="2.59" fill="#26a69a"/>"
<rect x="135.28" y="421.65" width="3.20" height="3.35" fill="#26a69a"/>"
<rect x="138.93" y="421.25" width="3.20" height="3.75" fill="#26a69a"/>"
<rect x="142.57" y="420.42" width="3.20" height="4.58" fill="#26a69a"/>"
<rect x="146.22" y="420.09" width="3.20" height="4.91" fill="#26a69a"/>"
<rect x="149.88" y="419.22" width="3.20" height="5.78" fill="#26a69a"/>"
<rect x="153.53" y="418.99" width="3.20" height="6.01" fill="#26a69a"/>"
<rect x="157.18" y="419.51" width="3.20" height="5.49" fill="#26a69a"/>"
<rect x="160.82" y="420.21" width="3.20" height="4.79" fill="#26a69a"/>"
<rect x="164.47" y="420.76" width="3.20" height="4.24" fill="#26a69a"/>"
<rect x="168.12" y="421.98" width="3.20" height="3.02" fill="#26a69a"/>"
<rect x="171.78" y="422.57" width="3.20" height="2.43" fill="#26a69a"/>"
<rect x="175.43" y="423.60" width="3.20" height="1.40" fill="#26a69a"/>"
<rect x="179.07" y="424.01" width="3.20" height="1.00" fill="#26a69a"/>"
<rect x="182.72" y="424.72" width="3.20" height="1.00" fill="#26a69a"/>"
<rect x="186.38" y="424.89" width="3.20" height="1.00" fill="#26a69a"/>"
<rect x="190.03" y="425.00" width="3.20" height="1.00" fill="#ef5350"/>"
<rect x="193.68" y="425.00" width="3.20" height="1.00" fill="#ef5350"/>"
<rect x="197.32" y="425.00" width="3.20" height="1.00" fill="#ef5350"/>"
<rect x="200.97" y="425.00" width="3.20" height="1.00" fill="#ef5350"/>"
<rect x="204.62" y="424.96" width="3.20" height="1.00" fill="#26a69a"/>"
<rect x="208.28" y="424.72" width="3.20" height="1.00" fill="#26a69a"/>"
<rect x="211.93" y="424.34" width="3.20" height="1.00" fill="#26a69a"/>"
<rect x="215.57" y="424.08" width="3.20" height="1.00" fill="#26a69a"/>"
<rect x="219.22" y="423.54" width="3.20" height="1.46" fill="#26a69a"/>"
<rect x="222.88" y="423.31" width="3.20" height="1.69" fill="#26a69a"/>"
<rect x="226.53" y="422.65" width="3.20" height="2.35" fill="#26a69a"/>"
<rect x="230.18" y="422.41" width="3.20" height="2.59" fill="#26a69a"/>"
<rect x="233.82" y="421.69" width="3.20" height="3.31" fill="#26a69a"/>"
<rect x="237.47" y="421.52" width="3.20" height="3.48" fill="#26a69a"/>"
<rect x="241.12" y="422.17" width="3.20" height="2.83" fill="#26a69a"/>"
<rect x="244.78" y="422.91" width="3.20" height="2.09" fill="#26a69a"/>"
<rect x="248.43" y="423.91" width="3.20" height="1.09" fill="#26a69a"/>"
<rect x="252.07" y="425.00" width="3.20" height="1.00" fill="#ef5350"/>"
<rect x="255.72" y="425.00" width="3.20" height="1.00" fill="#ef5350"/>"
<rect x="259.37" y="425.00" width="3.20" height="1.57" fill="#ef5350"/>"
<rect x="263.02" y="425.00" width="3.20" height="1.93" fill="#ef5350"/>"
<rect x="266.67" y="425.00" width="3.20" height="2.68" fill="#ef5350"/>"
<rect x="270.32" y="425.00" width="3.20" height="2.84" fill="#ef5350"/>"
<rect x="273.97" y="425.00" width="3.20" height="3.28" fill="#ef5350"/>"
<rect x="277.62" y="425.00" width="3.20" height="3.24" fill="#ef5350"/>"
<rect x="281.27" y="425.00" width="3.20" height="3.37" fill="#ef5350"/>"
<rect x="284.92" y="425.00" width="3.20" height="3.19" fill="#ef5350"/>"
<rect x="288.57" y="425.00" width="3.20" height="3.08" fill="#ef5350"/>"
<rect x="292.22" y="425.00" width="3.20" height="2.80" fill="#ef5350"/>"
<rect x="295.87" y="425.00" width="3.20" height="2.49" fill="#ef5350"/>"
<rect x="299.52" y="425.00" width="3.20" height="2.19" fill="#ef5350"/>"
<rect x="303.17" y="425.00" width="3.20" height="1.71" fill="#ef5350"/>"
<rect x="306.82" y="425.00" width="3.20" height="1.43" fill="#ef5350"/>"
<rect x="310.47" y="425.00" width="3.20" height="1.00" fill="#ef5350"/>"
<rect x="314.12" y="425.00" width="3.20" height="1.00" fill="#ef5350"/>"
<rect x="317.77" y="424.88" width="3.20" height="1.00" fill="#26a69a"/>"
<rect x="321.42" y="424.66" width="3.20" height="1.00" fill="#26a69a"/>"
<rect x="325.07" y="423.93" width="3.20" height="1.07" fill="#26a69a"/>"
<rect x="328.72" y="423.79" width="3.20" height="1.21" fill="#26a69a"/>"
<rect x="332.37" y="424.43" width="3.20" height="1.00" fill="#26a69a"/>"
<rect x="336.02" y="425.00" width="3.20" height="1.00" fill="#ef5350"/>"
<rect x="339.67" y="425.00" width="3.20" height="1.00" fill="#ef5350"/>"
<rect x="343.32" y="425.00" width="3.20" height="2.13" fill="#ef5350"/>"
<rect x="346.97" y="425.00" width="3.20" height="2.77" fill="#ef5350"/>"
<rect x="350.62" y="425.00" width="3.20" height="3.87" fill="#ef5350"/>"
<rect x="354.27" y="425.00" width="3.20" height="4.31" fill="#ef5350"/>"
<rect x="357.92" y="425.00" width="3.20" height="5.07" fill="#ef5350"/>"
<rect x="361.57" y="425.00" width="3.20" height="5.26" fill="#ef5350"/>"
<rect x="365.22" y="425.00" width="3.20" height="5.67" fill="#ef5350"/>"
<rect x="368.87" y="425.00" width="3.20" height="5.64" fill="#ef5350"/>"
<rect x="372.52" y="425.00" width="3.20" height="5.73" fill="#ef5350"/>"
<rect x="376.17" y="425.00" width="3.20" height="5.54" fill="#ef5350"/>"
<rect x="379.82" y="425.00" width="3.20" height="5.37" fill="#ef5350"/>"
<rect x="383.47" y="425.00" width="3.20" height="5.08" fill="#ef5350"/>"
<rect x="387.12" y="425.00" width="3.20" height="4.69" fill="#ef5350"/>"
<rect x="390.77" y="425.00" width="3.20" height="4.37" fill="#ef5350"/>"
<rect x="394.42" y="425.00" width="3.20" height="3.81" fill="#ef5350"/>"
<rect x="398.07" y="425.00" width="3.20" height="3.51" fill="#ef5350"/>"
<rect x="401.72" y="425.00" width="3.20" height="2.82" fill="#ef5350"/>"
<rect x="405.37" y="425.00" width="3.20" height="2.50" fill="#ef5350"/>"
<rect x="409.02" y="425.00" width="3.20" height="1.73" fill="#ef5350"/>"
<rect x="412.67" y="425.00" width="3.20" height="1.46" fill="#ef5350"/>"
<rect x="416.32" y="425.00" width="3.20" height="2.05" fill="#ef5350"/>"
<rect x="419.97" y="425.00" width="3.20" height="2.67" fill="#ef5350"/>"
<rect x="423.62" y="425.00" width="3.20" height="3.59" fill="#ef5350"/>"
<rect x="427.27" y="425.00" width="3.20" height="4.63" fill="#ef5350"/>"
<rect x="430.92" y="425.00" width="3.20" height="4.98" fill="#ef5350"/>"
<rect x="434.57" y="425.00" width="3.20" height="5.91" fill="#ef5350"/>"
<rect x="438.22" y="425.00" width="3.20" height="6.13" fill="#ef5350"/>"
<rect x="441.87" y="425.00" width="3.20" height="6.78" fill="#ef5350"/>"
<rect x="445.52" y="425.00" width="3.20" height="6.79" fill="#ef5350"/>"
<rect x="449.17" y="425.00" width="3.20" height="7.11" fill="#ef5350"/>"
<rect x="452.82" y="425.00" width="3.20" height="6.91" fill="#ef5350"/>"
<rect x="456.47" y="425.00" width="3.20" height="6.93" fill="#ef5350"/>"
<rect x="460.12" y="425.00" width="3.20" height="6.58" fill="#ef5350"/>"
<rect x="463.77" y="425.00" width="3.20" height="6.34" fill="#ef5350"/>"
<rect x="467.42" y="425.00" width="3.20" height="5.89" fill="#ef5350"/>"
<rect x="471.07" y="425.00" width="3.20" height="5.44" fill="#ef5350"/>"
<rect x="474.72" y="425.00" width="3.20" height="4.96" fill="#ef5350"/>"
<rect x="478.37" y="425.00" width="3.20" height="4.35" fill="#ef5350"/>"
<rect x="482.02" y="425.00" width="3.20" height="3.88" fill="#ef5350"/>"
<rect x="485.67" y="425.00" width="3.20" height="3.14" fill="#ef5350"/>"
<rect x="489.32" y="425.00" width="3.20" height="2.69" fill="#ef5350"/>"
<rect x="492.97" y="425.00" width="3.20" height="1.85" fill="#ef5350"/>"
<rect x="496.62" y="425.00" width="3.20" height="1.44" fill="#ef5350"/>"
<rect x="500.27" y="425.00" width="3.20" height="1.00" fill="#ef5350"/>"
<rect x="503.92" y="425.00" width="3.20" height="1.00" fill="#ef5350"/>"
<rect x="507.57" y="425.00" width="3.20" height="1.00" fill="#ef5350"/>"
<rect x="511.22" y="425.00" width="3.20" height="1.26" fill="#ef5350"/>"
<rect x="514.88" y="425.00" width="3.20" height="2.08" fill="#ef5350"/>"
<rect x="518.52" y="425.00" width="3.20" height="3.04" fill="#ef5350"/>"
<rect x="522.17" y="425.00" width="3.20" height="3.35" fill="#ef5350"/>"
<rect x="525.82" y="425.00" width="3.20" height="4.20" fill="#ef5350"/>"
<rect x="529.47" y="425.00" width="3.20" height="4.38" fill="#ef5350"/>"
<rect x="533.12" y="425.00" width="3.20" height="4.94" fill="#ef5350"/>"
<rect x="536.77" y="425.00" width="3.20" height="4.91" fill="#ef5350"/>"
<rect x="540.42" y="425.00" width="3.20" height="5.14" fill="#ef5350"/>"
<rect x="544.07" y="425.00" width="3.20" height="4.90" fill="#ef5350"/>"
<rect x="547.72" y="425.00" width="3.20" height="4.83" fill="#ef5350"/>"
<rect x="551.38" y="425.00" width="3.20" height="4.44" fill="#ef5350"/>"
<rect x="555.02" y="425.00" width="3.20" height="4.11" fill="#ef5350"/>"
<rect x="558.67" y="425.00" width="3.20" height="3.63" fill="#ef5350"/>"
<rect x="562.32" y="425.00" width="3.20" height="3.09" fill="#ef5350"/>"
<rect x="565.97" y="425.00" width="3.20" height="2.58" fill="#ef5350"/>"
<rect x="569.62" y="425.00" width="3.20" height="1.88" fill="#ef5350"/>"
<rect x="573.27" y="425.00" width="3.20" height="1.38" fill="#ef5350"/>"
<rect x="576.92" y="425.00" width="3.20" height="1.00" fill="#ef5350"/>"
<rect x="580.57" y="425.00" width="3.20" height="1.00" fill="#ef5350"/>"
<rect x="584.22" y="424.14" width="3.20" height="1.00" fill="#26a69a"/>"
<rect x="587.88" y="423.69" width="3.20" height="1.31" fill="#26a69a"/>"
<rect x="591.52" y="422.72" width="3.20" height="2.28" fill="#26a69a"/>"
<rect x="595.17" y="422.36" width="3.20" height="2.64" fill="#26a69a"/>"
<rect x="598.82" y="422.76" width="3.20" height="2.24" fill="#26a69a"/>"
<rect x="602.47" y="423.31" width="3.20" height="1.69" fill="#26a69a"/>"
<rect x="606.12" y="423.70" width="3.20" height="1.30" fill="#26a69a"/>"
<rect x="609.77" y="424.78" width="3.20" height="1.00" fill="#26a69a"/>"
<rect x="613.42" y="425.00" width="3.20" height="1.00" fill="#ef5350"/>"
<rect x="617.07" y="425.00" width="3.20" height="1.07" fill="#ef5350"/>"
<rect x="620.72" y="425.00" width="3.20" height="1.28" fill="#ef5350"/>"
<rect x="624.38" y="425.00" width="3.20" height="1.82" fill="#ef5350"/>"
<rect x="628.02" y="425.00" width="3.20" height="1.80" fill="#ef5350"/>"
<rect x="631.67" y="425.00" width="3.20" height="1.99" fill="#ef5350"/>"
<rect x="635.32" y="425.00" width="3.20" height="1.75" fill="#ef5350"/>"
<rect x="638.97" y="425.00" width="3.20" height="1.62" fill="#ef5350"/>"
<rect x="642.62" y="425.00" width="3.20" height="1.23" fill="#ef5350"/>"
<rect x="646.27" y="425.00" width="3.20" height="1.00" fill="#ef5350"/>"
<rect x="649.92" y="425.00" width="3.20" height="1.00" fill="#ef5350"/>"
<rect x="653.57" y="424.77" width="3.20" height="1.00" fill="#26a69a"/>"
<rect x="657.22" y="424.26" width="3.20" height="1.00" fill="#26a69a"/>"
<rect x="660.88" y="423.52" width="3.20" height="1.48" fill="#26a69a"/>"
<rect x="664.52" y="423.04" width="3.20" height="1.96" fill="#26a69a"/>"
<rect x="668.17" y="422.16" width="3.20" height="2.84" fill="#26a69a"/>"
<rect x="671.82" y="421.67" width="3.20" height="3.33" fill="#26a69a"/>"
<rect x="675.47" y="420.73" width="3.20" height="4.27" fill="#26a69a"/>"
<rect x="679.12" y="420.31" width="3.20" height="4.69" fill="#26a69a"/>"
<rect x="682.77" y="420.73" width="3.20" height="4.27" fill="#26a69a"/>"
<rect x="686.42" y="421.21" width="3.20" height="3.79" fill="#26a69a"/>"
<rect x="690.07" y="421.99" width="3.20" height="3.01" fill="#26a69a"/>"
<rect x="693.72" y="422.88" width="3.20" height="2.12" fill="#26a69a"/>"
<rect x="697.38" y="423.12" width="3.20" height="1.88" fill="#26a69a"/>"
<rect x="701.02" y="423.92" width="3.20" height="1.08" fill="#26a69a"/>"
<rect x="704.67" y="424.03" width="3.20" height="1.00" fill="#26a69a"/>"
<rect x="708.32" y="424.56" width="3.20" height="1.00" fill="#26a69a"/>"
<rect x="711.97" y="424.47" width="3.20" height="1.00" fill="#26a69a"/>"
<rect x="715.62" y="424.69" width="3.20" height="1.00" fill="#26a69a"/>"
<rect x="719.27" y="424.41" width="3.20" height="1.00" fill="#26a69a"/>"
<rect x="722.92" y="424.34" width="3.20" height="1.00" fill="#26a69a"/>"
<rect x="726.57" y="423.92" width="3.20" height="1.08" fill="#26a69a"/>"
<rect x="730.00" y="380.00" width="70.00" height="90.00" fill="#131722"/>"
<line x1="730.00" y1="380.00" x2="730.00" y2="470.00" stroke="#1e222d" stroke-width="1.00"/>"
<line x1="730.00" y1="452.62" x2="734.00" y2="452.62" stroke="#1e222d" stroke-width="1.00"/>"
<text x="736.00" y="452.62" fill="#b2b5be" font-family="sans-serif" font-size="11.0" text-anchor="start" dominant-baseline="central">-5</text>
<line x1="730.00" y1="425.00" x2="734.00" y2="425.00" stroke="#1e222d" stroke-width="1.00"/>"
<text x="736.00" y="425.00" fill="#b2b5be" font-family="sans-serif" font-size="11.0" text-anchor="start" dominant-baseline="central">0</text>
<line x1="730.00" y1="397.38" x2="734.00" y2="397.38" stroke="#1e222d" stroke-width="1.00"/>"
<text x="736.00" y="397.38" fill="#b2b5be" font-family="sans-serif" font-size="11.0" text-anchor="start" dominant-baseline="central">5</text>
<rect x="0.00" y="470.00" width="800.00" height="30.00" fill="#131722"/>"
<line x1="0.00" y1="470.00" x2="730.00" y2="470.00" stroke="#1e222d" stroke-width="1.00"/>"
<line x1="63.88" y1="470.00" x2="63.88" y2="474.00" stroke="#1e222d" stroke-width="1.00"/>"
<text x="63.88" y="476.00" fill="#b2b5be" font-family="sans-serif" font-size="10.0" text-anchor="middle" dominant-baseline="hanging">Dec</text>
<line x1="125.92" y1="470.00" x2="125.92" y2="474.00" stroke="#1e222d" stroke-width="1.00"/>"
<text x="125.92" y="476.00" fill="#b2b5be" font-family="sans-serif" font-size="10.0" text-anchor="middle" dominant-baseline="hanging">5 Dec</text>
<line x1="187.97" y1="470.00" x2="187.97" y2="474.00" stroke="#1e222d" stroke-width="1.00"/>"
<text x="187.97" y="476.00" fill="#b2b5be" font-family="sans-serif" font-size="10.0" text-anchor="middle" dominant-baseline="hanging">2024</text>
<line x1="250.03" y1="470.00" x2="250.03" y2="474.00" stroke="#1e222d" stroke-width="1.00"/>"
<text x="250.03" y="476.00" fill="#b2b5be" font-family="sans-serif" font-size="10.0" text-anchor="middle" dominant-baseline="hanging">Feb</text>
<line x1="312.07" y1="470.00" x2="312.07" y2="474.00" stroke="#1e222d" stroke-width="1.00"/>"
<text x="312.07" y="476.00" fill="#b2b5be" font-family="sans-serif" font-size="10.0" text-anchor="middle" dominant-baseline="hanging">21 Feb</text>
<line x1="374.12" y1="470.00" x2="374.12" y2="474.00" stroke="#1e222d" stroke-width="1.00"/>"
<text x="374.12" y="476.00" fill="#b2b5be" font-family="sans-serif" font-size="10.0" text-anchor="middle" dominant-baseline="hanging">Mar</text>
<line x1="436.18" y1="470.00" x2="436.18" y2="474.00" stroke="#1e222d" stroke-width="1.00"/>"
<text x="436.18" y="476.00" fill="#b2b5be" font-family="sans-serif" font-size="10.0" text-anchor="middle" dominant-baseline="hanging">25 Mar</text>
<line x1="498.22" y1="470.00" x2="498.22" y2="474.00" stroke="#1e222d" stroke-width="1.00"/>"
<text x="498.22" y="476.00" fill="#b2b5be" font-family="sans-serif" font-size="10.0" text-anchor="middle" dominant-baseline="hanging">Apr</text>
<line x1="560.27" y1="470.00" x2="560.27" y2="474.00" stroke="#1e222d" stroke-width="1.00"/>"
<text x="560.27" y="476.00" fill="#b2b5be" font-family="sans-serif" font-size="10.0" text-anchor="middle" dominant-baseline="hanging">29 Apr</text>
<line x1="622.32" y1="470.00" x2="622.32" y2="474.00" stroke="#1e222d" stroke-width="1.00"/>"
<text x="622.32" y="476.00" fill="#b2b5be" font-family="sans-serif" font-size="10.0" text-anchor="middle" dominant-baseline="hanging">May</text>
<line x1="684.38" y1="470.00" x2="684.38" y2="474.00" stroke="#1e222d" stroke-width="1.00"/>"
<text x="684.38" y="476.00" fill="#b2b5be" font-family="sans-serif" font-size="10.0" text-anchor="middle" dominant-baseline="hanging">Jun</text>
</svg>
