<?xml version="1.0" encoding="UTF-8"?>
<svg xmlns="http://www.w3.org/2000/svg"
     xmlns:xlink="http://www.w3.org/1999/xlink"
     width="800" height="400" viewBox="0 0 800 400">
<defs>

</defs>
<rect x="0" y="0" width="800" height="400" fill="#0a0a0f"/>
<line x1="1.50" y1="326.50" x2="1.50" y2="340.50" stroke="#e94560" stroke-width="1.00"/>"
<rect x="0.00" y="334.00" width="3.00" height="3.00" fill="#e94560"/>"
<line x1="5.50" y1="327.50" x2="5.50" y2="350.50" stroke="#00fff5" stroke-width="1.00"/>"
<rect x="3.00" y="334.00" width="3.00" height="5.00" fill="#00fff5"/>"
<line x1="9.50" y1="328.50" x2="9.50" y2="342.50" stroke="#e94560" stroke-width="1.00"/>"
<rect x="7.00" y="335.00" width="3.00" height="4.00" fill="#e94560"/>"
<line x1="12.50" y1="328.50" x2="12.50" y2="351.50" stroke="#00fff5" stroke-width="1.00"/>"
<rect x="11.00" y="335.00" width="3.00" height="6.00" fill="#00fff5"/>"
<line x1="16.50" y1="327.50" x2="16.50" y2="342.50" stroke="#e94560" stroke-width="1.00"/>"
<rect x="14.00" y="335.00" width="3.00" height="3.00" fill="#e94560"/>"
<line x1="20.50" y1="326.50" x2="20.50" y2="350.50" stroke="#00fff5" stroke-width="1.00"/>"
<rect x="18.00" y="335.00" width="3.00" height="6.00" fill="#00fff5"/>"
<line x1="23.50" y1="325.50" x2="23.50" y2="340.50" stroke="#e94560" stroke-width="1.00"/>"
<rect x="22.00" y="332.00" width="3.00" height="4.00" fill="#e94560"/>"
<line x1="27.50" y1="323.50" x2="27.50" y2="347.50" stroke="#00fff5" stroke-width="1.00"/>"
<rect x="25.00" y="333.00" width="3.00" height="6.00" fill="#00fff5"/>"
<line x1="31.50" y1="320.50" x2="31.50" y2="336.50" stroke="#e94560" stroke-width="1.00"/>"
<rect x="29.00" y="327.00" width="3.00" height="4.00" fill="#e94560"/>"
<line x1="34.50" y1="317.50" x2="34.50" y2="343.50" stroke="#00fff5" stroke-width="1.00"/>"
<rect x="33.00" y="329.00" width="3.00" height="11.00" fill="#00fff5"/>"
<line x1="38.50" y1="314.50" x2="38.50" y2="331.50" stroke="#e94560" stroke-width="1.00"/>"
<rect x="36.00" y="317.00" width="3.00" height="7.00" fill="#e94560"/>"
<line x1="41.50" y1="310.50" x2="41.50" y2="336.50" stroke="#00fff5" stroke-width="1.00"/>"
<rect x="40.00" y="322.00" width="3.00" height="10.00" fill="#00fff5"/>"
<line x1="45.50" y1="305.50" x2="45.50" y2="323.50" stroke="#e94560" stroke-width="1.00"/>"
<rect x="44.00" y="309.00" width="3.00" height="6.00" fill="#e94560"/>"
<line x1="49.50" y1="309.50" x2="49.50" y2="318.50" stroke="#00fff5" stroke-width="1.00"/>"
<rect x="47.00" y="314.00" width="3.00" height="2.00" fill="#00fff5"/>"
<line x1="52.50" y1="295.50" x2="52.50" y2="313.50" stroke="#e94560" stroke-width="1.00"/>"
<rect x="51.00" y="300.00" width="3.00" height="4.00" fill="#e94560"/>"
<line x1="56.50" y1="297.50" x2="56.50" y2="307.50" stroke="#00fff5" stroke-width="1.00"/>"
<rect x="55.00" y="303.00" width="3.00" height="2.00" fill="#00fff5"/>"
<line x1="60.50" y1="282.50" x2="60.50" y2="301.50" stroke="#e94560" stroke-width="1.00"/>"
<rect x="58.00" y="288.00" width="3.00" height="3.00" fill="#e94560"/>"
<line x1="63.50" y1="284.50" x2="63.50" y2="294.50" stroke="#00fff5" stroke-width="1.00"/>"
<rect x="62.00" y="290.00" width="3.00" height="2.00" fill="#00fff5"/>"
<line x1="67.50" y1="285.50" x2="67.50" y2="305.50" stroke="#e94560" stroke-width="1.00"/>"
<rect x="66.00" y="293.00" width="3.00" height="1.00" fill="#e94560"/>"
<line x1="71.50" y1="286.50" x2="71.50" y2="298.50" stroke="#00fff5" stroke-width="1.00"/>"
<rect x="69.00" y="294.00" width="3.00" height="1.00" fill="#00fff5"/>"
<line x1="74.50" y1="287.50" x2="74.50" y2="307.50" stroke="#00fff5" stroke-width="1.00"/>"
<rect x="73.00" y="290.00" width="3.00" height="5.00" fill="#00fff5"/>"
<line x1="78.50" y1="287.50" x2="78.50" y2="299.50" stroke="#e94560" stroke-width="1.00"/>"
<rect x="76.00" y="295.00" width="3.00" height="2.00" fill="#e94560"/>"
<line x1="82.50" y1="286.50" x2="82.50" y2="307.50" stroke="#00fff5" stroke-width="1.00"/>"
<rect x="80.00" y="291.00" width="3.00" height="5.00" fill="#00fff5"/>"
<line x1="85.50" y1="285.50" x2="85.50" y2="298.50" stroke="#e94560" stroke-width="1.00"/>"
<rect x="84.00" y="293.00" width="3.00" height="3.00" fill="#e94560"/>"
<line x1="89.50" y1="284.50" x2="89.50" y2="306.50" stroke="#00fff5" stroke-width="1.00"/>"
<rect x="87.00" y="290.00" width="3.00" height="5.00" fill="#00fff5"/>"
<line x1="93.50" y1="282.50" x2="93.50" y2="295.50" stroke="#e94560" stroke-width="1.00"/>"
<rect x="91.00" y="290.00" width="3.00" height="3.00" fill="#e94560"/>"
<line x1="96.50" y1="280.50" x2="96.50" y2="302.50" stroke="#00fff5" stroke-width="1.00"/>"
<rect x="95.00" y="286.00" width="3.00" height="6.00" fill="#00fff5"/>"
<line x1="100.50" y1="277.50" x2="100.50" y2="291.50" stroke="#e94560" stroke-width="1.00"/>"
<rect x="98.00" y="284.00" width="3.00" height="4.00" fill="#e94560"/>"
<line x1="104.50" y1="273.50" x2="104.50" y2="297.50" stroke="#00fff5" stroke-width="1.00"/>"
<rect x="102.00" y="281.00" width="3.00" height="6.00" fill="#00fff5"/>"
<line x1="107.50" y1="270.50" x2="107.50" y2="285.50" stroke="#e94560" stroke-width="1.00"/>"
<rect x="106.00" y="277.00" width="3.00" height="4.00" fill="#e94560"/>"
<line x1="111.50" y1="266.50" x2="111.50" y2="290.50" stroke="#00fff5" stroke-width="1.00"/>"
<rect x="109.00" y="275.00" width="3.00" height="6.00" fill="#00fff5"/>"
<line x1="114.50" y1="261.50" x2="114.50" y2="277.50" stroke="#e94560" stroke-width="1.00"/>"
<rect x="113.00" y="268.00" width="3.00" height="4.00" fill="#e94560"/>"
<line x1="118.50" y1="256.50" x2="118.50" y2="281.50" stroke="#00fff5" stroke-width="1.00"/>"
<rect x="117.00" y="266.00" width="3.00" height="6.00" fill="#00fff5"/>"
<line x1="122.50" y1="250.50" x2="122.50" y2="267.50" stroke="#e94560" stroke-width="1.00"/>"
<rect x="120.00" y="253.00" width="3.00" height="8.00" fill="#e94560"/>"
<line x1="125.50" y1="244.50" x2="125.50" y2="270.50" stroke="#00fff5" stroke-width="1.00"/>"
<rect x="124.00" y="256.00" width="3.00" height="11.00" fill="#00fff5"/>"
<line x1="129.50" y1="238.50" x2="129.50" y2="255.50" stroke="#e94560" stroke-width="1.00"/>"
<rect x="128.00" y="242.00" width="3.00" height="6.00" fill="#e94560"/>"
<line x1="133.50" y1="231.50" x2="133.50" y2="258.50" stroke="#00fff5" stroke-width="1.00"/>"
<rect x="131.00" y="245.00" width="3.00" height="8.00" fill="#00fff5"/>"
<line x1="136.50" y1="224.50" x2="136.50" y2="242.50" stroke="#e94560" stroke-width="1.00"/>"
<rect x="135.00" y="229.00" width="3.00" height="5.00" fill="#e94560"/>"
<line x1="140.50" y1="225.50" x2="140.50" y2="234.50" stroke="#00fff5" stroke-width="1.00"/>"
<rect x="139.00" y="230.00" width="3.00" height="3.00" fill="#00fff5"/>"
<line x1="144.50" y1="208.50" x2="144.50" y2="227.50" stroke="#e94560" stroke-width="1.00"/>"
<rect x="142.00" y="214.00" width="3.00" height="4.00" fill="#e94560"/>"
<line x1="147.50" y1="209.50" x2="147.50" y2="219.50" stroke="#00fff5" stroke-width="1.00"/>"
<rect x="146.00" y="214.00" width="3.00" height="2.00" fill="#00fff5"/>"
<line x1="151.50" y1="191.50" x2="151.50" y2="210.50" stroke="#e94560" stroke-width="1.00"/>"
<rect x="149.00" y="197.00" width="3.00" height="3.00" fill="#e94560"/>"
<line x1="155.50" y1="190.50" x2="155.50" y2="201.50" stroke="#00fff5" stroke-width="1.00"/>"
<rect x="153.00" y="197.00" width="3.00" height="1.00" fill="#00fff5"/>"
<line x1="158.50" y1="190.50" x2="158.50" y2="210.50" stroke="#e94560" stroke-width="1.00"/>"
<rect x="157.00" y="197.00" width="3.00" height="1.00" fill="#e94560"/>"
<line x1="162.50" y1="188.50" x2="162.50" y2="200.50" stroke="#00fff5" stroke-width="1.00"/>"
<rect x="160.00" y="196.00" width="3.00" height="1.00" fill="#00fff5"/>"
<line x1="166.50" y1="187.50" x2="166.50" y2="208.50" stroke="#00fff5" stroke-width="1.00"/>"
<rect x="164.00" y="191.00" width="3.00" height="5.00" fill="#00fff5"/>"
<line x1="169.50" y1="185.50" x2="169.50" y2="197.50" stroke="#e94560" stroke-width="1.00"/>"
<rect x="168.00" y="193.00" width="3.00" height="3.00" fill="#e94560"/>"
<line x1="173.50" y1="182.50" x2="173.50" y2="204.50" stroke="#00fff5" stroke-width="1.00"/>"
<rect x="171.00" y="187.00" width="3.00" height="6.00" fill="#00fff5"/>"
<line x1="177.50" y1="180.50" x2="177.50" y2="193.50" stroke="#e94560" stroke-width="1.00"/>"
<rect x="175.00" y="187.00" width="3.00" height="4.00" fill="#e94560"/>"
<line x1="180.50" y1="177.50" x2="180.50" y2="199.50" stroke="#00fff5" stroke-width="1.00"/>"
<rect x="179.00" y="183.00" width="3.00" height="5.00" fill="#00fff5"/>"
<line x1="184.50" y1="173.50" x2="184.50" y2="187.50" stroke="#e94560" stroke-width="1.00"/>"
<rect x="182.00" y="181.00" width="3.00" height="3.00" fill="#e94560"/>"
<line x1="187.50" y1="169.50" x2="187.50" y2="192.50" stroke="#00fff5" stroke-width="1.00"/>"
<rect x="186.00" y="177.00" width="3.00" height="5.00" fill="#00fff5"/>"
<line x1="191.50" y1="165.50" x2="191.50" y2="180.50" stroke="#e94560" stroke-width="1.00"/>"
<rect x="190.00" y="173.00" width="3.00" height="3.00" fill="#e94560"/>"
<line x1="195.50" y1="161.50" x2="195.50" y2="184.50" stroke="#00fff5" stroke-width="1.00"/>"
<rect x="193.00" y="169.00" width="3.00" height="6.00" fill="#00fff5"/>"
<line x1="198.50" y1="156.50" x2="198.50" y2="171.50" stroke="#e94560" stroke-width="1.00"/>"
<rect x="197.00" y="163.00" width="3.00" height="3.00" fill="#e94560"/>"
<line x1="202.50" y1="150.50" x2="202.50" y2="175.50" stroke="#00fff5" stroke-width="1.00"/>"
<rect x="201.00" y="160.00" width="3.00" height="6.00" fill="#00fff5"/>"
<line x1="206.50" y1="145.50" x2="206.50" y2="161.50" stroke="#e94560" stroke-width="1.00"/>"
<rect x="204.00" y="152.00" width="3.00" height="4.00" fill="#e94560"/>"
<line x1="209.50" y1="139.50" x2="209.50" y2="164.50" stroke="#00fff5" stroke-width="1.00"/>"
<rect x="208.00" y="150.00" width="3.00" height="12.00" fill="#00fff5"/>"
<line x1="213.50" y1="133.50" x2="213.50" y2="149.50" stroke="#e94560" stroke-width="1.00"/>"
<rect x="212.00" y="136.00" width="3.00" height="7.00" fill="#e94560"/>"
<line x1="217.50" y1="126.50" x2="217.50" y2="152.50" stroke="#00fff5" stroke-width="1.00"/>"
<rect x="215.00" y="139.00" width="3.00" height="10.00" fill="#00fff5"/>"
<line x1="220.50" y1="119.50" x2="220.50" y2="137.50" stroke="#e94560" stroke-width="1.00"/>"
<rect x="219.00" y="123.00" width="3.00" height="6.00" fill="#e94560"/>"
<line x1="224.50" y1="112.50" x2="224.50" y2="139.50" stroke="#00fff5" stroke-width="1.00"/>"
<rect x="222.00" y="126.00" width="3.00" height="8.00" fill="#00fff5"/>"
<line x1="228.50" y1="104.50" x2="228.50" y2="123.50" stroke="#e94560" stroke-width="1.00"/>"
<rect x="226.00" y="109.00" width="3.00" height="5.00" fill="#e94560"/>"
<line x1="231.50" y1="105.50" x2="231.50" y2="115.50" stroke="#00fff5" stroke-width="1.00"/>"
<rect x="230.00" y="111.00" width="3.00" height="2.00" fill="#00fff5"/>"
<line x1="235.50" y1="88.50" x2="235.50" y2="107.50" stroke="#e94560" stroke-width="1.00"/>"
<rect x="233.00" y="94.00" width="3.00" height="4.00" fill="#e94560"/>"
<line x1="239.50" y1="89.50" x2="239.50" y2="99.50" stroke="#00fff5" stroke-width="1.00"/>"
<rect x="237.00" y="95.00" width="3.00" height="1.00" fill="#00fff5"/>"
<line x1="242.50" y1="89.50" x2="242.50" y2="108.50" stroke="#e94560" stroke-width="1.00"/>"
<rect x="241.00" y="96.00" width="3.00" height="2.00" fill="#e94560"/>"
<line x1="246.50" y1="89.50" x2="246.50" y2="100.50" stroke="#00fff5" stroke-width="1.00"/>"
<rect x="244.00" y="96.00" width="3.00" height="1.00" fill="#00fff5"/>"
<line x1="250.50" y1="88.50" x2="250.50" y2="109.50" stroke="#e94560" stroke-width="1.00"/>"
<rect x="248.00" y="96.00" width="3.00" height="1.00" fill="#e94560"/>"
<line x1="253.50" y1="87.50" x2="253.50" y2="99.50" stroke="#e94560" stroke-width="1.00"/>"
<rect x="252.00" y="95.00" width="3.00" height="3.00" fill="#e94560"/>"
<line x1="257.50" y1="86.50" x2="257.50" y2="107.50" stroke="#00fff5" stroke-width="1.00"/>"
<rect x="255.00" y="91.00" width="3.00" height="5.00" fill="#00fff5"/>"
<line x1="260.50" y1="85.50" x2="260.50" y2="98.50" stroke="#e94560" stroke-width="1.00"/>"
<rect x="259.00" y="93.00" width="3.00" height="3.00" fill="#e94560"/>"
<line x1="264.50" y1="83.50" x2="264.50" y2="105.50" stroke="#00fff5" stroke-width="1.00"/>"
<rect x="263.00" y="89.00" width="3.00" height="5.00" fill="#00fff5"/>"
<line x1="268.50" y1="82.50" x2="268.50" y2="95.50" stroke="#e94560" stroke-width="1.00"/>"
<rect x="266.00" y="89.00" width="3.00" height="3.00" fill="#e94560"/>"
<line x1="271.50" y1="79.50" x2="271.50" y2="102.50" stroke="#00fff5" stroke-width="1.00"/>"
<rect x="270.00" y="86.00" width="3.00" height="5.00" fill="#00fff5"/>"
<line x1="275.50" y1="77.50" x2="275.50" y2="91.50" stroke="#e94560" stroke-width="1.00"/>"
<rect x="274.00" y="85.00" width="3.00" height="3.00" fill="#e94560"/>"
<line x1="279.50" y1="74.50" x2="279.50" y2="98.50" stroke="#00fff5" stroke-width="1.00"/>"
<rect x="277.00" y="82.00" width="3.00" height="6.00" fill="#00fff5"/>"
<line x1="282.50" y1="71.50" x2="282.50" y2="86.50" stroke="#e94560" stroke-width="1.00"/>"
<rect x="281.00" y="79.00" width="3.00" height="3.00" fill="#e94560"/>"
<line x1="286.50" y1="68.50" x2="286.50" y2="92.50" stroke="#00fff5" stroke-width="1.00"/>"
<rect x="285.00" y="77.00" width="3.00" height="6.00" fill="#00fff5"/>"
<line x1="290.50" y1="65.50" x2="290.50" y2="80.50" stroke="#e94560" stroke-width="1.00"/>"
<rect x="288.00" y="72.00" width="3.00" height="3.00" fill="#e94560"/>"
<line x1="293.50" y1="61.50" x2="293.50" y2="86.50" stroke="#00fff5" stroke-width="1.00"/>"
<rect x="292.00" y="71.00" width="3.00" height="6.00" fill="#00fff5"/>"
<line x1="297.50" y1="57.50" x2="297.50" y2="73.50" stroke="#e94560" stroke-width="1.00"/>"
<rect x="295.00" y="64.00" width="3.00" height="4.00" fill="#e94560"/>"
<line x1="301.50" y1="53.50" x2="301.50" y2="78.50" stroke="#00fff5" stroke-width="1.00"/>"
<rect x="299.00" y="64.00" width="3.00" height="12.00" fill="#00fff5"/>"
<line x1="304.50" y1="48.50" x2="304.50" y2="65.50" stroke="#e94560" stroke-width="1.00"/>"
<rect x="303.00" y="52.00" width="3.00" height="7.00" fill="#e94560"/>"
<line x1="308.50" y1="44.50" x2="308.50" y2="70.50" stroke="#00fff5" stroke-width="1.00"/>"
<rect x="306.00" y="57.00" width="3.00" height="9.00" fill="#00fff5"/>"
<line x1="312.50" y1="39.50" x2="312.50" y2="56.50" stroke="#e94560" stroke-width="1.00"/>"
<rect x="310.00" y="43.00" width="3.00" height="6.00" fill="#e94560"/>"
<line x1="315.50" y1="42.50" x2="315.50" y2="51.50" stroke="#00fff5" stroke-width="1.00"/>"
<rect x="314.00" y="47.00" width="3.00" height="3.00" fill="#00fff5"/>"
<line x1="319.50" y1="28.50" x2="319.50" y2="46.50" stroke="#e94560" stroke-width="1.00"/>"
<rect x="317.00" y="33.00" width="3.00" height="5.00" fill="#e94560"/>"
<line x1="323.50" y1="31.50" x2="323.50" y2="41.50" stroke="#00fff5" stroke-width="1.00"/>"
<rect x="321.00" y="37.00" width="3.00" height="2.00" fill="#00fff5"/>"
<line x1="326.50" y1="16.50" x2="326.50" y2="35.50" stroke="#e94560" stroke-width="1.00"/>"
<rect x="325.00" y="23.00" width="3.00" height="3.00" fill="#e94560"/>"
<line x1="330.50" y1="19.50" x2="330.50" y2="30.50" stroke="#00fff5" stroke-width="1.00"/>"
<rect x="328.00" y="26.00" width="3.00" height="1.00" fill="#00fff5"/>"
<line x1="333.50" y1="22.50" x2="333.50" y2="41.50" stroke="#e94560" stroke-width="1.00"/>"
<rect x="332.00" y="29.00" width="3.00" height="1.00" fill="#e94560"/>"
<line x1="337.50" y1="24.50" x2="337.50" y2="35.50" stroke="#00fff5" stroke-width="1.00"/>"
<rect x="336.00" y="31.00" width="3.00" height="1.00" fill="#00fff5"/>"
<line x1="341.50" y1="26.50" x2="341.50" y2="47.50" stroke="#00fff5" stroke-width="1.00"/>"
<rect x="339.00" y="30.00" width="3.00" height="5.00" fill="#00fff5"/>"
<line x1="344.50" y1="28.50" x2="344.50" y2="40.50" stroke="#e94560" stroke-width="1.00"/>"
<rect x="343.00" y="36.00" width="3.00" height="2.00" fill="#e94560"/>"
<line x1="348.50" y1="29.50" x2="348.50" y2="51.50" stroke="#00fff5" stroke-width="1.00"/>"
<rect x="347.00" y="34.00" width="3.00" height="5.00" fill="#00fff5"/>"
<line x1="352.50" y1="31.50" x2="352.50" y2="44.50" stroke="#e94560" stroke-width="1.00"/>"
<rect x="350.00" y="38.00" width="3.00" height="4.00" fill="#e94560"/>"
<line x1="355.50" y1="32.50" x2="355.50" y2="54.50" stroke="#00fff5" stroke-width="1.00"/>"
<rect x="354.00" y="38.00" width="3.00" height="5.00" fill="#00fff5"/>"
<line x1="359.50" y1="33.50" x2="359.50" y2="46.50" stroke="#e94560" stroke-width="1.00"/>"
<rect x="358.00" y="40.00" width="3.00" height="4.00" fill="#e94560"/>"
<line x1="363.50" y1="33.50" x2="363.50" y2="56.50" stroke="#00fff5" stroke-width="1.00"/>"
<rect x="361.00" y="40.00" width="3.00" height="6.00" fill="#00fff5"/>"
<line x1="366.50" y1="34.50" x2="366.50" y2="48.50" stroke="#e94560" stroke-width="1.00"/>"
<rect x="365.00" y="41.00" width="3.00" height="4.00" fill="#e94560"/>"
<line x1="370.50" y1="34.50" x2="370.50" y2="58.50" stroke="#00fff5" stroke-width="1.00"/>"
<rect x="368.00" y="42.00" width="3.00" height="6.00" fill="#00fff5"/>"
<line x1="374.50" y1="34.50" x2="374.50" y2="49.50" stroke="#e94560" stroke-width="1.00"/>"
<rect x="372.00" y="41.00" width="3.00" height="4.00" fill="#e94560"/>"
<line x1="377.50" y1="34.50" x2="377.50" y2="58.50" stroke="#00fff5" stroke-width="1.00"/>"
<rect x="376.00" y="43.00" width="3.00" height="6.00" fill="#00fff5"/>"
<line x1="381.50" y1="33.50" x2="381.50" y2="49.50" stroke="#e94560" stroke-width="1.00"/>"
<rect x="379.00" y="40.00" width="3.00" height="4.00" fill="#e94560"/>"
<line x1="385.50" y1="33.50" x2="385.50" y2="58.50" stroke="#00fff5" stroke-width="1.00"/>"
<rect x="383.00" y="43.00" width="3.00" height="6.00" fill="#00fff5"/>"
<line x1="388.50" y1="32.50" x2="388.50" y2="48.50" stroke="#e94560" stroke-width="1.00"/>"
<rect x="387.00" y="35.00" width="3.00" height="7.00" fill="#e94560"/>"
<line x1="392.50" y1="31.50" x2="392.50" y2="57.50" stroke="#00fff5" stroke-width="1.00"/>"
<rect x="390.00" y="43.00" width="3.00" height="10.00" fill="#00fff5"/>"
<line x1="396.50" y1="29.50" x2="396.50" y2="47.50" stroke="#e94560" stroke-width="1.00"/>"
<rect x="394.00" y="33.00" width="3.00" height="7.00" fill="#e94560"/>"
<line x1="399.50" y1="28.50" x2="399.50" y2="54.50" stroke="#00fff5" stroke-width="1.00"/>"
<rect x="398.00" y="41.00" width="3.00" height="9.00" fill="#00fff5"/>"
<line x1="403.50" y1="26.50" x2="403.50" y2="44.50" stroke="#e94560" stroke-width="1.00"/>"
<rect x="401.00" y="31.00" width="3.00" height="5.00" fill="#e94560"/>"
<line x1="406.50" y1="33.50" x2="406.50" y2="42.50" stroke="#00fff5" stroke-width="1.00"/>"
<rect x="405.00" y="38.00" width="3.00" height="2.00" fill="#00fff5"/>"
<line x1="410.50" y1="22.50" x2="410.50" y2="40.50" stroke="#e94560" stroke-width="1.00"/>"
<rect x="409.00" y="27.00" width="3.00" height="4.00" fill="#e94560"/>"
<line x1="414.50" y1="28.50" x2="414.50" y2="38.50" stroke="#00fff5" stroke-width="1.00"/>"
<rect x="412.00" y="34.00" width="3.00" height="2.00" fill="#00fff5"/>"
<line x1="417.50" y1="34.50" x2="417.50" y2="53.50" stroke="#e94560" stroke-width="1.00"/>"
<rect x="416.00" y="41.00" width="3.00" height="2.00" fill="#e94560"/>"
<line x1="421.50" y1="40.50" x2="421.50" y2="51.50" stroke="#00fff5" stroke-width="1.00"/>"
<rect x="420.00" y="47.00" width="3.00" height="1.00" fill="#00fff5"/>"
<line x1="425.50" y1="46.50" x2="425.50" y2="66.50" stroke="#e94560" stroke-width="1.00"/>"
<rect x="423.00" y="54.00" width="3.00" height="1.00" fill="#e94560"/>"
<line x1="428.50" y1="51.50" x2="428.50" y2="63.50" stroke="#e94560" stroke-width="1.00"/>"
<rect x="427.00" y="59.00" width="3.00" height="3.00" fill="#e94560"/>"
<line x1="432.50" y1="56.50" x2="432.50" y2="77.50" stroke="#00fff5" stroke-width="1.00"/>"
<rect x="431.00" y="60.00" width="3.00" height="5.00" fill="#00fff5"/>"
<line x1="436.50" y1="61.50" x2="436.50" y2="73.50" stroke="#e94560" stroke-width="1.00"/>"
<rect x="434.00" y="69.00" width="3.00" height="3.00" fill="#e94560"/>"
<line x1="439.50" y1="66.50" x2="439.50" y2="87.50" stroke="#00fff5" stroke-width="1.00"/>"
<rect x="438.00" y="71.00" width="3.00" height="5.00" fill="#00fff5"/>"
<line x1="443.50" y1="70.50" x2="443.50" y2="83.50" stroke="#e94560" stroke-width="1.00"/>"
<rect x="441.00" y="78.00" width="3.00" height="3.00" fill="#e94560"/>"
<line x1="447.50" y1="74.50" x2="447.50" y2="97.50" stroke="#00fff5" stroke-width="1.00"/>"
<rect x="445.00" y="80.00" width="3.00" height="6.00" fill="#00fff5"/>"
<line x1="450.50" y1="78.50" x2="450.50" y2="92.50" stroke="#e94560" stroke-width="1.00"/>"
<rect x="449.00" y="86.00" width="3.00" height="3.00" fill="#e94560"/>"
<line x1="454.50" y1="82.50" x2="454.50" y2="105.50" stroke="#00fff5" stroke-width="1.00"/>"
<rect x="452.00" y="89.00" width="3.00" height="6.00" fill="#00fff5"/>"
<line x1="458.50" y1="85.50" x2="458.50" y2="100.50" stroke="#e94560" stroke-width="1.00"/>"
<rect x="456.00" y="92.00" width="3.00" height="4.00" fill="#e94560"/>"
<line x1="461.50" y1="88.50" x2="461.50" y2="112.50" stroke="#00fff5" stroke-width="1.00"/>"
<rect x="460.00" y="97.00" width="3.00" height="5.00" fill="#00fff5"/>"
<line x1="465.50" y1="91.50" x2="465.50" y2="106.50" stroke="#e94560" stroke-width="1.00"/>"
<rect x="463.00" y="98.00" width="3.00" height="4.00" fill="#e94560"/>"
<line x1="469.50" y1="93.50" x2="469.50" y2="118.50" stroke="#00fff5" stroke-width="1.00"/>"
<rect x="467.00" y="103.00" width="3.00" height="6.00" fill="#00fff5"/>"
<line x1="472.50" y1="96.50" x2="472.50" y2="112.50" stroke="#e94560" stroke-width="1.00"/>"
<rect x="471.00" y="103.00" width="3.00" height="3.00" fill="#e94560"/>"
<line x1="476.50" y1="98.50" x2="476.50" y2="123.50" stroke="#00fff5" stroke-width="1.00"/>"
<rect x="474.00" y="109.00" width="3.00" height="12.00" fill="#00fff5"/>"
<line x1="479.50" y1="99.50" x2="479.50" y2="116.50" stroke="#e94560" stroke-width="1.00"/>"
<rect x="478.00" y="103.00" width="3.00" height="7.00" fill="#e94560"/>"
<line x1="483.50" y1="101.50" x2="483.50" y2="127.50" stroke="#00fff5" stroke-width="1.00"/>"
<rect x="482.00" y="113.00" width="3.00" height="10.00" fill="#00fff5"/>"
<line x1="487.50" y1="102.50" x2="487.50" y2="119.50" stroke="#e94560" stroke-width="1.00"/>"
<rect x="485.00" y="106.00" width="3.00" height="6.00" fill="#e94560"/>"
<line x1="490.50" y1="112.50" x2="490.50" y2="121.50" stroke="#00fff5" stroke-width="1.00"/>"
<rect x="489.00" y="116.00" width="3.00" height="3.00" fill="#00fff5"/>"
<line x1="494.50" y1="103.50" x2="494.50" y2="121.50" stroke="#e94560" stroke-width="1.00"/>"
<rect x="493.00" y="108.00" width="3.00" height="5.00" fill="#e94560"/>"
<line x1="498.50" y1="112.50" x2="498.50" y2="122.50" stroke="#00fff5" stroke-width="1.00"/>"
<rect x="496.00" y="118.00" width="3.00" height="2.00" fill="#00fff5"/>"
<line x1="501.50" y1="103.50" x2="501.50" y2="122.50" stroke="#e94560" stroke-width="1.00"/>"
<rect x="500.00" y="109.00" width="3.00" height="4.00" fill="#e94560"/>"
<line x1="505.50" y1="112.50" x2="505.50" y2="122.50" stroke="#00fff5" stroke-width="1.00"/>"
<rect x="504.00" y="118.00" width="3.00" height="1.00" fill="#00fff5"/>"
<line x1="509.50" y1="120.50" x2="509.50" y2="140.50" stroke="#e94560" stroke-width="1.00"/>"
<rect x="507.00" y="127.00" width="3.00" height="2.00" fill="#e94560"/>"
<line x1="512.50" y1="128.50" x2="512.50" y2="139.50" stroke="#00fff5" stroke-width="1.00"/>"
<rect x="511.00" y="135.00" width="3.00" height="1.00" fill="#00fff5"/>"
<line x1="516.50" y1="135.50" x2="516.50" y2="156.50" stroke="#e94560" stroke-width="1.00"/>"
<rect x="514.00" y="144.00" width="3.00" height="1.00" fill="#e94560"/>"
<line x1="520.50" y1="142.50" x2="520.50" y2="154.50" stroke="#e94560" stroke-width="1.00"/>"
<rect x="518.00" y="150.00" width="3.00" height="3.00" fill="#e94560"/>"
<line x1="523.50" y1="149.50" x2="523.50" y2="170.50" stroke="#00fff5" stroke-width="1.00"/>"
<rect x="522.00" y="154.00" width="3.00" height="5.00" fill="#00fff5"/>"
<line x1="527.50" y1="156.50" x2="527.50" y2="168.50" stroke="#e94560" stroke-width="1.00"/>"
<rect x="525.00" y="164.00" width="3.00" height="3.00" fill="#e94560"/>"
<line x1="531.50" y1="162.50" x2="531.50" y2="184.50" stroke="#00fff5" stroke-width="1.00"/>"
<rect x="529.00" y="167.00" width="3.00" height="6.00" fill="#00fff5"/>"
<line x1="534.50" y1="168.50" x2="534.50" y2="181.50" stroke="#e94560" stroke-width="1.00"/>"
<rect x="533.00" y="175.00" width="3.00" height="4.00" fill="#e94560"/>"
<line x1="538.50" y1="173.50" x2="538.50" y2="196.50" stroke="#00fff5" stroke-width="1.00"/>"
<rect x="536.00" y="180.00" width="3.00" height="5.00" fill="#00fff5"/>"
<line x1="542.50" y1="178.50" x2="542.50" y2="192.50" stroke="#e94560" stroke-width="1.00"/>"
<rect x="540.00" y="186.00" width="3.00" height="3.00" fill="#e94560"/>"
<line x1="545.50" y1="183.50" x2="545.50" y2="206.50" stroke="#00fff5" stroke-width="1.00"/>"
<rect x="544.00" y="191.00" width="3.00" height="5.00" fill="#00fff5"/>"
<line x1="549.50" y1="187.50" x2="549.50" y2="202.50" stroke="#e94560" stroke-width="1.00"/>"
<rect x="547.00" y="195.00" width="3.00" height="3.00" fill="#e94560"/>"
<line x1="552.50" y1="191.50" x2="552.50" y2="216.50" stroke="#00fff5" stroke-width="1.00"/>"
<rect x="551.00" y="201.00" width="3.00" height="5.00" fill="#00fff5"/>"
<line x1="556.50" y1="195.50" x2="556.50" y2="211.50" stroke="#e94560" stroke-width="1.00"/>"
<rect x="555.00" y="202.00" width="3.00" height="4.00" fill="#e94560"/>"
<line x1="560.50" y1="198.50" x2="560.50" y2="223.50" stroke="#00fff5" stroke-width="1.00"/>"
<rect x="558.00" y="209.00" width="3.00" height="6.00" fill="#00fff5"/>"
<line x1="563.50" y1="201.50" x2="563.50" y2="218.50" stroke="#e94560" stroke-width="1.00"/>"
<rect x="562.00" y="204.00" width="3.00" height="8.00" fill="#e94560"/>"
<line x1="567.50" y1="204.50" x2="567.50" y2="229.50" stroke="#00fff5" stroke-width="1.00"/>"
<rect x="566.00" y="215.00" width="3.00" height="12.00" fill="#00fff5"/>"
<line x1="571.50" y1="206.50" x2="571.50" y2="223.50" stroke="#e94560" stroke-width="1.00"/>"
<rect x="569.00" y="210.00" width="3.00" height="6.00" fill="#e94560"/>"
<line x1="574.50" y1="208.50" x2="574.50" y2="234.50" stroke="#00fff5" stroke-width="1.00"/>"
<rect x="573.00" y="221.00" width="3.00" height="9.00" fill="#00fff5"/>"
<line x1="578.50" y1="209.50" x2="578.50" y2="227.50" stroke="#e94560" stroke-width="1.00"/>"
<rect x="577.00" y="213.00" width="3.00" height="6.00" fill="#e94560"/>"
<line x1="582.50" y1="219.50" x2="582.50" y2="228.50" stroke="#00fff5" stroke-width="1.00"/>"
<rect x="580.00" y="224.00" width="3.00" height="2.00" fill="#00fff5"/>"
<line x1="585.50" y1="210.50" x2="585.50" y2="229.50" stroke="#e94560" stroke-width="1.00"/>"
<rect x="584.00" y="216.00" width="3.00" height="4.00" fill="#e94560"/>"
<line x1="589.50" y1="219.50" x2="589.50" y2="229.50" stroke="#00fff5" stroke-width="1.00"/>"
<rect x="587.00" y="225.00" width="3.00" height="2.00" fill="#00fff5"/>"
<line x1="593.50" y1="210.50" x2="593.50" y2="229.50" stroke="#e94560" stroke-width="1.00"/>"
<rect x="591.00" y="217.00" width="3.00" height="2.00" fill="#e94560"/>"
<line x1="596.50" y1="218.50" x2="596.50" y2="229.50" stroke="#00fff5" stroke-width="1.00"/>"
<rect x="595.00" y="225.00" width="3.00" height="1.00" fill="#00fff5"/>"
<line x1="600.50" y1="226.50" x2="600.50" y2="246.50" stroke="#e94560" stroke-width="1.00"/>"
<rect x="598.00" y="234.00" width="3.00" height="1.00" fill="#e94560"/>"
<line x1="604.50" y1="233.50" x2="604.50" y2="245.50" stroke="#00fff5" stroke-width="1.00"/>"
<rect x="602.00" y="241.00" width="3.00" height="1.00" fill="#00fff5"/>"
<line x1="607.50" y1="240.50" x2="607.50" y2="261.50" stroke="#00fff5" stroke-width="1.00"/>"
<rect x="606.00" y="244.00" width="3.00" height="5.00" fill="#00fff5"/>"
<line x1="611.50" y1="247.50" x2="611.50" y2="259.50" stroke="#e94560" stroke-width="1.00"/>"
<rect x="609.00" y="254.00" width="3.00" height="3.00" fill="#e94560"/>"
<line x1="615.50" y1="253.50" x2="615.50" y2="274.50" stroke="#00fff5" stroke-width="1.00"/>"
<rect x="613.00" y="257.00" width="3.00" height="6.00" fill="#00fff5"/>"
<line x1="618.50" y1="258.50" x2="618.50" y2="271.50" stroke="#e94560" stroke-width="1.00"/>"
<rect x="617.00" y="266.00" width="3.00" height="3.00" fill="#e94560"/>"
<line x1="622.50" y1="263.50" x2="622.50" y2="285.50" stroke="#00fff5" stroke-width="1.00"/>"
<rect x="620.00" y="269.00" width="3.00" height="5.00" fill="#00fff5"/>"
<line x1="625.50" y1="268.50" x2="625.50" y2="282.50" stroke="#e94560" stroke-width="1.00"/>"
<rect x="624.00" y="276.00" width="3.00" height="3.00" fill="#e94560"/>"
<line x1="629.50" y1="272.50" x2="629.50" y2="295.50" stroke="#00fff5" stroke-width="1.00"/>"
<rect x="628.00" y="279.00" width="3.00" height="6.00" fill="#00fff5"/>"
<line x1="633.50" y1="276.50" x2="633.50" y2="290.50" stroke="#e94560" stroke-width="1.00"/>"
<rect x="631.00" y="283.00" width="3.00" height="4.00" fill="#e94560"/>"
<line x1="636.50" y1="279.50" x2="636.50" y2="303.50" stroke="#00fff5" stroke-width="1.00"/>"
<rect x="635.00" y="287.00" width="3.00" height="6.00" fill="#00fff5"/>"
<line x1="640.50" y1="282.50" x2="640.50" y2="297.50" stroke="#e94560" stroke-width="1.00"/>"
<rect x="639.00" y="289.00" width="3.00" height="4.00" fill="#e94560"/>"
<line x1="644.50" y1="284.50" x2="644.50" y2="309.50" stroke="#00fff5" stroke-width="1.00"/>"
<rect x="642.00" y="294.00" width="3.00" height="6.00" fill="#00fff5"/>"
<line x1="647.50" y1="286.50" x2="647.50" y2="302.50" stroke="#e94560" stroke-width="1.00"/>"
<rect x="646.00" y="293.00" width="3.00" height="4.00" fill="#e94560"/>"
<line x1="651.50" y1="288.50" x2="651.50" y2="313.50" stroke="#00fff5" stroke-width="1.00"/>"
<rect x="650.00" y="298.00" width="3.00" height="6.00" fill="#00fff5"/>"
<line x1="655.50" y1="289.50" x2="655.50" y2="305.50" stroke="#e94560" stroke-width="1.00"/>"
<rect x="653.00" y="292.00" width="3.00" height="7.00" fill="#e94560"/>"
<line x1="658.50" y1="289.50" x2="658.50" y2="315.50" stroke="#00fff5" stroke-width="1.00"/>"
<rect x="657.00" y="301.00" width="3.00" height="11.00" fill="#00fff5"/>"
<line x1="662.50" y1="289.50" x2="662.50" y2="306.50" stroke="#e94560" stroke-width="1.00"/>"
<rect x="660.00" y="293.00" width="3.00" height="6.00" fill="#e94560"/>"
<line x1="666.50" y1="289.50" x2="666.50" y2="315.50" stroke="#00fff5" stroke-width="1.00"/>"
<rect x="664.00" y="302.00" width="3.00" height="9.00" fill="#00fff5"/>"
<line x1="669.50" y1="288.50" x2="669.50" y2="306.50" stroke="#e94560" stroke-width="1.00"/>"
<rect x="668.00" y="292.00" width="3.00" height="6.00" fill="#e94560"/>"
<line x1="673.50" y1="295.50" x2="673.50" y2="304.50" stroke="#00fff5" stroke-width="1.00"/>"
<rect x="671.00" y="300.00" width="3.00" height="2.00" fill="#00fff5"/>"
<line x1="677.50" y1="284.50" x2="677.50" y2="303.50" stroke="#e94560" stroke-width="1.00"/>"
<rect x="675.00" y="290.00" width="3.00" height="4.00" fill="#e94560"/>"
<line x1="680.50" y1="291.50" x2="680.50" y2="301.50" stroke="#00fff5" stroke-width="1.00"/>"
<rect x="679.00" y="297.00" width="3.00" height="1.00" fill="#00fff5"/>"
<line x1="684.50" y1="297.50" x2="684.50" y2="316.50" stroke="#e94560" stroke-width="1.00"/>"
<rect x="682.00" y="303.00" width="3.00" height="3.00" fill="#e94560"/>"
<line x1="688.50" y1="302.50" x2="688.50" y2="313.50" stroke="#00fff5" stroke-width="1.00"/>"
<rect x="686.00" y="309.00" width="3.00" height="1.00" fill="#00fff5"/>"
<line x1="691.50" y1="307.50" x2="691.50" y2="327.50" stroke="#e94560" stroke-width="1.00"/>"
<rect x="690.00" y="315.00" width="3.00" height="1.00" fill="#e94560"/>"
<line x1="695.50" y1="311.50" x2="695.50" y2="323.50" stroke="#e94560" stroke-width="1.00"/>"
<rect x="693.00" y="319.00" width="3.00" height="3.00" fill="#e94560"/>"
<line x1="698.50" y1="315.50" x2="698.50" y2="336.50" stroke="#00fff5" stroke-width="1.00"/>"
<rect x="697.00" y="319.00" width="3.00" height="5.00" fill="#00fff5"/>"
<line x1="702.50" y1="319.50" x2="702.50" y2="331.50" stroke="#e94560" stroke-width="1.00"/>"
<rect x="701.00" y="327.00" width="3.00" height="3.00" fill="#e94560"/>"
<line x1="706.50" y1="322.50" x2="706.50" y2="343.50" stroke="#00fff5" stroke-width="1.00"/>"
<rect x="704.00" y="327.00" width="3.00" height="5.00" fill="#00fff5"/>"
<line x1="709.50" y1="324.50" x2="709.50" y2="337.50" stroke="#e94560" stroke-width="1.00"/>"
<rect x="708.00" y="332.00" width="3.00" height="3.00" fill="#e94560"/>"
<line x1="713.50" y1="326.50" x2="713.50" y2="348.50" stroke="#00fff5" stroke-width="1.00"/>"
<rect x="712.00" y="332.00" width="3.00" height="6.00" fill="#00fff5"/>"
<line x1="717.50" y1="328.50" x2="717.50" y2="341.50" stroke="#e94560" stroke-width="1.00"/>"
<rect x="715.00" y="335.00" width="3.00" height="3.00" fill="#e94560"/>"
<line x1="720.50" y1="328.50" x2="720.50" y2="352.50" stroke="#00fff5" stroke-width="1.00"/>"
<rect x="719.00" y="336.00" width="3.00" height="5.00" fill="#00fff5"/>"
<line x1="724.50" y1="329.50" x2="724.50" y2="343.50" stroke="#e94560" stroke-width="1.00"/>"
<rect x="723.00" y="336.00" width="3.00" height="4.00" fill="#e94560"/>"
<line x1="728.50" y1="329.50" x2="728.50" y2="353.50" stroke="#00fff5" stroke-width="1.00"/>"
<rect x="726.00" y="337.00" width="3.00" height="6.00" fill="#00fff5"/>"
<polyline points="71.17,320.44 74.83,318.10 78.47,316.28 82.12,313.88 85.77,311.91 89.42,309.48 93.08,307.37 96.72,304.91 100.38,302.65 104.02,300.18 107.67,297.77 111.33,295.31 114.97,292.77 118.62,290.33 122.27,287.68 125.92,285.28 129.57,282.54 133.22,280.19 136.88,277.37 140.53,274.17 144.17,270.37 147.82,266.58 151.47,261.71 155.12,257.02 158.78,252.13 162.42,247.46 166.07,242.36 169.72,237.82 173.38,232.82 177.03,228.27 180.67,223.38 184.32,218.85 187.97,214.10 191.62,209.58 195.28,204.99 198.92,200.50 202.57,196.10 206.22,191.65 209.88,187.46 213.53,183.11 217.17,179.14 220.82,174.89 224.47,171.18 228.12,167.04 231.78,162.66 235.42,157.75 239.07,152.96 242.72,148.08 246.38,143.50 250.03,138.81 253.67,134.57 257.32,129.91 260.97,125.87 264.62,121.52 268.27,117.68 271.93,113.66 275.57,110.04 279.22,106.37 282.88,102.98 286.52,99.67 290.18,96.52 293.82,93.61 297.47,90.69 301.12,88.19 304.77,85.58 308.43,83.52 312.07,81.20 315.72,78.66 319.38,75.75 323.02,72.76 326.68,69.14 330.32,65.88 333.97,62.61 337.62,59.73 341.27,56.59 344.93,54.22 348.57,51.53 352.22,49.50 355.88,47.27 359.52,45.60 363.18,43.85 366.82,42.53 370.47,41.27 374.12,40.30 377.77,39.54 381.43,38.92 385.07,38.66 388.72,38.42 392.38,38.68 396.02,38.82 399.68,39.61 403.32,40.12 406.97,40.50 410.62,40.49 414.27,40.71 417.93,40.95 421.57,41.59 425.22,42.23 428.88,43.43 432.52,44.26 436.18,45.83 439.82,47.13 443.47,49.07 447.12,50.84 450.77,53.12 454.43,55.37 458.07,57.99 461.72,60.71 465.38,63.65 469.02,66.84 472.68,70.09 476.32,73.74 479.97,77.33 483.62,81.43 487.27,85.34 490.93,88.99 494.57,92.29 498.22,95.46 501.88,98.02 505.52,100.91 509.18,103.76 512.82,106.97 516.48,110.11 520.12,113.74 523.77,116.98 527.42,120.85 531.07,124.42 534.73,128.52 538.38,132.42 542.02,136.72 545.67,140.94 549.32,145.41 552.98,149.94 556.62,154.57 560.27,159.40 563.92,164.19 567.57,169.31 571.23,174.23 574.88,179.63 578.52,184.68 582.17,189.42 585.82,193.68 589.48,197.75 593.12,201.07 596.77,204.63 600.42,208.04 604.07,211.72 607.73,214.98 611.38,218.86 615.02,222.27 618.67,226.18 622.32,229.72 625.98,233.64 629.62,237.30 633.27,241.21 636.92,244.99 640.57,248.85 644.23,252.73 647.88,256.55 651.52,260.52 655.17,264.29 658.82,268.35 662.48,272.06 666.12,276.19 669.77,279.83 673.42,283.09 677.07,285.73 680.73,288.37 684.38,290.78 688.02,293.35 691.67,295.68 695.32,298.32 698.98,300.35 702.62,302.87 706.27,304.87 709.92,307.26 713.57,309.23 717.23,311.46 720.88,313.41 724.52,315.48 728.17,317.39" stroke="#e94560" stroke-width="1.00" fill="none"/>"
<rect x="730.00" y="0.00" width="70.00" height="370.00" fill="#0a0a0f"/>"
<line x1="730.00" y1="0.00" x2="730.00" y2="370.00" stroke="#1e222d" stroke-width="1.00"/>"
<line x1="730.00" y1="336.22" x2="734.00" y2="336.22" stroke="#1e222d" stroke-width="1.00"/>"
<text x="736.00" y="336.22" fill="#b2b5be" font-family="sans-serif" font-size="11.0" text-anchor="start" dominant-baseline="central">100</text>
<line x1="730.00" y1="291.71" x2="734.00" y2="291.71" stroke="#1e222d" stroke-width="1.00"/>"
<text x="736.00" y="291.71" fill="#b2b5be" font-family="sans-serif" font-size="11.0" text-anchor="start" dominant-baseline="central">110</text>
<line x1="730.00" y1="247.20" x2="734.00" y2="247.20" stroke="#1e222d" stroke-width="1.00"/>"
<text x="736.00" y="247.20" fill="#b2b5be" font-family="sans-serif" font-size="11.0" text-anchor="start" dominant-baseline="central">120</text>
<line x1="730.00" y1="202.69" x2="734.00" y2="202.69" stroke="#1e222d" stroke-width="1.00"/>"
<text x="736.00" y="202.69" fill="#b2b5be" font-family="sans-serif" font-size="11.0" text-anchor="start" dominant-baseline="central">130</text>
<line x1="730.00" y1="158.18" x2="734.00" y2="158.18" stroke="#1e222d" stroke-width="1.00"/>"
<text x="736.00" y="158.18" fill="#b2b5be" font-family="sans-serif" font-size="11.0" text-anchor="start" dominant-baseline="central">140</text>
<line x1="730.00" y1="113.66" x2="734.00" y2="113.66" stroke="#1e222d" stroke-width="1.00"/>"
<text x="736.00" y="113.66" fill="#b2b5be" font-family="sans-serif" font-size="11.0" text-anchor="start" dominant-baseline="central">150</text>
<line x1="730.00" y1="69.15" x2="734.00" y2="69.15" stroke="#1e222d" stroke-width="1.00"/>"
<text x="736.00" y="69.15" fill="#b2b5be" font-family="sans-serif" font-size="11.0" text-anchor="start" dominant-baseline="central">160</text>
<line x1="730.00" y1="24.64" x2="734.00" y2="24.64" stroke="#1e222d" stroke-width="1.00"/>"
<text x="736.00" y="24.64" fill="#b2b5be" font-family="sans-serif" font-size="11.0" text-anchor="start" dominant-baseline="central">170</text>
<rect x="0.00" y="370.00" width="800.00" height="30.00" fill="#0a0a0f"/>"
<line x1="0.00" y1="370.00" x2="730.00" y2="370.00" stroke="#1e222d" stroke-width="1.00"/>"
<line x1="63.88" y1="370.00" x2="63.88" y2="374.00" stroke="#1e222d" stroke-width="1.00"/>"
<text x="63.88" y="376.00" fill="#b2b5be" font-family="sans-serif" font-size="10.0" text-anchor="middle" dominant-baseline="hanging">Dec</text>
<line x1="125.92" y1="370.00" x2="125.92" y2="374.00" stroke="#1e222d" stroke-width="1.00"/>"
<text x="125.92" y="376.00" fill="#b2b5be" font-family="sans-serif" font-size="10.0" text-anchor="middle" dominant-baseline="hanging">5 Dec</text>
<line x1="187.97" y1="370.00" x2="187.97" y2="374.00" stroke="#1e222d" stroke-width="1.00"/>"
<text x="187.97" y="376.00" fill="#b2b5be" font-family="sans-serif" font-size="10.0" text-anchor="middle" dominant-baseline="hanging">2024</text>
<line x1="250.03" y1="370.00" x2="250.03" y2="374.00" stroke="#1e222d" stroke-width="1.00"/>"
<text x="250.03" y="376.00" fill="#b2b5be" font-family="sans-serif" font-size="10.0" text-anchor="middle" dominant-baseline="hanging">Feb</text>
<line x1="312.07" y1="370.00" x2="312.07" y2="374.00" stroke="#1e222d" stroke-width="1.00"/>"
<text x="312.07" y="376.00" fill="#b2b5be" font-family="sans-serif" font-size="10.0" text-anchor="middle" dominant-baseline="hanging">21 Feb</text>
<line x1="374.12" y1="370.00" x2="374.12" y2="374.00" stroke="#1e222d" stroke-width="1.00"/>"
<text x="374.12" y="376.00" fill="#b2b5be" font-family="sans-serif" font-size="10.0" text-anchor="middle" dominant-baseline="hanging">Mar</text>
<line x1="436.18" y1="370.00" x2="436.18" y2="374.00" stroke="#1e222d" stroke-width="1.00"/>"
<text x="436.18" y="376.00" fill="#b2b5be" font-family="sans-serif" font-size="10.0" text-anchor="middle" dominant-baseline="hanging">25 Mar</text>
<line x1="498.22" y1="370.00" x2="498.22" y2="374.00" stroke="#1e222d" stroke-width="1.00"/>"
<text x="498.22" y="376.00" fill="#b2b5be" font-family="sans-serif" font-size="10.0" text-anchor="middle" dominant-baseline="hanging">Apr</text>
<line x1="560.27" y1="370.00" x2="560.27" y2="374.00" stroke="#1e222d" stroke-width="1.00"/>"
<text x="560.27" y="376.00" fill="#b2b5be" font-family="sans-serif" font-size="10.0" text-anchor="middle" dominant-baseline="hanging">29 Apr</text>
<line x1="622.32" y1="370.00" x2="622.32" y2="374.00" stroke="#1e222d" stroke-width="1.00"/>"
<text x="622.32" y="376.00" fill="#b2b5be" font-family="sans-serif" font-size="10.0" text-anchor="middle" dominant-baseline="hanging">May</text>
<line x1="684.38" y1="370.00" x2="684.38" y2="374.00" stroke="#1e222d" stroke-width="1.00"/>"
<text x="684.38" y="376.00" fill="#b2b5be" font-family="sans-serif" font-size="10.0" text-anchor="middle" dominant-baseline="hanging">Jun</text>
</svg>
