<?xml version="1.0" encoding="UTF-8"?>
<svg xmlns="http://www.w3.org/2000/svg"
     xmlns:xlink="http://www.w3.org/1999/xlink"
     width="800" height="400" viewBox="0 0 800 400">
<defs>

</defs>
<rect x="0" y="0" width="800" height="400" fill="#131722"/>
<path d="M1.82 337.71 L5.47 334.29 L9.12 339.23 L12.78 335.94 L16.43 338.66 L20.07 335.62 L23.72 336.02 L27.38 333.35 L31.02 331.30 L34.67 329.13 L38.32 324.51 L41.98 322.97 L45.62 315.67 L49.27 314.28 L52.92 304.79 L56.57 303.54 L60.23 291.88 L63.88 290.90 L67.52 294.76 L71.17 294.18 L74.83 290.88 L78.47 297.89 L82.12 291.37 L85.77 296.56 L89.42 290.04 L93.08 293.28 L96.72 286.90 L100.38 288.10 L104.02 281.97 L107.67 281.02 L111.33 275.29 L114.97 272.08 L118.62 266.88 L122.27 261.30 L125.92 256.77 L129.57 248.72 L133.22 245.00 L136.88 234.37 L140.53 230.73 L144.17 218.28 L147.82 214.98 L151.47 200.48 L155.12 197.67 L158.78 198.81 L162.42 196.62 L166.07 191.29 L169.72 196.05 L173.38 188.00 L177.03 191.08 L180.67 183.26 L184.32 184.56 L187.97 177.11 L191.62 176.51 L195.28 169.58 L198.92 166.99 L202.57 160.70 L206.22 156.02 L209.88 150.51 L213.53 143.63 L217.17 139.05 L220.82 129.87 L224.47 126.35 L228.12 114.76 L231.78 111.32 L235.42 98.34 L239.07 95.50 L242.72 98.44 L246.38 96.34 L250.03 97.29 L253.67 98.59 L257.32 91.28 L260.97 96.36 L264.62 89.39 L268.27 92.95 L271.93 86.46 L275.57 88.39 L279.22 82.51 L282.88 82.71 L286.52 77.57 L290.18 75.92 L293.82 71.66 L297.47 68.06 L301.12 64.80 L304.77 59.13 L308.43 57.01 L312.07 49.17 L315.72 47.67 L319.38 38.18 L323.02 37.34 L326.68 26.18 L330.32 26.13 L333.97 30.98 L337.62 31.85 L341.27 30.14 L344.93 38.94 L348.57 34.58 L352.22 42.03 L355.88 38.16 L359.52 44.15 L363.18 40.89 L366.82 45.29 L370.47 42.77 L374.12 45.47 L377.77 43.81 L381.43 44.69 L385.07 44.00 L388.72 42.92 L392.38 43.33 L396.02 40.18 L399.68 41.80 L403.32 36.46 L406.97 38.49 L410.62 31.73 L414.27 34.47 L417.93 43.80 L421.57 47.37 L425.22 54.85 L428.88 62.10 L432.52 60.75 L436.18 72.32 L439.82 71.33 L443.47 81.46 L447.12 80.95 L450.77 89.51 L454.43 89.59 L458.07 96.45 L461.72 97.22 L465.38 102.25 L469.02 103.83 L472.68 106.88 L476.32 109.38 L479.97 110.33 L483.62 113.85 L487.27 112.56 L490.93 116.76 L494.57 113.54 L498.22 118.23 L501.88 113.23 L505.52 118.53 L509.18 129.42 L512.82 135.43 L516.48 144.27 L520.12 153.56 L523.77 154.19 L527.42 167.05 L531.07 167.92 L534.73 179.12 L538.38 180.32 L542.02 189.72 L545.67 191.37 L549.32 198.82 L552.98 201.01 L556.62 206.38 L560.27 209.22 L563.92 212.38 L567.57 215.96 L571.23 216.77 L574.88 221.20 L578.52 219.51 L582.17 224.21 L585.82 220.59 L589.48 225.61 L593.12 219.95 L596.77 225.41 L600.42 235.39 L604.07 241.37 L607.73 244.49 L611.38 257.85 L615.02 257.95 L618.67 269.52 L622.32 269.69 L625.98 279.35 L629.62 279.69 L633.27 287.30 L636.92 287.92 L640.57 293.34 L644.23 294.35 L647.88 297.46 L651.52 298.97 L655.17 299.63 L658.82 301.74 L662.48 299.82 L666.12 302.65 L669.77 298.02 L673.42 300.72 L677.07 294.21 L680.73 297.12 L684.38 306.17 L688.02 309.40 L691.67 316.09 L695.32 322.46 L698.98 319.96 L702.62 330.03 L706.27 327.41 L709.92 335.52 L713.57 332.89 L717.23 338.94 L720.88 336.42 L724.52 340.28 L728.17 337.99" stroke="#26a69a" stroke-width="3.00" fill="none"/>"
<rect x="730.00" y="0.00" width="70.00" height="370.00" fill="#131722"/>"
<line x1="730.00" y1="0.00" x2="730.00" y2="370.00" stroke="#1e222d" stroke-width="1.00"/>"
<line x1="730.00" y1="336.22" x2="734.00" y2="336.22" stroke="#1e222d" stroke-width="1.00"/>"
<text x="736.00" y="336.22" fill="#b2b5be" font-family="sans-serif" font-size="11.0" text-anchor="start" dominant-baseline="central">100</text>
<line x1="730.00" y1="291.71" x2="734.00" y2="291.71" stroke="#1e222d" stroke-width="1.00"/>"
<text x="736.00" y="291.71" fill="#b2b5be" font-family="sans-serif" font-size="11.0" text-anchor="start" dominant-baseline="central">110</text>
<line x1="730.00" y1="247.20" x2="734.00" y2="247.20" stroke="#1e222d" stroke-width="1.00"/>"
<text x="736.00" y="247.20" fill="#b2b5be" font-family="sans-serif" font-size="11.0" text-anchor="start" dominant-baseline="central">120</text>
<line x1="730.00" y1="202.69" x2="734.00" y2="202.69" stroke="#1e222d" stroke-width="1.00"/>"
<text x="736.00" y="202.69" fill="#b2b5be" font-family="sans-serif" font-size="11.0" text-anchor="start" dominant-baseline="central">130</text>
<line x1="730.00" y1="158.18" x2="734.00" y2="158.18" stroke="#1e222d" stroke-width="1.00"/>"
<text x="736.00" y="158.18" fill="#b2b5be" font-family="sans-serif" font-size="11.0" text-anchor="start" dominant-baseline="central">140</text>
<line x1="730.00" y1="113.66" x2="734.00" y2="113.66" stroke="#1e222d" stroke-width="1.00"/>"
<text x="736.00" y="113.66" fill="#b2b5be" font-family="sans-serif" font-size="11.0" text-anchor="start" dominant-baseline="central">150</text>
<line x1="730.00" y1="69.15" x2="734.00" y2="69.15" stroke="#1e222d" stroke-width="1.00"/>"
<text x="736.00" y="69.15" fill="#b2b5be" font-family="sans-serif" font-size="11.0" text-anchor="start" dominant-baseline="central">160</text>
<line x1="730.00" y1="24.64" x2="734.00" y2="24.64" stroke="#1e222d" stroke-width="1.00"/>"
<text x="736.00" y="24.64" fill="#b2b5be" font-family="sans-serif" font-size="11.0" text-anchor="start" dominant-baseline="central">170</text>
<rect x="0.00" y="370.00" width="800.00" height="30.00" fill="#131722"/>"
<line x1="0.00" y1="370.00" x2="730.00" y2="370.00" stroke="#1e222d" stroke-width="1.00"/>"
<line x1="63.88" y1="370.00" x2="63.88" y2="374.00" stroke="#1e222d" stroke-width="1.00"/>"
<text x="63.88" y="376.00" fill="#b2b5be" font-family="sans-serif" font-size="10.0" text-anchor="middle" dominant-baseline="hanging">Dec</text>
<line x1="125.92" y1="370.00" x2="125.92" y2="374.00" stroke="#1e222d" stroke-width="1.00"/>"
<text x="125.92" y="376.00" fill="#b2b5be" font-family="sans-serif" font-size="10.0" text-anchor="middle" dominant-baseline="hanging">5 Dec</text>
<line x1="187.97" y1="370.00" x2="187.97" y2="374.00" stroke="#1e222d" stroke-width="1.00"/>"
<text x="187.97" y="376.00" fill="#b2b5be" font-family="sans-serif" font-size="10.0" text-anchor="middle" dominant-baseline="hanging">2024</text>
<line x1="250.03" y1="370.00" x2="250.03" y2="374.00" stroke="#1e222d" stroke-width="1.00"/>"
<text x="250.03" y="376.00" fill="#b2b5be" font-family="sans-serif" font-size="10.0" text-anchor="middle" dominant-baseline="hanging">Feb</text>
<line x1="312.07" y1="370.00" x2="312.07" y2="374.00" stroke="#1e222d" stroke-width="1.00"/>"
<text x="312.07" y="376.00" fill="#b2b5be" font-family="sans-serif" font-size="10.0" text-anchor="middle" dominant-baseline="hanging">21 Feb</text>
<line x1="374.12" y1="370.00" x2="374.12" y2="374.00" stroke="#1e222d" stroke-width="1.00"/>"
<text x="374.12" y="376.00" fill="#b2b5be" font-family="sans-serif" font-size="10.0" text-anchor="middle" dominant-baseline="hanging">Mar</text>
<line x1="436.18" y1="370.00" x2="436.18" y2="374.00" stroke="#1e222d" stroke-width="1.00"/>"
<text x="436.18" y="376.00" fill="#b2b5be" font-family="sans-serif" font-size="10.0" text-anchor="middle" dominant-baseline="hanging">25 Mar</text>
<line x1="498.22" y1="370.00" x2="498.22" y2="374.00" stroke="#1e222d" stroke-width="1.00"/>"
<text x="498.22" y="376.00" fill="#b2b5be" font-family="sans-serif" font-size="10.0" text-anchor="middle" dominant-baseline="hanging">Apr</text>
<line x1="560.27" y1="370.00" x2="560.27" y2="374.00" stroke="#1e222d" stroke-width="1.00"/>"
<text x="560.27" y="376.00" fill="#b2b5be" font-family="sans-serif" font-size="10.0" text-anchor="middle" dominant-baseline="hanging">29 Apr</text>
<line x1="622.32" y1="370.00" x2="622.32" y2="374.00" stroke="#1e222d" stroke-width="1.00"/>"
<text x="622.32" y="376.00" fill="#b2b5be" font-family="sans-serif" font-size="10.0" text-anchor="middle" dominant-baseline="hanging">May</text>
<line x1="684.38" y1="370.00" x2="684.38" y2="374.00" stroke="#1e222d" stroke-width="1.00"/>"
<text x="684.38" y="376.00" fill="#b2b5be" font-family="sans-serif" font-size="10.0" text-anchor="middle" dominant-baseline="hanging">Jun</text>
</svg>
