<?xml version="1.0" encoding="UTF-8"?>
<svg xmlns="http://www.w3.org/2000/svg"
     xmlns:xlink="http://www.w3.org/1999/xlink"
     width="1200" height="800" viewBox="0 0 1200 800">
<defs>

</defs>
<rect x="0" y="0" width="1200" height="800" fill="#1a1a2e"/>
<line x1="0.00" y1="81.81" x2="1130.00" y2="81.81" stroke="#2a2a4a" stroke-width="1.00"/>"
<line x1="0.00" y1="163.62" x2="1130.00" y2="163.62" stroke="#2a2a4a" stroke-width="1.00"/>"
<line x1="0.00" y1="245.44" x2="1130.00" y2="245.44" stroke="#2a2a4a" stroke-width="1.00"/>"
<line x1="0.00" y1="327.25" x2="1130.00" y2="327.25" stroke="#2a2a4a" stroke-width="1.00"/>"
<line x1="0.00" y1="409.06" x2="1130.00" y2="409.06" stroke="#2a2a4a" stroke-width="1.00"/>"
<line x1="0.00" y1="490.88" x2="1130.00" y2="490.88" stroke="#2a2a4a" stroke-width="1.00"/>"
<line x1="0.00" y1="572.69" x2="1130.00" y2="572.69" stroke="#2a2a4a" stroke-width="1.00"/>"
<line x1="2.83" y1="0.00" x2="2.83" y2="654.50" stroke="#2a2a4a" stroke-width="1.00"/>"
<line x1="115.83" y1="0.00" x2="115.83" y2="654.50" stroke="#2a2a4a" stroke-width="1.00"/>"
<line x1="228.83" y1="0.00" x2="228.83" y2="654.50" stroke="#2a2a4a" stroke-width="1.00"/>"
<line x1="341.83" y1="0.00" x2="341.83" y2="654.50" stroke="#2a2a4a" stroke-width="1.00"/>"
<line x1="454.83" y1="0.00" x2="454.83" y2="654.50" stroke="#2a2a4a" stroke-width="1.00"/>"
<line x1="567.83" y1="0.00" x2="567.83" y2="654.50" stroke="#2a2a4a" stroke-width="1.00"/>"
<line x1="680.83" y1="0.00" x2="680.83" y2="654.50" stroke="#2a2a4a" stroke-width="1.00"/>"
<line x1="793.83" y1="0.00" x2="793.83" y2="654.50" stroke="#2a2a4a" stroke-width="1.00"/>"
<line x1="906.83" y1="0.00" x2="906.83" y2="654.50" stroke="#2a2a4a" stroke-width="1.00"/>"
<line x1="1019.83" y1="0.00" x2="1019.83" y2="654.50" stroke="#2a2a4a" stroke-width="1.00"/>"
<line x1="2.75" y1="578.25" x2="2.75" y2="601.75" stroke="#ff6b6b" stroke-width="1.00"/>"
<rect x="0.50" y="591.50" width="4.50" height="5.50" fill="#ff6b6b"/>"
<line x1="8.25" y1="579.75" x2="8.25" y2="619.75" stroke="#00d4aa" stroke-width="1.00"/>"
<rect x="6.00" y="591.00" width="4.50" height="9.50" fill="#00d4aa"/>"
<line x1="14.25" y1="580.75" x2="14.25" y2="605.25" stroke="#ff6b6b" stroke-width="1.00"/>"
<rect x="11.50" y="594.00" width="4.50" height="6.00" fill="#ff6b6b"/>"
<line x1="19.75" y1="580.75" x2="19.75" y2="621.75" stroke="#00d4aa" stroke-width="1.00"/>"
<rect x="17.50" y="594.00" width="4.50" height="10.00" fill="#00d4aa"/>"
<line x1="25.25" y1="579.75" x2="25.25" y2="605.75" stroke="#ff6b6b" stroke-width="1.00"/>"
<rect x="23.00" y="592.50" width="4.50" height="6.50" fill="#ff6b6b"/>"
<line x1="31.25" y1="578.25" x2="31.25" y2="620.25" stroke="#00d4aa" stroke-width="1.00"/>"
<rect x="28.50" y="593.50" width="4.50" height="10.00" fill="#00d4aa"/>"
<line x1="36.75" y1="575.25" x2="36.75" y2="602.75" stroke="#ff6b6b" stroke-width="1.00"/>"
<rect x="34.00" y="587.50" width="4.50" height="6.50" fill="#ff6b6b"/>"
<line x1="42.25" y1="571.75" x2="42.25" y2="615.25" stroke="#00d4aa" stroke-width="1.00"/>"
<rect x="40.00" y="589.50" width="4.50" height="10.50" fill="#00d4aa"/>"
<line x1="48.25" y1="567.25" x2="48.25" y2="595.75" stroke="#ff6b6b" stroke-width="1.00"/>"
<rect x="45.50" y="579.00" width="4.50" height="7.00" fill="#ff6b6b"/>"
<line x1="53.75" y1="561.75" x2="53.75" y2="606.75" stroke="#00d4aa" stroke-width="1.00"/>"
<rect x="51.00" y="582.00" width="4.50" height="20.00" fill="#00d4aa"/>"
<line x1="59.25" y1="555.75" x2="59.25" y2="585.75" stroke="#ff6b6b" stroke-width="1.00"/>"
<rect x="57.00" y="561.50" width="4.50" height="12.50" fill="#ff6b6b"/>"
<line x1="64.75" y1="548.75" x2="64.75" y2="594.75" stroke="#00d4aa" stroke-width="1.00"/>"
<rect x="62.50" y="571.00" width="4.50" height="17.00" fill="#00d4aa"/>"
<line x1="70.75" y1="540.75" x2="70.75" y2="571.75" stroke="#ff6b6b" stroke-width="1.00"/>"
<rect x="68.00" y="548.00" width="4.50" height="10.00" fill="#ff6b6b"/>"
<line x1="76.25" y1="547.25" x2="76.25" y2="563.25" stroke="#00d4aa" stroke-width="1.00"/>"
<rect x="74.00" y="555.50" width="4.50" height="4.50" fill="#00d4aa"/>"
<line x1="81.75" y1="521.75" x2="81.75" y2="554.25" stroke="#ff6b6b" stroke-width="1.00"/>"
<rect x="79.50" y="531.00" width="4.50" height="8.00" fill="#ff6b6b"/>"
<line x1="87.75" y1="526.75" x2="87.75" y2="544.25" stroke="#00d4aa" stroke-width="1.00"/>"
<rect x="85.00" y="536.50" width="4.50" height="3.50" fill="#00d4aa"/>"
<line x1="93.25" y1="499.75" x2="93.25" y2="533.25" stroke="#ff6b6b" stroke-width="1.00"/>"
<rect x="90.50" y="510.50" width="4.50" height="5.50" fill="#ff6b6b"/>"
<line x1="98.75" y1="503.25" x2="98.75" y2="521.75" stroke="#00d4aa" stroke-width="1.00"/>"
<rect x="96.50" y="514.50" width="4.50" height="2.00" fill="#00d4aa"/>"
<line x1="104.75" y1="505.75" x2="104.75" y2="540.75" stroke="#ff6b6b" stroke-width="1.00"/>"
<rect x="102.00" y="518.50" width="4.50" height="2.50" fill="#ff6b6b"/>"
<line x1="110.25" y1="507.25" x2="110.25" y2="527.25" stroke="#00d4aa" stroke-width="1.00"/>"
<rect x="107.50" y="520.00" width="4.50" height="1.00" fill="#00d4aa"/>"
<line x1="115.75" y1="508.25" x2="115.75" y2="544.25" stroke="#00d4aa" stroke-width="1.00"/>"
<rect x="113.50" y="514.50" width="4.50" height="8.50" fill="#00d4aa"/>"
<line x1="121.25" y1="508.25" x2="121.25" y2="529.25" stroke="#ff6b6b" stroke-width="1.00"/>"
<rect x="119.00" y="521.50" width="4.50" height="5.00" fill="#ff6b6b"/>"
<line x1="127.25" y1="507.25" x2="127.25" y2="544.75" stroke="#00d4aa" stroke-width="1.00"/>"
<rect x="124.50" y="515.00" width="4.50" height="9.00" fill="#00d4aa"/>"
<line x1="132.75" y1="505.25" x2="132.75" y2="528.25" stroke="#ff6b6b" stroke-width="1.00"/>"
<rect x="130.50" y="519.00" width="4.50" height="5.50" fill="#ff6b6b"/>"
<line x1="138.25" y1="502.75" x2="138.25" y2="541.75" stroke="#00d4aa" stroke-width="1.00"/>"
<rect x="136.00" y="513.00" width="4.50" height="9.00" fill="#00d4aa"/>"
<line x1="144.25" y1="499.75" x2="144.25" y2="523.25" stroke="#ff6b6b" stroke-width="1.00"/>"
<rect x="141.50" y="513.00" width="4.50" height="5.50" fill="#ff6b6b"/>"
<line x1="149.75" y1="495.25" x2="149.75" y2="535.75" stroke="#00d4aa" stroke-width="1.00"/>"
<rect x="147.00" y="507.00" width="4.50" height="10.00" fill="#00d4aa"/>"
<line x1="155.25" y1="490.25" x2="155.25" y2="515.75" stroke="#ff6b6b" stroke-width="1.00"/>"
<rect x="153.00" y="503.50" width="4.50" height="6.00" fill="#ff6b6b"/>"
<line x1="161.25" y1="484.75" x2="161.25" y2="526.25" stroke="#00d4aa" stroke-width="1.00"/>"
<rect x="158.50" y="498.50" width="4.50" height="10.00" fill="#00d4aa"/>"
<line x1="166.75" y1="477.75" x2="166.75" y2="504.25" stroke="#ff6b6b" stroke-width="1.00"/>"
<rect x="164.00" y="490.50" width="4.50" height="6.50" fill="#ff6b6b"/>"
<line x1="172.25" y1="470.75" x2="172.25" y2="513.25" stroke="#00d4aa" stroke-width="1.00"/>"
<rect x="170.00" y="486.50" width="4.50" height="10.50" fill="#00d4aa"/>"
<line x1="177.75" y1="462.25" x2="177.75" y2="490.25" stroke="#ff6b6b" stroke-width="1.00"/>"
<rect x="175.50" y="474.50" width="4.50" height="6.50" fill="#ff6b6b"/>"
<line x1="183.75" y1="453.25" x2="183.75" y2="497.25" stroke="#00d4aa" stroke-width="1.00"/>"
<rect x="181.00" y="472.00" width="4.50" height="10.50" fill="#00d4aa"/>"
<line x1="189.25" y1="443.75" x2="189.25" y2="472.75" stroke="#ff6b6b" stroke-width="1.00"/>"
<rect x="187.00" y="448.50" width="4.50" height="13.50" fill="#ff6b6b"/>"
<line x1="194.75" y1="433.25" x2="194.75" y2="478.25" stroke="#00d4aa" stroke-width="1.00"/>"
<rect x="192.50" y="454.00" width="4.50" height="19.00" fill="#00d4aa"/>"
<line x1="200.75" y1="421.75" x2="200.75" y2="452.25" stroke="#ff6b6b" stroke-width="1.00"/>"
<rect x="198.00" y="428.50" width="4.50" height="11.00" fill="#ff6b6b"/>"
<line x1="206.25" y1="409.75" x2="206.25" y2="456.25" stroke="#00d4aa" stroke-width="1.00"/>"
<rect x="203.50" y="433.00" width="4.50" height="16.00" fill="#00d4aa"/>"
<line x1="211.75" y1="396.75" x2="211.75" y2="428.75" stroke="#ff6b6b" stroke-width="1.00"/>"
<rect x="209.50" y="405.00" width="4.50" height="9.50" fill="#ff6b6b"/>"
<line x1="217.75" y1="399.25" x2="217.75" y2="415.75" stroke="#00d4aa" stroke-width="1.00"/>"
<rect x="215.00" y="408.00" width="4.50" height="4.00" fill="#00d4aa"/>"
<line x1="223.25" y1="369.25" x2="223.25" y2="401.75" stroke="#ff6b6b" stroke-width="1.00"/>"
<rect x="220.50" y="379.00" width="4.50" height="7.00" fill="#ff6b6b"/>"
<line x1="228.75" y1="369.75" x2="228.75" y2="387.75" stroke="#00d4aa" stroke-width="1.00"/>"
<rect x="226.50" y="380.00" width="4.50" height="3.00" fill="#00d4aa"/>"
<line x1="234.25" y1="338.25" x2="234.25" y2="372.75" stroke="#ff6b6b" stroke-width="1.00"/>"
<rect x="232.00" y="350.00" width="4.50" height="4.50" fill="#ff6b6b"/>"
<line x1="240.25" y1="337.75" x2="240.25" y2="356.75" stroke="#00d4aa" stroke-width="1.00"/>"
<rect x="237.50" y="349.50" width="4.50" height="1.50" fill="#00d4aa"/>"
<line x1="245.75" y1="336.25" x2="245.75" y2="371.75" stroke="#ff6b6b" stroke-width="1.00"/>"
<rect x="243.50" y="350.00" width="4.50" height="1.50" fill="#ff6b6b"/>"
<line x1="251.25" y1="334.25" x2="251.25" y2="354.75" stroke="#00d4aa" stroke-width="1.00"/>"
<rect x="249.00" y="347.50" width="4.50" height="0.50" fill="#00d4aa"/>"
<line x1="257.25" y1="331.25" x2="257.25" y2="368.25" stroke="#00d4aa" stroke-width="1.00"/>"
<rect x="254.50" y="338.00" width="4.50" height="9.00" fill="#00d4aa"/>"
<line x1="262.75" y1="327.75" x2="262.75" y2="349.75" stroke="#ff6b6b" stroke-width="1.00"/>"
<rect x="260.00" y="341.50" width="4.50" height="5.00" fill="#ff6b6b"/>"
<line x1="268.25" y1="323.75" x2="268.25" y2="361.75" stroke="#00d4aa" stroke-width="1.00"/>"
<rect x="266.00" y="332.50" width="4.50" height="9.00" fill="#00d4aa"/>"
<line x1="274.25" y1="318.75" x2="274.25" y2="341.75" stroke="#ff6b6b" stroke-width="1.00"/>"
<rect x="271.50" y="332.50" width="4.50" height="5.50" fill="#ff6b6b"/>"
<line x1="279.75" y1="313.25" x2="279.75" y2="352.75" stroke="#00d4aa" stroke-width="1.00"/>"
<rect x="277.00" y="324.00" width="4.50" height="9.50" fill="#00d4aa"/>"
<line x1="285.25" y1="307.25" x2="285.25" y2="331.75" stroke="#ff6b6b" stroke-width="1.00"/>"
<rect x="283.00" y="320.50" width="4.50" height="5.50" fill="#ff6b6b"/>"
<line x1="290.75" y1="300.25" x2="290.75" y2="341.25" stroke="#00d4aa" stroke-width="1.00"/>"
<rect x="288.50" y="313.00" width="4.50" height="9.50" fill="#00d4aa"/>"
<line x1="296.75" y1="293.25" x2="296.75" y2="318.75" stroke="#ff6b6b" stroke-width="1.00"/>"
<rect x="294.00" y="306.00" width="4.50" height="6.00" fill="#ff6b6b"/>"
<line x1="302.25" y1="284.75" x2="302.25" y2="326.75" stroke="#00d4aa" stroke-width="1.00"/>"
<rect x="300.00" y="299.50" width="4.50" height="10.00" fill="#00d4aa"/>"
<line x1="307.75" y1="276.25" x2="307.75" y2="303.25" stroke="#ff6b6b" stroke-width="1.00"/>"
<rect x="305.50" y="288.50" width="4.50" height="6.50" fill="#ff6b6b"/>"
<line x1="313.75" y1="267.25" x2="313.75" y2="310.25" stroke="#00d4aa" stroke-width="1.00"/>"
<rect x="311.00" y="284.00" width="4.50" height="10.50" fill="#00d4aa"/>"
<line x1="319.25" y1="257.25" x2="319.25" y2="285.25" stroke="#ff6b6b" stroke-width="1.00"/>"
<rect x="316.50" y="269.00" width="4.50" height="6.50" fill="#ff6b6b"/>"
<line x1="324.75" y1="246.75" x2="324.75" y2="291.25" stroke="#00d4aa" stroke-width="1.00"/>"
<rect x="322.50" y="266.00" width="4.50" height="21.00" fill="#00d4aa"/>"
<line x1="330.75" y1="235.75" x2="330.75" y2="265.25" stroke="#ff6b6b" stroke-width="1.00"/>"
<rect x="328.00" y="241.00" width="4.50" height="13.00" fill="#ff6b6b"/>"
<line x1="336.25" y1="223.75" x2="336.25" y2="269.75" stroke="#00d4aa" stroke-width="1.00"/>"
<rect x="333.50" y="245.50" width="4.50" height="18.00" fill="#00d4aa"/>"
<line x1="341.75" y1="211.75" x2="341.75" y2="242.25" stroke="#ff6b6b" stroke-width="1.00"/>"
<rect x="339.50" y="219.00" width="4.50" height="10.50" fill="#ff6b6b"/>"
<line x1="347.25" y1="198.75" x2="347.25" y2="246.25" stroke="#00d4aa" stroke-width="1.00"/>"
<rect x="345.00" y="223.50" width="4.50" height="14.00" fill="#00d4aa"/>"
<line x1="353.25" y1="185.75" x2="353.25" y2="217.75" stroke="#ff6b6b" stroke-width="1.00"/>"
<rect x="350.50" y="194.50" width="4.50" height="8.50" fill="#ff6b6b"/>"
<line x1="358.75" y1="187.25" x2="358.75" y2="204.25" stroke="#00d4aa" stroke-width="1.00"/>"
<rect x="356.50" y="196.50" width="4.50" height="4.00" fill="#00d4aa"/>"
<line x1="364.25" y1="157.25" x2="364.25" y2="190.75" stroke="#ff6b6b" stroke-width="1.00"/>"
<rect x="362.00" y="167.50" width="4.50" height="6.00" fill="#ff6b6b"/>"
<line x1="370.25" y1="157.75" x2="370.25" y2="176.25" stroke="#00d4aa" stroke-width="1.00"/>"
<rect x="367.50" y="168.50" width="4.50" height="3.00" fill="#00d4aa"/>"
<line x1="375.75" y1="158.25" x2="375.75" y2="192.75" stroke="#ff6b6b" stroke-width="1.00"/>"
<rect x="373.00" y="170.50" width="4.50" height="3.50" fill="#ff6b6b"/>"
<line x1="381.25" y1="157.75" x2="381.25" y2="177.25" stroke="#00d4aa" stroke-width="1.00"/>"
<rect x="379.00" y="170.00" width="4.50" height="1.50" fill="#00d4aa"/>"
<line x1="387.25" y1="156.75" x2="387.25" y2="192.75" stroke="#ff6b6b" stroke-width="1.00"/>"
<rect x="384.50" y="171.00" width="4.50" height="1.00" fill="#ff6b6b"/>"
<line x1="392.75" y1="155.75" x2="392.75" y2="176.25" stroke="#ff6b6b" stroke-width="1.00"/>"
<rect x="390.00" y="169.00" width="4.50" height="5.00" fill="#ff6b6b"/>"
<line x1="398.25" y1="153.75" x2="398.25" y2="191.25" stroke="#00d4aa" stroke-width="1.00"/>"
<rect x="396.00" y="161.00" width="4.50" height="9.00" fill="#00d4aa"/>"
<line x1="403.75" y1="151.25" x2="403.75" y2="173.75" stroke="#ff6b6b" stroke-width="1.00"/>"
<rect x="401.50" y="165.00" width="4.50" height="5.00" fill="#ff6b6b"/>"
<line x1="409.75" y1="148.75" x2="409.75" y2="187.25" stroke="#00d4aa" stroke-width="1.00"/>"
<rect x="407.00" y="158.00" width="4.50" height="9.00" fill="#00d4aa"/>"
<line x1="415.25" y1="145.25" x2="415.25" y2="168.75" stroke="#ff6b6b" stroke-width="1.00"/>"
<rect x="413.00" y="158.50" width="4.50" height="5.50" fill="#ff6b6b"/>"
<line x1="420.75" y1="141.25" x2="420.75" y2="181.25" stroke="#00d4aa" stroke-width="1.00"/>"
<rect x="418.50" y="152.50" width="4.50" height="9.50" fill="#00d4aa"/>"
<line x1="426.75" y1="137.25" x2="426.75" y2="161.75" stroke="#ff6b6b" stroke-width="1.00"/>"
<rect x="424.00" y="150.00" width="4.50" height="6.00" fill="#ff6b6b"/>"
<line x1="432.25" y1="132.25" x2="432.25" y2="173.75" stroke="#00d4aa" stroke-width="1.00"/>"
<rect x="429.50" y="145.50" width="4.50" height="10.00" fill="#00d4aa"/>"
<line x1="437.75" y1="127.25" x2="437.75" y2="153.25" stroke="#ff6b6b" stroke-width="1.00"/>"
<rect x="435.50" y="140.00" width="4.50" height="6.00" fill="#ff6b6b"/>"
<line x1="443.75" y1="121.25" x2="443.75" y2="163.75" stroke="#00d4aa" stroke-width="1.00"/>"
<rect x="441.00" y="137.00" width="4.50" height="10.00" fill="#00d4aa"/>"
<line x1="449.25" y1="115.25" x2="449.25" y2="142.75" stroke="#ff6b6b" stroke-width="1.00"/>"
<rect x="446.50" y="127.50" width="4.50" height="6.50" fill="#ff6b6b"/>"
<line x1="454.75" y1="108.75" x2="454.75" y2="152.25" stroke="#00d4aa" stroke-width="1.00"/>"
<rect x="452.50" y="126.50" width="4.50" height="10.50" fill="#00d4aa"/>"
<line x1="460.25" y1="101.75" x2="460.25" y2="130.25" stroke="#ff6b6b" stroke-width="1.00"/>"
<rect x="458.00" y="113.50" width="4.50" height="6.50" fill="#ff6b6b"/>"
<line x1="466.25" y1="94.25" x2="466.25" y2="139.25" stroke="#00d4aa" stroke-width="1.00"/>"
<rect x="463.50" y="114.50" width="4.50" height="19.50" fill="#00d4aa"/>"
<line x1="471.75" y1="86.25" x2="471.75" y2="116.25" stroke="#ff6b6b" stroke-width="1.00"/>"
<rect x="469.50" y="92.50" width="4.50" height="12.00" fill="#ff6b6b"/>"
<line x1="477.25" y1="77.75" x2="477.25" y2="124.25" stroke="#00d4aa" stroke-width="1.00"/>"
<rect x="475.00" y="100.50" width="4.50" height="16.50" fill="#00d4aa"/>"
<line x1="483.25" y1="69.25" x2="483.25" y2="100.25" stroke="#ff6b6b" stroke-width="1.00"/>"
<rect x="480.50" y="77.00" width="4.50" height="9.50" fill="#ff6b6b"/>"
<line x1="488.75" y1="75.75" x2="488.75" y2="91.75" stroke="#00d4aa" stroke-width="1.00"/>"
<rect x="486.00" y="84.00" width="4.50" height="4.50" fill="#00d4aa"/>"
<line x1="494.25" y1="50.25" x2="494.25" y2="82.75" stroke="#ff6b6b" stroke-width="1.00"/>"
<rect x="492.00" y="59.50" width="4.50" height="8.00" fill="#ff6b6b"/>"
<line x1="500.25" y1="55.75" x2="500.25" y2="73.25" stroke="#00d4aa" stroke-width="1.00"/>"
<rect x="497.50" y="66.00" width="4.50" height="3.00" fill="#00d4aa"/>"
<line x1="505.75" y1="29.75" x2="505.75" y2="63.75" stroke="#ff6b6b" stroke-width="1.00"/>"
<rect x="503.00" y="41.00" width="4.50" height="5.00" fill="#ff6b6b"/>"
<line x1="511.25" y1="34.75" x2="511.25" y2="53.25" stroke="#00d4aa" stroke-width="1.00"/>"
<rect x="509.00" y="46.00" width="4.50" height="2.00" fill="#00d4aa"/>"
<line x1="516.75" y1="39.25" x2="516.75" y2="74.25" stroke="#ff6b6b" stroke-width="1.00"/>"
<rect x="514.50" y="52.00" width="4.50" height="2.50" fill="#ff6b6b"/>"
<line x1="522.75" y1="43.25" x2="522.75" y2="63.25" stroke="#00d4aa" stroke-width="1.00"/>"
<rect x="520.00" y="56.00" width="4.50" height="0.50" fill="#00d4aa"/>"
<line x1="528.25" y1="46.75" x2="528.25" y2="83.25" stroke="#00d4aa" stroke-width="1.00"/>"
<rect x="526.00" y="53.00" width="4.50" height="9.00" fill="#00d4aa"/>"
<line x1="533.75" y1="49.75" x2="533.75" y2="71.25" stroke="#ff6b6b" stroke-width="1.00"/>"
<rect x="531.50" y="63.50" width="4.50" height="5.00" fill="#ff6b6b"/>"
<line x1="539.75" y1="52.75" x2="539.75" y2="90.75" stroke="#00d4aa" stroke-width="1.00"/>"
<rect x="537.00" y="61.00" width="4.50" height="9.00" fill="#00d4aa"/>"
<line x1="545.25" y1="55.25" x2="545.25" y2="77.75" stroke="#ff6b6b" stroke-width="1.00"/>"
<rect x="542.50" y="68.50" width="4.50" height="5.50" fill="#ff6b6b"/>"
<line x1="550.75" y1="57.25" x2="550.75" y2="96.25" stroke="#00d4aa" stroke-width="1.00"/>"
<rect x="548.50" y="67.00" width="4.50" height="9.50" fill="#00d4aa"/>"
<line x1="556.75" y1="58.75" x2="556.75" y2="82.75" stroke="#ff6b6b" stroke-width="1.00"/>"
<rect x="554.00" y="72.00" width="4.50" height="6.00" fill="#ff6b6b"/>"
<line x1="562.25" y1="60.25" x2="562.25" y2="100.25" stroke="#00d4aa" stroke-width="1.00"/>"
<rect x="559.50" y="72.00" width="4.50" height="9.50" fill="#00d4aa"/>"
<line x1="567.75" y1="60.75" x2="567.75" y2="86.25" stroke="#ff6b6b" stroke-width="1.00"/>"
<rect x="565.50" y="74.00" width="4.50" height="6.00" fill="#ff6b6b"/>"
<line x1="573.25" y1="61.25" x2="573.25" y2="102.75" stroke="#00d4aa" stroke-width="1.00"/>"
<rect x="571.00" y="75.50" width="4.50" height="10.00" fill="#00d4aa"/>"
<line x1="579.25" y1="61.25" x2="579.25" y2="87.75" stroke="#ff6b6b" stroke-width="1.00"/>"
<rect x="576.50" y="74.00" width="4.50" height="6.00" fill="#ff6b6b"/>"
<line x1="584.75" y1="60.75" x2="584.75" y2="103.75" stroke="#00d4aa" stroke-width="1.00"/>"
<rect x="582.50" y="77.00" width="4.50" height="10.50" fill="#00d4aa"/>"
<line x1="590.25" y1="60.25" x2="590.25" y2="87.75" stroke="#ff6b6b" stroke-width="1.00"/>"
<rect x="588.00" y="72.00" width="4.50" height="7.00" fill="#ff6b6b"/>"
<line x1="596.25" y1="58.75" x2="596.25" y2="103.25" stroke="#00d4aa" stroke-width="1.00"/>"
<rect x="593.50" y="77.50" width="4.50" height="10.50" fill="#00d4aa"/>"
<line x1="601.75" y1="57.25" x2="601.75" y2="86.25" stroke="#ff6b6b" stroke-width="1.00"/>"
<rect x="599.00" y="62.50" width="4.50" height="13.00" fill="#ff6b6b"/>"
<line x1="607.25" y1="55.25" x2="607.25" y2="100.75" stroke="#00d4aa" stroke-width="1.00"/>"
<rect x="605.00" y="76.50" width="4.50" height="18.50" fill="#00d4aa"/>"
<line x1="613.25" y1="52.75" x2="613.25" y2="83.25" stroke="#ff6b6b" stroke-width="1.00"/>"
<rect x="610.50" y="59.50" width="4.50" height="11.50" fill="#ff6b6b"/>"
<line x1="618.75" y1="50.25" x2="618.75" y2="96.75" stroke="#00d4aa" stroke-width="1.00"/>"
<rect x="616.00" y="73.50" width="4.50" height="15.50" fill="#00d4aa"/>"
<line x1="624.25" y1="46.75" x2="624.25" y2="78.75" stroke="#ff6b6b" stroke-width="1.00"/>"
<rect x="622.00" y="55.00" width="4.50" height="9.00" fill="#ff6b6b"/>"
<line x1="629.75" y1="58.75" x2="629.75" y2="75.75" stroke="#00d4aa" stroke-width="1.00"/>"
<rect x="627.50" y="68.00" width="4.50" height="4.00" fill="#00d4aa"/>"
<line x1="635.75" y1="39.25" x2="635.75" y2="72.25" stroke="#ff6b6b" stroke-width="1.00"/>"
<rect x="633.00" y="49.00" width="4.50" height="7.00" fill="#ff6b6b"/>"
<line x1="641.25" y1="50.25" x2="641.25" y2="68.25" stroke="#00d4aa" stroke-width="1.00"/>"
<rect x="639.00" y="60.50" width="4.50" height="3.00" fill="#00d4aa"/>"
<line x1="646.75" y1="61.25" x2="646.75" y2="95.75" stroke="#ff6b6b" stroke-width="1.00"/>"
<rect x="644.50" y="73.00" width="4.50" height="4.00" fill="#ff6b6b"/>"
<line x1="652.75" y1="71.75" x2="652.75" y2="90.75" stroke="#00d4aa" stroke-width="1.00"/>"
<rect x="650.00" y="83.50" width="4.50" height="1.50" fill="#00d4aa"/>"
<line x1="658.25" y1="81.75" x2="658.25" y2="117.25" stroke="#ff6b6b" stroke-width="1.00"/>"
<rect x="655.50" y="95.50" width="4.50" height="1.50" fill="#ff6b6b"/>"
<line x1="663.75" y1="91.25" x2="663.75" y2="111.75" stroke="#ff6b6b" stroke-width="1.00"/>"
<rect x="661.50" y="104.50" width="4.50" height="5.00" fill="#ff6b6b"/>"
<line x1="669.75" y1="100.25" x2="669.75" y2="137.25" stroke="#00d4aa" stroke-width="1.00"/>"
<rect x="667.00" y="107.00" width="4.50" height="9.00" fill="#00d4aa"/>"
<line x1="675.25" y1="108.75" x2="675.25" y2="130.75" stroke="#ff6b6b" stroke-width="1.00"/>"
<rect x="672.50" y="122.50" width="4.50" height="5.00" fill="#ff6b6b"/>"
<line x1="680.75" y1="117.25" x2="680.75" y2="155.25" stroke="#00d4aa" stroke-width="1.00"/>"
<rect x="678.50" y="126.00" width="4.50" height="9.00" fill="#00d4aa"/>"
<line x1="686.25" y1="124.75" x2="686.25" y2="148.25" stroke="#ff6b6b" stroke-width="1.00"/>"
<rect x="684.00" y="138.50" width="4.50" height="5.50" fill="#ff6b6b"/>"
<line x1="692.25" y1="132.25" x2="692.25" y2="171.75" stroke="#00d4aa" stroke-width="1.00"/>"
<rect x="689.50" y="143.00" width="4.50" height="9.50" fill="#00d4aa"/>"
<line x1="697.75" y1="139.25" x2="697.75" y2="163.25" stroke="#ff6b6b" stroke-width="1.00"/>"
<rect x="695.50" y="152.50" width="4.50" height="5.50" fill="#ff6b6b"/>"
<line x1="703.25" y1="145.25" x2="703.25" y2="186.25" stroke="#00d4aa" stroke-width="1.00"/>"
<rect x="701.00" y="158.00" width="4.50" height="10.00" fill="#00d4aa"/>"
<line x1="709.25" y1="151.25" x2="709.25" y2="177.25" stroke="#ff6b6b" stroke-width="1.00"/>"
<rect x="706.50" y="164.00" width="4.50" height="6.50" fill="#ff6b6b"/>"
<line x1="714.75" y1="156.75" x2="714.75" y2="198.75" stroke="#00d4aa" stroke-width="1.00"/>"
<rect x="712.00" y="171.50" width="4.50" height="10.50" fill="#00d4aa"/>"
<line x1="720.25" y1="161.75" x2="720.25" y2="188.75" stroke="#ff6b6b" stroke-width="1.00"/>"
<rect x="718.00" y="174.00" width="4.50" height="6.50" fill="#ff6b6b"/>"
<line x1="726.25" y1="166.25" x2="726.25" y2="209.75" stroke="#00d4aa" stroke-width="1.00"/>"
<rect x="723.50" y="183.50" width="4.50" height="10.50" fill="#00d4aa"/>"
<line x1="731.75" y1="170.25" x2="731.75" y2="198.75" stroke="#ff6b6b" stroke-width="1.00"/>"
<rect x="729.00" y="182.00" width="4.50" height="7.00" fill="#ff6b6b"/>"
<line x1="737.25" y1="173.75" x2="737.25" y2="218.25" stroke="#00d4aa" stroke-width="1.00"/>"
<rect x="735.00" y="193.00" width="4.50" height="21.00" fill="#00d4aa"/>"
<line x1="742.75" y1="176.75" x2="742.75" y2="206.25" stroke="#ff6b6b" stroke-width="1.00"/>"
<rect x="740.50" y="182.50" width="4.50" height="12.50" fill="#ff6b6b"/>"
<line x1="748.75" y1="179.25" x2="748.75" y2="225.25" stroke="#00d4aa" stroke-width="1.00"/>"
<rect x="746.00" y="201.00" width="4.50" height="17.50" fill="#00d4aa"/>"
<line x1="754.25" y1="181.25" x2="754.25" y2="211.75" stroke="#ff6b6b" stroke-width="1.00"/>"
<rect x="752.00" y="188.50" width="4.50" height="10.50" fill="#ff6b6b"/>"
<line x1="759.75" y1="198.25" x2="759.75" y2="214.25" stroke="#00d4aa" stroke-width="1.00"/>"
<rect x="757.50" y="206.50" width="4.50" height="4.50" fill="#00d4aa"/>"
<line x1="765.75" y1="183.25" x2="765.75" y2="215.75" stroke="#ff6b6b" stroke-width="1.00"/>"
<rect x="763.00" y="192.50" width="4.50" height="8.00" fill="#ff6b6b"/>"
<line x1="771.25" y1="199.25" x2="771.25" y2="216.75" stroke="#00d4aa" stroke-width="1.00"/>"
<rect x="768.50" y="209.00" width="4.50" height="3.50" fill="#00d4aa"/>"
<line x1="776.75" y1="183.75" x2="776.75" y2="217.25" stroke="#ff6b6b" stroke-width="1.00"/>"
<rect x="774.50" y="194.00" width="4.50" height="6.00" fill="#ff6b6b"/>"
<line x1="782.75" y1="198.75" x2="782.75" y2="216.75" stroke="#00d4aa" stroke-width="1.00"/>"
<rect x="780.00" y="209.50" width="4.50" height="2.50" fill="#00d4aa"/>"
<line x1="788.25" y1="212.75" x2="788.25" y2="247.75" stroke="#ff6b6b" stroke-width="1.00"/>"
<rect x="785.50" y="225.50" width="4.50" height="3.00" fill="#ff6b6b"/>"
<line x1="793.75" y1="226.75" x2="793.75" y2="246.25" stroke="#00d4aa" stroke-width="1.00"/>"
<rect x="791.50" y="239.50" width="4.50" height="1.00" fill="#00d4aa"/>"
<line x1="799.25" y1="240.25" x2="799.25" y2="276.25" stroke="#ff6b6b" stroke-width="1.00"/>"
<rect x="797.00" y="254.50" width="4.50" height="0.50" fill="#ff6b6b"/>"
<line x1="805.25" y1="252.75" x2="805.25" y2="273.75" stroke="#ff6b6b" stroke-width="1.00"/>"
<rect x="802.50" y="266.50" width="4.50" height="5.00" fill="#ff6b6b"/>"
<line x1="810.75" y1="264.75" x2="810.75" y2="302.25" stroke="#00d4aa" stroke-width="1.00"/>"
<rect x="808.50" y="272.50" width="4.50" height="9.00" fill="#00d4aa"/>"
<line x1="816.25" y1="276.25" x2="816.25" y2="298.75" stroke="#ff6b6b" stroke-width="1.00"/>"
<rect x="814.00" y="290.00" width="4.50" height="5.50" fill="#ff6b6b"/>"
<line x1="822.25" y1="287.25" x2="822.25" y2="325.75" stroke="#00d4aa" stroke-width="1.00"/>"
<rect x="819.50" y="297.00" width="4.50" height="9.00" fill="#00d4aa"/>"
<line x1="827.75" y1="297.75" x2="827.75" y2="321.25" stroke="#ff6b6b" stroke-width="1.00"/>"
<rect x="825.00" y="311.00" width="4.50" height="5.50" fill="#ff6b6b"/>"
<line x1="833.25" y1="307.25" x2="833.25" y2="347.25" stroke="#00d4aa" stroke-width="1.00"/>"
<rect x="831.00" y="318.50" width="4.50" height="10.00" fill="#00d4aa"/>"
<line x1="839.25" y1="316.25" x2="839.25" y2="341.25" stroke="#ff6b6b" stroke-width="1.00"/>"
<rect x="836.50" y="329.50" width="4.50" height="6.00" fill="#ff6b6b"/>"
<line x1="844.75" y1="324.75" x2="844.75" y2="366.25" stroke="#00d4aa" stroke-width="1.00"/>"
<rect x="842.00" y="338.50" width="4.50" height="9.50" fill="#00d4aa"/>"
<line x1="850.25" y1="332.75" x2="850.25" y2="358.75" stroke="#ff6b6b" stroke-width="1.00"/>"
<rect x="848.00" y="345.00" width="4.50" height="6.50" fill="#ff6b6b"/>"
<line x1="855.75" y1="339.75" x2="855.75" y2="382.25" stroke="#00d4aa" stroke-width="1.00"/>"
<rect x="853.50" y="355.50" width="4.50" height="10.00" fill="#00d4aa"/>"
<line x1="861.75" y1="346.25" x2="861.75" y2="373.75" stroke="#ff6b6b" stroke-width="1.00"/>"
<rect x="859.00" y="358.50" width="4.50" height="6.50" fill="#ff6b6b"/>"
<line x1="867.25" y1="351.75" x2="867.25" y2="395.75" stroke="#00d4aa" stroke-width="1.00"/>"
<rect x="865.00" y="370.00" width="4.50" height="10.50" fill="#00d4aa"/>"
<line x1="872.75" y1="356.75" x2="872.75" y2="385.75" stroke="#ff6b6b" stroke-width="1.00"/>"
<rect x="870.50" y="361.50" width="4.50" height="14.00" fill="#ff6b6b"/>"
<line x1="878.75" y1="361.25" x2="878.75" y2="406.75" stroke="#00d4aa" stroke-width="1.00"/>"
<rect x="876.00" y="382.00" width="4.50" height="19.50" fill="#00d4aa"/>"
<line x1="884.25" y1="365.25" x2="884.25" y2="395.25" stroke="#ff6b6b" stroke-width="1.00"/>"
<rect x="881.50" y="371.50" width="4.50" height="11.50" fill="#ff6b6b"/>"
<line x1="889.75" y1="368.25" x2="889.75" y2="414.75" stroke="#00d4aa" stroke-width="1.00"/>"
<rect x="887.50" y="391.00" width="4.50" height="16.50" fill="#00d4aa"/>"
<line x1="895.75" y1="370.25" x2="895.75" y2="401.75" stroke="#ff6b6b" stroke-width="1.00"/>"
<rect x="893.00" y="378.50" width="4.50" height="9.50" fill="#ff6b6b"/>"
<line x1="901.25" y1="387.75" x2="901.25" y2="404.25" stroke="#00d4aa" stroke-width="1.00"/>"
<rect x="898.50" y="396.50" width="4.50" height="4.00" fill="#00d4aa"/>"
<line x1="906.75" y1="372.75" x2="906.75" y2="405.75" stroke="#ff6b6b" stroke-width="1.00"/>"
<rect x="904.50" y="382.50" width="4.50" height="7.50" fill="#ff6b6b"/>"
<line x1="912.25" y1="388.75" x2="912.25" y2="406.25" stroke="#00d4aa" stroke-width="1.00"/>"
<rect x="910.00" y="399.00" width="4.50" height="3.00" fill="#00d4aa"/>"
<line x1="918.25" y1="372.75" x2="918.25" y2="406.75" stroke="#ff6b6b" stroke-width="1.00"/>"
<rect x="915.50" y="384.00" width="4.50" height="5.00" fill="#ff6b6b"/>"
<line x1="923.75" y1="387.25" x2="923.75" y2="405.75" stroke="#00d4aa" stroke-width="1.00"/>"
<rect x="921.50" y="398.50" width="4.50" height="2.00" fill="#00d4aa"/>"
<line x1="929.25" y1="400.75" x2="929.25" y2="435.75" stroke="#ff6b6b" stroke-width="1.00"/>"
<rect x="927.00" y="414.00" width="4.50" height="2.00" fill="#ff6b6b"/>"
<line x1="935.25" y1="413.75" x2="935.25" y2="433.75" stroke="#00d4aa" stroke-width="1.00"/>"
<rect x="932.50" y="426.50" width="4.50" height="0.50" fill="#00d4aa"/>"
<line x1="940.75" y1="425.75" x2="940.75" y2="462.25" stroke="#00d4aa" stroke-width="1.00"/>"
<rect x="938.00" y="432.00" width="4.50" height="9.00" fill="#00d4aa"/>"
<line x1="946.25" y1="437.25" x2="946.25" y2="458.75" stroke="#ff6b6b" stroke-width="1.00"/>"
<rect x="944.00" y="451.00" width="4.50" height="5.00" fill="#ff6b6b"/>"
<line x1="952.25" y1="447.75" x2="952.25" y2="485.75" stroke="#00d4aa" stroke-width="1.00"/>"
<rect x="949.50" y="456.00" width="4.50" height="9.00" fill="#00d4aa"/>"
<line x1="957.75" y1="457.75" x2="957.75" y2="480.25" stroke="#ff6b6b" stroke-width="1.00"/>"
<rect x="955.00" y="471.00" width="4.50" height="5.50" fill="#ff6b6b"/>"
<line x1="963.25" y1="466.75" x2="963.25" y2="505.75" stroke="#00d4aa" stroke-width="1.00"/>"
<rect x="961.00" y="477.00" width="4.50" height="9.00" fill="#00d4aa"/>"
<line x1="968.75" y1="474.75" x2="968.75" y2="498.75" stroke="#ff6b6b" stroke-width="1.00"/>"
<rect x="966.50" y="488.00" width="4.50" height="6.00" fill="#ff6b6b"/>"
<line x1="974.75" y1="482.25" x2="974.75" y2="522.75" stroke="#00d4aa" stroke-width="1.00"/>"
<rect x="972.00" y="494.50" width="4.50" height="9.50" fill="#00d4aa"/>"
<line x1="980.25" y1="488.75" x2="980.25" y2="514.25" stroke="#ff6b6b" stroke-width="1.00"/>"
<rect x="978.00" y="502.00" width="4.50" height="6.00" fill="#ff6b6b"/>"
<line x1="985.75" y1="494.75" x2="985.75" y2="536.25" stroke="#00d4aa" stroke-width="1.00"/>"
<rect x="983.50" y="509.00" width="4.50" height="10.00" fill="#00d4aa"/>"
<line x1="991.75" y1="499.75" x2="991.75" y2="526.25" stroke="#ff6b6b" stroke-width="1.00"/>"
<rect x="989.00" y="512.50" width="4.50" height="6.00" fill="#ff6b6b"/>"
<line x1="997.25" y1="503.75" x2="997.25" y2="546.75" stroke="#00d4aa" stroke-width="1.00"/>"
<rect x="994.50" y="520.50" width="4.50" height="10.00" fill="#00d4aa"/>"
<line x1="1002.75" y1="507.25" x2="1002.75" y2="535.25" stroke="#ff6b6b" stroke-width="1.00"/>"
<rect x="1000.50" y="519.50" width="4.50" height="6.50" fill="#ff6b6b"/>"
<line x1="1008.75" y1="509.75" x2="1008.75" y2="554.25" stroke="#00d4aa" stroke-width="1.00"/>"
<rect x="1006.00" y="528.50" width="4.50" height="10.50" fill="#00d4aa"/>"
<line x1="1014.25" y1="511.25" x2="1014.25" y2="540.75" stroke="#ff6b6b" stroke-width="1.00"/>"
<rect x="1011.50" y="516.50" width="4.50" height="13.50" fill="#ff6b6b"/>"
<line x1="1019.75" y1="512.25" x2="1019.75" y2="557.75" stroke="#00d4aa" stroke-width="1.00"/>"
<rect x="1017.50" y="533.50" width="4.50" height="18.50" fill="#00d4aa"/>"
<line x1="1025.25" y1="512.25" x2="1025.25" y2="542.75" stroke="#ff6b6b" stroke-width="1.00"/>"
<rect x="1023.00" y="519.00" width="4.50" height="11.00" fill="#ff6b6b"/>"
<line x1="1031.25" y1="511.25" x2="1031.25" y2="558.25" stroke="#00d4aa" stroke-width="1.00"/>"
<rect x="1028.50" y="535.00" width="4.50" height="15.50" fill="#00d4aa"/>"
<line x1="1036.75" y1="509.75" x2="1036.75" y2="541.25" stroke="#ff6b6b" stroke-width="1.00"/>"
<rect x="1034.50" y="518.00" width="4.50" height="9.00" fill="#ff6b6b"/>"
<line x1="1042.25" y1="522.75" x2="1042.25" y2="539.25" stroke="#00d4aa" stroke-width="1.00"/>"
<rect x="1040.00" y="531.50" width="4.50" height="4.00" fill="#00d4aa"/>"
<line x1="1048.25" y1="503.25" x2="1048.25" y2="536.75" stroke="#ff6b6b" stroke-width="1.00"/>"
<rect x="1045.50" y="513.50" width="4.50" height="6.50" fill="#ff6b6b"/>"
<line x1="1053.75" y1="514.75" x2="1053.75" y2="532.75" stroke="#00d4aa" stroke-width="1.00"/>"
<rect x="1051.00" y="525.50" width="4.50" height="2.50" fill="#00d4aa"/>"
<line x1="1059.25" y1="525.25" x2="1059.25" y2="559.75" stroke="#ff6b6b" stroke-width="1.00"/>"
<rect x="1057.00" y="537.50" width="4.50" height="4.00" fill="#ff6b6b"/>"
<line x1="1065.25" y1="535.25" x2="1065.25" y2="554.25" stroke="#00d4aa" stroke-width="1.00"/>"
<rect x="1062.50" y="547.00" width="4.50" height="1.50" fill="#00d4aa"/>"
<line x1="1070.75" y1="543.75" x2="1070.75" y2="579.25" stroke="#ff6b6b" stroke-width="1.00"/>"
<rect x="1068.00" y="557.50" width="4.50" height="1.50" fill="#ff6b6b"/>"
<line x1="1076.25" y1="551.75" x2="1076.25" y2="572.25" stroke="#ff6b6b" stroke-width="1.00"/>"
<rect x="1074.00" y="565.00" width="4.50" height="5.00" fill="#ff6b6b"/>"
<line x1="1081.75" y1="558.75" x2="1081.75" y2="595.75" stroke="#00d4aa" stroke-width="1.00"/>"
<rect x="1079.50" y="565.50" width="4.50" height="9.00" fill="#00d4aa"/>"
<line x1="1087.75" y1="564.75" x2="1087.75" y2="586.75" stroke="#ff6b6b" stroke-width="1.00"/>"
<rect x="1085.00" y="578.50" width="4.50" height="5.00" fill="#ff6b6b"/>"
<line x1="1093.25" y1="569.75" x2="1093.25" y2="608.25" stroke="#00d4aa" stroke-width="1.00"/>"
<rect x="1091.00" y="579.00" width="4.50" height="9.00" fill="#00d4aa"/>"
<line x1="1098.75" y1="574.25" x2="1098.75" y2="597.75" stroke="#ff6b6b" stroke-width="1.00"/>"
<rect x="1096.50" y="587.50" width="4.50" height="6.00" fill="#ff6b6b"/>"
<line x1="1104.75" y1="577.75" x2="1104.75" y2="617.25" stroke="#00d4aa" stroke-width="1.00"/>"
<rect x="1102.00" y="588.50" width="4.50" height="9.50" fill="#00d4aa"/>"
<line x1="1110.25" y1="580.25" x2="1110.25" y2="604.75" stroke="#ff6b6b" stroke-width="1.00"/>"
<rect x="1107.50" y="593.50" width="4.50" height="6.00" fill="#ff6b6b"/>"
<line x1="1115.75" y1="581.75" x2="1115.75" y2="622.75" stroke="#00d4aa" stroke-width="1.00"/>"
<rect x="1113.50" y="595.00" width="4.50" height="9.50" fill="#00d4aa"/>"
<line x1="1121.75" y1="582.75" x2="1121.75" y2="608.25" stroke="#ff6b6b" stroke-width="1.00"/>"
<rect x="1119.00" y="595.50" width="4.50" height="6.00" fill="#ff6b6b"/>"
<line x1="1127.25" y1="582.75" x2="1127.25" y2="624.75" stroke="#00d4aa" stroke-width="1.00"/>"
<rect x="1124.50" y="597.50" width="4.50" height="10.00" fill="#00d4aa"/>"
<path d="M228.83 405.23 L222.83 417.23 L234.83 417.23 Z" fill="#26a69a" stroke="none"/>"
<path d="M567.83 43.26 L561.83 31.26 L573.83 31.26 Z" fill="#ef5350" stroke="none"/>"
<rect x="1130.00" y="0.00" width="70.00" height="654.50" fill="#1a1a2e"/>"
<line x1="1130.00" y1="0.00" x2="1130.00" y2="654.50" stroke="#2a2a4a" stroke-width="1.00"/>"
<line x1="1130.00" y1="634.12" x2="1134.00" y2="634.12" stroke="#2a2a4a" stroke-width="1.00"/>"
<text x="1136.00" y="634.12" fill="#e0e0e0" font-family="sans-serif" font-size="11.0" text-anchor="start" dominant-baseline="central">95</text>
<line x1="1130.00" y1="594.75" x2="1134.00" y2="594.75" stroke="#2a2a4a" stroke-width="1.00"/>"
<text x="1136.00" y="594.75" fill="#e0e0e0" font-family="sans-serif" font-size="11.0" text-anchor="start" dominant-baseline="central">100</text>
<line x1="1130.00" y1="555.38" x2="1134.00" y2="555.38" stroke="#2a2a4a" stroke-width="1.00"/>"
<text x="1136.00" y="555.38" fill="#e0e0e0" font-family="sans-serif" font-size="11.0" text-anchor="start" dominant-baseline="central">105</text>
<line x1="1130.00" y1="516.01" x2="1134.00" y2="516.01" stroke="#2a2a4a" stroke-width="1.00"/>"
<text x="1136.00" y="516.01" fill="#e0e0e0" font-family="sans-serif" font-size="11.0" text-anchor="start" dominant-baseline="central">110</text>
<line x1="1130.00" y1="476.65" x2="1134.00" y2="476.65" stroke="#2a2a4a" stroke-width="1.00"/>"
<text x="1136.00" y="476.65" fill="#e0e0e0" font-family="sans-serif" font-size="11.0" text-anchor="start" dominant-baseline="central">115</text>
<line x1="1130.00" y1="437.28" x2="1134.00" y2="437.28" stroke="#2a2a4a" stroke-width="1.00"/>"
<text x="1136.00" y="437.28" fill="#e0e0e0" font-family="sans-serif" font-size="11.0" text-anchor="start" dominant-baseline="central">120</text>
<line x1="1130.00" y1="397.91" x2="1134.00" y2="397.91" stroke="#2a2a4a" stroke-width="1.00"/>"
<text x="1136.00" y="397.91" fill="#e0e0e0" font-family="sans-serif" font-size="11.0" text-anchor="start" dominant-baseline="central">125</text>
<line x1="1130.00" y1="358.54" x2="1134.00" y2="358.54" stroke="#2a2a4a" stroke-width="1.00"/>"
<text x="1136.00" y="358.54" fill="#e0e0e0" font-family="sans-serif" font-size="11.0" text-anchor="start" dominant-baseline="central">130</text>
<line x1="1130.00" y1="319.17" x2="1134.00" y2="319.17" stroke="#2a2a4a" stroke-width="1.00"/>"
<text x="1136.00" y="319.17" fill="#e0e0e0" font-family="sans-serif" font-size="11.0" text-anchor="start" dominant-baseline="central">135</text>
<line x1="1130.00" y1="279.80" x2="1134.00" y2="279.80" stroke="#2a2a4a" stroke-width="1.00"/>"
<text x="1136.00" y="279.80" fill="#e0e0e0" font-family="sans-serif" font-size="11.0" text-anchor="start" dominant-baseline="central">140</text>
<line x1="1130.00" y1="240.43" x2="1134.00" y2="240.43" stroke="#2a2a4a" stroke-width="1.00"/>"
<text x="1136.00" y="240.43" fill="#e0e0e0" font-family="sans-serif" font-size="11.0" text-anchor="start" dominant-baseline="central">145</text>
<line x1="1130.00" y1="201.06" x2="1134.00" y2="201.06" stroke="#2a2a4a" stroke-width="1.00"/>"
<text x="1136.00" y="201.06" fill="#e0e0e0" font-family="sans-serif" font-size="11.0" text-anchor="start" dominant-baseline="central">150</text>
<line x1="1130.00" y1="161.69" x2="1134.00" y2="161.69" stroke="#2a2a4a" stroke-width="1.00"/>"
<text x="1136.00" y="161.69" fill="#e0e0e0" font-family="sans-serif" font-size="11.0" text-anchor="start" dominant-baseline="central">155</text>
<line x1="1130.00" y1="122.32" x2="1134.00" y2="122.32" stroke="#2a2a4a" stroke-width="1.00"/>"
<text x="1136.00" y="122.32" fill="#e0e0e0" font-family="sans-serif" font-size="11.0" text-anchor="start" dominant-baseline="central">160</text>
<line x1="1130.00" y1="82.95" x2="1134.00" y2="82.95" stroke="#2a2a4a" stroke-width="1.00"/>"
<text x="1136.00" y="82.95" fill="#e0e0e0" font-family="sans-serif" font-size="11.0" text-anchor="start" dominant-baseline="central">165</text>
<line x1="1130.00" y1="43.59" x2="1134.00" y2="43.59" stroke="#2a2a4a" stroke-width="1.00"/>"
<text x="1136.00" y="43.59" fill="#e0e0e0" font-family="sans-serif" font-size="11.0" text-anchor="start" dominant-baseline="central">170</text>
<line x1="1130.00" y1="4.22" x2="1134.00" y2="4.22" stroke="#2a2a4a" stroke-width="1.00"/>"
<text x="1136.00" y="4.22" fill="#e0e0e0" font-family="sans-serif" font-size="11.0" text-anchor="start" dominant-baseline="central">175</text>
<rect x="0.00" y="658.50" width="1130.00" height="111.50" fill="#1a1a2e"/>"
<line x1="0.00" y1="658.50" x2="1130.00" y2="658.50" stroke="#2a2a4a" stroke-width="1.00"/>"
<line x1="0.00" y1="691.95" x2="1130.00" y2="691.95" stroke="rgba(239,83,80,0.3764705882352941)" stroke-width="0.50"/>"
<line x1="0.00" y1="736.55" x2="1130.00" y2="736.55" stroke="rgba(38,166,154,0.3764705882352941)" stroke-width="0.50"/>"
<line x1="0.00" y1="714.25" x2="1130.00" y2="714.25" stroke="rgba(120,123,134,0.25098039215686274)" stroke-width="0.50"/>"
<rect x="1130.00" y="658.50" width="70.00" height="111.50" fill="#1a1a2e"/>"
<line x1="1130.00" y1="658.50" x2="1130.00" y2="770.00" stroke="#2a2a4a" stroke-width="1.00"/>"
<line x1="1130.00" y1="770.00" x2="1134.00" y2="770.00" stroke="#2a2a4a" stroke-width="1.00"/>"
<text x="1136.00" y="770.00" fill="#e0e0e0" font-family="sans-serif" font-size="11.0" text-anchor="start" dominant-baseline="central">0</text>
<line x1="1130.00" y1="747.70" x2="1134.00" y2="747.70" stroke="#2a2a4a" stroke-width="1.00"/>"
<text x="1136.00" y="747.70" fill="#e0e0e0" font-family="sans-serif" font-size="11.0" text-anchor="start" dominant-baseline="central">20</text>
<line x1="1130.00" y1="725.40" x2="1134.00" y2="725.40" stroke="#2a2a4a" stroke-width="1.00"/>"
<text x="1136.00" y="725.40" fill="#e0e0e0" font-family="sans-serif" font-size="11.0" text-anchor="start" dominant-baseline="central">40</text>
<line x1="1130.00" y1="703.10" x2="1134.00" y2="703.10" stroke="#2a2a4a" stroke-width="1.00"/>"
<text x="1136.00" y="703.10" fill="#e0e0e0" font-family="sans-serif" font-size="11.0" text-anchor="start" dominant-baseline="central">60</text>
<line x1="1130.00" y1="680.80" x2="1134.00" y2="680.80" stroke="#2a2a4a" stroke-width="1.00"/>"
<text x="1136.00" y="680.80" fill="#e0e0e0" font-family="sans-serif" font-size="11.0" text-anchor="start" dominant-baseline="central">80</text>
<rect x="0.00" y="770.00" width="1200.00" height="30.00" fill="#1a1a2e"/>"
<line x1="0.00" y1="770.00" x2="1130.00" y2="770.00" stroke="#2a2a4a" stroke-width="1.00"/>"
<line x1="64.98" y1="770.00" x2="64.98" y2="774.00" stroke="#2a2a4a" stroke-width="1.00"/>"
<text x="64.98" y="776.00" fill="#e0e0e0" font-family="sans-serif" font-size="10.0" text-anchor="middle" dominant-baseline="hanging">Dec</text>
<line x1="127.13" y1="770.00" x2="127.13" y2="774.00" stroke="#2a2a4a" stroke-width="1.00"/>"
<text x="127.13" y="776.00" fill="#e0e0e0" font-family="sans-serif" font-size="10.0" text-anchor="middle" dominant-baseline="hanging">23 Dec</text>
<line x1="189.28" y1="770.00" x2="189.28" y2="774.00" stroke="#2a2a4a" stroke-width="1.00"/>"
<text x="189.28" y="776.00" fill="#e0e0e0" font-family="sans-serif" font-size="10.0" text-anchor="middle" dominant-baseline="hanging">4 Dec</text>
<line x1="251.43" y1="770.00" x2="251.43" y2="774.00" stroke="#2a2a4a" stroke-width="1.00"/>"
<text x="251.43" y="776.00" fill="#e0e0e0" font-family="sans-serif" font-size="10.0" text-anchor="middle" dominant-baseline="hanging">2024</text>
<line x1="313.58" y1="770.00" x2="313.58" y2="774.00" stroke="#2a2a4a" stroke-width="1.00"/>"
<text x="313.58" y="776.00" fill="#e0e0e0" font-family="sans-serif" font-size="10.0" text-anchor="middle" dominant-baseline="hanging">21 Jan</text>
<line x1="375.73" y1="770.00" x2="375.73" y2="774.00" stroke="#2a2a4a" stroke-width="1.00"/>"
<text x="375.73" y="776.00" fill="#e0e0e0" font-family="sans-serif" font-size="10.0" text-anchor="middle" dominant-baseline="hanging">Feb</text>
<line x1="437.88" y1="770.00" x2="437.88" y2="774.00" stroke="#2a2a4a" stroke-width="1.00"/>"
<text x="437.88" y="776.00" fill="#e0e0e0" font-family="sans-serif" font-size="10.0" text-anchor="middle" dominant-baseline="hanging">13 Feb</text>
<line x1="500.03" y1="770.00" x2="500.03" y2="774.00" stroke="#2a2a4a" stroke-width="1.00"/>"
<text x="500.03" y="776.00" fill="#e0e0e0" font-family="sans-serif" font-size="10.0" text-anchor="middle" dominant-baseline="hanging">24 Feb</text>
<line x1="562.18" y1="770.00" x2="562.18" y2="774.00" stroke="#2a2a4a" stroke-width="1.00"/>"
<text x="562.18" y="776.00" fill="#e0e0e0" font-family="sans-serif" font-size="10.0" text-anchor="middle" dominant-baseline="hanging">Mar</text>
<line x1="624.33" y1="770.00" x2="624.33" y2="774.00" stroke="#2a2a4a" stroke-width="1.00"/>"
<text x="624.33" y="776.00" fill="#e0e0e0" font-family="sans-serif" font-size="10.0" text-anchor="middle" dominant-baseline="hanging">16 Mar</text>
<line x1="686.48" y1="770.00" x2="686.48" y2="774.00" stroke="#2a2a4a" stroke-width="1.00"/>"
<text x="686.48" y="776.00" fill="#e0e0e0" font-family="sans-serif" font-size="10.0" text-anchor="middle" dominant-baseline="hanging">27 Mar</text>
<line x1="748.62" y1="770.00" x2="748.62" y2="774.00" stroke="#2a2a4a" stroke-width="1.00"/>"
<text x="748.62" y="776.00" fill="#e0e0e0" font-family="sans-serif" font-size="10.0" text-anchor="middle" dominant-baseline="hanging">Apr</text>
<line x1="810.78" y1="770.00" x2="810.78" y2="774.00" stroke="#2a2a4a" stroke-width="1.00"/>"
<text x="810.78" y="776.00" fill="#e0e0e0" font-family="sans-serif" font-size="10.0" text-anchor="middle" dominant-baseline="hanging">19 Apr</text>
<line x1="872.93" y1="770.00" x2="872.93" y2="774.00" stroke="#2a2a4a" stroke-width="1.00"/>"
<text x="872.93" y="776.00" fill="#e0e0e0" font-family="sans-serif" font-size="10.0" text-anchor="middle" dominant-baseline="hanging">30 Apr</text>
<line x1="935.08" y1="770.00" x2="935.08" y2="774.00" stroke="#2a2a4a" stroke-width="1.00"/>"
<text x="935.08" y="776.00" fill="#e0e0e0" font-family="sans-serif" font-size="10.0" text-anchor="middle" dominant-baseline="hanging">May</text>
<line x1="997.23" y1="770.00" x2="997.23" y2="774.00" stroke="#2a2a4a" stroke-width="1.00"/>"
<text x="997.23" y="776.00" fill="#e0e0e0" font-family="sans-serif" font-size="10.0" text-anchor="middle" dominant-baseline="hanging">22 May</text>
<line x1="1059.38" y1="770.00" x2="1059.38" y2="774.00" stroke="#2a2a4a" stroke-width="1.00"/>"
<text x="1059.38" y="776.00" fill="#e0e0e0" font-family="sans-serif" font-size="10.0" text-anchor="middle" dominant-baseline="hanging">Jun</text>
</svg>
