<?xml version="1.0" encoding="UTF-8"?>
<svg xmlns="http://www.w3.org/2000/svg"
     xmlns:xlink="http://www.w3.org/1999/xlink"
     width="1000" height="500" viewBox="0 0 1000 500">
<defs>

</defs>
<rect x="0" y="0" width="1000" height="500" fill="#131722"/>
<line x1="2.50" y1="415.50" x2="2.50" y2="431.50" stroke="#ef5350" stroke-width="1.00"/>"
<rect x="0.00" y="424.00" width="4.00" height="4.00" fill="#ef5350"/>"
<line x1="6.50" y1="416.50" x2="6.50" y2="445.50" stroke="#26a69a" stroke-width="1.00"/>"
<rect x="4.00" y="424.00" width="4.00" height="7.00" fill="#26a69a"/>"
<line x1="11.50" y1="417.50" x2="11.50" y2="434.50" stroke="#ef5350" stroke-width="1.00"/>"
<rect x="9.00" y="426.00" width="4.00" height="4.00" fill="#ef5350"/>"
<line x1="16.50" y1="417.50" x2="16.50" y2="446.50" stroke="#26a69a" stroke-width="1.00"/>"
<rect x="14.00" y="426.00" width="4.00" height="7.00" fill="#26a69a"/>"
<line x1="20.50" y1="416.50" x2="20.50" y2="435.50" stroke="#ef5350" stroke-width="1.00"/>"
<rect x="18.00" y="425.00" width="4.00" height="5.00" fill="#ef5350"/>"
<line x1="25.50" y1="415.50" x2="25.50" y2="445.50" stroke="#26a69a" stroke-width="1.00"/>"
<rect x="23.00" y="426.00" width="4.00" height="7.00" fill="#26a69a"/>"
<line x1="30.50" y1="413.50" x2="30.50" y2="432.50" stroke="#ef5350" stroke-width="1.00"/>"
<rect x="28.00" y="422.00" width="4.00" height="4.00" fill="#ef5350"/>"
<line x1="34.50" y1="410.50" x2="34.50" y2="441.50" stroke="#26a69a" stroke-width="1.00"/>"
<rect x="32.00" y="423.00" width="4.00" height="7.00" fill="#26a69a"/>"
<line x1="39.50" y1="407.50" x2="39.50" y2="427.50" stroke="#ef5350" stroke-width="1.00"/>"
<rect x="37.00" y="415.00" width="4.00" height="5.00" fill="#ef5350"/>"
<line x1="44.50" y1="403.50" x2="44.50" y2="435.50" stroke="#26a69a" stroke-width="1.00"/>"
<rect x="42.00" y="418.00" width="4.00" height="14.00" fill="#26a69a"/>"
<line x1="48.50" y1="399.50" x2="48.50" y2="420.50" stroke="#ef5350" stroke-width="1.00"/>"
<rect x="46.00" y="403.00" width="4.00" height="9.00" fill="#ef5350"/>"
<line x1="53.50" y1="393.50" x2="53.50" y2="427.50" stroke="#26a69a" stroke-width="1.00"/>"
<rect x="51.00" y="410.00" width="4.00" height="12.00" fill="#26a69a"/>"
<line x1="58.50" y1="388.50" x2="58.50" y2="410.50" stroke="#ef5350" stroke-width="1.00"/>"
<rect x="56.00" y="393.00" width="4.00" height="7.00" fill="#ef5350"/>"
<line x1="62.50" y1="393.50" x2="62.50" y2="404.50" stroke="#26a69a" stroke-width="1.00"/>"
<rect x="60.00" y="399.00" width="4.00" height="3.00" fill="#26a69a"/>"
<line x1="67.50" y1="374.50" x2="67.50" y2="398.50" stroke="#ef5350" stroke-width="1.00"/>"
<rect x="65.00" y="381.00" width="4.00" height="6.00" fill="#ef5350"/>"
<line x1="72.50" y1="378.50" x2="72.50" y2="390.50" stroke="#26a69a" stroke-width="1.00"/>"
<rect x="70.00" y="385.00" width="4.00" height="3.00" fill="#26a69a"/>"
<line x1="76.50" y1="358.50" x2="76.50" y2="383.50" stroke="#ef5350" stroke-width="1.00"/>"
<rect x="74.00" y="366.00" width="4.00" height="4.00" fill="#ef5350"/>"
<line x1="81.50" y1="361.50" x2="81.50" y2="374.50" stroke="#26a69a" stroke-width="1.00"/>"
<rect x="79.00" y="369.00" width="4.00" height="2.00" fill="#26a69a"/>"
<line x1="86.50" y1="363.50" x2="86.50" y2="388.50" stroke="#ef5350" stroke-width="1.00"/>"
<rect x="84.00" y="372.00" width="4.00" height="2.00" fill="#ef5350"/>"
<line x1="90.50" y1="364.50" x2="90.50" y2="378.50" stroke="#26a69a" stroke-width="1.00"/>"
<rect x="88.00" y="373.00" width="4.00" height="1.00" fill="#26a69a"/>"
<line x1="95.50" y1="364.50" x2="95.50" y2="390.50" stroke="#26a69a" stroke-width="1.00"/>"
<rect x="93.00" y="369.00" width="4.00" height="6.00" fill="#26a69a"/>"
<line x1="99.50" y1="364.50" x2="99.50" y2="380.50" stroke="#ef5350" stroke-width="1.00"/>"
<rect x="97.00" y="374.00" width="4.00" height="4.00" fill="#ef5350"/>"
<line x1="104.50" y1="364.50" x2="104.50" y2="391.50" stroke="#26a69a" stroke-width="1.00"/>"
<rect x="102.00" y="370.00" width="4.00" height="6.00" fill="#26a69a"/>"
<line x1="109.50" y1="362.50" x2="109.50" y2="379.50" stroke="#ef5350" stroke-width="1.00"/>"
<rect x="107.00" y="372.00" width="4.00" height="4.00" fill="#ef5350"/>"
<line x1="113.50" y1="361.50" x2="113.50" y2="389.50" stroke="#26a69a" stroke-width="1.00"/>"
<rect x="111.00" y="368.00" width="4.00" height="7.00" fill="#26a69a"/>"
<line x1="118.50" y1="358.50" x2="118.50" y2="375.50" stroke="#ef5350" stroke-width="1.00"/>"
<rect x="116.00" y="368.00" width="4.00" height="4.00" fill="#ef5350"/>"
<line x1="123.50" y1="355.50" x2="123.50" y2="384.50" stroke="#26a69a" stroke-width="1.00"/>"
<rect x="121.00" y="364.00" width="4.00" height="7.00" fill="#26a69a"/>"
<line x1="127.50" y1="352.50" x2="127.50" y2="370.50" stroke="#ef5350" stroke-width="1.00"/>"
<rect x="125.00" y="361.00" width="4.00" height="4.00" fill="#ef5350"/>"
<line x1="132.50" y1="347.50" x2="132.50" y2="377.50" stroke="#26a69a" stroke-width="1.00"/>"
<rect x="130.00" y="358.00" width="4.00" height="7.00" fill="#26a69a"/>"
<line x1="137.50" y1="343.50" x2="137.50" y2="362.50" stroke="#ef5350" stroke-width="1.00"/>"
<rect x="135.00" y="352.00" width="4.00" height="4.00" fill="#ef5350"/>"
<line x1="141.50" y1="337.50" x2="141.50" y2="368.50" stroke="#26a69a" stroke-width="1.00"/>"
<rect x="139.00" y="349.00" width="4.00" height="8.00" fill="#26a69a"/>"
<line x1="146.50" y1="332.50" x2="146.50" y2="351.50" stroke="#ef5350" stroke-width="1.00"/>"
<rect x="144.00" y="340.00" width="4.00" height="5.00" fill="#ef5350"/>"
<line x1="151.50" y1="325.50" x2="151.50" y2="357.50" stroke="#26a69a" stroke-width="1.00"/>"
<rect x="149.00" y="339.00" width="4.00" height="7.00" fill="#26a69a"/>"
<line x1="155.50" y1="318.50" x2="155.50" y2="339.50" stroke="#ef5350" stroke-width="1.00"/>"
<rect x="153.00" y="322.00" width="4.00" height="9.00" fill="#ef5350"/>"
<line x1="160.50" y1="310.50" x2="160.50" y2="343.50" stroke="#26a69a" stroke-width="1.00"/>"
<rect x="158.00" y="326.00" width="4.00" height="13.00" fill="#26a69a"/>"
<line x1="165.50" y1="302.50" x2="165.50" y2="324.50" stroke="#ef5350" stroke-width="1.00"/>"
<rect x="163.00" y="307.00" width="4.00" height="8.00" fill="#ef5350"/>"
<line x1="169.50" y1="294.50" x2="169.50" y2="327.50" stroke="#26a69a" stroke-width="1.00"/>"
<rect x="167.00" y="311.00" width="4.00" height="11.00" fill="#26a69a"/>"
<line x1="174.50" y1="285.50" x2="174.50" y2="307.50" stroke="#ef5350" stroke-width="1.00"/>"
<rect x="172.00" y="291.00" width="4.00" height="6.00" fill="#ef5350"/>"
<line x1="179.50" y1="286.50" x2="179.50" y2="298.50" stroke="#26a69a" stroke-width="1.00"/>"
<rect x="177.00" y="293.00" width="4.00" height="3.00" fill="#26a69a"/>"
<line x1="183.50" y1="265.50" x2="183.50" y2="288.50" stroke="#ef5350" stroke-width="1.00"/>"
<rect x="181.00" y="272.00" width="4.00" height="5.00" fill="#ef5350"/>"
<line x1="188.50" y1="265.50" x2="188.50" y2="278.50" stroke="#26a69a" stroke-width="1.00"/>"
<rect x="186.00" y="273.00" width="4.00" height="2.00" fill="#26a69a"/>"
<line x1="192.50" y1="242.50" x2="192.50" y2="267.50" stroke="#ef5350" stroke-width="1.00"/>"
<rect x="190.00" y="251.00" width="4.00" height="3.00" fill="#ef5350"/>"
<line x1="197.50" y1="242.50" x2="197.50" y2="256.50" stroke="#26a69a" stroke-width="1.00"/>"
<rect x="195.00" y="251.00" width="4.00" height="1.00" fill="#26a69a"/>"
<line x1="202.50" y1="241.50" x2="202.50" y2="266.50" stroke="#ef5350" stroke-width="1.00"/>"
<rect x="200.00" y="251.00" width="4.00" height="1.00" fill="#ef5350"/>"
<line x1="206.50" y1="239.50" x2="206.50" y2="254.50" stroke="#26a69a" stroke-width="1.00"/>"
<rect x="204.00" y="249.00" width="4.00" height="1.00" fill="#26a69a"/>"
<line x1="211.50" y1="237.50" x2="211.50" y2="264.50" stroke="#26a69a" stroke-width="1.00"/>"
<rect x="209.00" y="242.00" width="4.00" height="7.00" fill="#26a69a"/>"
<line x1="216.50" y1="235.50" x2="216.50" y2="250.50" stroke="#ef5350" stroke-width="1.00"/>"
<rect x="214.00" y="245.00" width="4.00" height="4.00" fill="#ef5350"/>"
<line x1="220.50" y1="232.50" x2="220.50" y2="259.50" stroke="#26a69a" stroke-width="1.00"/>"
<rect x="218.00" y="238.00" width="4.00" height="7.00" fill="#26a69a"/>"
<line x1="225.50" y1="228.50" x2="225.50" y2="245.50" stroke="#ef5350" stroke-width="1.00"/>"
<rect x="223.00" y="238.00" width="4.00" height="4.00" fill="#ef5350"/>"
<line x1="230.50" y1="225.50" x2="230.50" y2="253.50" stroke="#26a69a" stroke-width="1.00"/>"
<rect x="228.00" y="232.00" width="4.00" height="7.00" fill="#26a69a"/>"
<line x1="234.50" y1="220.50" x2="234.50" y2="238.50" stroke="#ef5350" stroke-width="1.00"/>"
<rect x="232.00" y="230.00" width="4.00" height="4.00" fill="#ef5350"/>"
<line x1="239.50" y1="215.50" x2="239.50" y2="244.50" stroke="#26a69a" stroke-width="1.00"/>"
<rect x="237.00" y="224.00" width="4.00" height="7.00" fill="#26a69a"/>"
<line x1="244.50" y1="210.50" x2="244.50" y2="228.50" stroke="#ef5350" stroke-width="1.00"/>"
<rect x="242.00" y="219.00" width="4.00" height="5.00" fill="#ef5350"/>"
<line x1="248.50" y1="204.50" x2="248.50" y2="234.50" stroke="#26a69a" stroke-width="1.00"/>"
<rect x="246.00" y="215.00" width="4.00" height="7.00" fill="#26a69a"/>"
<line x1="253.50" y1="198.50" x2="253.50" y2="217.50" stroke="#ef5350" stroke-width="1.00"/>"
<rect x="251.00" y="207.00" width="4.00" height="5.00" fill="#ef5350"/>"
<line x1="258.50" y1="191.50" x2="258.50" y2="222.50" stroke="#26a69a" stroke-width="1.00"/>"
<rect x="256.00" y="204.00" width="4.00" height="7.00" fill="#26a69a"/>"
<line x1="262.50" y1="184.50" x2="262.50" y2="204.50" stroke="#ef5350" stroke-width="1.00"/>"
<rect x="260.00" y="193.00" width="4.00" height="5.00" fill="#ef5350"/>"
<line x1="267.50" y1="177.50" x2="267.50" y2="209.50" stroke="#26a69a" stroke-width="1.00"/>"
<rect x="265.00" y="191.00" width="4.00" height="15.00" fill="#26a69a"/>"
<line x1="272.50" y1="169.50" x2="272.50" y2="190.50" stroke="#ef5350" stroke-width="1.00"/>"
<rect x="270.00" y="173.00" width="4.00" height="9.00" fill="#ef5350"/>"
<line x1="276.50" y1="160.50" x2="276.50" y2="193.50" stroke="#26a69a" stroke-width="1.00"/>"
<rect x="274.00" y="176.00" width="4.00" height="13.00" fill="#26a69a"/>"
<line x1="281.50" y1="152.50" x2="281.50" y2="174.50" stroke="#ef5350" stroke-width="1.00"/>"
<rect x="279.00" y="157.00" width="4.00" height="7.00" fill="#ef5350"/>"
<line x1="285.50" y1="142.50" x2="285.50" y2="176.50" stroke="#26a69a" stroke-width="1.00"/>"
<rect x="283.00" y="160.00" width="4.00" height="10.00" fill="#26a69a"/>"
<line x1="290.50" y1="133.50" x2="290.50" y2="156.50" stroke="#ef5350" stroke-width="1.00"/>"
<rect x="288.00" y="139.00" width="4.00" height="6.00" fill="#ef5350"/>"
<line x1="295.50" y1="134.50" x2="295.50" y2="146.50" stroke="#26a69a" stroke-width="1.00"/>"
<rect x="293.00" y="141.00" width="4.00" height="3.00" fill="#26a69a"/>"
<line x1="299.50" y1="112.50" x2="299.50" y2="136.50" stroke="#ef5350" stroke-width="1.00"/>"
<rect x="297.00" y="120.00" width="4.00" height="4.00" fill="#ef5350"/>"
<line x1="304.50" y1="113.50" x2="304.50" y2="126.50" stroke="#26a69a" stroke-width="1.00"/>"
<rect x="302.00" y="121.00" width="4.00" height="2.00" fill="#26a69a"/>"
<line x1="309.50" y1="113.50" x2="309.50" y2="138.50" stroke="#ef5350" stroke-width="1.00"/>"
<rect x="307.00" y="122.00" width="4.00" height="3.00" fill="#ef5350"/>"
<line x1="313.50" y1="113.50" x2="313.50" y2="127.50" stroke="#26a69a" stroke-width="1.00"/>"
<rect x="311.00" y="122.00" width="4.00" height="1.00" fill="#26a69a"/>"
<line x1="318.50" y1="112.50" x2="318.50" y2="138.50" stroke="#ef5350" stroke-width="1.00"/>"
<rect x="316.00" y="123.00" width="4.00" height="1.00" fill="#ef5350"/>"
<line x1="323.50" y1="111.50" x2="323.50" y2="126.50" stroke="#ef5350" stroke-width="1.00"/>"
<rect x="321.00" y="121.00" width="4.00" height="4.00" fill="#ef5350"/>"
<line x1="327.50" y1="110.50" x2="327.50" y2="137.50" stroke="#26a69a" stroke-width="1.00"/>"
<rect x="325.00" y="115.00" width="4.00" height="7.00" fill="#26a69a"/>"
<line x1="332.50" y1="108.50" x2="332.50" y2="124.50" stroke="#ef5350" stroke-width="1.00"/>"
<rect x="330.00" y="118.00" width="4.00" height="4.00" fill="#ef5350"/>"
<line x1="337.50" y1="106.50" x2="337.50" y2="134.50" stroke="#26a69a" stroke-width="1.00"/>"
<rect x="335.00" y="113.00" width="4.00" height="7.00" fill="#26a69a"/>"
<line x1="341.50" y1="104.50" x2="341.50" y2="121.50" stroke="#ef5350" stroke-width="1.00"/>"
<rect x="339.00" y="114.00" width="4.00" height="4.00" fill="#ef5350"/>"
<line x1="346.50" y1="101.50" x2="346.50" y2="130.50" stroke="#26a69a" stroke-width="1.00"/>"
<rect x="344.00" y="109.00" width="4.00" height="7.00" fill="#26a69a"/>"
<line x1="351.50" y1="98.50" x2="351.50" y2="116.50" stroke="#ef5350" stroke-width="1.00"/>"
<rect x="349.00" y="108.00" width="4.00" height="4.00" fill="#ef5350"/>"
<line x1="355.50" y1="95.50" x2="355.50" y2="124.50" stroke="#26a69a" stroke-width="1.00"/>"
<rect x="353.00" y="104.00" width="4.00" height="7.00" fill="#26a69a"/>"
<line x1="360.50" y1="91.50" x2="360.50" y2="110.50" stroke="#ef5350" stroke-width="1.00"/>"
<rect x="358.00" y="100.00" width="4.00" height="5.00" fill="#ef5350"/>"
<line x1="365.50" y1="87.50" x2="365.50" y2="117.50" stroke="#26a69a" stroke-width="1.00"/>"
<rect x="363.00" y="98.00" width="4.00" height="7.00" fill="#26a69a"/>"
<line x1="369.50" y1="82.50" x2="369.50" y2="102.50" stroke="#ef5350" stroke-width="1.00"/>"
<rect x="367.00" y="91.00" width="4.00" height="5.00" fill="#ef5350"/>"
<line x1="374.50" y1="78.50" x2="374.50" y2="109.50" stroke="#26a69a" stroke-width="1.00"/>"
<rect x="372.00" y="91.00" width="4.00" height="7.00" fill="#26a69a"/>"
<line x1="378.50" y1="72.50" x2="378.50" y2="93.50" stroke="#ef5350" stroke-width="1.00"/>"
<rect x="376.00" y="81.00" width="4.00" height="5.00" fill="#ef5350"/>"
<line x1="383.50" y1="67.50" x2="383.50" y2="99.50" stroke="#26a69a" stroke-width="1.00"/>"
<rect x="381.00" y="82.00" width="4.00" height="14.00" fill="#26a69a"/>"
<line x1="388.50" y1="61.50" x2="388.50" y2="83.50" stroke="#ef5350" stroke-width="1.00"/>"
<rect x="386.00" y="66.00" width="4.00" height="9.00" fill="#ef5350"/>"
<line x1="392.50" y1="55.50" x2="392.50" y2="89.50" stroke="#26a69a" stroke-width="1.00"/>"
<rect x="390.00" y="72.00" width="4.00" height="12.00" fill="#26a69a"/>"
<line x1="397.50" y1="49.50" x2="397.50" y2="72.50" stroke="#ef5350" stroke-width="1.00"/>"
<rect x="395.00" y="55.00" width="4.00" height="7.00" fill="#ef5350"/>"
<line x1="402.50" y1="54.50" x2="402.50" y2="65.50" stroke="#26a69a" stroke-width="1.00"/>"
<rect x="400.00" y="60.00" width="4.00" height="3.00" fill="#26a69a"/>"
<line x1="406.50" y1="36.50" x2="406.50" y2="59.50" stroke="#ef5350" stroke-width="1.00"/>"
<rect x="404.00" y="43.00" width="4.00" height="5.00" fill="#ef5350"/>"
<line x1="411.50" y1="40.50" x2="411.50" y2="52.50" stroke="#26a69a" stroke-width="1.00"/>"
<rect x="409.00" y="47.00" width="4.00" height="2.00" fill="#26a69a"/>"
<line x1="416.50" y1="21.50" x2="416.50" y2="45.50" stroke="#ef5350" stroke-width="1.00"/>"
<rect x="414.00" y="29.00" width="4.00" height="4.00" fill="#ef5350"/>"
<line x1="420.50" y1="24.50" x2="420.50" y2="38.50" stroke="#26a69a" stroke-width="1.00"/>"
<rect x="418.00" y="33.00" width="4.00" height="1.00" fill="#26a69a"/>"
<line x1="425.50" y1="28.50" x2="425.50" y2="53.50" stroke="#ef5350" stroke-width="1.00"/>"
<rect x="423.00" y="37.00" width="4.00" height="2.00" fill="#ef5350"/>"
<line x1="430.50" y1="30.50" x2="430.50" y2="45.50" stroke="#26a69a" stroke-width="1.00"/>"
<rect x="428.00" y="40.00" width="4.00" height="1.00" fill="#26a69a"/>"
<line x1="434.50" y1="33.50" x2="434.50" y2="59.50" stroke="#26a69a" stroke-width="1.00"/>"
<rect x="432.00" y="38.00" width="4.00" height="6.00" fill="#26a69a"/>"
<line x1="439.50" y1="35.50" x2="439.50" y2="51.50" stroke="#ef5350" stroke-width="1.00"/>"
<rect x="437.00" y="45.00" width="4.00" height="4.00" fill="#ef5350"/>"
<line x1="444.50" y1="37.50" x2="444.50" y2="65.50" stroke="#26a69a" stroke-width="1.00"/>"
<rect x="442.00" y="43.00" width="4.00" height="7.00" fill="#26a69a"/>"
<line x1="448.50" y1="39.50" x2="448.50" y2="55.50" stroke="#ef5350" stroke-width="1.00"/>"
<rect x="446.00" y="49.00" width="4.00" height="4.00" fill="#ef5350"/>"
<line x1="453.50" y1="41.50" x2="453.50" y2="69.50" stroke="#26a69a" stroke-width="1.00"/>"
<rect x="451.00" y="48.00" width="4.00" height="7.00" fill="#26a69a"/>"
<line x1="458.50" y1="42.50" x2="458.50" y2="59.50" stroke="#ef5350" stroke-width="1.00"/>"
<rect x="456.00" y="51.00" width="4.00" height="5.00" fill="#ef5350"/>"
<line x1="462.50" y1="43.50" x2="462.50" y2="72.50" stroke="#26a69a" stroke-width="1.00"/>"
<rect x="460.00" y="51.00" width="4.00" height="7.00" fill="#26a69a"/>"
<line x1="467.50" y1="43.50" x2="467.50" y2="61.50" stroke="#ef5350" stroke-width="1.00"/>"
<rect x="465.00" y="53.00" width="4.00" height="4.00" fill="#ef5350"/>"
<line x1="471.50" y1="44.50" x2="471.50" y2="73.50" stroke="#26a69a" stroke-width="1.00"/>"
<rect x="469.00" y="54.00" width="4.00" height="7.00" fill="#26a69a"/>"
<line x1="476.50" y1="44.50" x2="476.50" y2="63.50" stroke="#ef5350" stroke-width="1.00"/>"
<rect x="474.00" y="53.00" width="4.00" height="4.00" fill="#ef5350"/>"
<line x1="481.50" y1="43.50" x2="481.50" y2="74.50" stroke="#26a69a" stroke-width="1.00"/>"
<rect x="479.00" y="55.00" width="4.00" height="7.00" fill="#26a69a"/>"
<line x1="485.50" y1="43.50" x2="485.50" y2="63.50" stroke="#ef5350" stroke-width="1.00"/>"
<rect x="483.00" y="52.00" width="4.00" height="4.00" fill="#ef5350"/>"
<line x1="490.50" y1="42.50" x2="490.50" y2="74.50" stroke="#26a69a" stroke-width="1.00"/>"
<rect x="488.00" y="55.00" width="4.00" height="8.00" fill="#26a69a"/>"
<line x1="495.50" y1="41.50" x2="495.50" y2="62.50" stroke="#ef5350" stroke-width="1.00"/>"
<rect x="493.00" y="45.00" width="4.00" height="9.00" fill="#ef5350"/>"
<line x1="499.50" y1="39.50" x2="499.50" y2="72.50" stroke="#26a69a" stroke-width="1.00"/>"
<rect x="497.00" y="55.00" width="4.00" height="13.00" fill="#26a69a"/>"
<line x1="504.50" y1="37.50" x2="504.50" y2="59.50" stroke="#ef5350" stroke-width="1.00"/>"
<rect x="502.00" y="42.00" width="4.00" height="9.00" fill="#ef5350"/>"
<line x1="509.50" y1="35.50" x2="509.50" y2="69.50" stroke="#26a69a" stroke-width="1.00"/>"
<rect x="507.00" y="53.00" width="4.00" height="11.00" fill="#26a69a"/>"
<line x1="513.50" y1="33.50" x2="513.50" y2="56.50" stroke="#ef5350" stroke-width="1.00"/>"
<rect x="511.00" y="39.00" width="4.00" height="7.00" fill="#ef5350"/>"
<line x1="518.50" y1="42.50" x2="518.50" y2="54.50" stroke="#26a69a" stroke-width="1.00"/>"
<rect x="516.00" y="48.00" width="4.00" height="3.00" fill="#26a69a"/>"
<line x1="523.50" y1="28.50" x2="523.50" y2="51.50" stroke="#ef5350" stroke-width="1.00"/>"
<rect x="521.00" y="35.00" width="4.00" height="5.00" fill="#ef5350"/>"
<line x1="527.50" y1="36.50" x2="527.50" y2="49.50" stroke="#26a69a" stroke-width="1.00"/>"
<rect x="525.00" y="43.00" width="4.00" height="2.00" fill="#26a69a"/>"
<line x1="532.50" y1="43.50" x2="532.50" y2="68.50" stroke="#ef5350" stroke-width="1.00"/>"
<rect x="530.00" y="52.00" width="4.00" height="3.00" fill="#ef5350"/>"
<line x1="537.50" y1="51.50" x2="537.50" y2="65.50" stroke="#26a69a" stroke-width="1.00"/>"
<rect x="535.00" y="60.00" width="4.00" height="1.00" fill="#26a69a"/>"
<line x1="541.50" y1="58.50" x2="541.50" y2="84.50" stroke="#ef5350" stroke-width="1.00"/>"
<rect x="539.00" y="68.00" width="4.00" height="1.00" fill="#ef5350"/>"
<line x1="546.50" y1="65.50" x2="546.50" y2="80.50" stroke="#ef5350" stroke-width="1.00"/>"
<rect x="544.00" y="75.00" width="4.00" height="3.00" fill="#ef5350"/>"
<line x1="551.50" y1="71.50" x2="551.50" y2="98.50" stroke="#26a69a" stroke-width="1.00"/>"
<rect x="549.00" y="77.00" width="4.00" height="6.00" fill="#26a69a"/>"
<line x1="555.50" y1="78.50" x2="555.50" y2="93.50" stroke="#ef5350" stroke-width="1.00"/>"
<rect x="553.00" y="88.00" width="4.00" height="3.00" fill="#ef5350"/>"
<line x1="560.50" y1="84.50" x2="560.50" y2="111.50" stroke="#26a69a" stroke-width="1.00"/>"
<rect x="558.00" y="90.00" width="4.00" height="7.00" fill="#26a69a"/>"
<line x1="564.50" y1="89.50" x2="564.50" y2="106.50" stroke="#ef5350" stroke-width="1.00"/>"
<rect x="562.00" y="99.00" width="4.00" height="4.00" fill="#ef5350"/>"
<line x1="569.50" y1="94.50" x2="569.50" y2="123.50" stroke="#26a69a" stroke-width="1.00"/>"
<rect x="567.00" y="102.00" width="4.00" height="7.00" fill="#26a69a"/>"
<line x1="574.50" y1="99.50" x2="574.50" y2="117.50" stroke="#ef5350" stroke-width="1.00"/>"
<rect x="572.00" y="109.00" width="4.00" height="4.00" fill="#ef5350"/>"
<line x1="578.50" y1="104.50" x2="578.50" y2="133.50" stroke="#26a69a" stroke-width="1.00"/>"
<rect x="576.00" y="113.00" width="4.00" height="7.00" fill="#26a69a"/>"
<line x1="583.50" y1="108.50" x2="583.50" y2="127.50" stroke="#ef5350" stroke-width="1.00"/>"
<rect x="581.00" y="118.00" width="4.00" height="4.00" fill="#ef5350"/>"
<line x1="588.50" y1="112.50" x2="588.50" y2="142.50" stroke="#26a69a" stroke-width="1.00"/>"
<rect x="586.00" y="123.00" width="4.00" height="7.00" fill="#26a69a"/>"
<line x1="592.50" y1="116.50" x2="592.50" y2="135.50" stroke="#ef5350" stroke-width="1.00"/>"
<rect x="590.00" y="125.00" width="4.00" height="4.00" fill="#ef5350"/>"
<line x1="597.50" y1="119.50" x2="597.50" y2="150.50" stroke="#26a69a" stroke-width="1.00"/>"
<rect x="595.00" y="131.00" width="4.00" height="8.00" fill="#26a69a"/>"
<line x1="602.50" y1="122.50" x2="602.50" y2="142.50" stroke="#ef5350" stroke-width="1.00"/>"
<rect x="600.00" y="130.00" width="4.00" height="5.00" fill="#ef5350"/>"
<line x1="606.50" y1="124.50" x2="606.50" y2="156.50" stroke="#26a69a" stroke-width="1.00"/>"
<rect x="604.00" y="138.00" width="4.00" height="15.00" fill="#26a69a"/>"
<line x1="611.50" y1="126.50" x2="611.50" y2="148.50" stroke="#ef5350" stroke-width="1.00"/>"
<rect x="609.00" y="131.00" width="4.00" height="9.00" fill="#ef5350"/>"
<line x1="616.50" y1="128.50" x2="616.50" y2="161.50" stroke="#26a69a" stroke-width="1.00"/>"
<rect x="614.00" y="144.00" width="4.00" height="13.00" fill="#26a69a"/>"
<line x1="620.50" y1="130.50" x2="620.50" y2="152.50" stroke="#ef5350" stroke-width="1.00"/>"
<rect x="618.00" y="135.00" width="4.00" height="7.00" fill="#ef5350"/>"
<line x1="625.50" y1="142.50" x2="625.50" y2="153.50" stroke="#26a69a" stroke-width="1.00"/>"
<rect x="623.00" y="148.00" width="4.00" height="3.00" fill="#26a69a"/>"
<line x1="630.50" y1="131.50" x2="630.50" y2="154.50" stroke="#ef5350" stroke-width="1.00"/>"
<rect x="628.00" y="138.00" width="4.00" height="6.00" fill="#ef5350"/>"
<line x1="634.50" y1="143.50" x2="634.50" y2="155.50" stroke="#26a69a" stroke-width="1.00"/>"
<rect x="632.00" y="150.00" width="4.00" height="2.00" fill="#26a69a"/>"
<line x1="639.50" y1="131.50" x2="639.50" y2="155.50" stroke="#ef5350" stroke-width="1.00"/>"
<rect x="637.00" y="139.00" width="4.00" height="4.00" fill="#ef5350"/>"
<line x1="644.50" y1="142.50" x2="644.50" y2="155.50" stroke="#26a69a" stroke-width="1.00"/>"
<rect x="642.00" y="150.00" width="4.00" height="2.00" fill="#26a69a"/>"
<line x1="648.50" y1="152.50" x2="648.50" y2="177.50" stroke="#ef5350" stroke-width="1.00"/>"
<rect x="646.00" y="162.00" width="4.00" height="2.00" fill="#ef5350"/>"
<line x1="653.50" y1="162.50" x2="653.50" y2="177.50" stroke="#26a69a" stroke-width="1.00"/>"
<rect x="651.00" y="172.00" width="4.00" height="1.00" fill="#26a69a"/>"
<line x1="657.50" y1="172.50" x2="657.50" y2="198.50" stroke="#ef5350" stroke-width="1.00"/>"
<rect x="655.00" y="182.00" width="4.00" height="1.00" fill="#ef5350"/>"
<line x1="662.50" y1="181.50" x2="662.50" y2="196.50" stroke="#ef5350" stroke-width="1.00"/>"
<rect x="660.00" y="191.00" width="4.00" height="4.00" fill="#ef5350"/>"
<line x1="667.50" y1="190.50" x2="667.50" y2="217.50" stroke="#26a69a" stroke-width="1.00"/>"
<rect x="665.00" y="195.00" width="4.00" height="7.00" fill="#26a69a"/>"
<line x1="671.50" y1="198.50" x2="671.50" y2="214.50" stroke="#ef5350" stroke-width="1.00"/>"
<rect x="669.00" y="208.00" width="4.00" height="4.00" fill="#ef5350"/>"
<line x1="676.50" y1="206.50" x2="676.50" y2="234.50" stroke="#26a69a" stroke-width="1.00"/>"
<rect x="674.00" y="213.00" width="4.00" height="6.00" fill="#26a69a"/>"
<line x1="681.50" y1="213.50" x2="681.50" y2="230.50" stroke="#ef5350" stroke-width="1.00"/>"
<rect x="679.00" y="223.00" width="4.00" height="4.00" fill="#ef5350"/>"
<line x1="685.50" y1="220.50" x2="685.50" y2="249.50" stroke="#26a69a" stroke-width="1.00"/>"
<rect x="683.00" y="229.00" width="4.00" height="6.00" fill="#26a69a"/>"
<line x1="690.50" y1="227.50" x2="690.50" y2="245.50" stroke="#ef5350" stroke-width="1.00"/>"
<rect x="688.00" y="236.00" width="4.00" height="4.00" fill="#ef5350"/>"
<line x1="695.50" y1="233.50" x2="695.50" y2="262.50" stroke="#26a69a" stroke-width="1.00"/>"
<rect x="693.00" y="243.00" width="4.00" height="7.00" fill="#26a69a"/>"
<line x1="699.50" y1="238.50" x2="699.50" y2="257.50" stroke="#ef5350" stroke-width="1.00"/>"
<rect x="697.00" y="248.00" width="4.00" height="4.00" fill="#ef5350"/>"
<line x1="704.50" y1="243.50" x2="704.50" y2="274.50" stroke="#26a69a" stroke-width="1.00"/>"
<rect x="702.00" y="255.00" width="4.00" height="7.00" fill="#26a69a"/>"
<line x1="709.50" y1="248.50" x2="709.50" y2="268.50" stroke="#ef5350" stroke-width="1.00"/>"
<rect x="707.00" y="257.00" width="4.00" height="5.00" fill="#ef5350"/>"
<line x1="713.50" y1="252.50" x2="713.50" y2="284.50" stroke="#26a69a" stroke-width="1.00"/>"
<rect x="711.00" y="265.00" width="4.00" height="8.00" fill="#26a69a"/>"
<line x1="718.50" y1="256.50" x2="718.50" y2="276.50" stroke="#ef5350" stroke-width="1.00"/>"
<rect x="716.00" y="259.00" width="4.00" height="10.00" fill="#ef5350"/>"
<line x1="723.50" y1="259.50" x2="723.50" y2="291.50" stroke="#26a69a" stroke-width="1.00"/>"
<rect x="721.00" y="274.00" width="4.00" height="14.00" fill="#26a69a"/>"
<line x1="727.50" y1="262.50" x2="727.50" y2="283.50" stroke="#ef5350" stroke-width="1.00"/>"
<rect x="725.00" y="266.00" width="4.00" height="9.00" fill="#ef5350"/>"
<line x1="732.50" y1="264.50" x2="732.50" y2="297.50" stroke="#26a69a" stroke-width="1.00"/>"
<rect x="730.00" y="280.00" width="4.00" height="12.00" fill="#26a69a"/>"
<line x1="737.50" y1="266.50" x2="737.50" y2="288.50" stroke="#ef5350" stroke-width="1.00"/>"
<rect x="735.00" y="271.00" width="4.00" height="7.00" fill="#ef5350"/>"
<line x1="741.50" y1="278.50" x2="741.50" y2="290.50" stroke="#26a69a" stroke-width="1.00"/>"
<rect x="739.00" y="284.00" width="4.00" height="3.00" fill="#26a69a"/>"
<line x1="746.50" y1="267.50" x2="746.50" y2="291.50" stroke="#ef5350" stroke-width="1.00"/>"
<rect x="744.00" y="274.00" width="4.00" height="6.00" fill="#ef5350"/>"
<line x1="750.50" y1="279.50" x2="750.50" y2="291.50" stroke="#26a69a" stroke-width="1.00"/>"
<rect x="748.00" y="286.00" width="4.00" height="2.00" fill="#26a69a"/>"
<line x1="755.50" y1="267.50" x2="755.50" y2="291.50" stroke="#ef5350" stroke-width="1.00"/>"
<rect x="753.00" y="275.00" width="4.00" height="4.00" fill="#ef5350"/>"
<line x1="760.50" y1="277.50" x2="760.50" y2="291.50" stroke="#26a69a" stroke-width="1.00"/>"
<rect x="758.00" y="286.00" width="4.00" height="1.00" fill="#26a69a"/>"
<line x1="764.50" y1="287.50" x2="764.50" y2="313.50" stroke="#ef5350" stroke-width="1.00"/>"
<rect x="762.00" y="297.00" width="4.00" height="2.00" fill="#ef5350"/>"
<line x1="769.50" y1="297.50" x2="769.50" y2="311.50" stroke="#26a69a" stroke-width="1.00"/>"
<rect x="767.00" y="306.00" width="4.00" height="1.00" fill="#26a69a"/>"
<line x1="774.50" y1="305.50" x2="774.50" y2="331.50" stroke="#26a69a" stroke-width="1.00"/>"
<rect x="772.00" y="310.00" width="4.00" height="6.00" fill="#26a69a"/>"
<line x1="778.50" y1="313.50" x2="778.50" y2="329.50" stroke="#ef5350" stroke-width="1.00"/>"
<rect x="776.00" y="323.00" width="4.00" height="4.00" fill="#ef5350"/>"
<line x1="783.50" y1="321.50" x2="783.50" y2="348.50" stroke="#26a69a" stroke-width="1.00"/>"
<rect x="781.00" y="327.00" width="4.00" height="7.00" fill="#26a69a"/>"
<line x1="788.50" y1="328.50" x2="788.50" y2="344.50" stroke="#ef5350" stroke-width="1.00"/>"
<rect x="786.00" y="338.00" width="4.00" height="4.00" fill="#ef5350"/>"
<line x1="792.50" y1="335.50" x2="792.50" y2="363.50" stroke="#26a69a" stroke-width="1.00"/>"
<rect x="790.00" y="342.00" width="4.00" height="7.00" fill="#26a69a"/>"
<line x1="797.50" y1="341.50" x2="797.50" y2="358.50" stroke="#ef5350" stroke-width="1.00"/>"
<rect x="795.00" y="350.00" width="4.00" height="4.00" fill="#ef5350"/>"
<line x1="802.50" y1="346.50" x2="802.50" y2="375.50" stroke="#26a69a" stroke-width="1.00"/>"
<rect x="800.00" y="355.00" width="4.00" height="7.00" fill="#26a69a"/>"
<line x1="806.50" y1="351.50" x2="806.50" y2="369.50" stroke="#ef5350" stroke-width="1.00"/>"
<rect x="804.00" y="360.00" width="4.00" height="4.00" fill="#ef5350"/>"
<line x1="811.50" y1="355.50" x2="811.50" y2="385.50" stroke="#26a69a" stroke-width="1.00"/>"
<rect x="809.00" y="365.00" width="4.00" height="7.00" fill="#26a69a"/>"
<line x1="816.50" y1="358.50" x2="816.50" y2="378.50" stroke="#ef5350" stroke-width="1.00"/>"
<rect x="814.00" y="368.00" width="4.00" height="4.00" fill="#ef5350"/>"
<line x1="820.50" y1="361.50" x2="820.50" y2="392.50" stroke="#26a69a" stroke-width="1.00"/>"
<rect x="818.00" y="373.00" width="4.00" height="8.00" fill="#26a69a"/>"
<line x1="825.50" y1="364.50" x2="825.50" y2="384.50" stroke="#ef5350" stroke-width="1.00"/>"
<rect x="823.00" y="373.00" width="4.00" height="4.00" fill="#ef5350"/>"
<line x1="830.50" y1="366.50" x2="830.50" y2="397.50" stroke="#26a69a" stroke-width="1.00"/>"
<rect x="828.00" y="379.00" width="4.00" height="8.00" fill="#26a69a"/>"
<line x1="834.50" y1="367.50" x2="834.50" y2="388.50" stroke="#ef5350" stroke-width="1.00"/>"
<rect x="832.00" y="371.00" width="4.00" height="9.00" fill="#ef5350"/>"
<line x1="839.50" y1="367.50" x2="839.50" y2="400.50" stroke="#26a69a" stroke-width="1.00"/>"
<rect x="837.00" y="383.00" width="4.00" height="13.00" fill="#26a69a"/>"
<line x1="843.50" y1="367.50" x2="843.50" y2="389.50" stroke="#ef5350" stroke-width="1.00"/>"
<rect x="841.00" y="372.00" width="4.00" height="8.00" fill="#ef5350"/>"
<line x1="848.50" y1="367.50" x2="848.50" y2="400.50" stroke="#26a69a" stroke-width="1.00"/>"
<rect x="846.00" y="384.00" width="4.00" height="11.00" fill="#26a69a"/>"
<line x1="853.50" y1="365.50" x2="853.50" y2="388.50" stroke="#ef5350" stroke-width="1.00"/>"
<rect x="851.00" y="372.00" width="4.00" height="6.00" fill="#ef5350"/>"
<line x1="857.50" y1="375.50" x2="857.50" y2="387.50" stroke="#26a69a" stroke-width="1.00"/>"
<rect x="855.00" y="381.00" width="4.00" height="3.00" fill="#26a69a"/>"
<line x1="862.50" y1="361.50" x2="862.50" y2="385.50" stroke="#ef5350" stroke-width="1.00"/>"
<rect x="860.00" y="368.00" width="4.00" height="5.00" fill="#ef5350"/>"
<line x1="867.50" y1="369.50" x2="867.50" y2="382.50" stroke="#26a69a" stroke-width="1.00"/>"
<rect x="865.00" y="377.00" width="4.00" height="2.00" fill="#26a69a"/>"
<line x1="871.50" y1="377.50" x2="871.50" y2="401.50" stroke="#ef5350" stroke-width="1.00"/>"
<rect x="869.00" y="386.00" width="4.00" height="2.00" fill="#ef5350"/>"
<line x1="876.50" y1="384.50" x2="876.50" y2="398.50" stroke="#26a69a" stroke-width="1.00"/>"
<rect x="874.00" y="393.00" width="4.00" height="1.00" fill="#26a69a"/>"
<line x1="881.50" y1="390.50" x2="881.50" y2="416.50" stroke="#ef5350" stroke-width="1.00"/>"
<rect x="879.00" y="400.00" width="4.00" height="1.00" fill="#ef5350"/>"
<line x1="885.50" y1="396.50" x2="885.50" y2="410.50" stroke="#ef5350" stroke-width="1.00"/>"
<rect x="883.00" y="406.00" width="4.00" height="3.00" fill="#ef5350"/>"
<line x1="890.50" y1="401.50" x2="890.50" y2="427.50" stroke="#26a69a" stroke-width="1.00"/>"
<rect x="888.00" y="406.00" width="4.00" height="6.00" fill="#26a69a"/>"
<line x1="895.50" y1="405.50" x2="895.50" y2="421.50" stroke="#ef5350" stroke-width="1.00"/>"
<rect x="893.00" y="415.00" width="4.00" height="4.00" fill="#ef5350"/>"
<line x1="899.50" y1="409.50" x2="899.50" y2="436.50" stroke="#26a69a" stroke-width="1.00"/>"
<rect x="897.00" y="415.00" width="4.00" height="7.00" fill="#26a69a"/>"
<line x1="904.50" y1="412.50" x2="904.50" y2="429.50" stroke="#ef5350" stroke-width="1.00"/>"
<rect x="902.00" y="422.00" width="4.00" height="4.00" fill="#ef5350"/>"
<line x1="909.50" y1="414.50" x2="909.50" y2="443.50" stroke="#26a69a" stroke-width="1.00"/>"
<rect x="907.00" y="422.00" width="4.00" height="7.00" fill="#26a69a"/>"
<line x1="913.50" y1="416.50" x2="913.50" y2="434.50" stroke="#ef5350" stroke-width="1.00"/>"
<rect x="911.00" y="426.00" width="4.00" height="4.00" fill="#ef5350"/>"
<line x1="918.50" y1="417.50" x2="918.50" y2="447.50" stroke="#26a69a" stroke-width="1.00"/>"
<rect x="916.00" y="427.00" width="4.00" height="7.00" fill="#26a69a"/>"
<line x1="923.50" y1="418.50" x2="923.50" y2="436.50" stroke="#ef5350" stroke-width="1.00"/>"
<rect x="921.00" y="427.00" width="4.00" height="5.00" fill="#ef5350"/>"
<line x1="927.50" y1="418.50" x2="927.50" y2="448.50" stroke="#26a69a" stroke-width="1.00"/>"
<rect x="925.00" y="429.00" width="4.00" height="7.00" fill="#26a69a"/>"
<polyline points="20.93,428.29 25.58,427.76 30.23,428.20 34.88,426.71 39.53,425.53 44.18,423.11 48.83,420.29 53.48,416.97 58.13,412.48 62.78,408.15 67.43,401.97 72.08,396.64 76.73,388.74 81.38,382.45 86.03,377.49 90.68,374.79 95.33,371.58 99.98,373.11 104.63,373.23 109.28,373.68 113.93,372.63 118.58,373.24 123.23,370.45 127.88,369.62 132.53,365.91 137.18,363.62 141.83,359.05 146.48,355.28 151.12,349.89 155.78,344.64 160.43,338.48 165.08,331.73 169.73,324.85 174.38,316.59 179.03,308.83 183.68,299.05 188.33,290.48 192.98,279.17 197.63,269.84 202.28,261.73 206.93,256.23 211.58,250.21 216.23,249.08 220.88,246.63 225.53,244.66 230.18,241.27 234.83,239.56 239.48,234.75 244.13,231.83 248.78,226.37 253.43,222.23 258.08,216.17 262.73,210.81 267.38,204.21 272.03,197.62 276.68,190.52 281.33,182.69 285.98,175.15 290.62,166.07 295.28,157.86 299.93,147.51 304.58,138.78 309.23,131.69 313.88,127.01 318.53,123.45 323.18,123.51 327.83,122.44 332.48,121.91 337.12,120.15 341.78,119.04 346.43,115.96 351.08,115.23 355.73,111.71 360.38,110.01 365.03,106.10 369.68,103.43 374.33,99.17 378.98,95.50 383.63,90.95 388.28,86.27 392.93,81.47 397.58,75.75 402.23,70.57 406.88,63.81 411.53,58.27 416.18,50.44 420.83,44.58 425.48,40.34 430.13,38.74 434.78,36.91 439.43,40.15 444.08,42.30 448.73,45.11 453.38,46.71 458.03,50.26 462.68,50.76 467.33,53.48 471.98,53.67 476.63,55.53 481.28,55.45 485.93,56.41 490.58,56.08 495.23,56.12 499.88,55.57 504.53,54.65 509.18,53.92 513.83,52.00 518.48,50.88 523.12,47.93 527.78,46.48 532.43,46.99 537.08,49.76 541.73,53.91 546.38,61.63 551.03,68.31 555.68,75.55 560.33,81.64 564.98,88.40 569.62,93.18 574.28,100.49 578.93,104.88 583.58,111.26 588.23,115.27 592.88,120.68 597.53,124.32 602.18,128.71 606.83,132.00 611.48,135.33 616.12,138.27 620.78,140.49 625.43,143.00 630.08,144.06 634.73,146.06 639.38,145.91 644.03,147.43 648.68,150.64 653.33,156.21 657.98,162.82 662.62,173.06 667.28,182.12 671.93,191.68 676.58,199.94 681.23,208.79 685.88,215.59 690.53,224.62 695.18,230.80 699.83,238.64 704.48,244.21 709.12,250.83 713.78,255.78 718.43,261.12 723.08,265.47 727.73,269.48 732.38,273.24 737.03,275.86 741.68,278.86 746.33,280.04 750.98,282.28 755.63,281.97 760.28,283.47 764.93,286.30 769.58,291.59 774.23,296.38 778.88,306.01 783.53,314.28 788.18,322.95 792.83,330.14 797.48,339.00 802.13,344.54 806.78,352.00 811.43,356.68 816.08,362.69 820.73,366.50 825.38,371.01 830.03,373.98 834.68,376.96 839.33,379.09 843.98,380.48 848.63,381.80 853.28,381.56 857.93,381.83 862.58,379.92 867.23,379.23 871.88,380.13 876.53,383.02 881.18,386.92 885.83,394.10 890.48,399.90 895.13,405.96 899.78,410.54 904.43,415.47 909.08,418.13 913.73,422.95 918.38,424.57 923.03,427.84 927.68,428.47" stroke="#e91e63" stroke-width="1.00" fill="none"/>"
<polyline points="44.18,425.70 48.83,424.02 53.48,422.59 58.13,419.59 62.78,416.84 67.43,412.54 72.08,408.46 76.73,402.86 81.38,397.46 86.03,392.82 90.68,388.38 95.33,384.11 99.98,380.92 104.63,377.84 109.28,375.59 113.93,373.71 118.58,372.41 123.23,371.78 127.88,371.42 132.53,369.80 137.18,368.12 141.83,366.14 146.48,362.87 151.12,359.75 155.78,355.28 160.43,351.05 165.08,345.39 169.73,340.07 174.38,333.24 179.03,326.73 183.68,318.76 188.33,311.10 192.98,302.01 197.63,293.22 202.28,285.28 206.93,277.64 211.58,270.34 216.23,264.12 220.88,258.23 225.53,253.20 230.18,248.75 234.83,244.88 239.48,241.91 244.13,239.23 248.78,235.51 253.43,231.75 258.08,227.87 262.73,222.78 267.38,218.02 272.03,211.99 276.68,206.38 281.33,199.43 285.98,192.98 290.62,185.14 295.28,177.74 299.93,169.02 304.58,160.73 309.23,153.42 313.88,146.54 318.53,140.65 323.18,135.51 327.83,130.61 332.48,126.80 337.12,123.58 341.78,121.24 346.43,119.74 351.08,118.83 355.73,116.81 360.38,115.08 365.03,112.57 369.68,109.69 374.33,107.20 378.98,103.61 383.63,100.48 388.28,96.19 392.93,92.45 397.58,87.46 402.23,83.04 406.88,77.38 411.53,72.27 416.18,65.95 420.83,60.17 425.48,55.46 430.13,51.27 434.78,47.59 439.43,45.29 444.08,43.44 448.73,42.72 453.38,42.72 458.03,43.59 462.68,45.46 467.33,47.89 471.98,49.39 476.63,51.12 481.28,52.85 485.93,53.58 490.58,54.78 495.23,54.90 499.88,55.55 504.53,55.05 509.18,55.17 513.83,54.04 518.48,53.50 523.12,51.75 527.78,50.57 532.43,50.45 537.08,50.88 541.73,52.40 546.38,54.78 551.03,57.39 555.68,61.27 560.33,65.70 564.98,71.16 569.62,77.41 574.28,84.40 578.93,90.21 583.58,96.45 588.23,101.83 592.88,106.93 597.53,112.40 602.18,116.80 606.83,121.63 611.48,125.30 616.12,129.48 620.78,132.40 625.43,135.86 630.08,138.03 634.73,140.70 639.38,142.09 644.03,143.96 648.68,146.82 653.33,150.13 657.98,154.44 662.62,159.49 667.28,164.78 671.93,171.16 676.58,178.07 681.23,185.81 685.88,194.33 690.53,203.37 695.18,211.24 699.83,219.29 704.48,226.50 709.12,233.21 713.78,240.20 718.43,245.96 723.08,252.06 727.73,256.84 732.38,262.03 737.03,265.82 741.68,269.99 746.33,272.76 750.98,275.88 755.63,277.60 760.28,279.66 764.93,282.58 769.58,285.81 774.23,289.33 778.88,293.99 783.53,298.87 788.18,304.63 792.83,310.86 797.48,317.69 802.13,325.28 806.78,333.14 811.43,339.81 816.08,346.41 820.73,352.75 825.38,357.78 830.03,362.99 834.68,366.82 839.33,370.89 843.98,373.49 848.63,376.41 853.28,377.77 857.93,379.40 862.58,379.51 867.23,379.86 871.88,380.96 876.53,382.29 881.18,384.38 885.83,387.01 890.48,389.57 895.13,393.05 899.78,396.78 904.43,401.20 909.08,406.11 913.73,411.43 918.38,415.27 923.03,419.19 927.68,421.97" stroke="#9c27b0" stroke-width="1.00" fill="none"/>"
<polyline points="90.68,407.04 95.33,404.07 99.98,401.75 104.63,398.72 109.28,396.21 113.93,393.13 118.58,390.44 123.23,387.32 127.88,384.44 132.53,381.31 137.18,378.25 141.83,375.13 146.48,371.89 151.12,368.80 155.78,365.43 160.43,362.38 165.08,358.90 169.73,355.92 174.38,352.33 179.03,348.27 183.68,343.44 188.33,338.62 192.98,332.44 197.63,326.49 202.28,320.28 206.93,314.34 211.58,307.87 216.23,302.10 220.88,295.74 225.53,289.97 230.18,283.76 234.83,277.99 239.48,271.96 244.13,266.22 248.78,260.40 253.43,254.69 258.08,249.10 262.73,243.45 267.38,238.13 272.03,232.59 276.68,227.56 281.33,222.16 285.98,217.45 290.62,212.18 295.28,206.63 299.93,200.38 304.58,194.30 309.23,188.10 313.88,182.28 318.53,176.32 323.18,170.94 327.83,165.02 332.48,159.89 337.12,154.36 341.78,149.49 346.43,144.38 351.08,139.78 355.73,135.11 360.38,130.81 365.03,126.61 369.68,122.60 374.33,118.91 378.98,115.20 383.63,112.03 388.28,108.72 392.93,106.09 397.58,103.15 402.23,99.92 406.88,96.23 411.53,92.42 416.18,87.82 420.83,83.68 425.48,79.53 430.13,75.88 434.78,71.89 439.43,68.87 444.08,65.45 448.73,62.88 453.38,60.05 458.03,57.93 462.68,55.70 467.33,54.03 471.98,52.42 476.63,51.20 481.28,50.22 485.93,49.44 490.58,49.11 495.23,48.81 499.88,49.14 504.53,49.32 509.18,50.31 513.83,50.97 518.48,51.44 523.12,51.44 527.78,51.71 532.43,52.02 537.08,52.83 541.73,53.65 546.38,55.17 551.03,56.22 555.68,58.22 560.33,59.87 564.98,62.33 569.62,64.58 574.28,67.48 578.93,70.33 583.58,73.67 588.23,77.11 592.88,80.86 597.53,84.90 602.18,89.03 606.83,93.66 611.48,98.23 616.12,103.44 620.78,108.40 625.43,113.04 630.08,117.24 634.73,121.26 639.38,124.51 644.03,128.18 648.68,131.81 653.33,135.88 657.98,139.87 662.62,144.48 667.28,148.59 671.93,153.51 676.58,158.05 681.23,163.25 685.88,168.21 690.53,173.67 695.18,179.03 699.83,184.71 704.48,190.47 709.12,196.35 713.78,202.49 718.43,208.56 723.08,215.07 727.73,221.32 732.38,228.18 737.03,234.59 741.68,240.61 746.33,246.02 750.98,251.19 755.63,255.41 760.28,259.93 764.93,264.27 769.58,268.94 774.23,273.09 778.88,278.01 783.53,282.34 788.18,287.31 792.83,291.81 797.48,296.78 802.13,301.44 806.78,306.40 811.43,311.20 816.08,316.11 820.73,321.04 825.38,325.88 830.03,330.93 834.68,335.72 839.33,340.88 843.98,345.59 848.63,350.84 853.28,355.45 857.93,359.60 862.58,362.96 867.23,366.30 871.88,369.37 876.53,372.64 881.18,375.60 885.83,378.95 890.48,381.53 895.13,384.73 899.78,387.27 904.43,390.30 909.08,392.81 913.73,395.64 918.38,398.12 923.03,400.74 927.68,403.17" stroke="#673ab7" stroke-width="1.00" fill="none"/>"
<polyline points="230.18,349.94 234.83,346.05 239.48,342.06 244.13,337.93 248.78,333.70 253.43,329.34 258.08,324.89 262.73,320.32 267.38,315.68 272.03,310.91 276.68,306.08 281.33,301.13 285.98,296.14 290.62,291.03 295.28,285.88 299.93,280.63 304.58,275.35 309.23,270.43 313.88,265.49 318.53,260.47 323.18,255.51 327.83,250.43 332.48,245.31 337.12,240.18 341.78,235.01 346.43,229.84 351.08,224.63 355.73,219.44 360.38,214.22 365.03,209.03 369.68,203.82 374.33,198.65 378.98,193.46 383.63,188.33 388.28,183.19 392.93,178.12 397.58,173.05 402.23,168.03 406.88,163.05 411.53,158.14 416.18,153.26 420.83,148.46 425.48,144.15 430.13,139.94 434.78,135.65 439.43,131.65 444.08,127.67 448.73,123.75 453.38,119.95 458.03,116.21 462.68,112.60 467.33,109.06 471.98,105.65 476.63,102.32 481.28,99.12 485.93,96.02 490.58,93.05 495.23,90.18 499.88,87.45 504.53,84.83 509.18,82.36 513.83,79.98 518.48,77.75 523.12,75.64 527.78,73.69 532.43,72.30 537.08,71.08 541.73,69.97 546.38,69.10 551.03,68.17 555.68,67.51 560.33,67.00 564.98,66.62 569.62,66.41 574.28,66.32 578.93,66.40 583.58,66.60 588.23,66.98 592.88,67.47 597.53,68.14 602.18,68.93 606.83,69.89 611.48,70.96 616.12,72.21 620.78,73.56 625.43,75.08 630.08,76.72 634.73,78.51 639.38,80.42 644.03,82.48 648.68,85.10 653.33,87.88 657.98,90.76 662.62,93.85 667.28,97.00 671.93,100.25 676.58,103.64 681.23,107.13 685.88,110.74 690.53,114.44 695.18,118.26 699.83,122.16 704.48,126.18 709.12,130.27 713.78,134.47 718.43,138.73 723.08,143.10 727.73,147.51 732.38,152.03 737.03,156.59 741.68,161.22 746.33,165.90 750.98,170.66 755.63,175.44 760.28,180.29 764.93,185.16 769.58,190.08 774.23,194.90 778.88,199.87 783.53,204.88 788.18,209.89 792.83,214.93 797.48,219.96 802.13,225.01 806.78,230.04 811.43,235.07 816.08,240.08 820.73,245.08 825.38,250.04 830.03,255.00 834.68,259.90 839.33,264.79 843.98,269.60 848.63,274.40 853.28,279.11 857.93,283.78 862.58,288.37 867.23,292.92 871.88,297.82 876.53,302.67 881.18,307.41 885.83,312.16 890.48,316.63 895.13,321.11 899.78,325.51 904.43,329.79 909.08,333.98 913.73,338.04 918.38,342.01 923.03,345.83 927.68,349.56" stroke="#3f51b5" stroke-width="1.00" fill="none"/>"
<polyline points="462.68,231.27 467.33,227.56 471.98,223.85 476.63,220.12 481.28,216.41 485.93,212.68 490.58,208.97 495.23,205.25 499.88,201.57 504.53,197.87 509.18,194.22 513.83,190.56 518.48,186.94 523.12,183.34 527.78,179.78 532.43,176.47 537.08,173.21 541.73,170.20 546.38,167.30 551.03,164.32 555.68,161.51 560.33,158.72 564.98,155.97 569.62,153.29 574.28,150.66 578.93,148.12 583.58,145.62 588.23,143.21 592.88,140.85 597.53,138.58 602.18,136.37 606.83,134.27 611.48,132.21 616.12,130.27 620.78,128.38 625.43,126.60 630.08,124.88 634.73,123.27 639.38,121.73 644.03,120.31 648.68,119.18 653.33,118.17 657.98,117.45 662.62,116.89 667.28,116.33 671.93,115.95 676.58,115.65 681.23,115.44 685.88,115.34 690.53,115.32 695.18,115.43 699.83,115.61 704.48,115.91 709.12,116.29 713.78,116.80 718.43,117.37 723.08,118.07 727.73,118.85 732.38,119.74 737.03,120.71 741.68,121.79 746.33,122.94 750.98,124.20 755.63,125.54 760.28,126.99 764.93,128.73 769.58,130.58 774.23,132.44 778.88,134.49 783.53,136.53 788.18,138.70 792.83,140.97 797.48,143.29 802.13,145.71 806.78,148.18 811.43,150.74 816.08,153.34 820.73,156.03 825.38,158.76 830.03,161.57 834.68,164.41 839.33,167.34 843.98,170.28 848.63,173.30 853.28,176.34 857.93,179.43 862.58,182.54 867.23,185.71 871.88,189.12 876.53,192.57 881.18,196.26 885.83,200.02 890.48,203.69 895.13,207.48 899.78,211.25 904.43,215.02 909.08,218.81 913.73,222.58 918.38,226.37 923.03,230.13 927.68,233.91" stroke="#2196f3" stroke-width="1.00" fill="none"/>"
<polyline points="95.33,405.25 99.98,402.81 104.63,399.84 109.28,397.74 113.93,395.07 118.58,393.03 123.23,390.43 127.88,388.20 132.53,385.47 137.18,382.88 141.83,379.86 146.48,376.75 151.12,373.32 155.78,369.56 160.43,365.61 165.08,361.10 169.73,356.56 174.38,351.21 179.03,345.93 183.68,339.69 188.33,333.63 192.98,326.45 197.63,319.60 202.28,313.51 206.93,307.71 211.58,301.83 216.23,297.03 220.88,291.74 225.53,287.28 230.18,282.33 234.83,277.97 239.48,273.15 244.13,268.71 248.78,263.86 253.43,259.16 258.08,254.16 262.73,249.07 267.38,243.81 272.03,238.23 276.68,232.63 281.33,226.48 285.98,220.48 290.62,213.69 295.28,207.12 299.93,199.64 304.58,192.52 309.23,186.39 313.88,180.57 318.53,175.39 323.18,170.83 327.83,165.84 332.48,161.89 337.12,157.50 341.78,153.91 346.43,149.91 351.08,146.48 355.73,142.70 360.38,139.27 365.03,135.57 369.68,132.01 374.33,128.29 378.98,124.48 383.63,120.65 388.28,116.51 392.93,112.50 397.58,107.95 402.23,103.64 406.88,98.63 411.53,93.98 416.18,88.45 420.83,83.43 425.48,79.42 430.13,75.88 434.78,72.46 439.43,70.37 444.08,67.97 448.73,66.64 453.38,64.99 458.03,64.18 462.68,63.07 467.33,62.56 471.98,61.82 476.63,61.45 481.28,60.92 485.93,60.54 490.58,60.12 495.23,59.61 499.88,59.20 504.53,58.46 509.18,57.97 513.83,56.91 518.48,56.18 523.12,54.74 527.78,53.74 532.43,53.91 537.08,54.48 541.73,55.86 546.38,57.96 551.03,59.70 555.68,62.63 560.33,65.17 564.98,68.65 569.62,71.76 574.28,75.57 578.93,79.05 583.58,83.00 588.23,86.68 592.88,90.61 597.53,94.36 602.18,98.13 606.83,101.84 611.48,105.32 616.12,108.89 620.78,111.99 625.43,115.29 630.08,117.92 634.73,120.86 639.38,122.94 644.03,125.46 648.68,129.00 653.33,132.91 657.98,137.49 662.62,142.72 667.28,147.55 671.93,153.43 676.58,158.87 681.23,165.11 685.88,170.93 690.53,177.30 695.18,183.28 699.83,189.58 704.48,195.55 709.12,201.61 713.78,207.44 718.43,213.11 723.08,218.67 727.73,223.83 732.38,229.02 737.03,233.55 741.68,238.21 746.33,242.03 750.98,246.08 755.63,249.11 760.28,252.49 764.93,256.72 769.58,261.26 774.23,265.74 778.88,271.36 783.53,276.48 788.18,282.47 792.83,287.93 797.48,294.01 802.13,299.58 806.78,305.52 811.43,311.00 816.08,316.60 820.73,321.81 825.38,326.91 830.03,331.71 834.68,336.16 839.33,340.44 843.98,344.12 848.63,347.78 853.28,350.58 857.93,353.44 862.58,355.28 867.23,357.29 871.88,360.17 876.53,363.16 881.18,366.64 885.83,370.55 890.48,373.81 895.13,377.94 899.78,381.39 904.43,385.47 909.08,388.87 913.73,392.65 918.38,395.81 923.03,399.12 927.68,401.87" stroke="#00bcd4" stroke-width="1.00" fill="none"/>"
<rect x="930.00" y="0.00" width="70.00" height="470.00" fill="#131722"/>"
<line x1="930.00" y1="0.00" x2="930.00" y2="470.00" stroke="#1e222d" stroke-width="1.00"/>"
<line x1="930.00" y1="455.37" x2="934.00" y2="455.37" stroke="#1e222d" stroke-width="1.00"/>"
<text x="936.00" y="455.37" fill="#b2b5be" font-family="sans-serif" font-size="11.0" text-anchor="start" dominant-baseline="central">95</text>
<line x1="930.00" y1="427.09" x2="934.00" y2="427.09" stroke="#1e222d" stroke-width="1.00"/>"
<text x="936.00" y="427.09" fill="#b2b5be" font-family="sans-serif" font-size="11.0" text-anchor="start" dominant-baseline="central">100</text>
<line x1="930.00" y1="398.82" x2="934.00" y2="398.82" stroke="#1e222d" stroke-width="1.00"/>"
<text x="936.00" y="398.82" fill="#b2b5be" font-family="sans-serif" font-size="11.0" text-anchor="start" dominant-baseline="central">105</text>
<line x1="930.00" y1="370.55" x2="934.00" y2="370.55" stroke="#1e222d" stroke-width="1.00"/>"
<text x="936.00" y="370.55" fill="#b2b5be" font-family="sans-serif" font-size="11.0" text-anchor="start" dominant-baseline="central">110</text>
<line x1="930.00" y1="342.28" x2="934.00" y2="342.28" stroke="#1e222d" stroke-width="1.00"/>"
<text x="936.00" y="342.28" fill="#b2b5be" font-family="sans-serif" font-size="11.0" text-anchor="start" dominant-baseline="central">115</text>
<line x1="930.00" y1="314.01" x2="934.00" y2="314.01" stroke="#1e222d" stroke-width="1.00"/>"
<text x="936.00" y="314.01" fill="#b2b5be" font-family="sans-serif" font-size="11.0" text-anchor="start" dominant-baseline="central">120</text>
<line x1="930.00" y1="285.74" x2="934.00" y2="285.74" stroke="#1e222d" stroke-width="1.00"/>"
<text x="936.00" y="285.74" fill="#b2b5be" font-family="sans-serif" font-size="11.0" text-anchor="start" dominant-baseline="central">125</text>
<line x1="930.00" y1="257.47" x2="934.00" y2="257.47" stroke="#1e222d" stroke-width="1.00"/>"
<text x="936.00" y="257.47" fill="#b2b5be" font-family="sans-serif" font-size="11.0" text-anchor="start" dominant-baseline="central">130</text>
<line x1="930.00" y1="229.20" x2="934.00" y2="229.20" stroke="#1e222d" stroke-width="1.00"/>"
<text x="936.00" y="229.20" fill="#b2b5be" font-family="sans-serif" font-size="11.0" text-anchor="start" dominant-baseline="central">135</text>
<line x1="930.00" y1="200.93" x2="934.00" y2="200.93" stroke="#1e222d" stroke-width="1.00"/>"
<text x="936.00" y="200.93" fill="#b2b5be" font-family="sans-serif" font-size="11.0" text-anchor="start" dominant-baseline="central">140</text>
<line x1="930.00" y1="172.65" x2="934.00" y2="172.65" stroke="#1e222d" stroke-width="1.00"/>"
<text x="936.00" y="172.65" fill="#b2b5be" font-family="sans-serif" font-size="11.0" text-anchor="start" dominant-baseline="central">145</text>
<line x1="930.00" y1="144.38" x2="934.00" y2="144.38" stroke="#1e222d" stroke-width="1.00"/>"
<text x="936.00" y="144.38" fill="#b2b5be" font-family="sans-serif" font-size="11.0" text-anchor="start" dominant-baseline="central">150</text>
<line x1="930.00" y1="116.11" x2="934.00" y2="116.11" stroke="#1e222d" stroke-width="1.00"/>"
<text x="936.00" y="116.11" fill="#b2b5be" font-family="sans-serif" font-size="11.0" text-anchor="start" dominant-baseline="central">155</text>
<line x1="930.00" y1="87.84" x2="934.00" y2="87.84" stroke="#1e222d" stroke-width="1.00"/>"
<text x="936.00" y="87.84" fill="#b2b5be" font-family="sans-serif" font-size="11.0" text-anchor="start" dominant-baseline="central">160</text>
<line x1="930.00" y1="59.57" x2="934.00" y2="59.57" stroke="#1e222d" stroke-width="1.00"/>"
<text x="936.00" y="59.57" fill="#b2b5be" font-family="sans-serif" font-size="11.0" text-anchor="start" dominant-baseline="central">165</text>
<line x1="930.00" y1="31.30" x2="934.00" y2="31.30" stroke="#1e222d" stroke-width="1.00"/>"
<text x="936.00" y="31.30" fill="#b2b5be" font-family="sans-serif" font-size="11.0" text-anchor="start" dominant-baseline="central">170</text>
<line x1="930.00" y1="3.03" x2="934.00" y2="3.03" stroke="#1e222d" stroke-width="1.00"/>"
<text x="936.00" y="3.03" fill="#b2b5be" font-family="sans-serif" font-size="11.0" text-anchor="start" dominant-baseline="central">175</text>
<rect x="0.00" y="470.00" width="1000.00" height="30.00" fill="#131722"/>"
<line x1="0.00" y1="470.00" x2="930.00" y2="470.00" stroke="#1e222d" stroke-width="1.00"/>"
<line x1="62.78" y1="470.00" x2="62.78" y2="474.00" stroke="#1e222d" stroke-width="1.00"/>"
<text x="62.78" y="476.00" fill="#b2b5be" font-family="sans-serif" font-size="10.0" text-anchor="middle" dominant-baseline="hanging">Dec</text>
<line x1="123.23" y1="470.00" x2="123.23" y2="474.00" stroke="#1e222d" stroke-width="1.00"/>"
<text x="123.23" y="476.00" fill="#b2b5be" font-family="sans-serif" font-size="10.0" text-anchor="middle" dominant-baseline="hanging">27 Dec</text>
<line x1="183.68" y1="470.00" x2="183.68" y2="474.00" stroke="#1e222d" stroke-width="1.00"/>"
<text x="183.68" y="476.00" fill="#b2b5be" font-family="sans-serif" font-size="10.0" text-anchor="middle" dominant-baseline="hanging">2024</text>
<line x1="244.13" y1="470.00" x2="244.13" y2="474.00" stroke="#1e222d" stroke-width="1.00"/>"
<text x="244.13" y="476.00" fill="#b2b5be" font-family="sans-serif" font-size="10.0" text-anchor="middle" dominant-baseline="hanging">18 Jan</text>
<line x1="304.58" y1="470.00" x2="304.58" y2="474.00" stroke="#1e222d" stroke-width="1.00"/>"
<text x="304.58" y="476.00" fill="#b2b5be" font-family="sans-serif" font-size="10.0" text-anchor="middle" dominant-baseline="hanging">Feb</text>
<line x1="365.03" y1="470.00" x2="365.03" y2="474.00" stroke="#1e222d" stroke-width="1.00"/>"
<text x="365.03" y="476.00" fill="#b2b5be" font-family="sans-serif" font-size="10.0" text-anchor="middle" dominant-baseline="hanging">14 Feb</text>
<line x1="425.48" y1="470.00" x2="425.48" y2="474.00" stroke="#1e222d" stroke-width="1.00"/>"
<text x="425.48" y="476.00" fill="#b2b5be" font-family="sans-serif" font-size="10.0" text-anchor="middle" dominant-baseline="hanging">27 Feb</text>
<line x1="485.93" y1="470.00" x2="485.93" y2="474.00" stroke="#1e222d" stroke-width="1.00"/>"
<text x="485.93" y="476.00" fill="#b2b5be" font-family="sans-serif" font-size="10.0" text-anchor="middle" dominant-baseline="hanging">Mar</text>
<line x1="546.38" y1="470.00" x2="546.38" y2="474.00" stroke="#1e222d" stroke-width="1.00"/>"
<text x="546.38" y="476.00" fill="#b2b5be" font-family="sans-serif" font-size="10.0" text-anchor="middle" dominant-baseline="hanging">23 Mar</text>
<line x1="606.83" y1="470.00" x2="606.83" y2="474.00" stroke="#1e222d" stroke-width="1.00"/>"
<text x="606.83" y="476.00" fill="#b2b5be" font-family="sans-serif" font-size="10.0" text-anchor="middle" dominant-baseline="hanging">Apr</text>
<line x1="667.28" y1="470.00" x2="667.28" y2="474.00" stroke="#1e222d" stroke-width="1.00"/>"
<text x="667.28" y="476.00" fill="#b2b5be" font-family="sans-serif" font-size="10.0" text-anchor="middle" dominant-baseline="hanging">19 Apr</text>
<line x1="727.73" y1="470.00" x2="727.73" y2="474.00" stroke="#1e222d" stroke-width="1.00"/>"
<text x="727.73" y="476.00" fill="#b2b5be" font-family="sans-serif" font-size="10.0" text-anchor="middle" dominant-baseline="hanging">May</text>
<line x1="788.18" y1="470.00" x2="788.18" y2="474.00" stroke="#1e222d" stroke-width="1.00"/>"
<text x="788.18" y="476.00" fill="#b2b5be" font-family="sans-serif" font-size="10.0" text-anchor="middle" dominant-baseline="hanging">15 May</text>
<line x1="848.63" y1="470.00" x2="848.63" y2="474.00" stroke="#1e222d" stroke-width="1.00"/>"
<text x="848.63" y="476.00" fill="#b2b5be" font-family="sans-serif" font-size="10.0" text-anchor="middle" dominant-baseline="hanging">28 May</text>
</svg>
