<?xml version="1.0" encoding="UTF-8"?>
<svg xmlns="http://www.w3.org/2000/svg"
     xmlns:xlink="http://www.w3.org/1999/xlink"
     width="1200" height="700" viewBox="0 0 1200 700">
<defs>

</defs>
<rect x="0" y="0" width="1200" height="700" fill="#131722"/>
<line x1="2.50" y1="501.50" x2="2.50" y2="521.50" stroke="#ef5350" stroke-width="1.00"/>"
<rect x="0.00" y="512.00" width="5.00" height="5.00" fill="#ef5350"/>"
<line x1="8.50" y1="502.50" x2="8.50" y2="536.50" stroke="#26a69a" stroke-width="1.00"/>"
<rect x="5.00" y="512.00" width="5.00" height="8.00" fill="#26a69a"/>"
<line x1="14.50" y1="503.50" x2="14.50" y2="524.50" stroke="#ef5350" stroke-width="1.00"/>"
<rect x="11.00" y="515.00" width="5.00" height="5.00" fill="#ef5350"/>"
<line x1="19.50" y1="503.50" x2="19.50" y2="538.50" stroke="#26a69a" stroke-width="1.00"/>"
<rect x="17.00" y="515.00" width="5.00" height="8.00" fill="#26a69a"/>"
<line x1="25.50" y1="502.50" x2="25.50" y2="525.50" stroke="#ef5350" stroke-width="1.00"/>"
<rect x="22.00" y="513.00" width="5.00" height="6.00" fill="#ef5350"/>"
<line x1="31.50" y1="501.50" x2="31.50" y2="537.50" stroke="#26a69a" stroke-width="1.00"/>"
<rect x="28.00" y="514.00" width="5.00" height="9.00" fill="#26a69a"/>"
<line x1="36.50" y1="498.50" x2="36.50" y2="522.50" stroke="#ef5350" stroke-width="1.00"/>"
<rect x="34.00" y="509.00" width="5.00" height="6.00" fill="#ef5350"/>"
<line x1="42.50" y1="495.50" x2="42.50" y2="533.50" stroke="#26a69a" stroke-width="1.00"/>"
<rect x="39.00" y="511.00" width="5.00" height="9.00" fill="#26a69a"/>"
<line x1="48.50" y1="492.50" x2="48.50" y2="516.50" stroke="#ef5350" stroke-width="1.00"/>"
<rect x="45.00" y="502.00" width="5.00" height="6.00" fill="#ef5350"/>"
<line x1="53.50" y1="487.50" x2="53.50" y2="525.50" stroke="#26a69a" stroke-width="1.00"/>"
<rect x="51.00" y="504.00" width="5.00" height="17.00" fill="#26a69a"/>"
<line x1="59.50" y1="482.50" x2="59.50" y2="507.50" stroke="#ef5350" stroke-width="1.00"/>"
<rect x="56.00" y="487.00" width="5.00" height="10.00" fill="#ef5350"/>"
<line x1="64.50" y1="475.50" x2="64.50" y2="515.50" stroke="#26a69a" stroke-width="1.00"/>"
<rect x="62.00" y="495.00" width="5.00" height="14.00" fill="#26a69a"/>"
<line x1="70.50" y1="469.50" x2="70.50" y2="495.50" stroke="#ef5350" stroke-width="1.00"/>"
<rect x="68.00" y="475.00" width="5.00" height="9.00" fill="#ef5350"/>"
<line x1="76.50" y1="474.50" x2="76.50" y2="488.50" stroke="#26a69a" stroke-width="1.00"/>"
<rect x="73.00" y="482.00" width="5.00" height="4.00" fill="#26a69a"/>"
<line x1="81.50" y1="453.50" x2="81.50" y2="480.50" stroke="#ef5350" stroke-width="1.00"/>"
<rect x="79.00" y="461.00" width="5.00" height="6.00" fill="#ef5350"/>"
<line x1="87.50" y1="457.50" x2="87.50" y2="472.50" stroke="#26a69a" stroke-width="1.00"/>"
<rect x="85.00" y="466.00" width="5.00" height="3.00" fill="#26a69a"/>"
<line x1="93.50" y1="434.50" x2="93.50" y2="463.50" stroke="#ef5350" stroke-width="1.00"/>"
<rect x="90.00" y="443.00" width="5.00" height="5.00" fill="#ef5350"/>"
<line x1="98.50" y1="437.50" x2="98.50" y2="453.50" stroke="#26a69a" stroke-width="1.00"/>"
<rect x="96.00" y="446.00" width="5.00" height="2.00" fill="#26a69a"/>"
<line x1="104.50" y1="439.50" x2="104.50" y2="469.50" stroke="#ef5350" stroke-width="1.00"/>"
<rect x="102.00" y="450.00" width="5.00" height="2.00" fill="#ef5350"/>"
<line x1="110.50" y1="440.50" x2="110.50" y2="457.50" stroke="#26a69a" stroke-width="1.00"/>"
<rect x="107.00" y="451.00" width="5.00" height="1.00" fill="#26a69a"/>"
<line x1="115.50" y1="441.50" x2="115.50" y2="472.50" stroke="#26a69a" stroke-width="1.00"/>"
<rect x="113.00" y="446.00" width="5.00" height="8.00" fill="#26a69a"/>"
<line x1="121.50" y1="441.50" x2="121.50" y2="459.50" stroke="#ef5350" stroke-width="1.00"/>"
<rect x="118.00" y="453.00" width="5.00" height="4.00" fill="#ef5350"/>"
<line x1="127.50" y1="440.50" x2="127.50" y2="472.50" stroke="#26a69a" stroke-width="1.00"/>"
<rect x="124.00" y="447.00" width="5.00" height="8.00" fill="#26a69a"/>"
<line x1="132.50" y1="439.50" x2="132.50" y2="458.50" stroke="#ef5350" stroke-width="1.00"/>"
<rect x="130.00" y="450.00" width="5.00" height="5.00" fill="#ef5350"/>"
<line x1="138.50" y1="436.50" x2="138.50" y2="470.50" stroke="#26a69a" stroke-width="1.00"/>"
<rect x="135.00" y="445.00" width="5.00" height="8.00" fill="#26a69a"/>"
<line x1="144.50" y1="434.50" x2="144.50" y2="454.50" stroke="#ef5350" stroke-width="1.00"/>"
<rect x="141.00" y="445.00" width="5.00" height="5.00" fill="#ef5350"/>"
<line x1="149.50" y1="430.50" x2="149.50" y2="464.50" stroke="#26a69a" stroke-width="1.00"/>"
<rect x="147.00" y="440.00" width="5.00" height="9.00" fill="#26a69a"/>"
<line x1="155.50" y1="426.50" x2="155.50" y2="447.50" stroke="#ef5350" stroke-width="1.00"/>"
<rect x="152.00" y="437.00" width="5.00" height="5.00" fill="#ef5350"/>"
<line x1="161.50" y1="421.50" x2="161.50" y2="456.50" stroke="#26a69a" stroke-width="1.00"/>"
<rect x="158.00" y="433.00" width="5.00" height="8.00" fill="#26a69a"/>"
<line x1="166.50" y1="415.50" x2="166.50" y2="438.50" stroke="#ef5350" stroke-width="1.00"/>"
<rect x="164.00" y="426.00" width="5.00" height="5.00" fill="#ef5350"/>"
<line x1="172.50" y1="409.50" x2="172.50" y2="445.50" stroke="#26a69a" stroke-width="1.00"/>"
<rect x="169.00" y="423.00" width="5.00" height="9.00" fill="#26a69a"/>"
<line x1="177.50" y1="402.50" x2="177.50" y2="425.50" stroke="#ef5350" stroke-width="1.00"/>"
<rect x="175.00" y="412.00" width="5.00" height="6.00" fill="#ef5350"/>"
<line x1="183.50" y1="394.50" x2="183.50" y2="432.50" stroke="#26a69a" stroke-width="1.00"/>"
<rect x="181.00" y="410.00" width="5.00" height="9.00" fill="#26a69a"/>"
<line x1="189.50" y1="386.50" x2="189.50" y2="411.50" stroke="#ef5350" stroke-width="1.00"/>"
<rect x="186.00" y="390.00" width="5.00" height="12.00" fill="#ef5350"/>"
<line x1="194.50" y1="377.50" x2="194.50" y2="416.50" stroke="#26a69a" stroke-width="1.00"/>"
<rect x="192.00" y="395.00" width="5.00" height="16.00" fill="#26a69a"/>"
<line x1="200.50" y1="367.50" x2="200.50" y2="393.50" stroke="#ef5350" stroke-width="1.00"/>"
<rect x="198.00" y="373.00" width="5.00" height="10.00" fill="#ef5350"/>"
<line x1="206.50" y1="357.50" x2="206.50" y2="397.50" stroke="#26a69a" stroke-width="1.00"/>"
<rect x="203.00" y="377.00" width="5.00" height="13.00" fill="#26a69a"/>"
<line x1="211.50" y1="346.50" x2="211.50" y2="373.50" stroke="#ef5350" stroke-width="1.00"/>"
<rect x="209.00" y="353.00" width="5.00" height="8.00" fill="#ef5350"/>"
<line x1="217.50" y1="348.50" x2="217.50" y2="362.50" stroke="#26a69a" stroke-width="1.00"/>"
<rect x="215.00" y="355.00" width="5.00" height="4.00" fill="#26a69a"/>"
<line x1="223.50" y1="322.50" x2="223.50" y2="350.50" stroke="#ef5350" stroke-width="1.00"/>"
<rect x="220.00" y="331.00" width="5.00" height="6.00" fill="#ef5350"/>"
<line x1="228.50" y1="323.50" x2="228.50" y2="338.50" stroke="#26a69a" stroke-width="1.00"/>"
<rect x="226.00" y="332.00" width="5.00" height="2.00" fill="#26a69a"/>"
<line x1="234.50" y1="296.50" x2="234.50" y2="325.50" stroke="#ef5350" stroke-width="1.00"/>"
<rect x="231.00" y="306.00" width="5.00" height="4.00" fill="#ef5350"/>"
<line x1="240.50" y1="295.50" x2="240.50" y2="311.50" stroke="#26a69a" stroke-width="1.00"/>"
<rect x="237.00" y="305.00" width="5.00" height="2.00" fill="#26a69a"/>"
<line x1="245.50" y1="294.50" x2="245.50" y2="324.50" stroke="#ef5350" stroke-width="1.00"/>"
<rect x="243.00" y="306.00" width="5.00" height="1.00" fill="#ef5350"/>"
<line x1="251.50" y1="292.50" x2="251.50" y2="309.50" stroke="#26a69a" stroke-width="1.00"/>"
<rect x="248.00" y="304.00" width="5.00" height="1.00" fill="#26a69a"/>"
<line x1="257.50" y1="290.50" x2="257.50" y2="321.50" stroke="#26a69a" stroke-width="1.00"/>"
<rect x="254.00" y="296.00" width="5.00" height="7.00" fill="#26a69a"/>"
<line x1="262.50" y1="287.50" x2="262.50" y2="305.50" stroke="#ef5350" stroke-width="1.00"/>"
<rect x="260.00" y="298.00" width="5.00" height="5.00" fill="#ef5350"/>"
<line x1="268.50" y1="283.50" x2="268.50" y2="316.50" stroke="#26a69a" stroke-width="1.00"/>"
<rect x="265.00" y="291.00" width="5.00" height="7.00" fill="#26a69a"/>"
<line x1="274.50" y1="279.50" x2="274.50" y2="299.50" stroke="#ef5350" stroke-width="1.00"/>"
<rect x="271.00" y="291.00" width="5.00" height="4.00" fill="#ef5350"/>"
<line x1="279.50" y1="274.50" x2="279.50" y2="308.50" stroke="#26a69a" stroke-width="1.00"/>"
<rect x="277.00" y="284.00" width="5.00" height="8.00" fill="#26a69a"/>"
<line x1="285.50" y1="269.50" x2="285.50" y2="290.50" stroke="#ef5350" stroke-width="1.00"/>"
<rect x="282.00" y="281.00" width="5.00" height="4.00" fill="#ef5350"/>"
<line x1="290.50" y1="263.50" x2="290.50" y2="298.50" stroke="#26a69a" stroke-width="1.00"/>"
<rect x="288.00" y="274.00" width="5.00" height="9.00" fill="#26a69a"/>"
<line x1="296.50" y1="257.50" x2="296.50" y2="279.50" stroke="#ef5350" stroke-width="1.00"/>"
<rect x="294.00" y="268.00" width="5.00" height="5.00" fill="#ef5350"/>"
<line x1="302.50" y1="250.50" x2="302.50" y2="286.50" stroke="#26a69a" stroke-width="1.00"/>"
<rect x="299.00" y="263.00" width="5.00" height="8.00" fill="#26a69a"/>"
<line x1="307.50" y1="243.50" x2="307.50" y2="266.50" stroke="#ef5350" stroke-width="1.00"/>"
<rect x="305.00" y="253.00" width="5.00" height="6.00" fill="#ef5350"/>"
<line x1="313.50" y1="235.50" x2="313.50" y2="272.50" stroke="#26a69a" stroke-width="1.00"/>"
<rect x="311.00" y="249.00" width="5.00" height="9.00" fill="#26a69a"/>"
<line x1="319.50" y1="226.50" x2="319.50" y2="250.50" stroke="#ef5350" stroke-width="1.00"/>"
<rect x="316.00" y="237.00" width="5.00" height="5.00" fill="#ef5350"/>"
<line x1="324.50" y1="217.50" x2="324.50" y2="255.50" stroke="#26a69a" stroke-width="1.00"/>"
<rect x="322.00" y="234.00" width="5.00" height="18.00" fill="#26a69a"/>"
<line x1="330.50" y1="208.50" x2="330.50" y2="233.50" stroke="#ef5350" stroke-width="1.00"/>"
<rect x="328.00" y="213.00" width="5.00" height="11.00" fill="#ef5350"/>"
<line x1="336.50" y1="198.50" x2="336.50" y2="237.50" stroke="#26a69a" stroke-width="1.00"/>"
<rect x="333.00" y="217.00" width="5.00" height="15.00" fill="#26a69a"/>"
<line x1="341.50" y1="187.50" x2="341.50" y2="214.50" stroke="#ef5350" stroke-width="1.00"/>"
<rect x="339.00" y="194.00" width="5.00" height="9.00" fill="#ef5350"/>"
<line x1="347.50" y1="176.50" x2="347.50" y2="217.50" stroke="#26a69a" stroke-width="1.00"/>"
<rect x="344.00" y="197.00" width="5.00" height="13.00" fill="#26a69a"/>"
<line x1="353.50" y1="165.50" x2="353.50" y2="192.50" stroke="#ef5350" stroke-width="1.00"/>"
<rect x="350.00" y="173.00" width="5.00" height="7.00" fill="#ef5350"/>"
<line x1="358.50" y1="166.50" x2="358.50" y2="181.50" stroke="#26a69a" stroke-width="1.00"/>"
<rect x="356.00" y="175.00" width="5.00" height="3.00" fill="#26a69a"/>"
<line x1="364.50" y1="141.50" x2="364.50" y2="169.50" stroke="#ef5350" stroke-width="1.00"/>"
<rect x="361.00" y="150.00" width="5.00" height="5.00" fill="#ef5350"/>"
<line x1="370.50" y1="141.50" x2="370.50" y2="157.50" stroke="#26a69a" stroke-width="1.00"/>"
<rect x="367.00" y="151.00" width="5.00" height="2.00" fill="#26a69a"/>"
<line x1="375.50" y1="141.50" x2="375.50" y2="171.50" stroke="#ef5350" stroke-width="1.00"/>"
<rect x="373.00" y="152.00" width="5.00" height="3.00" fill="#ef5350"/>"
<line x1="381.50" y1="141.50" x2="381.50" y2="158.50" stroke="#26a69a" stroke-width="1.00"/>"
<rect x="378.00" y="152.00" width="5.00" height="1.00" fill="#26a69a"/>"
<line x1="387.50" y1="140.50" x2="387.50" y2="171.50" stroke="#ef5350" stroke-width="1.00"/>"
<rect x="384.00" y="153.00" width="5.00" height="1.00" fill="#ef5350"/>"
<line x1="392.50" y1="139.50" x2="392.50" y2="157.50" stroke="#ef5350" stroke-width="1.00"/>"
<rect x="390.00" y="151.00" width="5.00" height="4.00" fill="#ef5350"/>"
<line x1="398.50" y1="138.50" x2="398.50" y2="170.50" stroke="#26a69a" stroke-width="1.00"/>"
<rect x="395.00" y="144.00" width="5.00" height="8.00" fill="#26a69a"/>"
<line x1="403.50" y1="136.50" x2="403.50" y2="155.50" stroke="#ef5350" stroke-width="1.00"/>"
<rect x="401.00" y="148.00" width="5.00" height="4.00" fill="#ef5350"/>"
<line x1="409.50" y1="133.50" x2="409.50" y2="166.50" stroke="#26a69a" stroke-width="1.00"/>"
<rect x="407.00" y="141.00" width="5.00" height="8.00" fill="#26a69a"/>"
<line x1="415.50" y1="130.50" x2="415.50" y2="151.50" stroke="#ef5350" stroke-width="1.00"/>"
<rect x="412.00" y="142.00" width="5.00" height="5.00" fill="#ef5350"/>"
<line x1="420.50" y1="127.50" x2="420.50" y2="161.50" stroke="#26a69a" stroke-width="1.00"/>"
<rect x="418.00" y="137.00" width="5.00" height="8.00" fill="#26a69a"/>"
<line x1="426.50" y1="124.50" x2="426.50" y2="145.50" stroke="#ef5350" stroke-width="1.00"/>"
<rect x="424.00" y="135.00" width="5.00" height="5.00" fill="#ef5350"/>"
<line x1="432.50" y1="119.50" x2="432.50" y2="155.50" stroke="#26a69a" stroke-width="1.00"/>"
<rect x="429.00" y="131.00" width="5.00" height="8.00" fill="#26a69a"/>"
<line x1="437.50" y1="115.50" x2="437.50" y2="137.50" stroke="#ef5350" stroke-width="1.00"/>"
<rect x="435.00" y="126.00" width="5.00" height="5.00" fill="#ef5350"/>"
<line x1="443.50" y1="110.50" x2="443.50" y2="146.50" stroke="#26a69a" stroke-width="1.00"/>"
<rect x="441.00" y="124.00" width="5.00" height="8.00" fill="#26a69a"/>"
<line x1="449.50" y1="105.50" x2="449.50" y2="128.50" stroke="#ef5350" stroke-width="1.00"/>"
<rect x="446.00" y="116.00" width="5.00" height="5.00" fill="#ef5350"/>"
<line x1="454.50" y1="99.50" x2="454.50" y2="137.50" stroke="#26a69a" stroke-width="1.00"/>"
<rect x="452.00" y="115.00" width="5.00" height="9.00" fill="#26a69a"/>"
<line x1="460.50" y1="93.50" x2="460.50" y2="118.50" stroke="#ef5350" stroke-width="1.00"/>"
<rect x="457.00" y="103.00" width="5.00" height="6.00" fill="#ef5350"/>"
<line x1="466.50" y1="87.50" x2="466.50" y2="125.50" stroke="#26a69a" stroke-width="1.00"/>"
<rect x="463.00" y="104.00" width="5.00" height="17.00" fill="#26a69a"/>"
<line x1="471.50" y1="80.50" x2="471.50" y2="106.50" stroke="#ef5350" stroke-width="1.00"/>"
<rect x="469.00" y="85.00" width="5.00" height="11.00" fill="#ef5350"/>"
<line x1="477.50" y1="73.50" x2="477.50" y2="113.50" stroke="#26a69a" stroke-width="1.00"/>"
<rect x="474.00" y="92.00" width="5.00" height="15.00" fill="#26a69a"/>"
<line x1="483.50" y1="65.50" x2="483.50" y2="92.50" stroke="#ef5350" stroke-width="1.00"/>"
<rect x="480.00" y="72.00" width="5.00" height="9.00" fill="#ef5350"/>"
<line x1="488.50" y1="71.50" x2="488.50" y2="85.50" stroke="#26a69a" stroke-width="1.00"/>"
<rect x="486.00" y="78.00" width="5.00" height="4.00" fill="#26a69a"/>"
<line x1="494.50" y1="49.50" x2="494.50" y2="77.50" stroke="#ef5350" stroke-width="1.00"/>"
<rect x="491.00" y="57.00" width="5.00" height="7.00" fill="#ef5350"/>"
<line x1="500.50" y1="54.50" x2="500.50" y2="69.50" stroke="#26a69a" stroke-width="1.00"/>"
<rect x="497.00" y="63.00" width="5.00" height="3.00" fill="#26a69a"/>"
<line x1="505.50" y1="32.50" x2="505.50" y2="61.50" stroke="#ef5350" stroke-width="1.00"/>"
<rect x="503.00" y="41.00" width="5.00" height="5.00" fill="#ef5350"/>"
<line x1="511.50" y1="36.50" x2="511.50" y2="52.50" stroke="#26a69a" stroke-width="1.00"/>"
<rect x="508.00" y="46.00" width="5.00" height="2.00" fill="#26a69a"/>"
<line x1="516.50" y1="40.50" x2="516.50" y2="70.50" stroke="#ef5350" stroke-width="1.00"/>"
<rect x="514.00" y="51.00" width="5.00" height="2.00" fill="#ef5350"/>"
<line x1="522.50" y1="43.50" x2="522.50" y2="60.50" stroke="#26a69a" stroke-width="1.00"/>"
<rect x="520.00" y="54.00" width="5.00" height="1.00" fill="#26a69a"/>"
<line x1="528.50" y1="46.50" x2="528.50" y2="77.50" stroke="#26a69a" stroke-width="1.00"/>"
<rect x="525.00" y="52.00" width="5.00" height="7.00" fill="#26a69a"/>"
<line x1="533.50" y1="49.50" x2="533.50" y2="67.50" stroke="#ef5350" stroke-width="1.00"/>"
<rect x="531.00" y="61.00" width="5.00" height="4.00" fill="#ef5350"/>"
<line x1="539.50" y1="51.50" x2="539.50" y2="84.50" stroke="#26a69a" stroke-width="1.00"/>"
<rect x="537.00" y="59.00" width="5.00" height="7.00" fill="#26a69a"/>"
<line x1="545.50" y1="53.50" x2="545.50" y2="73.50" stroke="#ef5350" stroke-width="1.00"/>"
<rect x="542.00" y="65.00" width="5.00" height="5.00" fill="#ef5350"/>"
<line x1="550.50" y1="55.50" x2="550.50" y2="89.50" stroke="#26a69a" stroke-width="1.00"/>"
<rect x="548.00" y="64.00" width="5.00" height="8.00" fill="#26a69a"/>"
<line x1="556.50" y1="57.50" x2="556.50" y2="77.50" stroke="#ef5350" stroke-width="1.00"/>"
<rect x="554.00" y="68.00" width="5.00" height="5.00" fill="#ef5350"/>"
<line x1="562.50" y1="58.50" x2="562.50" y2="92.50" stroke="#26a69a" stroke-width="1.00"/>"
<rect x="559.00" y="68.00" width="5.00" height="8.00" fill="#26a69a"/>"
<line x1="567.50" y1="58.50" x2="567.50" y2="80.50" stroke="#ef5350" stroke-width="1.00"/>"
<rect x="565.00" y="70.00" width="5.00" height="5.00" fill="#ef5350"/>"
<line x1="573.50" y1="59.50" x2="573.50" y2="94.50" stroke="#26a69a" stroke-width="1.00"/>"
<rect x="570.00" y="71.00" width="5.00" height="8.00" fill="#26a69a"/>"
<line x1="579.50" y1="59.50" x2="579.50" y2="81.50" stroke="#ef5350" stroke-width="1.00"/>"
<rect x="576.00" y="70.00" width="5.00" height="5.00" fill="#ef5350"/>"
<line x1="584.50" y1="58.50" x2="584.50" y2="95.50" stroke="#26a69a" stroke-width="1.00"/>"
<rect x="582.00" y="73.00" width="5.00" height="8.00" fill="#26a69a"/>"
<line x1="590.50" y1="58.50" x2="590.50" y2="81.50" stroke="#ef5350" stroke-width="1.00"/>"
<rect x="587.00" y="68.00" width="5.00" height="6.00" fill="#ef5350"/>"
<line x1="596.50" y1="57.50" x2="596.50" y2="94.50" stroke="#26a69a" stroke-width="1.00"/>"
<rect x="593.00" y="73.00" width="5.00" height="9.00" fill="#26a69a"/>"
<line x1="601.50" y1="55.50" x2="601.50" y2="80.50" stroke="#ef5350" stroke-width="1.00"/>"
<rect x="599.00" y="60.00" width="5.00" height="11.00" fill="#ef5350"/>"
<line x1="607.50" y1="54.50" x2="607.50" y2="92.50" stroke="#26a69a" stroke-width="1.00"/>"
<rect x="604.00" y="72.00" width="5.00" height="16.00" fill="#26a69a"/>"
<line x1="613.50" y1="51.50" x2="613.50" y2="77.50" stroke="#ef5350" stroke-width="1.00"/>"
<rect x="610.00" y="57.00" width="5.00" height="10.00" fill="#ef5350"/>"
<line x1="618.50" y1="49.50" x2="618.50" y2="89.50" stroke="#26a69a" stroke-width="1.00"/>"
<rect x="616.00" y="69.00" width="5.00" height="14.00" fill="#26a69a"/>"
<line x1="624.50" y1="46.50" x2="624.50" y2="73.50" stroke="#ef5350" stroke-width="1.00"/>"
<rect x="621.00" y="54.00" width="5.00" height="7.00" fill="#ef5350"/>"
<line x1="629.50" y1="57.50" x2="629.50" y2="71.50" stroke="#26a69a" stroke-width="1.00"/>"
<rect x="627.00" y="64.00" width="5.00" height="4.00" fill="#26a69a"/>"
<line x1="635.50" y1="40.50" x2="635.50" y2="68.50" stroke="#ef5350" stroke-width="1.00"/>"
<rect x="633.00" y="48.00" width="5.00" height="6.00" fill="#ef5350"/>"
<line x1="641.50" y1="49.50" x2="641.50" y2="65.50" stroke="#26a69a" stroke-width="1.00"/>"
<rect x="638.00" y="58.00" width="5.00" height="3.00" fill="#26a69a"/>"
<line x1="646.50" y1="59.50" x2="646.50" y2="88.50" stroke="#ef5350" stroke-width="1.00"/>"
<rect x="644.00" y="69.00" width="5.00" height="3.00" fill="#ef5350"/>"
<line x1="652.50" y1="67.50" x2="652.50" y2="84.50" stroke="#26a69a" stroke-width="1.00"/>"
<rect x="650.00" y="78.00" width="5.00" height="1.00" fill="#26a69a"/>"
<line x1="658.50" y1="76.50" x2="658.50" y2="106.50" stroke="#ef5350" stroke-width="1.00"/>"
<rect x="655.00" y="88.00" width="5.00" height="1.00" fill="#ef5350"/>"
<line x1="663.50" y1="84.50" x2="663.50" y2="102.50" stroke="#ef5350" stroke-width="1.00"/>"
<rect x="661.00" y="96.00" width="5.00" height="4.00" fill="#ef5350"/>"
<line x1="669.50" y1="92.50" x2="669.50" y2="124.50" stroke="#26a69a" stroke-width="1.00"/>"
<rect x="667.00" y="98.00" width="5.00" height="8.00" fill="#26a69a"/>"
<line x1="675.50" y1="99.50" x2="675.50" y2="118.50" stroke="#ef5350" stroke-width="1.00"/>"
<rect x="672.00" y="111.00" width="5.00" height="5.00" fill="#ef5350"/>"
<line x1="680.50" y1="106.50" x2="680.50" y2="139.50" stroke="#26a69a" stroke-width="1.00"/>"
<rect x="678.00" y="114.00" width="5.00" height="8.00" fill="#26a69a"/>"
<line x1="686.50" y1="113.50" x2="686.50" y2="133.50" stroke="#ef5350" stroke-width="1.00"/>"
<rect x="683.00" y="125.00" width="5.00" height="4.00" fill="#ef5350"/>"
<line x1="692.50" y1="119.50" x2="692.50" y2="153.50" stroke="#26a69a" stroke-width="1.00"/>"
<rect x="689.00" y="129.00" width="5.00" height="8.00" fill="#26a69a"/>"
<line x1="697.50" y1="125.50" x2="697.50" y2="146.50" stroke="#ef5350" stroke-width="1.00"/>"
<rect x="695.00" y="137.00" width="5.00" height="5.00" fill="#ef5350"/>"
<line x1="703.50" y1="131.50" x2="703.50" y2="166.50" stroke="#26a69a" stroke-width="1.00"/>"
<rect x="700.00" y="142.00" width="5.00" height="8.00" fill="#26a69a"/>"
<line x1="709.50" y1="136.50" x2="709.50" y2="158.50" stroke="#ef5350" stroke-width="1.00"/>"
<rect x="706.00" y="147.00" width="5.00" height="5.00" fill="#ef5350"/>"
<line x1="714.50" y1="140.50" x2="714.50" y2="176.50" stroke="#26a69a" stroke-width="1.00"/>"
<rect x="712.00" y="153.00" width="5.00" height="9.00" fill="#26a69a"/>"
<line x1="720.50" y1="145.50" x2="720.50" y2="168.50" stroke="#ef5350" stroke-width="1.00"/>"
<rect x="717.00" y="155.00" width="5.00" height="6.00" fill="#ef5350"/>"
<line x1="726.50" y1="148.50" x2="726.50" y2="186.50" stroke="#26a69a" stroke-width="1.00"/>"
<rect x="723.00" y="163.00" width="5.00" height="9.00" fill="#26a69a"/>"
<line x1="731.50" y1="152.50" x2="731.50" y2="176.50" stroke="#ef5350" stroke-width="1.00"/>"
<rect x="729.00" y="162.00" width="5.00" height="6.00" fill="#ef5350"/>"
<line x1="737.50" y1="155.50" x2="737.50" y2="193.50" stroke="#26a69a" stroke-width="1.00"/>"
<rect x="734.00" y="172.00" width="5.00" height="17.00" fill="#26a69a"/>"
<line x1="742.50" y1="157.50" x2="742.50" y2="183.50" stroke="#ef5350" stroke-width="1.00"/>"
<rect x="740.00" y="162.00" width="5.00" height="11.00" fill="#ef5350"/>"
<line x1="748.50" y1="159.50" x2="748.50" y2="199.50" stroke="#26a69a" stroke-width="1.00"/>"
<rect x="746.00" y="178.00" width="5.00" height="16.00" fill="#26a69a"/>"
<line x1="754.50" y1="161.50" x2="754.50" y2="188.50" stroke="#ef5350" stroke-width="1.00"/>"
<rect x="751.00" y="168.00" width="5.00" height="9.00" fill="#ef5350"/>"
<line x1="759.50" y1="176.50" x2="759.50" y2="189.50" stroke="#26a69a" stroke-width="1.00"/>"
<rect x="757.00" y="183.00" width="5.00" height="4.00" fill="#26a69a"/>"
<line x1="765.50" y1="163.50" x2="765.50" y2="191.50" stroke="#ef5350" stroke-width="1.00"/>"
<rect x="763.00" y="171.00" width="5.00" height="7.00" fill="#ef5350"/>"
<line x1="771.50" y1="177.50" x2="771.50" y2="191.50" stroke="#26a69a" stroke-width="1.00"/>"
<rect x="768.00" y="185.00" width="5.00" height="3.00" fill="#26a69a"/>"
<line x1="776.50" y1="163.50" x2="776.50" y2="192.50" stroke="#ef5350" stroke-width="1.00"/>"
<rect x="774.00" y="173.00" width="5.00" height="5.00" fill="#ef5350"/>"
<line x1="782.50" y1="176.50" x2="782.50" y2="192.50" stroke="#26a69a" stroke-width="1.00"/>"
<rect x="780.00" y="186.00" width="5.00" height="2.00" fill="#26a69a"/>"
<line x1="788.50" y1="188.50" x2="788.50" y2="218.50" stroke="#ef5350" stroke-width="1.00"/>"
<rect x="785.00" y="199.00" width="5.00" height="3.00" fill="#ef5350"/>"
<line x1="793.50" y1="200.50" x2="793.50" y2="217.50" stroke="#26a69a" stroke-width="1.00"/>"
<rect x="791.00" y="211.00" width="5.00" height="1.00" fill="#26a69a"/>"
<line x1="799.50" y1="212.50" x2="799.50" y2="242.50" stroke="#ef5350" stroke-width="1.00"/>"
<rect x="796.00" y="224.00" width="5.00" height="1.00" fill="#ef5350"/>"
<line x1="805.50" y1="222.50" x2="805.50" y2="240.50" stroke="#ef5350" stroke-width="1.00"/>"
<rect x="802.00" y="234.00" width="5.00" height="5.00" fill="#ef5350"/>"
<line x1="810.50" y1="233.50" x2="810.50" y2="265.50" stroke="#26a69a" stroke-width="1.00"/>"
<rect x="808.00" y="240.00" width="5.00" height="7.00" fill="#26a69a"/>"
<line x1="816.50" y1="243.50" x2="816.50" y2="262.50" stroke="#ef5350" stroke-width="1.00"/>"
<rect x="813.00" y="254.00" width="5.00" height="5.00" fill="#ef5350"/>"
<line x1="822.50" y1="252.50" x2="822.50" y2="285.50" stroke="#26a69a" stroke-width="1.00"/>"
<rect x="819.00" y="260.00" width="5.00" height="8.00" fill="#26a69a"/>"
<line x1="827.50" y1="261.50" x2="827.50" y2="281.50" stroke="#ef5350" stroke-width="1.00"/>"
<rect x="825.00" y="272.00" width="5.00" height="5.00" fill="#ef5350"/>"
<line x1="833.50" y1="269.50" x2="833.50" y2="303.50" stroke="#26a69a" stroke-width="1.00"/>"
<rect x="830.00" y="279.00" width="5.00" height="8.00" fill="#26a69a"/>"
<line x1="839.50" y1="277.50" x2="839.50" y2="298.50" stroke="#ef5350" stroke-width="1.00"/>"
<rect x="836.00" y="288.00" width="5.00" height="5.00" fill="#ef5350"/>"
<line x1="844.50" y1="284.50" x2="844.50" y2="319.50" stroke="#26a69a" stroke-width="1.00"/>"
<rect x="842.00" y="296.00" width="5.00" height="8.00" fill="#26a69a"/>"
<line x1="850.50" y1="291.50" x2="850.50" y2="313.50" stroke="#ef5350" stroke-width="1.00"/>"
<rect x="847.00" y="302.00" width="5.00" height="5.00" fill="#ef5350"/>"
<line x1="855.50" y1="297.50" x2="855.50" y2="333.50" stroke="#26a69a" stroke-width="1.00"/>"
<rect x="853.00" y="310.00" width="5.00" height="9.00" fill="#26a69a"/>"
<line x1="861.50" y1="302.50" x2="861.50" y2="326.50" stroke="#ef5350" stroke-width="1.00"/>"
<rect x="859.00" y="313.00" width="5.00" height="6.00" fill="#ef5350"/>"
<line x1="867.50" y1="307.50" x2="867.50" y2="345.50" stroke="#26a69a" stroke-width="1.00"/>"
<rect x="864.00" y="323.00" width="5.00" height="9.00" fill="#26a69a"/>"
<line x1="872.50" y1="312.50" x2="872.50" y2="336.50" stroke="#ef5350" stroke-width="1.00"/>"
<rect x="870.00" y="316.00" width="5.00" height="12.00" fill="#ef5350"/>"
<line x1="878.50" y1="315.50" x2="878.50" y2="354.50" stroke="#26a69a" stroke-width="1.00"/>"
<rect x="876.00" y="333.00" width="5.00" height="17.00" fill="#26a69a"/>"
<line x1="884.50" y1="319.50" x2="884.50" y2="344.50" stroke="#ef5350" stroke-width="1.00"/>"
<rect x="881.00" y="324.00" width="5.00" height="10.00" fill="#ef5350"/>"
<line x1="889.50" y1="321.50" x2="889.50" y2="361.50" stroke="#26a69a" stroke-width="1.00"/>"
<rect x="887.00" y="341.00" width="5.00" height="14.00" fill="#26a69a"/>"
<line x1="895.50" y1="323.50" x2="895.50" y2="350.50" stroke="#ef5350" stroke-width="1.00"/>"
<rect x="893.00" y="330.00" width="5.00" height="8.00" fill="#ef5350"/>"
<line x1="901.50" y1="338.50" x2="901.50" y2="352.50" stroke="#26a69a" stroke-width="1.00"/>"
<rect x="898.00" y="346.00" width="5.00" height="3.00" fill="#26a69a"/>"
<line x1="906.50" y1="325.50" x2="906.50" y2="353.50" stroke="#ef5350" stroke-width="1.00"/>"
<rect x="904.00" y="334.00" width="5.00" height="6.00" fill="#ef5350"/>"
<line x1="912.50" y1="339.50" x2="912.50" y2="354.50" stroke="#26a69a" stroke-width="1.00"/>"
<rect x="909.00" y="348.00" width="5.00" height="2.00" fill="#26a69a"/>"
<line x1="918.50" y1="325.50" x2="918.50" y2="354.50" stroke="#ef5350" stroke-width="1.00"/>"
<rect x="915.00" y="335.00" width="5.00" height="4.00" fill="#ef5350"/>"
<line x1="923.50" y1="337.50" x2="923.50" y2="353.50" stroke="#26a69a" stroke-width="1.00"/>"
<rect x="921.00" y="347.00" width="5.00" height="2.00" fill="#26a69a"/>"
<line x1="929.50" y1="349.50" x2="929.50" y2="379.50" stroke="#ef5350" stroke-width="1.00"/>"
<rect x="926.00" y="360.00" width="5.00" height="2.00" fill="#ef5350"/>"
<line x1="935.50" y1="360.50" x2="935.50" y2="377.50" stroke="#26a69a" stroke-width="1.00"/>"
<rect x="932.00" y="371.00" width="5.00" height="1.00" fill="#26a69a"/>"
<line x1="940.50" y1="370.50" x2="940.50" y2="402.50" stroke="#26a69a" stroke-width="1.00"/>"
<rect x="938.00" y="376.00" width="5.00" height="8.00" fill="#26a69a"/>"
<line x1="946.50" y1="380.50" x2="946.50" y2="399.50" stroke="#ef5350" stroke-width="1.00"/>"
<rect x="943.00" y="392.00" width="5.00" height="4.00" fill="#ef5350"/>"
<line x1="952.50" y1="389.50" x2="952.50" y2="422.50" stroke="#26a69a" stroke-width="1.00"/>"
<rect x="949.00" y="397.00" width="5.00" height="7.00" fill="#26a69a"/>"
<line x1="957.50" y1="398.50" x2="957.50" y2="417.50" stroke="#ef5350" stroke-width="1.00"/>"
<rect x="955.00" y="409.00" width="5.00" height="5.00" fill="#ef5350"/>"
<line x1="963.50" y1="405.50" x2="963.50" y2="439.50" stroke="#26a69a" stroke-width="1.00"/>"
<rect x="960.00" y="414.00" width="5.00" height="8.00" fill="#26a69a"/>"
<line x1="968.50" y1="412.50" x2="968.50" y2="433.50" stroke="#ef5350" stroke-width="1.00"/>"
<rect x="966.00" y="424.00" width="5.00" height="5.00" fill="#ef5350"/>"
<line x1="974.50" y1="419.50" x2="974.50" y2="453.50" stroke="#26a69a" stroke-width="1.00"/>"
<rect x="972.00" y="429.00" width="5.00" height="9.00" fill="#26a69a"/>"
<line x1="980.50" y1="425.50" x2="980.50" y2="446.50" stroke="#ef5350" stroke-width="1.00"/>"
<rect x="977.00" y="436.00" width="5.00" height="5.00" fill="#ef5350"/>"
<line x1="985.50" y1="429.50" x2="985.50" y2="465.50" stroke="#26a69a" stroke-width="1.00"/>"
<rect x="983.00" y="442.00" width="5.00" height="8.00" fill="#26a69a"/>"
<line x1="991.50" y1="434.50" x2="991.50" y2="457.50" stroke="#ef5350" stroke-width="1.00"/>"
<rect x="989.00" y="445.00" width="5.00" height="5.00" fill="#ef5350"/>"
<line x1="997.50" y1="437.50" x2="997.50" y2="474.50" stroke="#26a69a" stroke-width="1.00"/>"
<rect x="994.00" y="452.00" width="5.00" height="8.00" fill="#26a69a"/>"
<line x1="1002.50" y1="440.50" x2="1002.50" y2="464.50" stroke="#ef5350" stroke-width="1.00"/>"
<rect x="1000.00" y="451.00" width="5.00" height="5.00" fill="#ef5350"/>"
<line x1="1008.50" y1="442.50" x2="1008.50" y2="480.50" stroke="#26a69a" stroke-width="1.00"/>"
<rect x="1006.00" y="459.00" width="5.00" height="9.00" fill="#26a69a"/>"
<line x1="1014.50" y1="444.50" x2="1014.50" y2="469.50" stroke="#ef5350" stroke-width="1.00"/>"
<rect x="1011.00" y="448.00" width="5.00" height="12.00" fill="#ef5350"/>"
<line x1="1019.50" y1="444.50" x2="1019.50" y2="483.50" stroke="#26a69a" stroke-width="1.00"/>"
<rect x="1017.00" y="463.00" width="5.00" height="16.00" fill="#26a69a"/>"
<line x1="1025.50" y1="444.50" x2="1025.50" y2="471.50" stroke="#ef5350" stroke-width="1.00"/>"
<rect x="1022.00" y="450.00" width="5.00" height="10.00" fill="#ef5350"/>"
<line x1="1031.50" y1="444.50" x2="1031.50" y2="484.50" stroke="#26a69a" stroke-width="1.00"/>"
<rect x="1028.00" y="464.00" width="5.00" height="13.00" fill="#26a69a"/>"
<line x1="1036.50" y1="442.50" x2="1036.50" y2="469.50" stroke="#ef5350" stroke-width="1.00"/>"
<rect x="1034.00" y="450.00" width="5.00" height="7.00" fill="#ef5350"/>"
<line x1="1042.50" y1="453.50" x2="1042.50" y2="468.50" stroke="#26a69a" stroke-width="1.00"/>"
<rect x="1039.00" y="461.00" width="5.00" height="4.00" fill="#26a69a"/>"
<line x1="1048.50" y1="437.50" x2="1048.50" y2="465.50" stroke="#ef5350" stroke-width="1.00"/>"
<rect x="1045.00" y="446.00" width="5.00" height="5.00" fill="#ef5350"/>"
<line x1="1053.50" y1="447.50" x2="1053.50" y2="462.50" stroke="#26a69a" stroke-width="1.00"/>"
<rect x="1051.00" y="456.00" width="5.00" height="2.00" fill="#26a69a"/>"
<line x1="1059.50" y1="456.50" x2="1059.50" y2="485.50" stroke="#ef5350" stroke-width="1.00"/>"
<rect x="1056.00" y="466.00" width="5.00" height="4.00" fill="#ef5350"/>"
<line x1="1065.50" y1="464.50" x2="1065.50" y2="480.50" stroke="#26a69a" stroke-width="1.00"/>"
<rect x="1062.00" y="474.00" width="5.00" height="2.00" fill="#26a69a"/>"
<line x1="1070.50" y1="471.50" x2="1070.50" y2="502.50" stroke="#ef5350" stroke-width="1.00"/>"
<rect x="1068.00" y="483.00" width="5.00" height="2.00" fill="#ef5350"/>"
<line x1="1076.50" y1="478.50" x2="1076.50" y2="496.50" stroke="#ef5350" stroke-width="1.00"/>"
<rect x="1073.00" y="490.00" width="5.00" height="4.00" fill="#ef5350"/>"
<line x1="1081.50" y1="484.50" x2="1081.50" y2="516.50" stroke="#26a69a" stroke-width="1.00"/>"
<rect x="1079.00" y="490.00" width="5.00" height="8.00" fill="#26a69a"/>"
<line x1="1087.50" y1="489.50" x2="1087.50" y2="508.50" stroke="#ef5350" stroke-width="1.00"/>"
<rect x="1085.00" y="501.00" width="5.00" height="5.00" fill="#ef5350"/>"
<line x1="1093.50" y1="494.50" x2="1093.50" y2="527.50" stroke="#26a69a" stroke-width="1.00"/>"
<rect x="1090.00" y="502.00" width="5.00" height="7.00" fill="#26a69a"/>"
<line x1="1098.50" y1="498.50" x2="1098.50" y2="517.50" stroke="#ef5350" stroke-width="1.00"/>"
<rect x="1096.00" y="509.00" width="5.00" height="5.00" fill="#ef5350"/>"
<line x1="1104.50" y1="500.50" x2="1104.50" y2="534.50" stroke="#26a69a" stroke-width="1.00"/>"
<rect x="1102.00" y="510.00" width="5.00" height="8.00" fill="#26a69a"/>"
<line x1="1110.50" y1="503.50" x2="1110.50" y2="524.50" stroke="#ef5350" stroke-width="1.00"/>"
<rect x="1107.00" y="514.00" width="5.00" height="5.00" fill="#ef5350"/>"
<line x1="1115.50" y1="504.50" x2="1115.50" y2="539.50" stroke="#26a69a" stroke-width="1.00"/>"
<rect x="1113.00" y="515.00" width="5.00" height="9.00" fill="#26a69a"/>"
<line x1="1121.50" y1="505.50" x2="1121.50" y2="527.50" stroke="#ef5350" stroke-width="1.00"/>"
<rect x="1119.00" y="516.00" width="5.00" height="5.00" fill="#ef5350"/>"
<line x1="1127.50" y1="505.50" x2="1127.50" y2="541.50" stroke="#26a69a" stroke-width="1.00"/>"
<rect x="1124.00" y="518.00" width="5.00" height="8.00" fill="#26a69a"/>"
<polyline points="110.18,491.63 115.83,488.08 121.48,485.33 127.13,481.71 132.78,478.73 138.43,475.05 144.08,471.85 149.73,468.13 155.38,464.70 161.03,460.97 166.68,457.33 172.33,453.61 177.98,449.76 183.62,446.06 189.28,442.06 194.93,438.42 200.58,434.28 206.23,430.73 211.88,426.45 217.53,421.61 223.18,415.86 228.83,410.12 234.48,402.75 240.13,395.66 245.78,388.26 251.43,381.20 257.07,373.48 262.73,366.60 268.38,359.03 274.03,352.15 279.68,344.76 285.33,337.89 290.98,330.70 296.62,323.87 302.28,316.93 307.93,310.13 313.58,303.47 319.23,296.74 324.88,290.40 330.53,283.81 336.18,277.81 341.83,271.37 347.48,265.76 353.12,259.49 358.78,252.87 364.43,245.43 370.08,238.18 375.73,230.80 381.38,223.86 387.03,216.77 392.68,210.36 398.33,203.30 403.98,197.19 409.62,190.60 415.28,184.80 420.93,178.71 426.58,173.24 432.23,167.68 437.88,162.54 443.53,157.55 449.18,152.77 454.83,148.36 460.48,143.95 466.13,140.17 471.78,136.23 477.43,133.10 483.08,129.59 488.73,125.75 494.38,121.35 500.03,116.81 505.68,111.33 511.33,106.40 516.98,101.46 522.62,97.10 528.27,92.35 533.93,88.76 539.58,84.68 545.23,81.62 550.88,78.25 556.53,75.72 562.18,73.07 567.83,71.08 573.48,69.16 579.12,67.70 584.78,66.54 590.43,65.61 596.08,65.22 601.73,64.86 607.38,65.25 613.03,65.46 618.68,66.65 624.33,67.43 629.98,68.00 635.62,67.99 641.28,68.31 646.93,68.68 652.58,69.65 658.23,70.62 663.88,72.43 669.53,73.69 675.18,76.07 680.83,78.04 686.48,80.96 692.12,83.65 697.78,87.10 703.43,90.50 709.08,94.47 714.73,98.58 720.38,103.04 726.03,107.85 731.68,112.78 737.33,118.29 742.98,123.73 748.62,129.94 754.28,135.85 759.93,141.37 765.58,146.38 771.23,151.18 776.88,155.04 782.53,159.42 788.18,163.74 793.83,168.59 799.48,173.34 805.12,178.83 810.78,183.73 816.43,189.59 822.08,195.00 827.73,201.20 833.38,207.10 839.03,213.60 844.68,219.99 850.33,226.76 855.98,233.62 861.62,240.62 867.28,247.94 872.93,255.17 878.58,262.92 884.23,270.38 889.88,278.55 895.53,286.19 901.18,293.36 906.83,299.80 912.48,305.96 918.13,310.98 923.78,316.37 929.43,321.54 935.08,327.10 940.73,332.05 946.38,337.91 952.03,343.07 957.68,348.99 963.33,354.35 968.98,360.28 974.63,365.82 980.28,371.73 985.93,377.45 991.58,383.30 997.23,389.17 1002.88,394.94 1008.53,400.95 1014.18,406.66 1019.83,412.80 1025.48,418.42 1031.12,424.68 1036.78,430.17 1042.42,435.11 1048.08,439.11 1053.73,443.09 1059.38,446.75 1065.03,450.64 1070.67,454.17 1076.33,458.16 1081.98,461.23 1087.62,465.04 1093.28,468.08 1098.93,471.68 1104.58,474.67 1110.23,478.05 1115.88,480.99 1121.53,484.12 1127.18,487.02" stroke="#2196f3" stroke-width="1.00" fill="none"/>"
<polyline points="279.68,423.61 285.33,418.97 290.98,414.21 296.62,409.29 302.28,404.25 307.93,399.06 313.58,393.76 319.23,388.32 324.88,382.78 330.53,377.10 336.18,371.35 341.83,365.46 347.48,359.51 353.12,353.43 358.78,347.28 364.43,341.04 370.08,334.74 375.73,328.88 381.38,323.00 387.03,317.02 392.68,311.10 398.33,305.06 403.98,298.96 409.62,292.85 415.28,286.68 420.93,280.52 426.58,274.32 432.23,268.13 437.88,261.92 443.53,255.73 449.18,249.52 454.83,243.36 460.48,237.19 466.13,231.07 471.78,224.95 477.43,218.91 483.08,212.87 488.73,206.89 494.38,200.96 500.03,195.10 505.68,189.29 511.33,183.57 516.98,178.44 522.62,173.42 528.27,168.32 533.93,163.55 539.58,158.80 545.23,154.14 550.88,149.61 556.53,145.16 562.18,140.85 567.83,136.64 573.48,132.57 579.12,128.60 584.78,124.80 590.43,121.10 596.08,117.56 601.73,114.14 607.38,110.90 613.03,107.77 618.68,104.82 624.33,101.99 629.98,99.34 635.62,96.82 641.28,94.50 646.93,92.85 652.58,91.39 658.23,90.07 663.88,89.03 669.53,87.93 675.18,87.13 680.83,86.53 686.48,86.08 692.12,85.82 697.78,85.72 703.43,85.81 709.08,86.06 714.73,86.50 720.38,87.09 726.03,87.89 731.68,88.83 737.33,89.97 742.98,91.25 748.62,92.73 754.28,94.35 759.93,96.16 765.58,98.10 771.23,100.24 776.88,102.51 782.53,104.97 788.18,108.09 793.83,111.40 799.48,114.83 805.12,118.51 810.78,122.27 816.43,126.15 822.08,130.18 827.73,134.33 833.38,138.63 839.03,143.04 844.68,147.59 850.33,152.24 855.98,157.03 861.62,161.90 867.28,166.91 872.93,171.98 878.58,177.19 884.23,182.45 889.88,187.83 895.53,193.26 901.18,198.78 906.83,204.35 912.48,210.02 918.13,215.71 923.78,221.49 929.43,227.29 935.08,233.16 940.73,238.90 946.38,244.83 952.03,250.79 957.68,256.76 963.33,262.77 968.98,268.76 974.63,274.77 980.28,280.76 985.93,286.76 991.58,292.72 997.23,298.69 1002.88,304.59 1008.53,310.50 1014.18,316.33 1019.83,322.16 1025.48,327.89 1031.12,333.61 1036.78,339.22 1042.42,344.79 1048.08,350.25 1053.73,355.67 1059.38,361.51 1065.03,367.28 1070.67,372.93 1076.33,378.60 1081.98,383.91 1087.62,389.25 1093.28,394.50 1098.93,399.60 1104.58,404.59 1110.23,409.43 1115.88,414.15 1121.53,418.71 1127.18,423.14" stroke="#ff9800" stroke-width="1.00" fill="none"/>"
<polyline points="110.18,439.64 115.83,434.08 121.48,430.99 127.13,427.46 132.78,425.61 138.43,423.48 144.08,422.60 149.73,421.38 155.38,421.14 161.03,420.21 166.68,420.01 172.33,418.37 177.98,416.90 183.62,413.03 189.28,408.14 194.93,400.99 200.58,391.95 206.23,382.29 211.88,370.03 217.53,358.78 223.18,344.72 228.83,331.75 234.48,316.28 240.13,302.11 245.78,291.48 251.43,281.59 257.07,272.65 262.73,266.34 268.38,260.03 274.03,255.70 279.68,251.28 285.33,248.41 290.98,245.26 296.62,243.34 302.28,240.78 307.93,239.08 313.58,236.16 319.23,233.57 324.88,229.00 330.53,223.66 336.18,216.20 341.83,206.92 347.48,196.42 353.12,183.42 358.78,171.80 364.43,157.58 370.08,144.55 375.73,135.62 381.38,127.10 387.03,121.36 392.68,116.69 398.33,112.26 403.98,109.82 409.62,107.56 415.28,106.85 420.93,106.17 426.58,106.75 432.23,107.05 437.88,108.37 443.53,108.83 449.18,109.99 454.83,109.30 460.48,108.51 466.13,104.95 471.78,99.89 477.43,93.34 483.08,84.80 488.73,77.52 494.38,67.91 500.03,59.92 505.68,49.65 511.33,40.60 516.98,35.39 522.62,30.82 528.27,27.55 533.93,26.45 539.58,25.89 545.23,26.66 550.88,27.95 556.53,30.02 562.18,32.46 567.83,35.30 573.48,38.06 579.12,41.00 584.78,43.07 590.43,45.12 596.08,45.65 601.73,46.06 607.38,46.17 613.03,46.39 618.68,49.64 624.33,53.00 629.98,54.97 635.62,54.92 641.28,56.58 646.93,56.84 652.58,57.96 658.23,56.01 663.88,53.11 669.53,51.23 675.18,47.14 680.83,44.58 686.48,40.77 692.12,38.41 697.78,35.52 703.43,34.01 709.08,32.49 714.73,32.43 720.38,32.70 726.03,34.76 731.68,37.33 737.33,42.40 742.98,48.33 748.62,57.90 754.28,68.89 759.93,77.94 765.58,88.01 771.23,96.58 776.88,104.49 782.53,114.30 788.18,119.48 793.83,125.67 799.48,127.62 805.12,129.39 810.78,130.53 816.43,130.45 822.08,130.79 827.73,130.48 833.38,131.12 839.03,131.54 844.68,133.21 850.33,134.97 855.98,138.28 861.62,141.85 867.28,147.43 872.93,153.47 878.58,162.14 884.23,171.53 889.88,184.68 895.53,199.04 901.18,211.46 906.83,224.63 912.48,236.33 918.13,247.12 923.78,259.56 929.43,267.62 935.08,276.55 940.73,282.42 946.38,286.76 952.03,289.96 957.68,291.84 963.33,293.73 968.98,294.82 974.63,296.59 980.28,298.00 985.93,300.48 991.58,302.85 997.23,306.64 1002.88,310.45 1008.53,316.16 1014.18,322.06 1019.83,330.50 1025.48,339.27 1031.12,351.92 1036.78,365.29 1042.42,376.74 1048.08,388.09 1053.73,400.44 1059.38,408.22 1065.03,417.64 1070.67,422.29 1076.33,427.00 1081.98,429.88 1087.62,431.39 1093.28,432.57 1098.93,432.86 1104.58,433.64 1110.23,433.99 1115.88,435.15 1121.53,436.18 1127.18,438.22" stroke="#2196f3" stroke-width="1.00" fill="none"/>"
<polyline points="110.18,491.63 115.83,488.08 121.48,485.33 127.13,481.71 132.78,478.73 138.43,475.05 144.08,471.85 149.73,468.13 155.38,464.70 161.03,460.97 166.68,457.33 172.33,453.61 177.98,449.76 183.62,446.06 189.28,442.06 194.93,438.42 200.58,434.28 206.23,430.73 211.88,426.45 217.53,421.61 223.18,415.86 228.83,410.12 234.48,402.75 240.13,395.66 245.78,388.26 251.43,381.20 257.07,373.48 262.73,366.60 268.38,359.03 274.03,352.15 279.68,344.76 285.33,337.89 290.98,330.70 296.62,323.87 302.28,316.93 307.93,310.13 313.58,303.47 319.23,296.74 324.88,290.40 330.53,283.81 336.18,277.81 341.83,271.37 347.48,265.76 353.12,259.49 358.78,252.87 364.43,245.43 370.08,238.18 375.73,230.80 381.38,223.86 387.03,216.77 392.68,210.36 398.33,203.30 403.98,197.19 409.62,190.60 415.28,184.80 420.93,178.71 426.58,173.24 432.23,167.68 437.88,162.54 443.53,157.55 449.18,152.77 454.83,148.36 460.48,143.95 466.13,140.17 471.78,136.23 477.43,133.10 483.08,129.59 488.73,125.75 494.38,121.35 500.03,116.81 505.68,111.33 511.33,106.40 516.98,101.46 522.62,97.10 528.27,92.35 533.93,88.76 539.58,84.68 545.23,81.62 550.88,78.25 556.53,75.72 562.18,73.07 567.83,71.08 573.48,69.16 579.12,67.70 584.78,66.54 590.43,65.61 596.08,65.22 601.73,64.86 607.38,65.25 613.03,65.46 618.68,66.65 624.33,67.43 629.98,68.00 635.62,67.99 641.28,68.31 646.93,68.68 652.58,69.65 658.23,70.62 663.88,72.43 669.53,73.69 675.18,76.07 680.83,78.04 686.48,80.96 692.12,83.65 697.78,87.10 703.43,90.50 709.08,94.47 714.73,98.58 720.38,103.04 726.03,107.85 731.68,112.78 737.33,118.29 742.98,123.73 748.62,129.94 754.28,135.85 759.93,141.37 765.58,146.38 771.23,151.18 776.88,155.04 782.53,159.42 788.18,163.74 793.83,168.59 799.48,173.34 805.12,178.83 810.78,183.73 816.43,189.59 822.08,195.00 827.73,201.20 833.38,207.10 839.03,213.60 844.68,219.99 850.33,226.76 855.98,233.62 861.62,240.62 867.28,247.94 872.93,255.17 878.58,262.92 884.23,270.38 889.88,278.55 895.53,286.19 901.18,293.36 906.83,299.80 912.48,305.96 918.13,310.98 923.78,316.37 929.43,321.54 935.08,327.10 940.73,332.05 946.38,337.91 952.03,343.07 957.68,348.99 963.33,354.35 968.98,360.28 974.63,365.82 980.28,371.73 985.93,377.45 991.58,383.30 997.23,389.17 1002.88,394.94 1008.53,400.95 1014.18,406.66 1019.83,412.80 1025.48,418.42 1031.12,424.68 1036.78,430.17 1042.42,435.11 1048.08,439.11 1053.73,443.09 1059.38,446.75 1065.03,450.64 1070.67,454.17 1076.33,458.16 1081.98,461.23 1087.62,465.04 1093.28,468.08 1098.93,471.68 1104.58,474.67 1110.23,478.05 1115.88,480.99 1121.53,484.12 1127.18,487.02" stroke="rgba(33,150,243,0.5019607843137255)" stroke-width="1.00" fill="none"/>"
<polyline points="110.18,543.61 115.83,542.08 121.48,539.66 127.13,535.95 132.78,531.85 138.43,526.61 144.08,521.09 149.73,514.88 155.38,508.27 161.03,501.74 166.68,494.66 172.33,488.84 177.98,482.61 183.62,479.10 189.28,475.97 194.93,475.85 200.58,476.60 206.23,479.17 211.88,482.87 217.53,484.43 223.18,487.01 228.83,488.49 234.48,489.22 240.13,489.21 245.78,485.05 251.43,480.80 257.07,474.31 262.73,466.86 268.38,458.03 274.03,448.61 279.68,438.24 285.33,427.37 290.98,416.15 296.62,404.39 302.28,393.08 307.93,381.18 313.58,370.79 319.23,359.91 324.88,351.79 330.53,343.95 336.18,339.42 341.83,335.82 347.48,335.10 353.12,335.56 358.78,333.93 364.43,333.28 370.08,331.81 375.73,325.98 381.38,320.63 387.03,312.17 392.68,304.03 398.33,294.35 403.98,284.57 409.62,273.64 415.28,262.76 420.93,251.25 426.58,239.73 432.23,228.31 437.88,216.72 443.53,206.26 449.18,195.55 454.83,187.43 460.48,179.39 466.13,175.40 471.78,172.56 477.43,172.85 483.08,174.38 488.73,173.98 494.38,174.79 500.03,173.71 505.68,173.02 511.33,172.21 516.98,167.53 522.62,163.39 528.27,157.15 533.93,151.06 539.58,143.48 545.23,136.59 550.88,128.55 556.53,121.42 562.18,113.68 567.83,106.86 573.48,100.26 579.12,94.40 584.78,90.01 590.43,86.10 596.08,84.79 601.73,83.66 607.38,84.33 613.03,84.54 618.68,83.65 624.33,81.85 629.98,81.02 635.62,81.05 641.28,80.05 646.93,80.52 652.58,81.34 658.23,85.22 663.88,91.76 669.53,96.14 675.18,105.00 680.83,111.49 686.48,121.16 692.12,128.88 697.78,138.69 703.43,146.99 709.08,156.45 714.73,164.72 720.38,173.38 726.03,180.94 731.68,188.23 737.33,194.19 742.98,199.14 748.62,201.99 754.28,202.82 759.93,204.81 765.58,204.75 771.23,205.77 776.88,205.60 782.53,204.53 788.18,208.00 793.83,211.51 799.48,219.06 805.12,228.28 810.78,236.92 816.43,248.73 822.08,259.21 827.73,271.91 833.38,283.09 839.03,295.66 844.68,306.78 850.33,318.56 855.98,328.96 861.62,339.40 867.28,348.44 872.93,356.88 878.58,363.70 884.23,369.23 889.88,372.41 895.53,373.34 901.18,375.26 906.83,374.97 912.48,375.58 918.13,374.85 923.78,373.18 929.43,375.46 935.08,377.65 940.73,381.67 946.38,389.06 952.03,396.18 957.68,406.13 963.33,414.97 968.98,425.73 974.63,435.05 980.28,445.46 985.93,454.42 991.58,463.75 997.23,471.70 1002.88,479.43 1008.53,485.75 1014.18,491.26 1019.83,495.10 1025.48,497.57 1031.12,497.43 1036.78,495.05 1042.42,493.48 1048.08,490.13 1053.73,485.75 1059.38,485.28 1065.03,483.64 1070.67,486.04 1076.33,489.32 1081.98,492.59 1087.62,498.70 1093.28,503.58 1098.93,510.50 1104.58,515.70 1110.23,522.10 1115.88,526.84 1121.53,532.05 1127.18,535.82" stroke="rgba(33,150,243,0.5019607843137255)" stroke-width="1.00" fill="none"/>"
<rect x="0.42" y="526.40" width="4.80" height="65.35" fill="#ef5350"/>"
<rect x="6.08" y="476.85" width="4.80" height="114.90" fill="#26a69a"/>"
<rect x="11.72" y="522.48" width="4.80" height="69.27" fill="#ef5350"/>"
<rect x="17.38" y="472.93" width="4.80" height="118.82" fill="#26a69a"/>"
<rect x="23.02" y="518.57" width="4.80" height="73.19" fill="#ef5350"/>"
<rect x="28.68" y="469.01" width="4.80" height="122.74" fill="#26a69a"/>"
<rect x="34.33" y="514.64" width="4.80" height="77.11" fill="#ef5350"/>"
<rect x="39.98" y="465.09" width="4.80" height="126.66" fill="#26a69a"/>"
<rect x="45.63" y="510.73" width="4.80" height="81.03" fill="#ef5350"/>"
<rect x="51.28" y="556.36" width="4.80" height="35.39" fill="#26a69a"/>"
<rect x="56.93" y="506.81" width="4.80" height="84.94" fill="#ef5350"/>"
<rect x="62.58" y="552.44" width="4.80" height="39.31" fill="#26a69a"/>"
<rect x="68.22" y="502.89" width="4.80" height="88.86" fill="#ef5350"/>"
<rect x="73.88" y="548.52" width="4.80" height="43.23" fill="#26a69a"/>"
<rect x="79.53" y="498.97" width="4.80" height="92.78" fill="#ef5350"/>"
<rect x="85.17" y="544.60" width="4.80" height="47.15" fill="#26a69a"/>"
<rect x="90.83" y="495.05" width="4.80" height="96.70" fill="#ef5350"/>"
<rect x="96.47" y="540.68" width="4.80" height="51.07" fill="#26a69a"/>"
<rect x="102.12" y="491.13" width="4.80" height="100.62" fill="#ef5350"/>"
<rect x="107.78" y="536.77" width="4.80" height="54.99" fill="#26a69a"/>"
<rect x="113.42" y="487.21" width="4.80" height="104.54" fill="#26a69a"/>"
<rect x="119.08" y="532.84" width="4.80" height="58.91" fill="#ef5350"/>"
<rect x="124.73" y="483.29" width="4.80" height="108.46" fill="#26a69a"/>"
<rect x="130.38" y="528.93" width="4.80" height="62.83" fill="#ef5350"/>"
<rect x="136.03" y="479.37" width="4.80" height="112.38" fill="#26a69a"/>"
<rect x="141.68" y="525.01" width="4.80" height="66.75" fill="#ef5350"/>"
<rect x="147.33" y="475.45" width="4.80" height="116.30" fill="#26a69a"/>"
<rect x="152.97" y="521.09" width="4.80" height="70.66" fill="#ef5350"/>"
<rect x="158.62" y="471.53" width="4.80" height="120.22" fill="#26a69a"/>"
<rect x="164.28" y="517.17" width="4.80" height="74.58" fill="#ef5350"/>"
<rect x="169.93" y="467.61" width="4.80" height="124.14" fill="#26a69a"/>"
<rect x="175.58" y="513.25" width="4.80" height="78.50" fill="#ef5350"/>"
<rect x="181.22" y="558.88" width="4.80" height="32.87" fill="#26a69a"/>"
<rect x="186.88" y="509.33" width="4.80" height="82.42" fill="#ef5350"/>"
<rect x="192.53" y="554.97" width="4.80" height="36.79" fill="#26a69a"/>"
<rect x="198.18" y="505.41" width="4.80" height="86.34" fill="#ef5350"/>"
<rect x="203.83" y="551.04" width="4.80" height="40.71" fill="#26a69a"/>"
<rect x="209.47" y="501.49" width="4.80" height="90.26" fill="#ef5350"/>"
<rect x="215.12" y="547.12" width="4.80" height="44.63" fill="#26a69a"/>"
<rect x="220.78" y="497.57" width="4.80" height="94.18" fill="#ef5350"/>"
<rect x="226.43" y="543.21" width="4.80" height="48.55" fill="#26a69a"/>"
<rect x="232.08" y="493.65" width="4.80" height="98.10" fill="#ef5350"/>"
<rect x="237.73" y="539.29" width="4.80" height="52.46" fill="#26a69a"/>"
<rect x="243.38" y="489.73" width="4.80" height="102.02" fill="#ef5350"/>"
<rect x="249.03" y="535.37" width="4.80" height="56.38" fill="#26a69a"/>"
<rect x="254.67" y="485.81" width="4.80" height="105.94" fill="#26a69a"/>"
<rect x="260.33" y="531.45" width="4.80" height="60.31" fill="#ef5350"/>"
<rect x="265.98" y="481.89" width="4.80" height="109.86" fill="#26a69a"/>"
<rect x="271.63" y="527.53" width="4.80" height="64.22" fill="#ef5350"/>"
<rect x="277.28" y="477.98" width="4.80" height="113.78" fill="#26a69a"/>"
<rect x="282.93" y="523.61" width="4.80" height="68.14" fill="#ef5350"/>"
<rect x="288.58" y="474.05" width="4.80" height="117.70" fill="#26a69a"/>"
<rect x="294.23" y="519.69" width="4.80" height="72.06" fill="#ef5350"/>"
<rect x="299.88" y="470.13" width="4.80" height="121.62" fill="#26a69a"/>"
<rect x="305.53" y="515.77" width="4.80" height="75.98" fill="#ef5350"/>"
<rect x="311.18" y="466.22" width="4.80" height="125.54" fill="#26a69a"/>"
<rect x="316.83" y="511.85" width="4.80" height="79.90" fill="#ef5350"/>"
<rect x="322.48" y="557.49" width="4.80" height="34.26" fill="#26a69a"/>"
<rect x="328.13" y="507.93" width="4.80" height="83.82" fill="#ef5350"/>"
<rect x="333.78" y="553.57" width="4.80" height="38.18" fill="#26a69a"/>"
<rect x="339.43" y="504.01" width="4.80" height="87.74" fill="#ef5350"/>"
<rect x="345.08" y="549.65" width="4.80" height="42.11" fill="#26a69a"/>"
<rect x="350.73" y="500.09" width="4.80" height="91.66" fill="#ef5350"/>"
<rect x="356.38" y="545.73" width="4.80" height="46.02" fill="#26a69a"/>"
<rect x="362.03" y="496.17" width="4.80" height="95.58" fill="#ef5350"/>"
<rect x="367.68" y="541.81" width="4.80" height="49.94" fill="#26a69a"/>"
<rect x="373.33" y="492.25" width="4.80" height="99.50" fill="#ef5350"/>"
<rect x="378.98" y="537.89" width="4.80" height="53.86" fill="#26a69a"/>"
<rect x="384.63" y="488.33" width="4.80" height="103.42" fill="#ef5350"/>"
<rect x="390.28" y="533.97" width="4.80" height="57.78" fill="#ef5350"/>"
<rect x="395.93" y="484.42" width="4.80" height="107.34" fill="#26a69a"/>"
<rect x="401.58" y="530.05" width="4.80" height="61.70" fill="#ef5350"/>"
<rect x="407.23" y="480.50" width="4.80" height="111.26" fill="#26a69a"/>"
<rect x="412.88" y="526.13" width="4.80" height="65.62" fill="#ef5350"/>"
<rect x="418.53" y="476.57" width="4.80" height="115.18" fill="#26a69a"/>"
<rect x="424.18" y="522.21" width="4.80" height="69.54" fill="#ef5350"/>"
<rect x="429.83" y="472.66" width="4.80" height="119.10" fill="#26a69a"/>"
<rect x="435.48" y="518.29" width="4.80" height="73.46" fill="#ef5350"/>"
<rect x="441.13" y="468.74" width="4.80" height="123.01" fill="#26a69a"/>"
<rect x="446.78" y="514.37" width="4.80" height="77.38" fill="#ef5350"/>"
<rect x="452.43" y="560.01" width="4.80" height="31.74" fill="#26a69a"/>"
<rect x="458.08" y="510.45" width="4.80" height="81.30" fill="#ef5350"/>"
<rect x="463.73" y="556.09" width="4.80" height="35.66" fill="#26a69a"/>"
<rect x="469.38" y="506.53" width="4.80" height="85.22" fill="#ef5350"/>"
<rect x="475.03" y="552.17" width="4.80" height="39.58" fill="#26a69a"/>"
<rect x="480.68" y="502.62" width="4.80" height="89.14" fill="#ef5350"/>"
<rect x="486.33" y="548.25" width="4.80" height="43.50" fill="#26a69a"/>"
<rect x="491.98" y="498.70" width="4.80" height="93.06" fill="#ef5350"/>"
<rect x="497.63" y="544.33" width="4.80" height="47.42" fill="#26a69a"/>"
<rect x="503.28" y="494.77" width="4.80" height="96.98" fill="#ef5350"/>"
<rect x="508.93" y="540.41" width="4.80" height="51.34" fill="#26a69a"/>"
<rect x="514.58" y="490.86" width="4.80" height="100.90" fill="#ef5350"/>"
<rect x="520.23" y="536.49" width="4.80" height="55.26" fill="#26a69a"/>"
<rect x="525.88" y="486.94" width="4.80" height="104.81" fill="#26a69a"/>"
<rect x="531.53" y="532.57" width="4.80" height="59.18" fill="#ef5350"/>"
<rect x="537.18" y="483.02" width="4.80" height="108.73" fill="#26a69a"/>"
<rect x="542.83" y="528.65" width="4.80" height="63.10" fill="#ef5350"/>"
<rect x="548.48" y="479.10" width="4.80" height="112.65" fill="#26a69a"/>"
<rect x="554.13" y="524.73" width="4.80" height="67.02" fill="#ef5350"/>"
<rect x="559.78" y="475.18" width="4.80" height="116.57" fill="#26a69a"/>"
<rect x="565.43" y="520.81" width="4.80" height="70.94" fill="#ef5350"/>"
<rect x="571.08" y="471.26" width="4.80" height="120.49" fill="#26a69a"/>"
<rect x="576.73" y="516.90" width="4.80" height="74.86" fill="#ef5350"/>"
<rect x="582.38" y="467.34" width="4.80" height="124.41" fill="#26a69a"/>"
<rect x="588.03" y="512.97" width="4.80" height="78.78" fill="#ef5350"/>"
<rect x="593.68" y="558.61" width="4.80" height="33.14" fill="#26a69a"/>"
<rect x="599.33" y="509.06" width="4.80" height="82.70" fill="#ef5350"/>"
<rect x="604.98" y="554.69" width="4.80" height="37.06" fill="#26a69a"/>"
<rect x="610.63" y="505.14" width="4.80" height="86.62" fill="#ef5350"/>"
<rect x="616.28" y="550.77" width="4.80" height="40.98" fill="#26a69a"/>"
<rect x="621.93" y="501.22" width="4.80" height="90.53" fill="#ef5350"/>"
<rect x="627.58" y="546.85" width="4.80" height="44.90" fill="#26a69a"/>"
<rect x="633.23" y="497.30" width="4.80" height="94.45" fill="#ef5350"/>"
<rect x="638.88" y="542.93" width="4.80" height="48.82" fill="#26a69a"/>"
<rect x="644.53" y="493.38" width="4.80" height="98.37" fill="#ef5350"/>"
<rect x="650.18" y="539.01" width="4.80" height="52.74" fill="#26a69a"/>"
<rect x="655.83" y="489.46" width="4.80" height="102.29" fill="#ef5350"/>"
<rect x="661.48" y="535.10" width="4.80" height="56.66" fill="#ef5350"/>"
<rect x="667.13" y="485.54" width="4.80" height="106.21" fill="#26a69a"/>"
<rect x="672.78" y="531.17" width="4.80" height="60.58" fill="#ef5350"/>"
<rect x="678.43" y="481.62" width="4.80" height="110.13" fill="#26a69a"/>"
<rect x="684.08" y="527.25" width="4.80" height="64.50" fill="#ef5350"/>"
<rect x="689.73" y="477.70" width="4.80" height="114.05" fill="#26a69a"/>"
<rect x="695.38" y="523.34" width="4.80" height="68.42" fill="#ef5350"/>"
<rect x="701.03" y="473.78" width="4.80" height="117.97" fill="#26a69a"/>"
<rect x="706.68" y="519.42" width="4.80" height="72.33" fill="#ef5350"/>"
<rect x="712.33" y="469.86" width="4.80" height="121.89" fill="#26a69a"/>"
<rect x="717.98" y="515.50" width="4.80" height="76.26" fill="#ef5350"/>"
<rect x="723.63" y="465.94" width="4.80" height="125.81" fill="#26a69a"/>"
<rect x="729.28" y="511.58" width="4.80" height="80.17" fill="#ef5350"/>"
<rect x="734.93" y="557.21" width="4.80" height="34.54" fill="#26a69a"/>"
<rect x="740.58" y="507.66" width="4.80" height="84.09" fill="#ef5350"/>"
<rect x="746.23" y="553.29" width="4.80" height="38.46" fill="#26a69a"/>"
<rect x="751.88" y="503.74" width="4.80" height="88.01" fill="#ef5350"/>"
<rect x="757.53" y="549.37" width="4.80" height="42.38" fill="#26a69a"/>"
<rect x="763.18" y="499.82" width="4.80" height="91.93" fill="#ef5350"/>"
<rect x="768.83" y="545.45" width="4.80" height="46.30" fill="#26a69a"/>"
<rect x="774.48" y="495.90" width="4.80" height="95.85" fill="#ef5350"/>"
<rect x="780.13" y="541.54" width="4.80" height="50.22" fill="#26a69a"/>"
<rect x="785.78" y="491.98" width="4.80" height="99.77" fill="#ef5350"/>"
<rect x="791.43" y="537.62" width="4.80" height="54.13" fill="#26a69a"/>"
<rect x="797.08" y="488.06" width="4.80" height="103.69" fill="#ef5350"/>"
<rect x="802.73" y="533.70" width="4.80" height="58.06" fill="#ef5350"/>"
<rect x="808.38" y="484.14" width="4.80" height="107.61" fill="#26a69a"/>"
<rect x="814.03" y="529.78" width="4.80" height="61.98" fill="#ef5350"/>"
<rect x="819.68" y="480.22" width="4.80" height="111.53" fill="#26a69a"/>"
<rect x="825.33" y="525.86" width="4.80" height="65.89" fill="#ef5350"/>"
<rect x="830.98" y="476.30" width="4.80" height="115.45" fill="#26a69a"/>"
<rect x="836.63" y="521.94" width="4.80" height="69.81" fill="#ef5350"/>"
<rect x="842.28" y="472.38" width="4.80" height="119.37" fill="#26a69a"/>"
<rect x="847.93" y="518.02" width="4.80" height="73.73" fill="#ef5350"/>"
<rect x="853.58" y="468.46" width="4.80" height="123.29" fill="#26a69a"/>"
<rect x="859.23" y="514.10" width="4.80" height="77.65" fill="#ef5350"/>"
<rect x="864.88" y="559.74" width="4.80" height="32.02" fill="#26a69a"/>"
<rect x="870.53" y="510.18" width="4.80" height="81.57" fill="#ef5350"/>"
<rect x="876.18" y="555.82" width="4.80" height="35.94" fill="#26a69a"/>"
<rect x="881.83" y="506.26" width="4.80" height="85.49" fill="#ef5350"/>"
<rect x="887.48" y="551.89" width="4.80" height="39.86" fill="#26a69a"/>"
<rect x="893.13" y="502.34" width="4.80" height="89.41" fill="#ef5350"/>"
<rect x="898.78" y="547.98" width="4.80" height="43.78" fill="#26a69a"/>"
<rect x="904.43" y="498.42" width="4.80" height="93.33" fill="#ef5350"/>"
<rect x="910.08" y="544.06" width="4.80" height="47.69" fill="#26a69a"/>"
<rect x="915.73" y="494.50" width="4.80" height="97.25" fill="#ef5350"/>"
<rect x="921.38" y="540.14" width="4.80" height="51.61" fill="#26a69a"/>"
<rect x="927.03" y="490.58" width="4.80" height="101.17" fill="#ef5350"/>"
<rect x="932.68" y="536.22" width="4.80" height="55.53" fill="#26a69a"/>"
<rect x="938.33" y="486.66" width="4.80" height="105.09" fill="#26a69a"/>"
<rect x="943.98" y="532.30" width="4.80" height="59.45" fill="#ef5350"/>"
<rect x="949.63" y="482.75" width="4.80" height="109.01" fill="#26a69a"/>"
<rect x="955.28" y="528.38" width="4.80" height="63.37" fill="#ef5350"/>"
<rect x="960.93" y="478.83" width="4.80" height="112.93" fill="#26a69a"/>"
<rect x="966.58" y="524.46" width="4.80" height="67.29" fill="#ef5350"/>"
<rect x="972.23" y="474.90" width="4.80" height="116.85" fill="#26a69a"/>"
<rect x="977.88" y="520.54" width="4.80" height="71.21" fill="#ef5350"/>"
<rect x="983.53" y="470.99" width="4.80" height="120.77" fill="#26a69a"/>"
<rect x="989.18" y="516.62" width="4.80" height="75.13" fill="#ef5350"/>"
<rect x="994.83" y="467.07" width="4.80" height="124.68" fill="#26a69a"/>"
<rect x="1000.48" y="512.70" width="4.80" height="79.05" fill="#ef5350"/>"
<rect x="1006.13" y="558.34" width="4.80" height="33.41" fill="#26a69a"/>"
<rect x="1011.78" y="508.78" width="4.80" height="82.97" fill="#ef5350"/>"
<rect x="1017.43" y="554.42" width="4.80" height="37.33" fill="#26a69a"/>"
<rect x="1023.08" y="504.86" width="4.80" height="86.89" fill="#ef5350"/>"
<rect x="1028.72" y="550.50" width="4.80" height="41.25" fill="#26a69a"/>"
<rect x="1034.38" y="500.94" width="4.80" height="90.81" fill="#ef5350"/>"
<rect x="1040.02" y="546.58" width="4.80" height="45.17" fill="#26a69a"/>"
<rect x="1045.67" y="497.03" width="4.80" height="94.73" fill="#ef5350"/>"
<rect x="1051.33" y="542.66" width="4.80" height="49.09" fill="#26a69a"/>"
<rect x="1056.97" y="493.10" width="4.80" height="98.65" fill="#ef5350"/>"
<rect x="1062.62" y="538.74" width="4.80" height="53.01" fill="#26a69a"/>"
<rect x="1068.27" y="489.19" width="4.80" height="102.57" fill="#ef5350"/>"
<rect x="1073.92" y="534.82" width="4.80" height="56.93" fill="#ef5350"/>"
<rect x="1079.58" y="485.27" width="4.80" height="106.49" fill="#26a69a"/>"
<rect x="1085.22" y="530.90" width="4.80" height="60.85" fill="#ef5350"/>"
<rect x="1090.88" y="481.35" width="4.80" height="110.40" fill="#26a69a"/>"
<rect x="1096.53" y="526.98" width="4.80" height="64.77" fill="#ef5350"/>"
<rect x="1102.17" y="477.43" width="4.80" height="114.33" fill="#26a69a"/>"
<rect x="1107.83" y="523.06" width="4.80" height="68.69" fill="#ef5350"/>"
<rect x="1113.47" y="473.51" width="4.80" height="118.24" fill="#26a69a"/>"
<rect x="1119.12" y="519.14" width="4.80" height="72.61" fill="#ef5350"/>"
<rect x="1124.78" y="469.59" width="4.80" height="122.16" fill="#26a69a"/>"
<path d="M172.50 446.50 L1200.50 446.50" stroke="#2196f3" stroke-width="1.00" fill="none"/>"
<path d="M172.50 404.50 L1200.50 404.50" stroke="#2196f3" stroke-width="1.00" fill="none"/>"
<path d="M172.50 379.50 L1200.50 379.50" stroke="#2196f3" stroke-width="1.00" fill="none"/>"
<path d="M172.50 358.50 L1200.50 358.50" stroke="#2196f3" stroke-width="1.00" fill="none"/>"
<path d="M172.50 337.50 L1200.50 337.50" stroke="#2196f3" stroke-width="1.00" fill="none"/>"
<path d="M172.50 307.50 L1200.50 307.50" stroke="#2196f3" stroke-width="1.00" fill="none"/>"
<path d="M172.50 270.50 L1200.50 270.50" stroke="#2196f3" stroke-width="1.00" fill="none"/>"
<path d="M172.50 446.50 L398.50 270.50" stroke="#2196f3" stroke-width="1.00" stroke-dasharray="4.00,4.00" fill="none"/>"
<path d="M0.00 270.50 L1200.00 270.50" stroke="#ef5350" stroke-width="1.00" fill="none"/>"
<path d="M0.00 446.50 L1200.00 446.50" stroke="#26a69a" stroke-width="1.00" fill="none"/>"
<path d="M200.58 400.93 L194.58 412.93 L206.58 412.93 Z" fill="#26a69a" stroke="none"/>"
<path d="M370.08 134.30 L364.08 122.30 L376.08 122.30 Z" fill="#ef5350" stroke="none"/>"
<path d="M567.83 87.85 L561.83 99.85 L573.83 99.85 Z" fill="#26a69a" stroke="none"/>"
<rect x="1130.00" y="0.00" width="70.00" height="569.50" fill="#131722"/>"
<line x1="1130.00" y1="0.00" x2="1130.00" y2="569.50" stroke="#1e222d" stroke-width="1.00"/>"
<line x1="1130.00" y1="549.20" x2="1134.00" y2="549.20" stroke="#1e222d" stroke-width="1.00"/>"
<text x="1136.00" y="549.20" fill="#b2b5be" font-family="sans-serif" font-size="11.0" text-anchor="start" dominant-baseline="central">95</text>
<line x1="1130.00" y1="515.52" x2="1134.00" y2="515.52" stroke="#1e222d" stroke-width="1.00"/>"
<text x="1136.00" y="515.52" fill="#b2b5be" font-family="sans-serif" font-size="11.0" text-anchor="start" dominant-baseline="central">100</text>
<line x1="1130.00" y1="481.84" x2="1134.00" y2="481.84" stroke="#1e222d" stroke-width="1.00"/>"
<text x="1136.00" y="481.84" fill="#b2b5be" font-family="sans-serif" font-size="11.0" text-anchor="start" dominant-baseline="central">105</text>
<line x1="1130.00" y1="448.16" x2="1134.00" y2="448.16" stroke="#1e222d" stroke-width="1.00"/>"
<text x="1136.00" y="448.16" fill="#b2b5be" font-family="sans-serif" font-size="11.0" text-anchor="start" dominant-baseline="central">110</text>
<line x1="1130.00" y1="414.48" x2="1134.00" y2="414.48" stroke="#1e222d" stroke-width="1.00"/>"
<text x="1136.00" y="414.48" fill="#b2b5be" font-family="sans-serif" font-size="11.0" text-anchor="start" dominant-baseline="central">115</text>
<line x1="1130.00" y1="380.80" x2="1134.00" y2="380.80" stroke="#1e222d" stroke-width="1.00"/>"
<text x="1136.00" y="380.80" fill="#b2b5be" font-family="sans-serif" font-size="11.0" text-anchor="start" dominant-baseline="central">120</text>
<line x1="1130.00" y1="347.12" x2="1134.00" y2="347.12" stroke="#1e222d" stroke-width="1.00"/>"
<text x="1136.00" y="347.12" fill="#b2b5be" font-family="sans-serif" font-size="11.0" text-anchor="start" dominant-baseline="central">125</text>
<line x1="1130.00" y1="313.44" x2="1134.00" y2="313.44" stroke="#1e222d" stroke-width="1.00"/>"
<text x="1136.00" y="313.44" fill="#b2b5be" font-family="sans-serif" font-size="11.0" text-anchor="start" dominant-baseline="central">130</text>
<line x1="1130.00" y1="279.76" x2="1134.00" y2="279.76" stroke="#1e222d" stroke-width="1.00"/>"
<text x="1136.00" y="279.76" fill="#b2b5be" font-family="sans-serif" font-size="11.0" text-anchor="start" dominant-baseline="central">135</text>
<line x1="1130.00" y1="246.08" x2="1134.00" y2="246.08" stroke="#1e222d" stroke-width="1.00"/>"
<text x="1136.00" y="246.08" fill="#b2b5be" font-family="sans-serif" font-size="11.0" text-anchor="start" dominant-baseline="central">140</text>
<line x1="1130.00" y1="212.40" x2="1134.00" y2="212.40" stroke="#1e222d" stroke-width="1.00"/>"
<text x="1136.00" y="212.40" fill="#b2b5be" font-family="sans-serif" font-size="11.0" text-anchor="start" dominant-baseline="central">145</text>
<line x1="1130.00" y1="178.72" x2="1134.00" y2="178.72" stroke="#1e222d" stroke-width="1.00"/>"
<text x="1136.00" y="178.72" fill="#b2b5be" font-family="sans-serif" font-size="11.0" text-anchor="start" dominant-baseline="central">150</text>
<line x1="1130.00" y1="145.04" x2="1134.00" y2="145.04" stroke="#1e222d" stroke-width="1.00"/>"
<text x="1136.00" y="145.04" fill="#b2b5be" font-family="sans-serif" font-size="11.0" text-anchor="start" dominant-baseline="central">155</text>
<line x1="1130.00" y1="111.36" x2="1134.00" y2="111.36" stroke="#1e222d" stroke-width="1.00"/>"
<text x="1136.00" y="111.36" fill="#b2b5be" font-family="sans-serif" font-size="11.0" text-anchor="start" dominant-baseline="central">160</text>
<line x1="1130.00" y1="77.68" x2="1134.00" y2="77.68" stroke="#1e222d" stroke-width="1.00"/>"
<text x="1136.00" y="77.68" fill="#b2b5be" font-family="sans-serif" font-size="11.0" text-anchor="start" dominant-baseline="central">165</text>
<line x1="1130.00" y1="44.00" x2="1134.00" y2="44.00" stroke="#1e222d" stroke-width="1.00"/>"
<text x="1136.00" y="44.00" fill="#b2b5be" font-family="sans-serif" font-size="11.0" text-anchor="start" dominant-baseline="central">170</text>
<line x1="1130.00" y1="10.32" x2="1134.00" y2="10.32" stroke="#1e222d" stroke-width="1.00"/>"
<text x="1136.00" y="10.32" fill="#b2b5be" font-family="sans-serif" font-size="11.0" text-anchor="start" dominant-baseline="central">175</text>
<rect x="0.00" y="573.50" width="1130.00" height="96.50" fill="#131722"/>"
<line x1="0.00" y1="573.50" x2="1130.00" y2="573.50" stroke="#1e222d" stroke-width="1.00"/>"
<line x1="0.00" y1="602.45" x2="1130.00" y2="602.45" stroke="rgba(239,83,80,0.3764705882352941)" stroke-width="0.50"/>"
<line x1="0.00" y1="641.05" x2="1130.00" y2="641.05" stroke="rgba(38,166,154,0.3764705882352941)" stroke-width="0.50"/>"
<line x1="0.00" y1="621.75" x2="1130.00" y2="621.75" stroke="rgba(120,123,134,0.25098039215686274)" stroke-width="0.50"/>"
<polyline points="81.93,589.35 87.58,588.93 93.23,585.66 98.88,585.43 104.53,591.68 110.18,591.47 115.83,590.25 121.48,600.92 127.13,597.68 132.78,604.32 138.43,600.91 144.08,604.78 149.73,601.46 155.38,602.90 161.03,599.86 166.68,599.41 172.33,596.83 177.98,595.51 183.62,593.53 189.28,591.65 194.93,590.27 200.58,588.14 206.23,587.27 211.88,585.14 217.53,584.51 223.18,582.69 228.83,582.27 234.48,580.73 240.13,580.47 245.78,581.84 251.43,581.58 257.07,580.98 262.73,586.92 268.38,585.47 274.03,589.07 279.68,587.45 285.33,588.96 290.98,587.38 296.62,587.26 302.28,585.91 307.93,585.44 313.58,584.36 319.23,583.62 324.88,582.83 330.53,581.93 336.18,581.39 341.83,580.43 347.48,580.09 353.12,579.14 358.78,578.89 364.43,578.06 370.08,577.90 375.73,581.34 381.38,581.12 387.03,582.32 392.68,584.02 398.33,582.92 403.98,589.27 409.62,587.73 415.28,591.91 420.93,590.24 426.58,592.50 432.23,590.89 437.88,591.13 443.53,589.74 449.18,589.31 454.83,588.22 460.48,587.36 466.13,586.61 471.78,585.40 477.43,584.97 483.08,583.54 488.73,583.29 494.38,581.86 500.03,581.74 505.68,580.39 511.33,580.39 516.98,587.24 522.62,588.43 528.27,587.99 533.93,599.62 539.58,597.78 545.23,606.06 550.88,604.10 556.53,610.11 562.18,608.26 567.83,612.51 573.48,610.92 579.12,613.57 584.78,612.41 590.43,613.34 596.08,612.80 601.73,611.93 607.38,612.45 613.03,609.75 618.68,611.98 624.33,607.51 629.98,610.35 635.62,605.19 641.28,608.92 646.93,619.57 652.58,622.94 658.23,629.13 663.88,634.06 669.53,632.62 675.18,639.31 680.83,638.24 686.48,643.06 692.12,642.49 697.78,646.02 703.43,646.05 709.08,648.60 714.73,648.88 720.38,650.61 726.03,651.14 731.68,652.14 737.33,652.94 742.98,653.25 748.62,654.37 754.28,652.29 759.93,653.76 765.58,648.61 771.23,650.56 776.88,643.25 782.53,645.86 788.18,650.15 793.83,652.05 799.48,654.41 805.12,656.43 810.78,656.56 816.43,658.85 822.08,658.99 827.73,660.59 833.38,660.75 839.03,661.88 844.68,662.06 850.33,662.85 855.98,663.07 861.62,663.58 867.28,663.84 872.93,664.13 878.58,664.44 884.23,664.51 889.88,664.90 895.53,662.33 901.18,662.93 906.83,657.51 912.48,658.54 918.13,650.76 923.78,652.43 929.43,655.00 935.08,656.29 940.73,656.92 946.38,659.22 952.03,659.23 957.68,660.84 963.33,660.87 968.98,662.02 974.63,662.06 980.28,662.88 985.93,662.94 991.58,663.49 997.23,663.59 1002.88,663.90 1008.53,664.05 1014.18,664.12 1019.83,664.34 1025.48,661.07 1031.12,661.56 1036.78,653.90 1042.42,654.73 1048.08,645.11 1053.73,646.45 1059.38,650.06 1065.03,651.16 1070.67,653.24 1076.33,654.94 1081.98,651.60 1087.62,654.38 1093.28,651.09 1098.93,653.35 1104.58,650.15 1110.23,651.94 1115.88,648.89 1121.53,650.16 1127.18,647.32" stroke="#9c27b0" stroke-width="1.00" fill="none"/>"
<rect x="1130.00" y="573.50" width="70.00" height="96.50" fill="#131722"/>"
<line x1="1130.00" y1="573.50" x2="1130.00" y2="670.00" stroke="#1e222d" stroke-width="1.00"/>"
<line x1="1130.00" y1="670.00" x2="1134.00" y2="670.00" stroke="#1e222d" stroke-width="1.00"/>"
<text x="1136.00" y="670.00" fill="#b2b5be" font-family="sans-serif" font-size="11.0" text-anchor="start" dominant-baseline="central">0</text>
<line x1="1130.00" y1="650.70" x2="1134.00" y2="650.70" stroke="#1e222d" stroke-width="1.00"/>"
<text x="1136.00" y="650.70" fill="#b2b5be" font-family="sans-serif" font-size="11.0" text-anchor="start" dominant-baseline="central">20</text>
<line x1="1130.00" y1="631.40" x2="1134.00" y2="631.40" stroke="#1e222d" stroke-width="1.00"/>"
<text x="1136.00" y="631.40" fill="#b2b5be" font-family="sans-serif" font-size="11.0" text-anchor="start" dominant-baseline="central">40</text>
<line x1="1130.00" y1="612.10" x2="1134.00" y2="612.10" stroke="#1e222d" stroke-width="1.00"/>"
<text x="1136.00" y="612.10" fill="#b2b5be" font-family="sans-serif" font-size="11.0" text-anchor="start" dominant-baseline="central">60</text>
<line x1="1130.00" y1="592.80" x2="1134.00" y2="592.80" stroke="#1e222d" stroke-width="1.00"/>"
<text x="1136.00" y="592.80" fill="#b2b5be" font-family="sans-serif" font-size="11.0" text-anchor="start" dominant-baseline="central">80</text>
<rect x="0.00" y="670.00" width="1200.00" height="30.00" fill="#131722"/>"
<line x1="0.00" y1="670.00" x2="1130.00" y2="670.00" stroke="#1e222d" stroke-width="1.00"/>"
<line x1="64.98" y1="670.00" x2="64.98" y2="674.00" stroke="#1e222d" stroke-width="1.00"/>"
<text x="64.98" y="676.00" fill="#b2b5be" font-family="sans-serif" font-size="10.0" text-anchor="middle" dominant-baseline="hanging">Dec</text>
<line x1="127.13" y1="670.00" x2="127.13" y2="674.00" stroke="#1e222d" stroke-width="1.00"/>"
<text x="127.13" y="676.00" fill="#b2b5be" font-family="sans-serif" font-size="10.0" text-anchor="middle" dominant-baseline="hanging">23 Dec</text>
<line x1="189.28" y1="670.00" x2="189.28" y2="674.00" stroke="#1e222d" stroke-width="1.00"/>"
<text x="189.28" y="676.00" fill="#b2b5be" font-family="sans-serif" font-size="10.0" text-anchor="middle" dominant-baseline="hanging">4 Dec</text>
<line x1="251.43" y1="670.00" x2="251.43" y2="674.00" stroke="#1e222d" stroke-width="1.00"/>"
<text x="251.43" y="676.00" fill="#b2b5be" font-family="sans-serif" font-size="10.0" text-anchor="middle" dominant-baseline="hanging">2024</text>
<line x1="313.58" y1="670.00" x2="313.58" y2="674.00" stroke="#1e222d" stroke-width="1.00"/>"
<text x="313.58" y="676.00" fill="#b2b5be" font-family="sans-serif" font-size="10.0" text-anchor="middle" dominant-baseline="hanging">21 Jan</text>
<line x1="375.73" y1="670.00" x2="375.73" y2="674.00" stroke="#1e222d" stroke-width="1.00"/>"
<text x="375.73" y="676.00" fill="#b2b5be" font-family="sans-serif" font-size="10.0" text-anchor="middle" dominant-baseline="hanging">Feb</text>
<line x1="437.88" y1="670.00" x2="437.88" y2="674.00" stroke="#1e222d" stroke-width="1.00"/>"
<text x="437.88" y="676.00" fill="#b2b5be" font-family="sans-serif" font-size="10.0" text-anchor="middle" dominant-baseline="hanging">13 Feb</text>
<line x1="500.03" y1="670.00" x2="500.03" y2="674.00" stroke="#1e222d" stroke-width="1.00"/>"
<text x="500.03" y="676.00" fill="#b2b5be" font-family="sans-serif" font-size="10.0" text-anchor="middle" dominant-baseline="hanging">24 Feb</text>
<line x1="562.18" y1="670.00" x2="562.18" y2="674.00" stroke="#1e222d" stroke-width="1.00"/>"
<text x="562.18" y="676.00" fill="#b2b5be" font-family="sans-serif" font-size="10.0" text-anchor="middle" dominant-baseline="hanging">Mar</text>
<line x1="624.33" y1="670.00" x2="624.33" y2="674.00" stroke="#1e222d" stroke-width="1.00"/>"
<text x="624.33" y="676.00" fill="#b2b5be" font-family="sans-serif" font-size="10.0" text-anchor="middle" dominant-baseline="hanging">16 Mar</text>
<line x1="686.48" y1="670.00" x2="686.48" y2="674.00" stroke="#1e222d" stroke-width="1.00"/>"
<text x="686.48" y="676.00" fill="#b2b5be" font-family="sans-serif" font-size="10.0" text-anchor="middle" dominant-baseline="hanging">27 Mar</text>
<line x1="748.62" y1="670.00" x2="748.62" y2="674.00" stroke="#1e222d" stroke-width="1.00"/>"
<text x="748.62" y="676.00" fill="#b2b5be" font-family="sans-serif" font-size="10.0" text-anchor="middle" dominant-baseline="hanging">Apr</text>
<line x1="810.78" y1="670.00" x2="810.78" y2="674.00" stroke="#1e222d" stroke-width="1.00"/>"
<text x="810.78" y="676.00" fill="#b2b5be" font-family="sans-serif" font-size="10.0" text-anchor="middle" dominant-baseline="hanging">19 Apr</text>
<line x1="872.93" y1="670.00" x2="872.93" y2="674.00" stroke="#1e222d" stroke-width="1.00"/>"
<text x="872.93" y="676.00" fill="#b2b5be" font-family="sans-serif" font-size="10.0" text-anchor="middle" dominant-baseline="hanging">30 Apr</text>
<line x1="935.08" y1="670.00" x2="935.08" y2="674.00" stroke="#1e222d" stroke-width="1.00"/>"
<text x="935.08" y="676.00" fill="#b2b5be" font-family="sans-serif" font-size="10.0" text-anchor="middle" dominant-baseline="hanging">May</text>
<line x1="997.23" y1="670.00" x2="997.23" y2="674.00" stroke="#1e222d" stroke-width="1.00"/>"
<text x="997.23" y="676.00" fill="#b2b5be" font-family="sans-serif" font-size="10.0" text-anchor="middle" dominant-baseline="hanging">22 May</text>
<line x1="1059.38" y1="670.00" x2="1059.38" y2="674.00" stroke="#1e222d" stroke-width="1.00"/>"
<text x="1059.38" y="676.00" fill="#b2b5be" font-family="sans-serif" font-size="10.0" text-anchor="middle" dominant-baseline="hanging">Jun</text>
</svg>
