<svg xmlns="http://www.w3.org/2000/svg" width="256" height="50" viewBox="0 0 256 50">
  <defs>
    <linearGradient id="bg" x1="0%" y1="0%" x2="100%" y2="100%">
      <stop offset="0%" style="stop-color:#1a1a1a"/>
      <stop offset="100%" style="stop-color:#0d0d0d"/>
    </linearGradient>
  </defs>

  <!-- Background -->
  <rect width="256" height="50" rx="8" fill="url(#bg)" stroke="#d1d4dc" stroke-width="2"/>

  <!-- Crossbones with gap effect -->
  <g transform="translate(27, 25)">
    <!-- Back bone (diagonal /) - drawn first -->
    <g transform="rotate(45)" fill="#d1d4dc">
      <rect x="-16" y="-3" width="32" height="6" rx="3"/>
      <!-- Bone ends - double knobs -->
      <circle cx="-16" cy="-4.5" r="4.5"/>
      <circle cx="-16" cy="4.5" r="4.5"/>
      <circle cx="16" cy="-4.5" r="4.5"/>
      <circle cx="16" cy="4.5" r="4.5"/>
    </g>

    <!-- Gap/shadow around front bone -->
    <g transform="rotate(-45)" fill="#0d0d0d">
      <rect x="-17" y="-5" width="34" height="10" rx="4"/>
      <circle cx="-16" cy="-5.5" r="5.5"/>
      <circle cx="-16" cy="5.5" r="5.5"/>
      <circle cx="16" cy="-5.5" r="5.5"/>
      <circle cx="16" cy="5.5" r="5.5"/>
    </g>

    <!-- Front bone (diagonal \) - on top with gap -->
    <g transform="rotate(-45)" fill="#d1d4dc">
      <rect x="-16" y="-3" width="32" height="6" rx="3"/>
      <!-- Bone ends - double knobs -->
      <circle cx="-16" cy="-4.5" r="4.5"/>
      <circle cx="-16" cy="4.5" r="4.5"/>
      <circle cx="16" cy="-4.5" r="4.5"/>
      <circle cx="16" cy="4.5" r="4.5"/>
    </g>
  </g>

  <!-- ZENGELD custom font path (9px from top and bottom) -->
  <g transform="translate(60, -4) scale(0.70)">
    <path fill="#d1d4dc" d="M3.77 25.55L3.77 18.20L35.23 18.20L35.23 30.88L30.68 35.75L31.33 35.75L31.33 43.03L22.36 43.03L23.01 43.42L11.63 55.19L11.63 56.36L35.23 56.36L35.23 63.70L3.77 63.70L3.77 52.91L13.26 43.03L11.63 43.03L11.63 35.75L21.78 35.75L21.00 35.23L27.37 28.47L27.37 25.55L3.77 25.55ZM42.12 24.38L48.16 18.20L73.52 18.20L73.52 25.55L51.16 25.55L49.98 26.84L49.98 37.05L65 37.05L65 44.40L49.98 44.40L49.98 53.50L51.87 56.36L73.52 56.36L73.52 63.70L47.97 63.70L42.12 54.99L42.12 24.38ZM105.37 36.01L105.37 18.20L113.23 18.20L113.23 63.70L105.37 63.70L105.37 49.40L90.22 26.84L89.70 26.84L89.70 63.70L81.83 63.70L81.83 18.20L94.12 18.20L105.37 36.01ZM120.83 24.44L126.81 18.20L146.19 18.20L151.51 26.20L146.31 31.46L142.35 25.55L129.87 25.55L128.70 26.78L128.70 53.82L130.32 56.36L144.37 56.36L144.37 43.09L135.20 43.09L135.20 35.81L148.91 35.81L152.16 40.76L152.16 63.70L126.42 63.70L120.83 55.32L120.83 24.44ZM159.12 24.38L165.16 18.20L190.51 18.20L190.51 25.55L168.16 25.55L166.99 26.84L166.99 37.05L182 37.05L182 44.40L166.99 44.40L166.99 53.50L168.87 56.36L190.51 56.36L190.51 63.70L164.97 63.70L159.12 54.99L159.12 24.38ZM198.77 54.73L198.77 18.20L206.63 18.20L206.63 53.43L208.65 56.36L222.37 56.36L222.37 51.61L230.23 51.61L230.23 63.70L204.69 63.70L198.77 54.73ZM238.42 63.70L238.42 18.20L260.52 18.20L269.88 32.17L269.88 57.53L263.96 63.70L238.42 63.70ZM256.49 25.55L246.28 25.55L246.28 56.42L260.71 56.42L262.01 55.12L262.01 33.67L256.49 25.55Z"/>
  </g>
</svg>
